<svg width="498" height="472" fill="none" xmlns="http://www.w3.org/2000/svg"><path d="M405.85 137.41c-51.749-6.772-97.725-20.848-155.595-71.491C192.386 15.276 66.06 54.811 43.077 149.034c-22.983 94.223 17.594 170.925 65.21 178.471 47.616 7.546 69.417 19.043 103.95 72.591 27.682 42.963 142.44 46.818 169.462-3.569 49.348-92.102 56.376-60.501 76.313-126.399 19.937-65.898.978-125.773-52.162-132.718Z" fill="#EAF5F8"/><path d="M12.476 361.203h447.313v1.371H12.476v-1.371Z" fill="#252362"/><path d="M179.562 120.499c2.5 5.581 4.064 7.242.619 12.983-2.011 3.355-8.951 14.122-15.832 23.654l-7.527 1.822-2.257 1.86s3.8.194 6.757.414c-.559.742-1.109 1.459-1.65 2.151l-6.93.408-3.376 1.898s3.623.849 7.059 1.715a37.625 37.625 0 0 1-4.882 4.999c-7.289 5.677-21.562.033-21.562.033s-10.913-9.736-4.199-23.982l1.371 1.613 3.543 1.575s-1.522-3.489-2.892-6.79a39.563 39.563 0 0 1 1.612-2.274c13.44-17.359 47.652-27.664 50.146-22.079Z" fill="#fff"/><path d="M142.647 175.629c-6.339 0-12.532-2.403-12.902-2.559a.72.72 0 0 1-.21-.129c-.113-.097-11.214-10.241-4.355-24.783a.688.688 0 0 1 1.151-.15l1.269 1.505 1.784.795a647.684 647.684 0 0 1-2.193-5.177.7.7 0 0 1 .059-.639 40.681 40.681 0 0 1 1.656-2.328c11.859-15.337 38.91-24.863 47.926-23.794 1.795.215 2.929.839 3.381 1.85.285.634.538 1.22.812 1.768 2.005 4.301 3.005 6.451-.231 11.827-2.075 3.462-9.086 14.311-15.87 23.686a.68.68 0 0 1-.392.264l-7.371 1.79-.774.634a350.9 350.9 0 0 1 5.005.323.685.685 0 0 1 .619.742.687.687 0 0 1-.119.333c-.537.747-1.113 1.468-1.656 2.15a.683.683 0 0 1-.505.264l-6.768.397-1.699.957c1.382.328 3.403.818 5.349 1.312a.672.672 0 0 1 .484.457.685.685 0 0 1-.129.656 37.683 37.683 0 0 1-4.984 5.096c-2.612 2.065-5.999 2.753-9.337 2.753Zm-12.3-3.796c1.36.511 14.213 5.123 20.772 0a32.168 32.168 0 0 0 4.053-4.058 345.956 345.956 0 0 0-5.962-1.441.692.692 0 0 1-.466-.979.68.68 0 0 1 .284-.295l3.381-1.893a.668.668 0 0 1 .296-.086l6.612-.392c.231-.296.457-.591.688-.898-2.634-.177-5.44-.317-5.472-.322a.688.688 0 0 1-.404-1.215l2.253-1.866a.664.664 0 0 1 .279-.134l7.279-1.763c6.709-9.301 13.601-19.966 15.649-23.385 2.866-4.769 2.151-6.344.167-10.559a50.06 50.06 0 0 1-.817-1.79c-.237-.537-1.048-.892-2.29-1.037-8.876-1.075-35.508 8.816-46.679 23.266a34.994 34.994 0 0 0-1.387 1.93c1.312 3.156 2.731 6.403 2.747 6.451a.69.69 0 0 1-.508.954.69.69 0 0 1-.406-.05l-3.542-1.576a.68.68 0 0 1-.247-.188l-.662-.785c-5.268 12.548 3.328 21.122 4.382 22.111Z" fill="#252362"/><path d="M46.28 80.933c-4.264 6.725-6.575 8.57-3.189 16.595 1.968 4.688 8.908 19.837 16.004 33.358l9.349 3.763 2.564 2.811s-4.93-.457-8.773-.715c.58 1.075 1.156 2.086 1.726 3.086l8.827 1.779 4 3.065s-4.839.424-9.403.903a48.207 48.207 0 0 0 5.376 7.338c8.338 8.655 27.75 4.032 27.75 4.032s15.848-10.51 9.843-30.105l-2.086 1.865-4.838 1.371s2.607-4.209 4.978-8.198a38.507 38.507 0 0 0-1.666-3.226C92.657 93.803 50.521 74.208 46.279 80.933Z" fill="#fff"/><path d="M89.147 158.904c-5.914 0-12.693-1.129-16.902-5.499-1.462-1.522-3.296-4.027-5.44-7.451a.69.69 0 0 1 .175-.956.693.693 0 0 1 .335-.119c2.855-.296 5.828-.576 7.65-.742l-2.473-1.893-8.682-1.779a.672.672 0 0 1-.457-.333c-.537-.962-1.134-2.005-1.73-3.097a.687.687 0 0 1 .65-1.016c2.397.162 5.236.403 7.026.538l-1.269-1.387-9.198-3.683a.713.713 0 0 1-.355-.322c-6.988-13.321-14.004-28.567-16.03-33.411-3.13-7.44-1.457-10 1.876-15.1.424-.657.887-1.36 1.37-2.151.732-1.156 2.242-1.71 4.516-1.656 6.182.15 17.633 4.87 28.492 11.74 7.526 4.78 21.299 14.725 28.621 27.654a42.624 42.624 0 0 1 1.694 3.285.682.682 0 0 1-.033.64 552.693 552.693 0 0 1-4.058 6.709l2.999-.85 1.946-1.736a.707.707 0 0 1 .646-.151.7.7 0 0 1 .473.463c3.182 10.364.263 18.208-2.742 22.96a28.13 28.13 0 0 1-7.376 7.908.735.735 0 0 1-.22.097 54.585 54.585 0 0 1-11.504 1.338Zm-20.585-12.746a43.091 43.091 0 0 0 4.677 6.29c7.623 7.918 25.32 4.236 26.971 3.87a27.701 27.701 0 0 0 6.903-7.477c3.94-6.258 4.902-13.23 2.86-20.735l-1.248 1.14a.678.678 0 0 1-.274.145l-4.838 1.371a.694.694 0 0 1-.736-.247.692.692 0 0 1-.038-.775c.027-.043 2.494-4.032 4.784-7.875a46.23 46.23 0 0 0-1.483-2.855c-7.177-12.676-20.724-22.466-28.165-27.17-10.692-6.773-21.847-11.407-27.798-11.552-1.21 0-2.758.123-3.317 1.01-.49.775-.957 1.49-1.387 2.15-3.258 4.984-4.602 7.049-1.758 13.817 2.01 4.795 8.93 19.847 15.864 33.077l9.112 3.651a.673.673 0 0 1 .253.172l2.559 2.817a.672.672 0 0 1 .107.768.694.694 0 0 1-.677.382c-.043 0-3.957-.366-7.494-.629.323.586.645 1.156.952 1.699l8.536 1.747a.76.76 0 0 1 .28.124l4 3.069a.683.683 0 0 1 .017 1.077.69.69 0 0 1-.377.154c-.043 0-4.118.36-8.285.785Z" fill="#252362"/><path d="M111.639 247.552c-.892-.338-1.123-1.768-2.457-15.31-1.827-18.595-4.892-49.775-12.176-76.654-8.779-32.46-21.095-48.62-36.556-48.007l-.053-1.441c16.235-.639 29.03 15.875 38.012 49.071 7.311 27.046 10.386 58.264 12.219 76.918.715 7.252 1.328 13.515 1.774 14.284a.487.487 0 0 0-.247-.183l-.516 1.322Zm7.451 6.252-1.435-.177c.037-.28 3.51-28.272 10.59-56.828 9.569-38.561 20.842-59.737 33.508-62.941l.355 1.398c-29.062 7.349-42.884 117.436-43.018 118.548Z" fill="#252362"/><path d="M.294 141.395c.72 7.919 0 10.801 7.559 15.123 4.413 2.521 19.143 10.321 32.996 16.735l9.677-2.72 3.763.677s-4.188 2.634-7.397 4.768c1.104.484 2.179.95 3.225 1.398l8.113-3.94h5.042s-3.575 3.268-6.919 6.451a48.572 48.572 0 0 0 8.72 2.564c11.875 1.801 24.476-13.682 24.476-13.682s6.226-18.02-10.477-29.884l-.5 2.726-3.016 4.037s-.495-4.925-1.037-9.537a42.148 42.148 0 0 0-3.29-1.548c-26.3-11.166-71.655-1.086-70.935 6.832Z" fill="#268FC5"/><path d="M67.079 182.854c-.679 0-1.356-.05-2.027-.151-2.06-.312-5.01-1.177-8.768-2.58l-.409-.151.312-.301a588.14 588.14 0 0 1 6.408-5.962h-4.3l-8.172 3.968-.113-.049c-1.043-.441-2.15-.908-3.225-1.403l-.468-.209.414-.275a690.126 690.126 0 0 1 6.811-4.397l-2.994-.538-9.73 2.731-.092-.043c-13.65-6.316-28.492-14.149-33.018-16.746C.89 152.851.676 150.061.214 143.949c-.06-.785-.119-1.613-.205-2.532-.107-1.205.705-2.441 2.409-3.688 4.94-3.602 16.816-6.79 29.567-7.935 8.854-.796 25.745-1.269 39.34 4.505 1.122.476 2.225.996 3.307 1.559l.129.07v.14c.419 3.553.811 7.327.967 8.848l2.565-3.43.586-3.075.344.248c8.698 6.198 11.117 14.074 11.617 19.589a28.273 28.273 0 0 1-1.022 10.591l-.048.08c-.446.608-11.461 13.935-22.691 13.935Zm-10.215-3.086a46.44 46.44 0 0 0 8.268 2.397c11.29 1.715 23.493-12.692 24.192-13.541a28.046 28.046 0 0 0 .984-10.349c-.49-5.322-2.801-12.902-11.048-18.923l-.446 2.36-3.467 4.656-.07-.699c0-.049-.49-4.871-1.022-9.386-1.005-.538-2.064-1.016-3.145-1.479-13.488-5.725-30.271-5.252-39.077-4.462-12.649 1.135-24.422 4.279-29.26 7.833-1.522 1.107-2.28 2.215-2.188 3.193.091.979.145 1.758.204 2.543.462 6.091.65 8.601 7.22 12.364 4.531 2.592 19.277 10.381 32.884 16.666l9.676-2.688 4.494.817-.59.371c-.044 0-3.871 2.435-6.99 4.488l2.689 1.151 8.063-3.919h5.8l-.537.473c-.059.032-3.408 3.102-6.617 6.145l-.017-.011Z" fill="#252362"/><path d="M124.53 253.966c-11.241-32.18-23.057-54.297-30.986-67.15-9.989-16.214-19.676-27.277-26.584-30.352-8.988-4-19.955-7.134-20.063-7.166a160.972 160.972 0 0 0-17.563-3.925l.237-1.424a162.533 162.533 0 0 1 17.74 3.978c.108.032 11.177 3.193 20.256 7.236 13.768 6.128 38.895 42.679 58.345 98.34l-1.382.463Z" fill="#252362"/><path d="M137.367 227.796h-42.71a6.452 6.452 0 0 0-6.452 7.198l6.09 53.662a6.45 6.45 0 0 0 6.452 5.741h30.239a6.45 6.45 0 0 0 6.424-5.709l6.381-53.656a6.437 6.437 0 0 0-3.768-6.673 6.448 6.448 0 0 0-2.656-.563Z" fill="#fff"/><path d="M130.987 295.085h-30.24a7.16 7.16 0 0 1-7.123-6.354l-6.09-53.656a7.154 7.154 0 0 1 7.123-7.989h42.711a7.163 7.163 0 0 1 7.107 8.005l-6.382 53.656a7.16 7.16 0 0 1-7.106 6.338Zm-36.33-66.601a5.78 5.78 0 0 0-5.742 6.451l6.091 53.656a5.779 5.779 0 0 0 5.741 5.134h30.24a5.78 5.78 0 0 0 5.741-5.101l6.381-53.662a5.784 5.784 0 0 0-1.423-4.514 5.779 5.779 0 0 0-4.318-1.937l-42.711-.027Z" fill="#252362"/><path d="m89.001 242.139-.091-1.436c16.821-1.075 41.394-2.886 54.527-3.87l.107 1.435c-13.144.973-37.711 2.796-54.543 3.871Zm1.075 9.762v-1.44c5.048-.065 10.682-.301 16.751-.705a163.797 163.797 0 0 0 19.396-2.381c5.134-.903 9.193-1.613 16.225-1.398l-.043 1.441c-6.887-.21-10.881.489-15.934 1.376a164.866 164.866 0 0 1-19.547 2.403c-5.609.371-11.227.606-16.848.704Zm1.984 16.042-.344-1.403.537-.135a140.086 140.086 0 0 1 19.552-3.709c9.451-1.048 20.88-1.613 28.804-1.887l.049 1.441c-7.898.279-19.289.833-28.691 1.881a138.909 138.909 0 0 0-19.353 3.677l-.554.135Zm.752 7.494-.145-1.436c4.274-.424 8.532-1.376 13.042-2.381 3.177-.71 6.451-1.441 10.021-2.054 6.51-1.123 16.278-.58 23.406-.188l.538.032-.081 1.436h-.537c-7.064-.393-16.735-.925-23.09.166-3.521.608-6.789 1.339-9.95 2.043-4.543.989-8.844 1.946-13.204 2.382Zm1.441 6.435h-.79v-1.441c5.165.036 10.327-.228 15.461-.79 6.354-.71 8.381-1.699 9.859-2.419 2.414-1.183 3.516-1.721 16.397.397 1.134.183 2.3.344 3.472.473l-.161 1.436a68.218 68.218 0 0 1-3.543-.489c-12.429-2.043-13.402-1.565-15.53-.538-1.575.769-3.737 1.822-10.338 2.554a135.51 135.51 0 0 1-14.827.817Zm20.945-22.531a17.355 17.355 0 0 1-2.586-.22c-1.855-.258-4.656-.64-12.934-.36-3.376.113-6.35.145-8.838.086l.032-1.441c2.462.059 5.408.027 8.757-.086 8.403-.285 11.289.113 13.176.371 2.898.398 3.763.538 19.832-2.521a222.62 222.62 0 0 0 8.73-1.806l.323 1.403a219.993 219.993 0 0 1-8.784 1.822c-11.521 2.172-15.359 2.752-17.708 2.752ZM98.463 288.78a20.844 20.844 0 0 1-4.387-.42l.306-1.408c2.543.537 5.86.537 9.86-.108l3.725-.591c8.144-1.301 9.612-1.538 19.81-1.22 3.935.123 4.801-.119 4.994-.242v-.081c.301-1.075 1.124-1.613 5.204-1.769l.065 1.441c-2.473.108-3.764.344-3.882.715-.328 1.194-1.263 1.543-6.451 1.376-10.058-.311-11.504-.08-19.536 1.205l-3.725.591a39.72 39.72 0 0 1-5.983.511Z" fill="#252362"/><path d="M85.055 173.204c0-.038-1.419-4.107-7.472-9.263-5.607-4.768-16.434-11.472-36.228-16.299l.22-.887c20.03 4.887 31.003 11.703 36.68 16.557 6.204 5.312 7.612 9.435 7.666 9.607l-.866.285Zm124.01-92.653h196.047v186.661H209.065V80.552Z" fill="#fff"/><path d="M405.112 267.943H209.065a.752.752 0 0 1-.752-.753V80.551a.749.749 0 0 1 .752-.752h196.047a.753.753 0 0 1 .752.752v186.661a.75.75 0 0 1-.752.731Zm-195.3-1.506h194.536V81.298H209.812v185.139Z" fill="#252362"/><path d="M246.025 79.788a.755.755 0 0 0-.753.753v186.682a.752.752 0 0 0 1.5 0V80.551a.758.758 0 0 0-.459-.703.748.748 0 0 0-.288-.06Zm40.308.06a.751.751 0 0 0-.753.752V267.27a.754.754 0 0 0 1.259.491.754.754 0 0 0 .241-.491V80.6a.753.753 0 0 0-.747-.753Zm40.308.048a.751.751 0 0 0-.753.752V267.32a.752.752 0 0 0 1.505 0V80.649a.753.753 0 0 0-.752-.753Zm40.308.048a.751.751 0 0 0-.753.753v186.671a.754.754 0 0 0 1.506 0V80.697a.754.754 0 0 0-.753-.753Z" fill="#252362"/><path d="m106.413 367.471-9.354 24.767-11.907 31.513h-5l5.613-33.217 3.602-21.359 1.204-7.123 5.919 2.027 9.923 3.392Z" fill="#fff"/><path d="M85.152 424.504h-5a.771.771 0 0 1-.574-.269.753.753 0 0 1-.167-.608l10.45-61.698a.744.744 0 0 1 .984-.602l15.838 5.419a.76.76 0 0 1 .462.978l-21.288 56.29a.75.75 0 0 1-.705.49Zm-4.112-1.506h3.596l20.816-55.064-14.268-4.882-10.144 59.946Z" fill="#252362"/><path d="M166.027 370.81c-.387 7.311-.776 14.62-1.167 21.928-.24 4.437-.477 8.868-.709 13.294h-5.419l-.715-13.37-1.162-21.842 9.172-.01Z" fill="#fff"/><path d="M164.15 406.785h-5.419a.754.754 0 0 1-.753-.71l-1.876-35.228a.75.75 0 0 1 .742-.774h9.171a.756.756 0 0 1 .695.484.737.737 0 0 1 .047.29l-1.86 35.255a.743.743 0 0 1-.241.487.742.742 0 0 1-.506.196Zm-4.71-1.5h3.995l1.795-33.728h-7.585l1.795 33.728Z" fill="#252362"/><path d="M389.463 380.395v69.617h-4.585l-11.843-36.523-8.166-25.17 24.594-7.924Z" fill="#fff"/><path d="M389.463 450.765h-4.585a.744.744 0 0 1-.71-.538l-20.014-61.677a.76.76 0 0 1 .229-.804.732.732 0 0 1 .254-.142l24.6-7.924a.738.738 0 0 1 .349-.027.74.74 0 0 1 .63.742v69.617a.752.752 0 0 1-.753.753Zm-4.037-1.505h3.29v-67.833l-22.901 7.376 19.611 60.457Z" fill="#252362"/><path d="M440.114 243.042c-4.412 9.927-8.827 19.86-13.246 29.798l-17.59 27.793-11.289 17.859-4.387-.048-328.572-3.876-2.801-.038-7.257-23.423-12.575-40.614c1.5-4.15 3.807-6.914 6.35-8.677a79.018 79.018 0 0 1 11.584-2.295c8.236-1.108 19.832-1.914 36.078-2.108 68.811-.833 186.337 0 186.337 0s83.106 0 130.763 2.565c5.735-.006 11.464.392 17.143 1.193 4.048.613 7.333 1.349 9.462 1.871Z" fill="#fff"/><path d="m397.984 319.245-4.387-.054-331.367-3.908a.755.755 0 0 1-.71-.538L41.678 250.74a.747.747 0 0 1 0-.473c1.424-3.946 3.655-6.989 6.633-9.042a.958.958 0 0 1 .215-.102 80.216 80.216 0 0 1 11.693-2.317c9.096-1.226 21.267-1.941 36.169-2.118 68.004-.823 185.176 0 186.354 0 .827 0 83.669.026 130.799 2.564.361 0 .93.027 1.645.038 5.218.016 10.428.405 15.59 1.166 3.226.484 6.408 1.118 9.526 1.882a.747.747 0 0 1 .495.397.729.729 0 0 1 0 .635l-13.252 29.804a.86.86 0 0 1-.048.096l-28.884 45.652a.754.754 0 0 1-.629.323Zm-335.2-5.457 2.252.027 328.561 3.876 3.962.043 28.632-45.249 12.859-28.927c-2.818-.66-5.66-1.209-8.521-1.645a109.805 109.805 0 0 0-15.359-1.151c-.736 0-1.317 0-1.709-.037-47.093-2.532-129.892-2.564-130.725-2.564-1.177 0-118.338-.823-186.327 0-14.848.182-26.954.887-35.991 2.102a79.088 79.088 0 0 0-11.349 2.241c-2.607 1.833-4.59 4.527-5.913 8.01l19.627 63.274Z" fill="#252362"/><path d="M424.067 254.084s21.256-25.009 21.256 0c0 25.008-10.837 129.649-10.837 129.649l-22.928 17.09 12.509-146.739Z" fill="#fff"/><path d="M411.558 401.576a.77.77 0 0 1-.366-.097.743.743 0 0 1-.381-.721l12.504-146.733a.765.765 0 0 1 .177-.425c.468-.538 11.564-13.488 18.133-11.074 2.994 1.075 4.451 4.881 4.451 11.558 0 24.766-10.751 128.676-10.843 129.724a.749.749 0 0 1-.296.538l-22.928 17.079a.78.78 0 0 1-.451.151Zm13.219-147.186-12.364 144.831 21.326-15.896c.666-6.484 10.8-105.243 10.8-129.241 0-5.801-1.204-9.311-3.473-10.15-4.527-1.677-13.128 6.806-16.289 10.456Z" fill="#252362"/><path d="M63.563 309.53s-3.478 25.847 0 34.18c0 0 312.751 21.261 333.195 17.928v-35.851L63.563 309.53Z" fill="#fff"/><path d="M387.818 362.741c-54.678 0-312.488-17.477-324.304-18.278a.766.766 0 0 1-.645-.463c-3.516-8.429-.193-33.507-.048-34.572a.751.751 0 0 1 .78-.65l333.221 16.262a.743.743 0 0 1 .715.747v35.851a.753.753 0 0 1-.629.742c-1.548.248-4.655.361-9.09.361ZM64.09 342.995c13.767.93 307.208 20.74 331.921 17.988v-34.481L64.218 310.315c-.5 4.054-2.919 24.987-.129 32.68Z" fill="#252362"/><path d="M62.02 314.326c.184-1.77.753-3.478 1.666-5.005 3.688-6.048 12.214-7.043 17.51-7.526 21.412-1.871 55.645-.753 59.403-.624l261.374 11.671.209 23.116L62.02 314.326Z" fill="#fff"/><path d="M402.198 336.754h-.048L61.972 315.073a.752.752 0 0 1-.699-.833 12.933 12.933 0 0 1 1.774-5.312c4.042-6.634 13.525-7.461 18.079-7.859 21.277-1.86 55.645-.758 59.494-.629l261.385 11.676a.746.746 0 0 1 .715.742l.21 23.116a.735.735 0 0 1-.232.538.752.752 0 0 1-.5.242ZM62.88 313.638l338.539 21.573-.194-21.616-260.664-11.655c-3.827-.129-38.115-1.205-59.3.623-4.302.377-13.285 1.161-16.935 7.15a11.139 11.139 0 0 0-1.446 3.925Z" fill="#252362"/><path d="m202.63 304.063-74.187-2.57a6.716 6.716 0 0 1-6.246-8.461c1.075-4.021 2.338-9.279 3.36-15.16 2.15-12.418 3.279-27.637-.495-40.007a6.712 6.712 0 0 1 3.977-8.226 6.705 6.705 0 0 1 3.291-.402 227.926 227.926 0 0 0 63.398-.742 6.705 6.705 0 0 1 5.575 1.726 6.716 6.716 0 0 1 2.117 5.44c-1.005 12.509-1.548 36.706 5.839 59.699a6.716 6.716 0 0 1-1.067 6.063 6.71 6.71 0 0 1-5.562 2.64Z" fill="#F07258"/><path d="M202.862 304.783h-.258l-74.187-2.569a7.438 7.438 0 0 1-5.72-3.009 7.436 7.436 0 0 1-1.199-6.351 171.53 171.53 0 0 0 3.35-15.1c2.763-15.881 2.596-29.6-.479-39.674a7.466 7.466 0 0 1 1.446-7.037 7.342 7.342 0 0 1 6.618-2.537 226.66 226.66 0 0 0 59.102-.156 243.61 243.61 0 0 0 4.091-.581 7.422 7.422 0 0 1 6.167 1.906 7.424 7.424 0 0 1 2.348 6.013c-.994 12.364-1.559 36.502 5.806 59.43a7.278 7.278 0 0 1-1.145 6.693 7.433 7.433 0 0 1-5.94 2.972Zm-.204-1.435a5.988 5.988 0 0 0 4.972-2.368 5.988 5.988 0 0 0 .941-5.427c-7.429-23.159-6.86-47.501-5.86-59.978a5.997 5.997 0 0 0-1.89-4.857 6.006 6.006 0 0 0-4.98-1.541c-1.473.221-2.822.414-4.118.586a227.79 227.79 0 0 1-59.478.156 5.906 5.906 0 0 0-5.338 2.043 6.028 6.028 0 0 0-1.167 5.693c3.182 10.435 3.36 24.009.538 40.319a174.909 174.909 0 0 1-3.393 15.235 5.999 5.999 0 0 0 2.994 6.872 5.992 5.992 0 0 0 2.587.687l74.186 2.569.006.011Z" fill="#252362"/><path d="m413.589 248.67-10.02 53.431a12.594 12.594 0 0 1-12.94 10.257l-60.053-2.688a12.595 12.595 0 0 1-11.29-16.88l19.633-54.06a12.592 12.592 0 0 1 14.789-7.934l.172.043c14.015 3.322 33.384 3.408 46.872 2.924a12.598 12.598 0 0 1 12.62 9.315 12.59 12.59 0 0 1 .217 5.592Z" fill="#F07258"/><path d="M391.184 313.1h-.586l-60.054-2.688a13.3 13.3 0 0 1-12.622-11.697 13.29 13.29 0 0 1 .704-6.14l19.633-54.06a13.286 13.286 0 0 1 15.616-8.391l.156.032c13.886 3.295 33.056 3.403 46.7 2.914a13.374 13.374 0 0 1 10.107 4.107 13.192 13.192 0 0 1 3.151 5.402c.601 2.028.706 4.17.306 6.247l-10.021 53.431a13.384 13.384 0 0 1-13.09 10.843Zm-40.427-81.928a11.86 11.86 0 0 0-11.154 7.822l-19.655 54.049a11.88 11.88 0 0 0 10.639 15.917l60.054 2.688a11.93 11.93 0 0 0 12.203-9.676l10.021-53.425a11.762 11.762 0 0 0-3.086-10.397 11.937 11.937 0 0 0-9.021-3.667c-13.724.495-33.034.382-47.06-2.946a.435.435 0 0 1-.102 0h-.065a11.905 11.905 0 0 0-2.774-.376v.011Z" fill="#252362"/><path d="M410.316 237.65c-1.839 19.353-10.655 26.648-13.558 28.734-1.693 1.22-6.688 3.177-16.665 7.085-16.079 6.301-18.816 6.5-19.595 5.419-.78-1.081 1.011-3.914 4.586-9.585 4.945-7.854 8.515-11.607 7.085-14.176a3.692 3.692 0 0 0-1.952-1.581c-4.381-1.661-10.461 4.661-15.971 9.919-6.36 6.069-22.041 20.374-24.192 18.761-1.344-1.032 2.957-8.413 8.338-18.761a491.992 491.992 0 0 0 15.483-32.626c14.015 3.322 33.384 3.408 46.872 2.924a87.553 87.553 0 0 1 9.569 3.887Z" fill="#F07258"/><path d="M330.479 283.065a1.297 1.297 0 0 1-.849-.274c-1.516-1.156.215-4.634 5.435-14.515.849-1.613 1.758-3.333 2.688-5.139a499.655 499.655 0 0 0 15.461-32.583l.236-.538.586.14c13.87 3.29 33.04 3.397 46.684 2.908h.129l.124.043a88.857 88.857 0 0 1 9.644 3.919l.452.215-.049.495c-1.715 18.014-9.413 26.057-13.853 29.25-1.769 1.274-6.795 3.225-16.811 7.166-17.009 6.661-19.353 6.682-20.428 5.177-1.075-1.505.586-4.08 4.559-10.386 1.231-1.957 2.376-3.651 3.381-5.145 2.833-4.209 4.548-6.752 3.688-8.3a2.927 2.927 0 0 0-1.58-1.264c-3.634-1.371-9.139 3.914-13.978 8.602l-1.236 1.188c-3.543 3.381-9.01 8.386-13.719 12.294-6.58 5.376-9.268 6.747-10.564 6.747Zm.049-1.425c.408 0 2.37-.457 9.983-6.805 5.779-4.839 11.59-10.317 13.235-11.886.408-.393.822-.785 1.236-1.188 5.408-5.204 11.01-10.586 15.488-8.887.977.34 1.8 1.016 2.323 1.909 1.284 2.317-.506 4.972-3.764 9.794-.999 1.49-2.15 3.172-3.354 5.108-2.623 4.166-5.102 8.101-4.613 8.789.941 1.306 13.881-3.763 18.751-5.671 9.924-3.887 14.897-5.833 16.52-6.989 4.199-3.021 11.462-10.623 13.209-27.723a88.007 88.007 0 0 0-8.903-3.597c-13.531.479-32.416.371-46.345-2.811a499.367 499.367 0 0 1-15.273 32.126c-.94 1.811-1.849 3.532-2.687 5.144-2.984 5.64-6.07 11.472-5.806 12.687Z" fill="#252362"/><path d="M440.114 243.042a43.762 43.762 0 0 0-7.918 10.418 44.372 44.372 0 0 0-5.328 19.38l-15.31 127.983-362.257-22.928s-4.167-70.865-8.333-109.216c-.86-7.892-.167-13.81 1.43-18.186 1.5-4.151 3.806-6.914 6.349-8.677.317-.215.64-.419.962-.607a14.649 14.649 0 0 1 10.623-1.688 9.62 9.62 0 0 1 3.225 2.424c6.451 7.575-.967 42.157 1.479 72.622.806 10.005 3.456 29.143 3.456 29.143l320.982 18.342s1.763-18.455 4.134-43.609c1.285-13.584 2.741-29.126 4.204-44.764 1.661-17.741 6.246-29.03 15.708-33.702 5.978-2.946 12.682-2.15 18.068-.5a48.708 48.708 0 0 1 8.526 3.565Z" fill="#fff"/><path d="M411.558 401.576h-.048L49.258 378.642a.75.75 0 0 1-.704-.704c-.043-.71-4.215-71.284-8.333-109.178-.806-7.397-.312-13.628 1.468-18.525 1.424-3.941 3.655-6.989 6.633-9.037.34-.226.672-.441 1.006-.635a15.471 15.471 0 0 1 11.187-1.768.809.809 0 0 1 .107.032 10.472 10.472 0 0 1 3.5 2.629c3.8 4.478 3.064 17.176 2.124 33.26-.72 12.402-1.538 26.46-.468 39.782.71 8.87 2.903 25.142 3.36 28.492l319.648 18.277c.344-3.628 1.967-20.637 4.064-42.888a43821.02 43821.02 0 0 0 4.204-44.765c1.763-18.858 6.886-29.755 16.127-34.308 5.172-2.543 11.435-2.726 18.622-.538a48.603 48.603 0 0 1 8.666 3.613.743.743 0 0 1 .263.232.743.743 0 0 1 .097.675.756.756 0 0 1-.188.297 43.15 43.15 0 0 0-7.8 10.235 43.909 43.909 0 0 0-5.236 19.052c.003.02.003.04 0 .059l-15.3 127.978a.752.752 0 0 1-.747.667ZM50.016 377.185l360.881 22.842 15.219-127.246a45.426 45.426 0 0 1 5.419-19.681 44.427 44.427 0 0 1 7.322-9.886 46.446 46.446 0 0 0-7.494-3.038c-6.812-2.069-12.709-1.919-17.52.452-8.725 4.301-13.585 14.816-15.295 33.099-1.462 15.644-2.919 31.18-4.203 44.765a36528.85 36528.85 0 0 1-4.135 43.614.748.748 0 0 1-.259.497.746.746 0 0 1-.531.18l-320.981-18.32a.755.755 0 0 1-.704-.646c0-.193-2.661-19.277-3.457-29.19-1.075-13.44-.258-27.552.468-40.002.881-15.117 1.645-28.18-1.769-32.196a8.893 8.893 0 0 0-2.892-2.193 13.947 13.947 0 0 0-10 1.612c-.3.172-.607.371-.913.581-2.688 1.871-4.752 4.666-6.07 8.306-1.704 4.682-2.15 10.687-1.386 17.847 3.908 35.97 7.859 101.303 8.3 108.603Z" fill="#252362"/><path d="M191.632 229.054c-.57 9.924-1.672 25.541-3.306 33.163-2.5 11.671-20.353 14.424-38.314 15.553-17.961 1.129 15.805-6.801 11.639-16.805-4.166-10.005-26.342 18.815-36.099 16.907 2.15-12.418 3.279-27.637-.495-40.007a6.717 6.717 0 0 1 1.283-6.299 6.704 6.704 0 0 1 5.991-2.329 227.877 227.877 0 0 0 59.301-.183Z" fill="#F07258"/><path d="M126.514 278.694a5.538 5.538 0 0 1-1.075-.102l-.694-.134.124-.694c2.763-15.88 2.596-29.599-.479-39.673a7.466 7.466 0 0 1 1.447-7.037 7.343 7.343 0 0 1 6.617-2.538 226.617 226.617 0 0 0 59.102-.156l.86-.113-.048.866c-.634 11.069-1.726 25.831-3.317 33.266-2.618 12.219-21.17 15.004-38.969 16.127-4.839.301-5.785-.032-6.032-.897-.317-1.124 1.183-1.93 4.806-3.876 5.3-2.85 14.176-7.618 12.155-12.472a2.426 2.426 0 0 0-1.613-1.613c-3.016-.785-9.139 4.037-15.026 8.698-6.456 5.085-13.117 10.348-17.858 10.348Zm-.129-1.435c4.236.134 11.042-5.247 17.079-10.021 6.747-5.322 12.569-9.923 16.278-8.961a3.815 3.815 0 0 1 2.57 2.43c2.521 6.053-6.699 11.004-12.8 14.278-1.409.758-2.957 1.613-3.704 2.15 1.386.096 2.777.081 4.161-.043 17.267-1.075 35.244-3.709 37.658-14.987 1.612-7.5 2.687-23.025 3.225-32.191a227.767 227.767 0 0 1-58.597.043 5.909 5.909 0 0 0-5.338 2.043 6.031 6.031 0 0 0-1.166 5.693c3.123 10.241 3.354 23.557.634 39.55v.016Z" fill="#252362"/><path d="M228.923 205.497a19.755 19.755 0 0 0-2.333 1.613c-4.838 3.822-7.327 9.483-10.047 23.772a231.55 231.55 0 0 0-2.871 19.707l-22.579 15.284 7.322 19.498c6.521-2.123 25.068-9.139 34.169-26.981 1.812-3.554 3.258-10.032 6.155-22.993 0 0 4.301-19.283-.822-24.895-.253-.28-.538-.575-.538-.575a18.665 18.665 0 0 0-8.456-4.43Z" fill="#fff"/><path d="M198.389 286.156a.813.813 0 0 1-.758-.537l-7.322-19.493a.813.813 0 0 1 .307-.957l22.288-15.053c.672-6.504 1.613-13.031 2.844-19.401 2.731-14.337 5.241-20.235 10.343-24.261a21.339 21.339 0 0 1 2.424-1.651.842.842 0 0 1 .602-.086 19.257 19.257 0 0 1 8.779 4.607s.328.323.591.613c5.376 5.855 1.199 24.821 1.022 25.622-2.908 13.009-4.371 19.535-6.231 23.186-8.563 16.794-25.379 24.363-34.636 27.379a.866.866 0 0 1-.253.032Zm-6.338-19.993 6.822 18.165c9.139-3.096 24.879-10.493 32.959-26.341 1.769-3.468 3.226-9.93 6.091-22.805.043-.188 4.161-18.933-.629-24.191-.236-.258-.538-.538-.538-.538a17.39 17.39 0 0 0-7.719-4.112c-.678.408-1.33.859-1.952 1.349-4.741 3.763-7.112 9.403-9.757 23.288a231.713 231.713 0 0 0-2.86 19.638.817.817 0 0 1-.355.592l-22.062 14.955Z" fill="#252362"/><path d="M238.498 231.596c-10.128 0-22.519-5.166-23.062-5.375l.575-1.361c.134.054 13.526 5.651 23.503 5.258l.054 1.478c-.355-.005-.71 0-1.07 0Zm-4.827 24.24c-3.134 0-17.042-7.429-19.891-8.956l.704-1.301c8.333 4.505 17.778 9.005 19.16 8.784l.247 1.457c-.073.01-.146.016-.22.016Zm-15.488 20.025c-5.467-.494-14.762-14.283-15.805-15.859l1.236-.817c2.721 4.107 10.671 14.838 14.703 15.203l-.134 1.473Z" fill="#F07258"/><path d="M195.605 264.524s-10.671 6.988-11.908 8.601c-1.236 1.613-1.64 13.547 0 13.547s3.699-7.8 3.699-7.8-1.231 10.262-.414 11.493c.817 1.231 2.467.409 3.284-1.231.817-1.639 1.237-9.445 1.237-9.445s-1.645 9.037 0 11.085 3.284.414 3.284-.409c0-.822.818-10.676.818-10.676s0 10.268 1.231 10.676c1.231.409 2.467 0 2.467-2.053 0-2.054 1.231-11.494 1.231-11.494l2.054-4.107s.408 7.8 2.048 9.031c1.64 1.231 2.521.334 3.521-3.118 1-3.451 1.409-8.375.178-10.837-1.231-2.462-7.392-4.908-12.73-3.263Z" fill="#fff"/><path d="M193.18 292.596a3.217 3.217 0 0 1-1.705-.665 3.213 3.213 0 0 1-1.069-1.485 3.336 3.336 0 0 1-2.258 1.355 2.025 2.025 0 0 1-1.839-.952c-.456-.688-.483-2.957-.333-5.521-.688 1.306-1.457 2.188-2.279 2.188a1.335 1.335 0 0 1-1.199-.871c-1.15-2.301-.758-12.23.538-13.977 1.295-1.747 11.004-8.064 12.111-8.816a1.2 1.2 0 0 1 .205-.097c5.429-1.667 12.181.677 13.692 3.698 1.322 2.651.935 7.758-.129 11.429-.634 2.194-1.301 3.737-2.484 4.134-1.043.35-1.983-.36-2.295-.591-1.226-.919-1.839-4.15-2.151-6.73l-.698 1.397c-.151 1.156-1.21 9.408-1.21 11.252 0 1.5-.575 2.231-1.075 2.58a2.68 2.68 0 0 1-2.462.242c-.221-.07-.608-.199-.963-1.306 0 .274-.026.457-.026.538a2.438 2.438 0 0 1-1.651 2.08 2.376 2.376 0 0 1-.72.118Zm-1.613-5.376c0 1.43.172 2.575.538 3.049.301.37.752.795 1.22.666a.976.976 0 0 0 .624-.586c0-.812.736-9.714.822-10.752a.817.817 0 0 1 .844-.741.808.808 0 0 1 .774.806c0 4.134.312 9.005.823 9.951.14.049.288.069.437.057.148-.011.292-.052.423-.122a1.577 1.577 0 0 0 .392-1.263c0-2.081 1.188-11.214 1.237-11.601a.753.753 0 0 1 .08-.258l2.054-4.102a.802.802 0 0 1 1.338-.169.813.813 0 0 1 .194.486c.188 3.57.903 7.806 1.731 8.429.366.269.656.398.806.35.232-.075.732-.575 1.447-3.048.951-3.29 1.354-8 .231-10.252-.957-1.914-6.516-4.424-11.655-2.903-4.091 2.688-10.779 7.263-11.607 8.365-.935 1.247-1.241 10.123-.505 12.079.72-.801 1.93-3.843 2.769-7.026a.817.817 0 0 1 .959-.653.82.82 0 0 1 .653.96c-.537 4.639-.919 10.155-.537 10.972a.383.383 0 0 0 .381.204c.414 0 1.076-.505 1.49-1.371.205-.518.346-1.06.419-1.613.027-2.548.275-5.09.742-7.596a.809.809 0 0 1 .895-.696.809.809 0 0 1 .718.879c-.027.634-.253 4.72-.721 7.521l-.016-.022Z" fill="#252362"/><path d="M191.658 414.289c-1.075 3.135-3.617 4.839-4.375 5.376-4.72 3.392-6.871 10.214-9.279 15.676-1.828 4.193-3.812 7.623-7.198 8.204-5.231.887-10.752-5.564-11.768-6.731-2.097-2.446-2.312-3.994-2.355-4.37-.209-1.844.538-3.419 1.667-5.027.763-1.075 1.72-2.182 2.688-3.381a86.018 86.018 0 0 0 8.063-11.768v-18.154c12.704-8.032 16.838-8.397 18.16-7.064 1.941 1.973-2.855 6.989-.333 13.117 1.5 3.661 4.376 4.736 5.042 9.413a10.382 10.382 0 0 1-.312 4.709Z" fill="#fff"/><path d="M169.784 444.271c-4.489 0-8.886-4.301-11.214-7.032-1.978-2.301-2.414-3.935-2.5-4.699-.252-2.257.817-4.101 1.774-5.456.592-.828 1.28-1.656 2.011-2.537l.72-.871a86.216 86.216 0 0 0 7.935-11.548v-18.014a.62.62 0 0 1 .285-.538c14.241-8.999 17.622-8.295 18.923-6.988 1.075 1.112.602 2.784.027 4.72-.699 2.365-1.575 5.316-.231 8.601a14.041 14.041 0 0 0 2.15 3.424c1.231 1.565 2.5 3.183 2.919 6.134a11.017 11.017 0 0 1-.36 4.989c-1.075 3.183-3.554 4.941-4.489 5.602l-.107.08c-3.79 2.726-5.866 7.731-7.871 12.574-.414.995-.801 1.93-1.204 2.85-1.656 3.763-3.763 7.891-7.655 8.558a6.724 6.724 0 0 1-1.113.151Zm-.043-49.797v17.821a.622.622 0 0 1-.086.306 87.592 87.592 0 0 1-8.128 11.854l-.704.855c-.715.86-1.387 1.677-1.952 2.467-1.252 1.769-1.72 3.145-1.554 4.602.054.538.382 1.909 2.21 4.037 1.892 2.215 6.779 7.279 11.198 6.527 2.973-.511 4.838-3.505 6.736-7.838.403-.914.785-1.844 1.193-2.828 1.979-4.774 4.215-10.176 8.29-13.106l.118-.086c.844-.597 3.086-2.188 4.032-4.989a9.786 9.786 0 0 0 .312-4.43c-.377-2.623-1.489-4.042-2.688-5.548a14.98 14.98 0 0 1-2.333-3.714c-1.516-3.688-.538-6.989.188-9.419.537-1.806.833-2.935.279-3.505-.876-.876-4.252-1.123-17.111 6.973v.021Z" fill="#252362"/><path d="M250.777 422.504c-1.118 3.763-3.828 4.967-6.521 7.682-3.505 3.532-3.865 6.451-4.677 9.139a9.452 9.452 0 0 1-3.532 5.241c-3.134 2.409-6.618 2.812-10.676 3.285-5.548.645-7.812-.683-8.602-1.237a5.27 5.27 0 0 1-2.048-2.048c-.908-1.914.086-4.236 2.204-7.526.903-1.403 2.016-2.983 3.269-4.784a853.82 853.82 0 0 0 8.063-11.774v-18.143c12.704-8.032 16.838-8.397 18.16-7.064 1.941 1.973-2.86 6.989-.339 13.123 1.506 3.655 4.376 4.736 5.048 9.413a11.245 11.245 0 0 1-.349 4.693Z" fill="#fff"/><path d="M222.564 448.625c-2.618 0-4.682-.505-6.16-1.511a5.85 5.85 0 0 1-2.264-2.295c-1.075-2.22.081-4.752 2.242-8.112.812-1.258 1.769-2.629 2.876-4.215l.409-.591a909.149 909.149 0 0 0 7.961-11.607v-17.955a.615.615 0 0 1 .291-.538c14.235-8.999 17.616-8.289 18.923-6.988 1.075 1.113.602 2.785 0 4.714-.705 2.371-1.581 5.317-.232 8.602a13.793 13.793 0 0 0 2.151 3.424c1.225 1.565 2.494 3.183 2.919 6.134.231 1.664.11 3.358-.355 4.973-.86 2.881-2.618 4.376-4.483 5.962-.715.607-1.457 1.236-2.194 1.978-2.865 2.892-3.526 5.306-4.171 7.644-.119.42-.232.828-.355 1.237a10.024 10.024 0 0 1-3.763 5.542c-3.263 2.511-6.833 2.925-10.962 3.409a25.56 25.56 0 0 1-2.833.193Zm6.295-45.963v17.821a.638.638 0 0 1-.102.344 1301.976 1301.976 0 0 1-8.064 11.778l-.408.591c-1.102 1.576-2.054 2.936-2.849 4.177-2.258 3.505-2.866 5.441-2.151 6.919a4.8 4.8 0 0 0 1.823 1.796c2.182 1.478 5.677 1.435 8.225 1.139 3.967-.462 7.375-.86 10.37-3.161a8.804 8.804 0 0 0 3.317-4.929c.123-.398.231-.796.344-1.204.656-2.377 1.398-5.065 4.489-8.183.774-.779 1.532-1.424 2.268-2.048 1.796-1.526 3.344-2.849 4.097-5.376.417-1.443.525-2.958.317-4.445-.377-2.629-1.489-4.048-2.688-5.548a15.241 15.241 0 0 1-2.339-3.72c-1.51-3.683-.537-6.989.189-9.419.537-1.801.838-2.935.279-3.5-.876-.881-4.258-1.123-17.117 6.968Zm-50.834 32.685c-1.827 4.193-3.811 7.623-7.198 8.203-5.231.887-10.752-5.564-11.768-6.73-2.096-2.446-2.311-3.995-2.354-4.371-.21-1.844.537-3.419 1.666-5.026 2.366 2.677 7.951 6.988 19.654 7.924Z" fill="#252362"/><path d="M169.779 444.034c-4.398 0-8.747-4.268-11.048-6.956-1.941-2.258-2.365-3.844-2.446-4.586-.247-2.15.737-3.897 1.737-5.306l.29-.408.333.376c2.242 2.51 7.741 6.859 19.391 7.795l.564.043-.225.537c-2.027 4.64-4.081 7.849-7.5 8.435-.363.055-.73.079-1.096.07Zm-11.386-15.972c-1.076 1.613-1.468 2.946-1.307 4.344.054.538.387 1.978 2.258 4.15 1.871 2.172 6.865 7.365 11.397 6.596 2.946-.505 4.838-3.327 6.666-7.451-10.999-.999-16.536-5.047-19.014-7.639Zm81.186 11.252a9.465 9.465 0 0 1-3.532 5.242c-3.134 2.408-6.618 2.811-10.677 3.284-5.548.645-7.811-.683-8.601-1.236a5.284 5.284 0 0 1-2.048-2.048c-.909-1.914.086-4.237 2.204-7.527 4.333.963 11.977 2.194 22.654 2.285Z" fill="#252362"/><path d="M222.559 448.415c-2.577 0-4.589-.492-6.037-1.478a5.646 5.646 0 0 1-2.188-2.209c-1.011-2.151.102-4.607 2.231-7.903l.15-.236.274.059c4.489.984 12.053 2.15 22.579 2.263h.538l-.156.538a9.801 9.801 0 0 1-3.672 5.44c-3.225 2.473-6.752 2.887-10.848 3.36a24.17 24.17 0 0 1-2.871.166Zm-5.467-10.923c-1.882 2.946-2.86 5.139-2.032 6.892a4.934 4.934 0 0 0 1.897 1.876c1.796 1.225 4.607 1.613 8.37 1.177 4-.462 7.435-.865 10.473-3.225a8.814 8.814 0 0 0 3.225-4.522c-10.112-.107-17.455-1.236-21.933-2.198Z" fill="#252362"/><path d="M284.284 277.662a85.491 85.491 0 0 0-.79-3.559 80.735 80.735 0 0 0-.677-2.602h-49.544l-2.28 4.065-2.279 4.069-2.279 4.064-2.28 4.064a1039.875 1039.875 0 0 0-16.482 5.161c-6.5 2.097-13.666 4.473-20.428 6.887-6.763 2.413-13.16 4.838-18.122 7.058-4.962 2.22-8.494 4.193-9.553 5.688-1.307 1.849-1.532 8.601-1.14 17.74.462 10.634 1.683 21.224 2.602 31.831.892 10.316.908 12.536 2.15 26.379.495 5.532.93 10.09 1.231 13.138a31.865 31.865 0 0 0 29.799-.822c.251-6.125.505-12.25.763-18.375l.758-18.369c.258-6.121.513-12.246.763-18.375.251-6.128.506-12.251.764-18.369l12.73-3.699 12.735-3.693 12.284-3.569-10.133 13.509a11.748 11.748 0 0 0-2.35 7.462l2.618 77.03a28.24 28.24 0 0 0 12.338 4.092 28.723 28.723 0 0 0 17.246-4.108c1.268-21.732 2.539-43.467 3.811-65.203a10.546 10.546 0 0 1 4.161-7.613c5.634-9.031 9.79-11.445 15.02-19.557a65.551 65.551 0 0 0 5.462-10.488c4.102-8.327 4.301-14.542 3.978-18.251-.231-2.516-1.113-6.876-2.876-15.585Z" fill="#77CBD8"/><path d="M239.847 419.407c-.795 0-1.612-.032-2.446-.107a29.065 29.065 0 0 1-12.676-4.226.794.794 0 0 1-.281-.283.795.795 0 0 1-.111-.383l-2.613-77.036a12.584 12.584 0 0 1 2.537-7.983l8.656-11.542-34.852 10.117-3.021 72.897a.83.83 0 0 1-.42.688 32.684 32.684 0 0 1-30.572.838.814.814 0 0 1-.457-.656c-.43-4.365-.844-8.789-1.231-13.143a935.846 935.846 0 0 1-1.306-15.865c-.237-3.096-.457-6.015-.85-10.52-.258-2.978-.537-6.01-.822-8.94-.71-7.526-1.441-15.262-1.774-22.923-.608-13.88.446-17.068 1.284-18.278 1.076-1.532 4.301-3.483 9.892-5.967 4.537-2.021 10.655-4.403 18.181-7.085 5.983-2.151 12.87-4.446 20.461-6.892a1041.105 1041.105 0 0 1 16.181-5.064l8.956-15.977a.821.821 0 0 1 .715-.42h49.544a.84.84 0 0 1 .499.168.836.836 0 0 1 .297.435c.236.865.467 1.747.682 2.628.43 1.764.705 3.134.796 3.586l-.806.167.811-.145c1.764 8.719 2.645 13.095 2.882 15.67.537 5.828-.823 12.107-4.043 18.665a66.82 66.82 0 0 1-5.526 10.596 73.473 73.473 0 0 1-7.08 9.139 73.815 73.815 0 0 0-7.93 10.418.837.837 0 0 1-.236.242 9.816 9.816 0 0 0-3.801 6.989l-3.817 65.204a.822.822 0 0 1-.392.655 29.877 29.877 0 0 1-15.311 4.333Zm-13.885-5.505a27.441 27.441 0 0 0 11.579 3.764 27.956 27.956 0 0 0 16.38-3.764l3.763-64.768a11.336 11.336 0 0 1 4.371-8.133 75.886 75.886 0 0 1 7.999-10.494 70.91 70.91 0 0 0 6.94-8.94 65.031 65.031 0 0 0 5.376-10.354.486.486 0 0 0 0-.054c3.097-6.284 4.409-12.278 3.898-17.81-.231-2.489-1.108-6.833-2.86-15.493l.801-.183-.801.161a98.94 98.94 0 0 0-.785-3.521 30.897 30.897 0 0 0-.538-1.978h-48.328l-8.887 15.842a.802.802 0 0 1-.478.382 1121.32 1121.32 0 0 0-16.472 5.156c-7.574 2.44-14.439 4.752-20.428 6.881-7.489 2.661-13.569 5.031-18.068 7.037-6.5 2.897-8.602 4.542-9.214 5.413-.613.871-1.554 4.247-.99 17.23.334 7.623 1.076 15.364 1.774 22.847.28 2.93.565 5.962.823 8.951.392 4.51.613 7.435.844 10.537.301 3.956.607 8.063 1.306 15.837.377 4.204.774 8.461 1.188 12.671a31.05 31.05 0 0 0 28.224-.774l3.026-73.031a.826.826 0 0 1 .591-.753l37.782-10.967a.833.833 0 0 1 .908.323.815.815 0 0 1 0 .962l-10.133 13.51a11.02 11.02 0 0 0-2.183 6.94l2.592 76.573Z" fill="#252362"/><path d="M286.752 290.795a222.623 222.623 0 0 0-2.876-70.16 211.87 211.87 0 0 0-3.693-15.24 73.524 73.524 0 0 0-25.046-4.941c-9.139-.156-21.504-.537-27.917 7.462-2.301 2.854-3.07 6.451-4.516 13.601-2.408 11.827-2.741 21.664-2.876 37.287-.059 6.892-.081 15.337 0 25.008a146.15 146.15 0 0 0 50.909 8.214c5.358-.109 10.704-.52 16.015-1.231Z" fill="#fff"/><path d="M267.898 292.833a147.032 147.032 0 0 1-48.323-8.279.774.774 0 0 1-.538-.731c-.07-8.327-.07-16.741 0-25.019.124-14.639.393-25.154 2.887-37.438 1.425-6.988 2.21-10.875 4.672-13.934 6.553-8.134 18.987-7.919 28.067-7.757h.473a74.404 74.404 0 0 1 25.304 4.988.803.803 0 0 1 .473.538c1.414 5.037 2.688 10.182 3.71 15.3a223.48 223.48 0 0 1 2.881 70.423.781.781 0 0 1-.215.457.78.78 0 0 1-.451.226 144.566 144.566 0 0 1-16.128 1.237c-.909-.017-1.833-.011-2.812-.011Zm-47.307-9.569a145.021 145.021 0 0 0 50.119 7.988 142.106 142.106 0 0 0 15.327-1.145 221.92 221.92 0 0 0-2.93-69.311 217.05 217.05 0 0 0-3.581-14.81 72.727 72.727 0 0 0-24.411-4.747h-.473c-8.763-.156-20.757-.366-26.831 7.177-2.151 2.655-2.876 5.988-4.36 13.267-2.468 12.15-2.731 22.579-2.855 37.148-.059 8.074-.064 16.294.006 24.433h-.011Z" fill="#252362"/><path d="m257.051 180.902 3.005 22.531a12.398 12.398 0 0 1-6.58 4.263c-4.624 1.112-8.371-1.076-9.365-1.731l-3.355-21.106 16.295-3.957Z" fill="#fff"/><path d="M250.895 208.771a13.805 13.805 0 0 1-7.193-2.15l-.29-.183-3.516-22.138 17.816-4.301 3.139 23.697-.21.253a13.036 13.036 0 0 1-6.988 4.526c-.905.208-1.83.307-2.758.296Zm-6.091-3.263c1.462.871 4.699 2.371 8.489 1.457a11.434 11.434 0 0 0 5.967-3.763l-2.833-21.364-14.811 3.591 3.188 20.079Z" fill="#252362"/><path d="M252.244 172.177s4.011 26.191-9.515 25.584c-13.526-.608-8.553-31.96-8.553-31.96s20.03-8.149 18.068 6.376Z" fill="#fff"/><path d="M243.186 198.476h-.49a8.016 8.016 0 0 1-6.074-3.107c-6.511-7.978-3.301-28.793-3.161-29.675l.064-.392.366-.151c.473-.188 11.606-4.655 16.708-.704 2.01 1.559 2.795 4.155 2.333 7.72.226 1.537 2.338 17.111-3.441 23.546a8.156 8.156 0 0 1-6.305 2.763Zm-8.371-32.137c-.419 2.935-2.731 21.256 2.914 28.17a6.592 6.592 0 0 0 5.032 2.575 6.804 6.804 0 0 0 5.687-2.301c5.511-6.134 3.113-22.337 3.086-22.498v-.199c.414-3.086-.188-5.279-1.79-6.521-3.983-3.097-12.993.027-14.929.774Z" fill="#252362"/><path d="M258.378 193.46c.247-.811 5.833-19.482 4.908-26.707a12.68 12.68 0 0 0-1.274-4.075c-1.613-2.913-4.231-4.257-5.677-4.999-1.22-.629-5.655-2.721-10.939-1.661-2.973.596-2.823 1.505-5.376 1.757-4.301.425-5.462-2.08-8.79-1.553-3.005.478-5.994 3.145-6.876 6.623a8.941 8.941 0 0 0 1.92 8.064c1.671 1.881 3.897 1.881 7.123 2.989 8.655 3.021 10.585.215 15.24 2.408.489.226 5.048 1.962 6.87 6.177.968 2.236.538 3.763 2.242 9.09.247.796.473 1.447.629 1.887Z" fill="#252362"/><path d="M252.986 178.731s2.608-7.145 4.892-4.022c2.285 3.124-2.258 8.188-3.666 8.801-1.409.613-1.226-4.779-1.226-4.779Z" fill="#fff"/><path d="M247.562 168.656s1.855 16.052-2.785 17.499a3.903 3.903 0 0 1-2.397.161c-1.613-.538-2.151-1.763-3.392-2.57-1-.645-2.726-1.075-5.887 0a43.72 43.72 0 0 0 .371 8.472c.538 3.764.806 5.645 1.898 6.898 3.483 3.994 13.977 2.817 17.799-2.844 1.237-1.833 1.306-4.887 1.452-10.983a142.87 142.87 0 0 0-.624-15.536l-6.435-1.097Z" fill="#252362"/><path d="M260.69 215.582c-21.934 0-36.669-5.333-36.868-5.403l.495-1.344c.274.097 27.417 9.897 62.897 2.64l.285 1.403a133.961 133.961 0 0 1-26.809 2.704Zm5.236 22.476a118.38 118.38 0 0 1-26.019-2.913c-11.488-2.602-18.649-6.075-18.719-6.107l.629-1.291c.28.14 28.315 13.574 63.779 7.123l.258 1.414a111.532 111.532 0 0 1-19.928 1.774Zm11.902 22.063c-24.729 0-58-8.559-58.387-8.661l.36-1.387c.441.119 44.254 11.386 68.376 7.973l.198 1.419a76.06 76.06 0 0 1-10.547.656Zm-.172 22.756c-21.374 0-54.511-8.413-56.156-8.833l.355-1.387c.473.119 47.42 12.042 65.639 7.908l.317 1.398a47.543 47.543 0 0 1-10.155.914Z" fill="#F07258"/><path d="m178.474 302.512 97.507-1.463.111 7.444-97.507 1.464-.111-7.445Z" fill="#252362"/><path d="m178.23 310.326-.124-8.203h.382l97.883-1.473.124 8.203h-.382l-97.883 1.473Zm.65-7.44.097 6.682 96.765-1.462-.097-6.677-96.765 1.457Z" fill="#252362"/><path d="m254.868 308.675-28.256.382-18.154.242-30.519.409-11.085-54.296 76.246-1.151c3.925 18.131 7.847 36.269 11.768 54.414Z" fill="#252362"/><path d="m177.628 310.095-11.236-55.055 77.015-1.161 11.929 55.2h-.742l-27.955.37-1.709.027-16.445.221-30.857.398Zm-10.306-54.334 10.924 53.576 30.207-.409 16.45-.22h1.704l27.788-.377-11.601-53.672-75.472 1.102Z" fill="#252362"/><path d="M255.163 277.442s-19.32 1.037-19.734 3.505c-.414 2.467 2.876 2.048 9.031 1.639l6.161-.408s-16.832 1.231-16.832 3.284c0 2.054.823 2.054 2.054 2.463 0 0-.823 1.639 1.639 2.462h13.547s-11.085.822-11.085 2.462c0 1.64 2.468 1.231 5.339 1.231 2.87 0 11.085 0 11.907-.409.823-.408 6.569-2.462 10.677-6.155 4.107-3.693 6.988-9.037 6.988-9.037l-11.192-7.182-8.5 6.145Z" fill="#fff"/><path d="M242.627 294.881c-1.285 0-2.295-.118-2.908-.72a1.777 1.777 0 0 1-.408-.599 1.776 1.776 0 0 1-.13-.713c0-.323 0-1.011 2.043-1.71h-3.763a.868.868 0 0 1-.237-.037 3.23 3.23 0 0 1-2.118-1.694 2.228 2.228 0 0 1-.166-.978c-1.14-.382-1.925-.914-1.925-2.968 0-.672.328-1.37 3.172-2.107a2.434 2.434 0 0 1-1.075-.65 2.16 2.16 0 0 1-.453-.887 2.158 2.158 0 0 1-.004-.995c.183-1.075 1.613-2.247 10.676-3.301 4.258-.494 8.532-.758 9.537-.817l8.311-6.015a.75.75 0 0 1 .844 0l11.193 7.182a.75.75 0 0 1 .258.989c-.119.22-2.984 5.494-7.14 9.23-3.564 3.226-8.37 5.226-10.176 5.989-.312.129-.538.231-.667.285-.586.296-2.892.489-12.24.489-.495 0-.979 0-1.436.027-.457.027-.806 0-1.188 0Zm-1.919-1.908a.163.163 0 0 0 .059.112c.344.339 1.78.301 3.043.269h1.473c8.789 0 11.16-.188 11.596-.344.123-.064.365-.166.731-.317 1.741-.731 6.375-2.688 9.751-5.715 3.167-2.849 5.607-6.746 6.478-8.23l-10.165-6.521-8.064 5.844a.733.733 0 0 1-.403.139c-8.516.463-18.176 1.705-19.036 2.92-.059.419.054.537.091.585.602.662 3.521.463 6.897.232l7.419-.5a.747.747 0 0 1 .522.198.755.755 0 0 1-.42 1.302c-7.053.537-15.122 1.671-16.127 2.655 0 1.156.22 1.221 1.129 1.5l.408.129a.76.76 0 0 1 .457.425.76.76 0 0 1 0 .623.817.817 0 0 0 0 .592 1.78 1.78 0 0 0 1.075.785h13.44a.755.755 0 0 1 .753.725.75.75 0 0 1-.694.774c-4.462.312-9.574 1.113-10.413 1.818Z" fill="#252362"/><path d="M280.118 205.405a15.067 15.067 0 0 0-1.849 2.124c-4.301 6.01-2.871 13.44-.14 29.895.484 2.919 1.36 8.241 2.451 15.144l-21.75 20.82 12.031 16.999c5.042-2.688 26.702-14.848 30.54-36.12 1.167-6.451.317-11.827-1.387-22.52-3.102-19.498-8.741-23.164-10.644-24.218a18.606 18.606 0 0 0-9.252-2.124Z" fill="#fff"/><path d="M270.862 291.199a.82.82 0 0 1-.662-.345l-12.031-16.998a.816.816 0 0 1 .102-1.075l21.445-20.525c-.796-5.01-1.613-9.962-2.387-14.719l-.312-1.887c-2.58-15.493-3.763-22.579.591-28.616a16.075 16.075 0 0 1 1.952-2.242.797.797 0 0 1 .537-.22c3.365-.118 6.702.65 9.677 2.226 5.166 2.865 8.886 11.214 11.047 24.798 1.715 10.784 2.575 16.193 1.387 22.794-3.645 20.192-22.863 32.384-30.959 36.69a.805.805 0 0 1-.387.119ZM259.9 273.491l11.209 15.842c8.209-4.473 26.067-16.219 29.497-35.206 1.14-6.333.296-11.655-1.392-22.251-1.43-8.988-4.365-20.385-10.214-23.654a17.41 17.41 0 0 0-8.526-2.026 14.085 14.085 0 0 0-1.527 1.79c-3.957 5.499-2.812 12.364-.312 27.417l.317 1.892c.812 4.892 1.613 9.988 2.452 15.149a.8.8 0 0 1-.242.71L259.9 273.491Z" fill="#252362"/><path d="M279.441 237.01c-.69.001-1.379-.033-2.065-.102l.151-1.473c9.832.994 21.853-6.365 21.971-6.451l.78 1.258c-.474.306-11.026 6.768-20.837 6.768Zm17.525 29.954c-5.376-.769-19.315-9.375-19.891-9.741l.78-1.258c.145.086 14.273 8.811 19.353 9.532l-.242 1.467Zm-12.122 14.558c-5.737-.591-18.493-14.208-19.031-14.789l1.075-1.005c3.602 3.827 13.816 13.88 18.117 14.321l-.161 1.473Z" fill="#F07258"/><path d="M186.626 403.715c0-3.112-.494-76.245-.08-79.132a4.812 4.812 0 0 0 0-1.28c-.237-2.193.467-2.844 9.079-5.376 10.989-3.252 41.631-8.988 41.932-9.047l.231 1.236c-.306.059-30.889 5.785-41.813 9.021-4.349 1.285-6.537 2.064-7.526 2.688-.731.452-.715.624-.635 1.365a6.134 6.134 0 0 1 0 1.613c-.322 2.236-.08 52.619.092 78.945l-1.28-.033Zm61.124 13.924-1.258-.033c.166-7.348 1.725-71.891 4.22-75.632.801-1.199 3.516-4.677 6.956-9.08 6.354-8.123 16.982-21.724 17.165-23.428.139-2.065.386-4.122.742-6.161.538-3.698 1.21-8.3 1.247-11.252h1.258c-.037 3.043-.715 7.688-1.263 11.424-.387 2.688-.726 5.005-.726 5.989 0 1.613-5.623 9.085-17.428 24.191-3.29 4.209-6.129 7.844-6.903 9.005-1.731 2.612-3.349 46.264-4.01 74.977Zm-82.331-31.008c-.646-2.301-2.194-30.745-2.258-31.954l1.252-.07c.446 8.203 1.71 29.884 2.22 31.68l-1.214.344Zm-2.264-41.432h1.258v3.962h-1.258v-3.962Zm65.699 49.345c-.818-6.542-.038-36.593 0-37.867l1.258.032c0 .312-.812 31.234 0 37.679l-1.258.156ZM228.481 352.828l.365-3.588 1.251.127-.364 3.589-1.252-.128ZM237.434 390.781a.714.714 0 0 1-.349-.092c-.328-.172-.769-.397-.092-3.29l-1.714.205-.801.096-.151-1.252.801-.097 2.199-.258a82.942 82.942 0 0 1 1.408-4.553l1.194.398a88.402 88.402 0 0 0-1.231 3.999c2.429-.252 2.687-.14 2.897.371.21.511-.215.962-.919 1.543a12.622 12.622 0 0 0-2.075 2.064c-.221.301-.645.866-1.167.866Zm.914-3.537a34.39 34.39 0 0 0-.328 1.392 13.968 13.968 0 0 1 1.575-1.521l-1.247.129Zm-67.994-64.887a1.577 1.577 0 0 1-1.413-.715c-.5-.806-.205-2.15 1.01-3.715a21.8 21.8 0 0 0-2.768-.854l.29-1.226c1.151.273 2.279.633 3.376 1.075a18.581 18.581 0 0 1 3.193-2.511l.678 1.076a17.904 17.904 0 0 0-2.656 2.026c1 .538 1.785 1.231 1.908 2.022.124.79-.328 1.451-1.322 2.048a4.572 4.572 0 0 1-2.296.774Zm.796-3.914c-1.075 1.269-1.328 2.231-1.14 2.538.102.161.737.252 1.995-.5.484-.29.752-.581.72-.78-.075-.365-.672-.817-1.575-1.258Z" fill="#252362"/><path d="M477.814 47v117.551a3.69 3.69 0 0 1-3.68 3.688h-155.4a3.69 3.69 0 0 1-3.68-3.688V47.009a4.689 4.689 0 0 1 4.688-4.689H473.11a4.69 4.69 0 0 1 4.704 4.68Z" fill="#fff"/><path d="M474.133 168.504H318.734a3.992 3.992 0 0 1-3.985-3.985V47.009a5.007 5.007 0 0 1 5-5.009H473.11a5.007 5.007 0 0 1 5.008 5v117.551a3.992 3.992 0 0 1-3.985 3.953ZM319.749 42.602a4.408 4.408 0 0 0-4.399 4.407V164.55a3.384 3.384 0 0 0 3.384 3.383h155.399a3.384 3.384 0 0 0 3.384-3.383V47.001a4.412 4.412 0 0 0-4.407-4.4H319.749Z" fill="#547AC7"/><mask id="a" style="mask-type:luminance" maskUnits="userSpaceOnUse" x="315" y="42" width="163" height="127"><path d="M477.814 47v117.55a3.691 3.691 0 0 1-3.68 3.688h-155.4a3.689 3.689 0 0 1-3.68-3.688V47.008a4.689 4.689 0 0 1 4.688-4.688H473.11a4.688 4.688 0 0 1 4.704 4.68Z" fill="#fff"/></mask><g mask="url(#a)"><path d="M429.955 40.46h48.391v130.951h-48.391V40.461Z" fill="#9DD0F7"/><path d="M478.596 171.629h-48.891V40.21h48.891V171.63Zm-48.391-.5h47.891V40.71h-47.891V171.13Z" fill="#547AC7"/><path d="M471.126 62.815h-32.599a3.08 3.08 0 0 0-3.079 3.079v5.258a3.08 3.08 0 0 0 3.079 3.08h32.599c1.7 0 3.078-1.38 3.078-3.08v-5.258c0-1.7-1.378-3.079-3.078-3.079Z" fill="#fff"/><path d="M445.442 88.023a5.381 5.381 0 0 1-3.319 4.966 5.375 5.375 0 1 1 3.319-4.966Z" fill="#FF5A18"/><path d="M450.724 83.662v1.235h10.306l.016-1.235h-10.322Zm0 3.727v1.243h21.878l.016-1.243h-21.894Zm0 3.736v1.242h17.299l.008-1.243h-17.307Zm11.392-6.228h3.18l.016-1.235h-3.188l-.008 1.235Zm-16.674 23.105a5.379 5.379 0 0 1-6.42 5.281 5.372 5.372 0 0 1-4.228-4.221 5.38 5.38 0 0 1 2.284-5.521 5.38 5.38 0 0 1 7.954 2.405c.271.652.41 1.351.41 2.056Zm5.282-4.352v1.242h10.306l.016-1.242h-10.322Zm0 3.735v1.234h21.878l.016-1.234h-21.894Zm0 3.727v1.242h17.299l.008-1.242h-17.307Zm11.392-6.22h3.18l.016-1.242h-3.188l-.008 1.242Z" fill="#3A68FD"/><path d="M445.442 127.99a5.381 5.381 0 0 1-3.314 4.972 5.37 5.37 0 0 1-5.861-1.16 5.383 5.383 0 0 1-1.169-5.86 5.379 5.379 0 0 1 4.968-3.32 5.373 5.373 0 0 1 5.376 5.368Z" fill="#fff"/><path d="M450.724 123.638v1.242h10.306l.016-1.242h-10.322Zm0 3.735v1.234h21.878l.016-1.234h-21.894Zm0 3.727v1.242h17.299l.008-1.242h-17.307Zm11.392-6.22h3.18l.016-1.242h-3.188l-.008 1.242Z" fill="#3A68FD"/><path d="M445.442 147.977a5.379 5.379 0 0 1-6.42 5.282 5.38 5.38 0 0 1-4.228-4.222 5.382 5.382 0 0 1 2.284-5.521 5.38 5.38 0 0 1 6.786.665 5.377 5.377 0 0 1 1.578 3.796Z" fill="#DF000D"/><path d="M450.724 143.625v1.243h10.306l.016-1.243h-10.322Zm0 3.735v1.243h21.878l.016-1.243h-21.894Zm0 3.735v1.235h17.299l.008-1.235h-17.307Zm11.392-6.227h3.18l.016-1.243h-3.188l-.008 1.243Z" fill="#3A68FD"/></g><path d="M477.814 58.51H315.046V47.01a4.686 4.686 0 0 1 4.689-4.689H473.11a4.69 4.69 0 0 1 4.689 4.689l.015 11.501Z" fill="#CCE7F8"/><path d="M478.118 58.807H314.749V47.01A5.015 5.015 0 0 1 319.757 42H473.11a5.017 5.017 0 0 1 5.008 5.009v11.798Zm-162.768-.601h162.167V47.009a4.42 4.42 0 0 0-4.407-4.407H319.757a4.416 4.416 0 0 0-4.407 4.407v11.197Z" fill="#547AC7"/><path d="M340.98 50.408a2.49 2.49 0 0 1 4.255-1.77 2.493 2.493 0 0 1-2.722 4.066 2.493 2.493 0 0 1-1.344-1.345 2.482 2.482 0 0 1-.189-.951Zm-9.58 0a2.489 2.489 0 0 1 2.977-2.453 2.493 2.493 0 1 1-2.977 2.453Zm-9.58 0a2.5 2.5 0 0 1 1.535-2.31 2.494 2.494 0 0 1 2.338 4.378 2.492 2.492 0 0 1-1.388.417 2.488 2.488 0 0 1-2.296-1.534 2.5 2.5 0 0 1-.189-.951Zm144.133-1.82 1.234-1.235 1.758 1.758 1.758-1.758 1.235 1.234-1.758 1.758 1.758 1.758-1.235 1.235-1.758-1.758-1.758 1.758-1.234-1.235 1.758-1.758-1.758-1.758Z" fill="#fff"/><mask id="b" style="mask-type:luminance" maskUnits="userSpaceOnUse" x="315" y="42" width="163" height="127"><path d="M477.814 47v117.55a3.691 3.691 0 0 1-3.68 3.688h-155.4a3.689 3.689 0 0 1-3.68-3.688V47.008a4.689 4.689 0 0 1 4.688-4.688H473.11a4.688 4.688 0 0 1 4.704 4.68Z" fill="#fff"/></mask><g mask="url(#b)"><path d="M315.047 58.51h57.454v54.861h-57.454v-54.86Z" fill="#EAF5F8"/><path d="M372.805 113.675h-58.056V58.197h58.056v55.478Zm-57.454-.602h56.884V58.807h-56.884v54.266Z" fill="#547AC7"/><mask id="c" style="mask-type:luminance" maskUnits="userSpaceOnUse" x="315" y="58" width="58" height="56"><path d="M315.047 58.51h57.454v54.861h-57.454v-54.86Z" fill="#fff"/></mask><g mask="url(#c)"><path d="M313.687 129.998c-9.377-5.509-19.918-15.627-18.566-22.886.211-1.102 3.391-2.938 3.391-2.938 7.416-.063 18.503 15.299 20.566 13.142.899-.945 1.891-21.605 16.05-24.84 3.031-.695 2.344-.117 3.359 2.821 2.04 5.962.571 19.98-4.133 28.13-5.548 9.579-11.807 11.783-20.667 6.571Z" fill="#fff"/><path d="M322.157 133.006c-2.594 0-5.47-.922-8.595-2.789-10.088-5.915-20.019-16.034-18.683-23.152.219-1.18 3.172-2.915 3.508-3.126h.18c4.282 0 9.627 4.876 13.924 8.791 2.798 2.547 5.689 5.188 6.407 4.422.251-.723.432-1.469.54-2.227 1.187-5.993 3.969-20.01 15.627-22.66 2.469-.562 2.727-.312 3.212 1.485.109.406.25.906.453 1.508 2.055 6.017.664 19.988-4.157 28.325-3.001 5.196-6.204 8.181-9.791 9.126-.859.209-1.741.309-2.625.297Zm-23.582-28.575c-1.188.696-3.071 2.016-3.204 2.727-1.289 6.884 8.541 16.8 18.449 22.621 4.149 2.438 7.688 3.219 10.829 2.399 3.454-.914 6.556-3.821 9.486-8.892 4.618-7.993 6.118-22.027 4.11-27.903-.211-.617-.343-1.125-.461-1.563-.414-1.562-.429-1.617-2.602-1.117-11.345 2.594-14.064 16.409-15.252 22.277-.32 1.61-.461 2.266-.672 2.485-1.063 1.117-3.602-1.196-7.111-4.399-4.227-3.829-9.454-8.635-13.572-8.635Z" fill="#547AC5"/><path d="M370.406 146.352a32.113 32.113 0 0 1-9.228 3.298c-19.12 3.828-44.108-5.423-44.108-5.423s5.469-8.298 10.103-17.026c.445-.782.852-1.602 1.258-2.415 2.024-4.016 1.563-6.649.359-9.001-1.664-3.227-4.813-5.884-5.016-10.799-.344-8.485 17.737-15.58 17.737-15.58 27.114-1.61 20.699 14.291 18.112 27.16a53.623 53.623 0 0 0-.578 3.423c0 .234-.047.492-.062.734-.016.242-.055.625-.071.946-.492 12.674 11.494 24.683 11.494 24.683Z" fill="#fff"/><path d="M351.067 150.822c-16.682 0-33.872-6.251-34.083-6.36l-.297-.11.172-.265c.055-.086 5.54-8.392 10.087-17.003.485-.867.907-1.703 1.258-2.415 2.141-4.235 1.383-6.805.36-8.767a25.665 25.665 0 0 0-1.727-2.742c-1.563-2.274-3.172-4.618-3.321-8.158-.344-8.595 17.19-15.541 17.901-15.83h.079c9.376-.563 15.424.922 18.487 4.524 3.962 4.688 2.344 12.033.711 19.167-.281 1.25-.57 2.539-.82 3.774a46.283 46.283 0 0 0-.571 3.399c0 .219-.047.453-.062.672 0 .375-.055.672-.078.992-.477 12.416 11.306 24.371 11.423 24.489l.242.234-.297.164a32.25 32.25 0 0 1-9.306 3.329c-3.348.632-6.75.935-10.158.906Zm-33.599-6.728c2.899 1.024 25.958 8.853 43.664 5.306a32.007 32.007 0 0 0 8.876-3.126c-1.68-1.758-11.838-12.931-11.353-24.613 0-.328 0-.641.07-.969.07-.328 0-.508.07-.742.125-1.008.313-2.102.586-3.43.274-1.329.532-2.532.782-3.782 1.562-7.032 3.203-14.268-.594-18.753-2.954-3.47-8.845-4.891-18.034-4.352-.915.367-17.863 7.29-17.534 15.322.132 3.392 1.703 5.681 3.227 7.892a27.19 27.19 0 0 1 1.758 2.798c1.078 2.07 1.883 4.789-.36 9.228a62.666 62.666 0 0 1-1.258 2.43c-4.071 7.782-8.923 15.291-9.907 16.791h.007Z" fill="#547AC5"/><path d="M358.951 121.669c0-.219 0-.43.047-.649 0-.352 0-.695.086-1.039.133-1.102.336-2.243.578-3.415-.734-1.383-.641-5.063-2.508-6.798-4.938-4.688-4.313-16.565-4.313-16.565-1.125 5.712-2.024 16.948-.117 20.456.414.743 1.859 3.642 1.945 3.782 1.391 4.298.367 8.595.594 13.026.203 3.907 1.563 7.462 2.954 11.056.781 1.883 1.562 6.001 3 8.127a32.113 32.113 0 0 0 9.228-3.298s-12.025-12.01-11.494-24.683Z" fill="#9BCEF5"/><path d="M338.691 85.733v4.797s-1.29 2.345 0 2.618c2.836.57 6.93-3.852 6.93-3.852v-6.439l-6.93 2.876Z" fill="#fff"/><path d="M339.215 93.492a2.763 2.763 0 0 1-.571-.055.9.9 0 0 1-.672-.5c-.359-.78.297-2.11.469-2.43V85.6l7.431-3.078v6.915l-.063.07c-.14.133-3.727 3.985-6.594 3.985Zm-.266-7.556v4.751c-.297.547-.696 1.563-.485 2.032a.389.389 0 0 0 .313.226c2.461.485 6.079-3.125 6.618-3.711V83.28l-6.446 2.656Z" fill="#547AC5"/><path d="M345.621 86.944v-3.656s-3.524 3.36-6.931 3.555c0 0 4.103 1.961 6.931.101Z" fill="#9BCEF5"/><path d="M336.995 71.731a38.09 38.09 0 0 0-3.196 9.994c-.453 3.422 5.814 7.939 10.939 3.125 5.126-4.813 3.688-12.19 3.688-12.19l-11.431-.929Z" fill="#fff"/><path d="M339.808 87.242a6.731 6.731 0 0 1-3.078-.782c-2.102-1.078-3.407-3.032-3.181-4.75a38.891 38.891 0 0 1 3.212-10.096l.078-.156 11.775.937.039.188c0 .078 1.383 7.564-3.758 12.424a7.408 7.408 0 0 1-5.087 2.234Zm-2.664-15.198a37.488 37.488 0 0 0-3.087 9.728c-.203 1.492 1.024 3.274 2.899 4.235 2.508 1.281 5.345.781 7.587-1.328 4.485-4.243 3.813-10.596 3.642-11.768l-11.041-.867Z" fill="#547AC5"/><path d="M336.878 69.465c.516-.57.172-3.087 7.243-2.094 1.845.258 5.47 3.625 5.986 5.274.953 2.93 2.938 8.931 2.516 12.12-2.266 1.406-5.735 1.703-8.705.78-.969-1.945.164-6.766.321-8.837a10.05 10.05 0 0 0 0-1.992 5.075 5.075 0 0 0-3.907-2.344c-.391.382-3.751 2.844-4.821 1.602-.516-.618.781-3.845 1.367-4.51Z" fill="#FBA988"/><path d="M343.739 77.209s2.055-.954 2.461.687c.406 1.641-1.086 2.626-1.875 2.344-.789-.28-1.063-2.375-.586-3.031Z" fill="#fff"/><path d="M344.637 80.529a1.137 1.137 0 0 1-.406-.07 1.632 1.632 0 0 1-.782-1.079 3.038 3.038 0 0 1 .117-2.344l.039-.063h.063a2.766 2.766 0 0 1 2.047-.148 1.39 1.39 0 0 1 .781 1.008 2.15 2.15 0 0 1-.632 2.204c-.334.31-.771.486-1.227.492Zm-.719-3.126a2.81 2.81 0 0 0 0 1.82 1.121 1.121 0 0 0 .508.782 1.173 1.173 0 0 0 1.07-.32 1.667 1.667 0 0 0 .477-1.704.932.932 0 0 0-.492-.664 2.18 2.18 0 0 0-1.563.094v-.008Z" fill="#547AC5"/><path d="M388.222 115.785c-10.666 5.555-25.903 2.086-30.091-1.524-6.478-5.587-7.923-25.137-2.274-23.011.289.117.578.234.883.375.445.226.883.46 1.36.734a31.046 31.046 0 0 1 3.125 2.188c8.775 6.931 19.464 7.345 23.183 5.798 2.524-1.047 1.673-19.12 8.111-21.464 0 0 6.173-.977 6.79.734 3.032 8.447 8.377 26.035-11.087 36.17Z" fill="#fff"/><path d="M375.001 118.918c-7.376 0-14.315-2.117-17.034-4.461-5.391-4.689-7.204-18.394-4.844-22.363a2.15 2.15 0 0 1 2.82-1.078c.282.109.555.226.852.359h.078c.5.25.938.492 1.368.742 1.086.67 2.13 1.405 3.125 2.204 8.861 7.032 19.472 7.204 22.933 5.766.837-.344 1.337-3.43 1.868-6.688.953-5.923 2.149-13.284 6.251-14.776.703-.117 6.446-.969 7.11.883 4.009 11.072 7.205 26.903-11.189 36.482a29.058 29.058 0 0 1-13.338 2.93Zm-19.956-27.574a1.725 1.725 0 0 0-1.477 1.008c-2.289 3.852-.508 17.19 4.735 21.714 4.321 3.727 19.535 6.853 29.81 1.492 18.042-9.376 14.885-24.965 10.939-35.857-.399-1.101-4.204-.93-6.501-.57-3.782 1.383-5.001 8.892-5.884 14.37-.625 3.844-1.07 6.625-2.172 7.079-3.555 1.476-14.424 1.289-23.441-5.837a30.693 30.693 0 0 0-3.071-2.165 24.54 24.54 0 0 0-1.297-.703h-.055c-.297-.14-.586-.258-.867-.367a1.98 1.98 0 0 0-.719-.164Z" fill="#547AC5"/><path d="M344.465 70.832c-1.375-3.836-6.087-5-9.298-2.781-3.868.07-7.627 10.532-4.579 14.783 1.766-4.25 4.25-5.845 5.782-7.267 1.531-1.422 4.047-3.617 6.212-3.18.477.125 2.125-.867 1.883-1.555Z" fill="#FBA988"/><path d="M345.731 69.379a16.899 16.899 0 0 1 3.852 2.586s1.985-8.243-6.118-10.01c-8.103-1.765-12.322 4.408-10.697 7.033 0-.008 2.524-3.782 12.963.39Z" fill="#0031FF"/><path d="M345.731 69.38s-6.54-3.282-8.595-4.767c-4.97-3.641-7.767-3.618-8.705-1.008-1.656 4.61 4.181 6.11 4.181 6.11s1.758-3.906 13.119-.336Zm-1.149-7.322a.72.72 0 0 0-.421-.686.72.72 0 1 0 .421.686Z" fill="#002CAB"/><path d="m344.23 76.763-.07.61-.094 2.25s-.367-.086-.281.492l-.922.594-1.078-.672.086-2.438.484-.914.711-.18 1.164.258Zm12.104 14.924c-.872-.546-1.82-.96-2.813-1.226-1.313-.274-3.024 4.204-3.024 4.204l1.563 3.258s.383-.555.57-.11c.188.446 3.235-.883 3.399-1.18.164-.296.641-1.632.641-1.632l-.336-3.314Z" fill="#fff"/></g><path d="M372.501 113.37h57.454v54.86h-57.454v-54.86Z" fill="#EAF5F8"/><path d="M430.252 168.504h-58.017v-55.478h58.048l-.031 55.478Zm-57.447-.602h56.845v-54.227h-56.845v54.227Z" fill="#547AC7"/><mask id="d" style="mask-type:luminance" maskUnits="userSpaceOnUse" x="372" y="113" width="58" height="56"><path d="M372.501 113.37h57.454v54.86h-57.454v-54.86Z" fill="#fff"/></mask><g mask="url(#d)"><path d="M364.727 187.187c6.071-.391 10.619-1.789 14.065-3.735a1.067 1.067 0 0 1-.508-.57 436.303 436.303 0 0 0-1.696-4.759c.242-.242.492-.492.781-.742.883-.868 1.727-1.735 2.548-2.563.992 2.422 2.125 5.274.844 7.376a19.849 19.849 0 0 0 7.884-13.354 19.4 19.4 0 0 0 .187-4.618s4.938-23.245-.281-20.995a17.128 17.128 0 0 0-4.845 3.665c-.562.578-1.164 1.195-1.734 1.867a123.956 123.956 0 0 0-9.517 12.776 221.766 221.766 0 0 0-2.345 3.539c-2.672 4.016-4.742 7.033-5.594 7.267-7.033 1.985-1.305-13.283-9.713-16.237 0 0-4.594-.602-5.813.633-8.744 2.766-4.618 31.685 15.737 30.45Z" fill="#3A68FD"/><path d="M370.055 165.074c1.563 2.719 3.266 5.235 4.54 8.165a89.343 89.343 0 0 1 1.953 4.884c.243-.242.493-.492.782-.742.883-.868 1.727-1.735 2.547-2.563a34.955 34.955 0 0 1-.406-1.047 50.361 50.361 0 0 0-7.033-12.237 775.237 775.237 0 0 1-2.383 3.54Z" fill="#fff"/><path d="M379.854 174.818c.992 2.422 2.125 5.274.844 7.376a19.832 19.832 0 0 0 7.946-13.354c-1.172.336-2.992-4.688-3.219-7.728 0-2.039-.055-4.071-.039-6.001 0-.351.391-6.032 1.563-8.54.32-.672-1.961-.266-3.274.32a2.253 2.253 0 0 0-.782.524c-.336.461-.656.906-.937 1.344-11.393 16.721 3.008 17.143-1.485 25.426l-.617.633Z" fill="#0031FF"/><path d="M388.644 127.974a.788.788 0 0 1 .289-.43c-.304-4.328 3.337-8.22 7.361-9.884a.855.855 0 0 1 .602 0c4.36-1.18 9.134-1.11 10.697 3.126 1.781 4.844 3.617 5.469 5.235 7.149 1.617 1.68 1.258 4.055 3.469 4.868 2.344.867 5.47-.649 6.79 1.563 1.493 2.438 1.61 4.188 4.188 6.048 1.188.859 2.415 1.437 3.243 2.672a6.371 6.371 0 0 1 .782 5.305c-.829 2.727-3.579 3.751-5.244 5.915-1.469 1.915-1.773 3.313-4.313 3.907-2.844.672-6.18 0-8.962-.586s-5.009-.969-7.884-.554c-1.961.289-3.907.929-5.876 1a6.783 6.783 0 0 1-3.274-.461 4.087 4.087 0 0 1-1.071-.711 4.87 4.87 0 0 0-3.555-1.477c-1.688-.782-2.18-1.235-2.344-3.087a13.275 13.275 0 0 1 .461-4.203c-2.938-6.791-2.313-12.971-.594-20.16Z" fill="#7D381D"/><path d="M356.662 275.693c7.032 5.524 14.276 1.726 21.363 2.094 3.821.195 7.564 3.477 11.213 2.797 4.43-.828 8.962-3.774 12.939-5.196 4.438-1.563 8.251.726 11.815-.594 5.797-2.141 17.83-10.689 17.83-10.689-9.837-28.989-5.735-39.249-6.462-52.212 0-.625-.085-1.242-.14-1.875-1.61-17.323-12.502-24.144-11.955-37.326 0-.336 0-.657.07-.993.07-.336 0-.507.07-.781.102-.867.251-1.75.446-2.672 0-.281.101-.586.156-.883 2.688-13.393 9.377-29.927-18.839-28.247 0 0-18.807 7.376-18.448 16.198.211 5.11 3.485 7.869 5.22 11.236 1.273 2.438 1.726 5.181-.376 9.377a23.403 23.403 0 0 1-1.304 2.516c-10.69 15.69-19.972 50.789-17.519 66.948 2.766 18.136-6.079 30.302-6.079 30.302Z" fill="#3A68FD"/><path d="M392.23 135.304v4.993s-1.336 2.461 0 2.727c2.946.594 7.204-4.009 7.204-4.009v-6.696l-7.204 2.985Z" fill="#fff"/><path d="M392.777 143.359c-.202 0-.403-.021-.601-.062a.956.956 0 0 1-.711-.532c-.368-.781.304-2.187.484-2.539v-5.102l7.767-3.22v7.22l-.078.078c-.164.18-3.876 4.149-6.861 4.157Zm-.226-7.868v4.938c-.313.57-.719 1.641-.508 2.102a.393.393 0 0 0 .312.219c2.563.515 6.298-3.251 6.869-3.845v-6.165l-6.673 2.751Z" fill="#547AC5"/><path d="M399.435 136.569v-3.805s-3.664 3.5-7.204 3.696c0 .007 4.266 2.07 7.204.109Z" fill="#9BCEF5"/><path d="M390.465 120.746a39.483 39.483 0 0 0-3.32 10.393c-.469 3.563 6.047 8.259 11.353 3.242 5.305-5.016 3.836-12.674 3.836-12.674l-11.869-.961Z" fill="#fff"/><path d="M393.387 136.85a7.018 7.018 0 0 1-3.204-.781c-2.187-1.117-3.555-3.125-3.313-4.954.657-5.001 3.313-10.423 3.337-10.478l.086-.172 12.275.992v.204c0 .078 1.438 7.876-3.907 12.931a7.71 7.71 0 0 1-5.274 2.258Zm-2.758-15.807a39.308 39.308 0 0 0-3.204 10.158c-.203 1.563 1.063 3.391 3.009 4.384 2.601 1.328 5.547.781 7.868-1.383 4.688-4.392 3.969-10.94 3.79-12.205l-11.463-.954Z" fill="#547AC5"/><path d="M387.902 120.559c.359-.219.836-.235 1.18-.453 1.086-.696.633-1.032 1.258-1.72a4.416 4.416 0 0 1 1.805-1.265c1.937-.719 4.164-.438 6.118.039a.776.776 0 0 1 .513.461.788.788 0 0 1-.052.687 9.064 9.064 0 0 1 4.852 3.477c1.633 2.485 1.844 6.642.18 9.182-1.305 1.992-3.758 3.625-5.079.984-1.008-2.016-.836-3.907-.68-6.055a9.56 9.56 0 0 0 0-2.071 5.275 5.275 0 0 0-4.063-2.43c-.406.398-.781 1-1.117 1.406a5.987 5.987 0 0 1-2.008 1.399c-1.188.492-2.821.602-3.642-.594a2.143 2.143 0 0 1 .735-3.047Z" fill="#7D381D"/><path d="M397.481 126.443s2.134-.993 2.563.719c.43 1.711-1.133 2.727-1.961 2.414-.828-.313-1.102-2.414-.602-3.133Z" fill="#fff"/><path d="M398.411 129.912a1.314 1.314 0 0 1-.43-.07 1.702 1.702 0 0 1-.851-1.133 3.171 3.171 0 0 1 .109-2.399l.039-.063h.07a2.94 2.94 0 0 1 2.149-.156 1.554 1.554 0 0 1 .782 1.063 2.268 2.268 0 0 1-.665 2.305 1.954 1.954 0 0 1-1.203.453Zm-.734-3.243a2.835 2.835 0 0 0 0 1.868 1.18 1.18 0 0 0 .523.781c.195.045.399.038.59-.02.192-.057.366-.163.504-.308a1.691 1.691 0 0 0 .492-1.75.942.942 0 0 0-.5-.688 2.223 2.223 0 0 0-1.609.117Z" fill="#547AC5"/><path d="M357.014 273.138c3.626-.54 5.603.156 9.056.961 5.704 1.344 7.244-.321 12.057-.102 1.899.094 3.25 1.188 4.93 1.711 9.603 2.993 10.221-1.008 16.894-3.477 2.617-.976 4.524-.453 7.102-.445 3.173 0 1.665 1.273 5.697-.258 3.125-1.203 3.399-2.399 5.54-4.516 3.836-3.79 11.626-5.173 16.651-3.665 3.274.992 1.469 5.985-1.79 5.001-2.93-.883-11.166 3.274-13.135 5.055-.695.625-1.101 1.563-1.789 2.196a9.38 9.38 0 0 1-4.915 2.743c-2.907.476-5.844-.86-8.782-.782-5.322.18-7.564 3.516-12.291 5.228-5.079 1.836-6.923-.602-11.26-2.134-4.071-1.437-7.314.594-11.166.454-4.329-.157-6.868-3.517-11.9-2.759-3.376.524-4.282-4.703-.899-5.211Zm49.758-108.791c.281.508.633 1.094 1.024 1.696.265.781 3.86 8.048 4.071 8.876a25.292 25.292 0 0 1 .476 10.244c-.586 4.633-1.469 9.04.954 13.338 2.211 3.907 5.61 7.462 8.595 10.806 1.219 1.36 2.602 2.688 3.485 2.587 0-.626-.086-1.243-.141-1.876-1.61-17.323-12.502-24.144-11.955-37.326 0-.336 0-.656.07-.992.071-.336 0-.508.071-.782.101-.867.25-1.75.445-2.672.055-.305.109-.586.164-.883a18.846 18.846 0 0 0-3.907-4.938c-5.126-4.845-4.688-16.753-4.688-16.753-1.211 5.954-.649 15.018 1.336 18.675Z" fill="#0031FF"/><path d="M425.986 177.951c1.219 5.891-14.065 18.252-9.908 21.98-.375 1.062 2.602 3.399 4.032 3.422 14.346 2.844 18.839-11.009 20.871-16.581 3.344-9.196 6.157-13.986-2.665-25.418-.336-.422-.656-.851-1.031-1.273a51.512 51.512 0 0 0-2.633-2.97 66.687 66.687 0 0 0-3.235-3.235 107.558 107.558 0 0 0-15.628-12.134c-3.203-2.001-8.071-1.063-9.486 1.906a10.945 10.945 0 0 0-.883 8.119c1.946 6.352 8.541 13.142 13.463 18.26.422.438.844.86 1.29 1.305 1.445 1.469 2.867 2.868 3.907 4.032a7.821 7.821 0 0 1 1.906 2.587Z" fill="#3A68FD"/><path d="M420.165 171.332c1.446 1.469 2.868 2.868 3.907 4.032a.862.862 0 0 0 .852-.633 50.403 50.403 0 0 1 9.689-17.619 65.798 65.798 0 0 0-3.235-3.235 25.656 25.656 0 0 0-5.361 7.321c-2.344 3.204-4.125 6.915-5.805 9.908-.022.074-.038.15-.047.226Zm-22.144-45.436-.063.781.063 2.469a3.87 3.87 0 0 0 .086 1.11c.14.515-1.446.039-1.508 0-.063-.039-.563-2.477-.563-2.477-.001-.717.056-1.433.172-2.141.061-.15.151-.285.266-.399l1.547.657Zm15.737 73.082c-.277.261-.6.468-.954.609-.382.078-.875.899-1.109 1.477l-.446 1.101 1.891.36.618-.781c.321-.426.509-.937.539-1.469a2.06 2.06 0 0 0-.539-1.297Z" fill="#fff"/></g><path d="M372.501 58.51h57.454v54.861h-57.454v-54.86Z" fill="#fff"/><path d="M430.252 113.675h-58.017V58.197h58.048l-.031 55.478Zm-57.447-.602h56.845V58.807h-56.845v54.266Z" fill="#547AC7"/><mask id="e" style="mask-type:luminance" maskUnits="userSpaceOnUse" x="372" y="58" width="58" height="56"><path d="M372.501 58.51h57.454v54.861h-57.454v-54.86Z" fill="#fff"/></mask><g mask="url(#e)"><path d="M393.285 119.341a27.076 27.076 0 0 1 1.758 5.758c1.657 8.252.211 24.864-16.768 39.546-9.697 8.384-21.738 14.885-34.185 13.541-2.579-.281-3.227-7.634-3.227-7.634 2.617-6.868 23.441-21.168 25.543-23.543 2.102-2.375 9.376-45.531 17.51-53.516 4.993-4.86 9.369 25.848 9.369 25.848Z" fill="#3A68FD"/><path d="M371.774 164.512c.289.898 23.441 8.376 30.63 9.485 7.712 1.196 17.096-.476 23.738-.781 5.11-.242 8.783-.891 9.283-1.922 1.008-2.172-1.047-21.261-.633-35.318.078-2.266.117-4.556.133-6.822.132-14.635-.782-28.676-4.11-31.208a43.716 43.716 0 0 0-2.501-1.789 47.063 47.063 0 0 0-4.837-2.899 45.793 45.793 0 0 0-9.962-3.844 41.312 41.312 0 0 0-19.886-.305c-1.859.422-3.686.97-5.47 1.64l-1.336.493c-6.251 2.516-5.352 16.12-4.344 27.536.461 5.29.937 10.111.781 13.119a25.907 25.907 0 0 1-.375 3.016c-1.492 8.416-10.064 23.48-11.111 29.599Z" fill="#fff"/><path d="M408.631 174.591a40.868 40.868 0 0 1-6.251-.43c-6.532-1-30.395-8.446-30.762-9.595v-.086c.484-2.821 2.578-7.564 4.79-12.588 2.57-5.844 5.469-12.502 6.25-16.995a25.31 25.31 0 0 0 .383-2.992c.164-2.665-.187-6.697-.593-11.369l-.149-1.735c-1.125-12.658-1.703-25.223 4.446-27.7l.336-.125c.344-.132.672-.257 1.008-.367a40.025 40.025 0 0 1 5.392-1.625h.132a41.49 41.49 0 0 1 19.964.305 45.74 45.74 0 0 1 10.002 3.86 48.49 48.49 0 0 1 4.86 2.906c1.086.735 1.86 1.29 2.501 1.797 3.86 2.97 4.274 20.91 4.18 31.341 0 2.532-.063 4.759-.133 6.822-.211 7.032.203 15.377.531 22.089.352 7.072.602 12.174.079 13.284-.633 1.328-5.47 1.836-9.424 2.023-1.922.086-4.079.289-6.36.508-3.571.313-7.431.672-11.182.672Zm-36.677-10.158c1.078 1.008 23.238 8.236 30.473 9.377 5.47.852 11.768.258 17.331-.274 2.29-.211 4.446-.414 6.376-.5 5.29-.258 8.705-.945 9.134-1.828.485-1.047.227-6.384-.109-13.143s-.742-15.08-.539-22.113c.07-2.063.117-4.29.14-6.813.165-17.909-1.273-28.911-4.055-31.068-.633-.508-1.398-1.055-2.485-1.79a47.605 47.605 0 0 0-4.821-2.882 45.12 45.12 0 0 0-9.931-3.814 41.281 41.281 0 0 0-19.675-.335v.039h-.188c-1.842.42-3.654.965-5.422 1.633-.336.11-.664.234-1 .367l-.336.125c-5.931 2.344-5.345 14.846-4.235 27.348l.148 1.727c.414 4.688.781 8.728.594 11.424a25.962 25.962 0 0 1-.383 3.031c-.781 4.563-3.688 11.205-6.251 17.065-2.203 4.978-4.266 9.666-4.766 12.463v-.039Z" fill="#547AC7"/><path d="M399.122 82.1v6.11s-1.446 2.65 0 2.939c3.172.633 7.759-2.93 7.759-2.93v-9.33l-7.759 3.211Z" fill="#fff"/><path d="M399.926 91.398c-.28.002-.56-.024-.836-.078a.905.905 0 0 1-.672-.5c-.39-.828.391-2.383.532-2.649v-6.18l.109-.047 7.994-3.298v9.666l-.071.055c-.172.117-3.954 3.031-7.056 3.031Zm-.633-9.18v6.07c-.25.461-.828 1.774-.546 2.384a.578.578 0 0 0 .429.312c2.86.57 6.986-2.43 7.556-2.852v-8.994l-7.439 3.08Z" fill="#547AC7"/><path d="M406.881 85.053v-3.125s-3.352 2.766-7.157 2.977c0-.008 3.703 2.657 7.157.148Z" fill="#9BCEF5"/><path d="M395.676 69.043s-1.414 6.306-.836 11.72c.406 3.853 8.415 7.111 12.697.524s.782-14.244.782-14.244l-12.643 2Z" fill="#fff"/><path d="M401.075 85.233a8.032 8.032 0 0 1-1.805-.219c-2.516-.61-4.415-2.344-4.618-4.235-.57-5.383.829-11.72.844-11.775v-.11l12.908-2.047.047.118c0 .078 3.477 7.813-.781 14.408a7.82 7.82 0 0 1-6.595 3.86Zm-5.274-16.041c-.18.875-1.336 6.618-.781 11.548.187 1.72 2.015 3.376 4.36 3.907 3.125.781 6.126-.555 8.032-3.493 3.907-5.993 1.25-12.97.836-13.955l-12.447 1.993Z" fill="#547AC7"/><path d="M392.043 68.653c3.274 3.508 9.876 2.649 14.791 1.79 0 .515.078 1.054.094 1.468.062 1.868-.524 4.259.477 5.954a2.339 2.339 0 0 0 3.211.93 1.978 1.978 0 0 0 1.031-1.719c1.563-3.477.782-9.252-1.805-11.674-1.633-1.563-3.664-1.695-5.805-1.727a13.013 13.013 0 0 1-4.821-.672 9.275 9.275 0 0 0-2.829-.898c-4.055-.274-7.704 2.946-4.344 6.548Z" fill="#FF5A18"/><path d="M413.515 89.414s-24.918 64.166-27.387 83.919c0 0 35.99 10.353 51.571 2.344 0 0-4.571-76.574-9.416-79.497-4.845-2.922-10.447-6.29-14.768-6.766Z" fill="#3A68FD"/><path d="M384.542 92.97s-6.65 5.336-6.345 16.486c.633 23.441-2.547 34.123-2.547 34.123l8.892-4.767 2.735-19.925-2.735-25.918Z" fill="#0031FF"/><path d="M391.863 89.586s-4.978 27.277-3.665 36.88c5.665 41.413 3.665 47.977 3.665 47.977s-20.121-3.399-21.761-6.54c-5.009-9.611 6.985-24.614 9.376-31.521 2.391-6.907 0-39.397 5.079-43.39 5.079-3.992 7.306-3.406 7.306-3.406Z" fill="#3A68FD"/><path d="M423.063 99.673c-.102.172-5.079 5.361-3.172 14.565 1.562 7.611 5.055 13.565 6.634 21.183 1.562 7.408.781 14.627.156 22.097-.305 3.47-.633 6.939-.922 10.4-.149 1.798-.836 8.596.078 10.252a43.815 43.815 0 0 0 11.892-2.516c6.783-3.125-3.352-25.621-2.938-39.678.079-2.266.118-4.555.133-6.821a22.383 22.383 0 0 0-1.14-2.134c-3.337-5.602-3.985-18.948-7.986-24.089-.719-.938-3.29-4.196-2.735-3.259Z" fill="#0031FF"/><path d="M459.655 164.503c-8.814 14.135-57.54 4.735-65.315-9.829-.68-1.274 1.07-5.65 1.07-5.65 3.853-5.469 43.851 5.564 43.929.993 0-2.001-15.705-27.239-17.971-36.803a20.764 20.764 0 0 1 1.008-12.205c1.641-4.485 6.805-5.173 10.994-2.899 8.493 4.595 18.878 15.682 24.957 27.645 6.696 13.151 8.954 26.559 1.328 38.748Z" fill="#3A68FD"/></g><path d="M315.047 113.37h57.454v54.86h-57.454v-54.86Z" fill="#fff"/><path d="M372.805 168.504h-58.056v-55.478h58.056v55.478Zm-57.454-.602h56.884v-54.227h-56.884v54.227Z" fill="#547AC7"/><mask id="f" style="mask-type:luminance" maskUnits="userSpaceOnUse" x="315" y="113" width="58" height="56"><path d="M315.047 113.37h57.454v54.86h-57.454v-54.86Z" fill="#fff"/></mask><g mask="url(#f)"><path d="M325.985 147.86c-5.704 3.383-18.964 32.036-19.535 33.286-1.281 2.766-8.376 19.238-8.337 19.339a126.1 126.1 0 0 1-18.534 14.393l-1.344 7.939s20.73-3.805 31.255-11.268c7.814-5.532 19.495-29.872 19.604-32.177a25.666 25.666 0 0 0-.32-5.68s2.883-29.169-2.789-25.832Z" fill="#fff"/><path d="m277.829 223.2 1.422-8.517.125-.078a127.174 127.174 0 0 0 18.488-14.354c.89-2.61 8.165-19.081 8.243-19.253l.156-.336c4.212-8.962 14.542-30.13 19.535-33.083a1.608 1.608 0 0 1 1.789-.079c3.688 2.345 1.719 23.512 1.461 26.161.313 1.887.418 3.802.313 5.712-.102 2.227-11.721 26.754-19.738 32.419-10.462 7.415-31.177 11.283-31.388 11.322l-.406.086Zm2.008-8.142-1.234 7.361c3.063-.602 21.183-4.392 30.692-11.127 7.884-5.587 19.362-29.739 19.472-31.935a26.466 26.466 0 0 0-.313-5.602v-.094c.649-6.509 1.696-23.785-1.164-25.614a.991.991 0 0 0-.58-.137.994.994 0 0 0-.553.223c-4.977 2.946-16.018 25.864-19.284 32.818l-.157.336c-1.187 2.571-7.743 17.784-8.274 19.191l.039.093-.164.149a128.008 128.008 0 0 1-18.48 14.346v-.008Z" fill="#547AC5"/><path d="M328.759 173.692c.317 1.876.424 3.781.32 5.681a26.034 26.034 0 0 1-4.688 14.135c-3.571 4.93-19.534-15.745-16.143-21.691 5.157-9.041 12.096-20.636 17.706-23.949 5.61-3.313 2.805 25.824 2.805 25.824Z" fill="#FF5A18"/><path d="M325.211 148.367s-3.751 2.345-4.04 8.478c-.289 6.134.188 22.871 2.344 28.911 1.719 4.821 2.126 5.712 2.173 5.712l2.992-5.579s3.188-6.188 2.469-7.509c-.718-1.321-5.938-30.013-5.938-30.013Z" fill="#F7391D"/><path d="M316.328 209.667c.265.851 3.305 2.344 7.774 3.977a107.017 107.017 0 0 0 18.542 4.688c9.174 1.422 18.409 1.383 23.348.445 2.016-.375 3.305-.914 3.618-1.562.953-2.055 2.156-14.385 2.555-27.669.07-2.571.125-5.18.125-7.735.07-13.362-.868-25.872-3.907-28.192-.68-.54-1.477-1.094-2.344-1.696a43.706 43.706 0 0 0-4.571-2.735 42.858 42.858 0 0 0-9.377-3.633 39.104 39.104 0 0 0-18.8-.289 37.989 37.989 0 0 0-5.18 1.562c-.414.141-.829.305-1.266.461-5.899 2.384-5.056 15.229-4.102 26.012.429 5.009.883 9.557.703 12.401a24.503 24.503 0 0 1-.359 2.844c-1.384 7.908-5.775 15.346-6.759 21.121Z" fill="#FF5A18"/><path d="M338.448 138.616v5.775s-1.367 2.508 0 2.773c3.001.602 7.329-2.766 7.329-2.766v-8.821l-7.329 3.039Z" fill="#fff"/><path d="M339.206 147.555a4.033 4.033 0 0 1-.82-.078 1.018 1.018 0 0 1-.743-.555c-.383-.828.297-2.243.493-2.61v-5.907l7.954-3.297v9.439l-.117.101c-.164.125-3.774 2.907-6.767 2.907Zm-.445-8.744-.039 5.712c-.305.578-.719 1.657-.508 2.11a.368.368 0 0 0 .297.211c2.547.508 6.251-2.094 6.954-2.626v-8.165l-6.704 2.758Z" fill="#547AC5"/><path d="M345.777 139.929v-3.907s-3.25 4.125-6.844 4.336c0 .016 3.852 1.579 6.844-.429Z" fill="#9BCEF5"/><path d="M336.651 123.801a40.08 40.08 0 0 0-3.376 10.58c-.484 3.618 6.149 8.4 11.549 3.297 5.399-5.102 3.907-12.9 3.907-12.9l-12.08-.977Z" fill="#fff"/><path d="M339.628 140.226a7.227 7.227 0 0 1-3.282-.782c-2.242-1.148-3.633-3.235-3.391-5.079.68-5.087 3.383-10.619 3.407-10.673l.101-.188 12.502 1.008.047.242c0 .078 1.469 8.025-4 13.19a7.903 7.903 0 0 1-5.384 2.282Zm-2.79-16.089a39.51 39.51 0 0 0-3.25 10.283c-.211 1.563 1.07 3.422 3.047 4.43 2.634 1.352 5.618.829 7.97-1.398 4.689-4.439 4.032-11.057 3.845-12.377l-11.612-.938Z" fill="#547AC5"/><path d="M365.609 201.321c.718 5.509-1.399 11.986.382 17.456 2.016-.375 3.306-.914 3.618-1.563.953-2.055 2.157-14.385 2.555-27.668.071-2.571.125-5.181.125-7.736a47.842 47.842 0 0 0-3.797-6.899 187.527 187.527 0 0 1-11.471-20.316c-.265-.539 3.962-3 4.321-3.125a6.307 6.307 0 0 0-5.688 2.609c-6.493 8.267-8.369 20.394-2.344 29.106 4.125 5.853 11.291 10.408 12.299 18.136Z" fill="#F7391D"/><path d="M332.189 121.762c-.047 4.586 5.025 4.985 8.408 4.774.281 0 .461-.375.703-.391.445 0 .649.235 1.125.313.97.189 1.958.278 2.946.265.49.01.976.087 1.446.227a9.032 9.032 0 0 0-.461 2c-.36 1.719-1.423 3.782-.891 5.572a2.206 2.206 0 0 0 2.75 1.562c1.485-.437 1.329-1.812 1.836-2.953a2.606 2.606 0 0 0 .336-1.915 3.61 3.61 0 0 0-.296-.633c0-.039.062-.242.156-.476a3.629 3.629 0 0 0-.25-3.048 2.707 2.707 0 0 0 1.195-3.461c-.64-1.641-2.188-2.172-3.766-2.25-1.149-1.79-3.313-1.766-5.055-.883a3.286 3.286 0 0 0-2.696-1.157c-2.047-3.594-7.447-1.883-7.486 2.454Z" fill="#3A68FB"/><path d="M347.356 133.678c.086-.094.18-.18.258-.274.781-.898-.664-2.055-1.422-1.156a7.398 7.398 0 0 1-3.282 2.344c-1.797.617-2.649.086-3.907-1.063a.965.965 0 0 0-1.313.117c-1.086 1.274-4.203-.5-4.594 1.469-.305 1.563 1.43 4.314 3.336 4.9 5.064 1.562 8.689-1.782 11.471-4.9a.885.885 0 0 0-.125-1.252.875.875 0 0 0-.422-.185Z" fill="#3A68FB"/><path d="M389.479 213.308c-1.82 2.555-5.149 3.906-9.15 4.532-12.759 1.945-32.45-3.907-32.45-3.907l.469-5.923s19.979 1.617 23.957-5.024c.719-1.204-1.407-14.979-5.111-18.542a214.01 214.01 0 0 0-4.914-4.462 21.253 21.253 0 0 1-7.15-12.26 21.937 21.937 0 0 1 .977-11.533 6.611 6.611 0 0 1 10.384-2.735c5.704 4.689 14.401 15.511 17.042 18.863l.781.984c9.588 12.518 12.846 29.224 5.165 40.007Z" fill="#fff"/><path d="M374.578 218.551c-12.126 0-26.629-4.259-26.801-4.314l-.242-.07.516-6.493h.312c.196 0 19.832 1.524 23.66-4.876.5-.828-1.304-14.541-5.055-18.151a149.144 149.144 0 0 0-4.907-4.454 21.65 21.65 0 0 1-7.251-12.502 22.29 22.29 0 0 1 .992-11.721c.37-1.017.98-1.93 1.778-2.661a6.728 6.728 0 0 1 2.809-1.535 7.026 7.026 0 0 1 6.251 1.321c5.469 4.469 13.775 14.713 17.096 18.917l.203.258.586.781c10.338 13.526 12.502 30.138 5.165 40.397-1.719 2.407-4.86 3.97-9.376 4.688a37.971 37.971 0 0 1-5.736.415Zm-26.379-4.845c2.344.656 20.316 5.618 32.037 3.829 4.321-.664 7.329-2.149 8.939-4.407 7.149-10.033 5.024-26.34-5.165-39.663a16.43 16.43 0 0 0-.563-.726l-.203-.258c-3.305-4.181-11.588-14.393-17.003-18.816a6.4 6.4 0 0 0-2.718-1.293 6.393 6.393 0 0 0-3.009.09 6.089 6.089 0 0 0-4.165 3.805 21.68 21.68 0 0 0-.953 11.369 21.096 21.096 0 0 0 7.032 12.119 232.398 232.398 0 0 1 4.931 4.47c3.828 3.68 5.993 17.542 5.164 18.933-3.805 6.344-21.276 5.383-23.941 5.196l-.383 5.352Z" fill="#547AC5"/><path d="M367.179 187.405c-1.563-1.461-11.15-10.892-12.619-20.261-.672-4.258.648-14.549 5.954-15.776 8.501-1.969 19.855 10.369 27.692 19.683-3.594 8.111-11.486 13.783-21.027 16.354Z" fill="#FF5A18"/></g></g></svg>