<svg width="610" height="424" viewBox="0 0 610 424" fill="none" xmlns="http://www.w3.org/2000/svg">
<rect x="118" y="32" width="171" height="158" rx="16" fill="#F5F5F5"/>
<rect x="322" y="5" width="171" height="158" rx="22" fill="#F5F5F5"/>
<path d="M403.84 396.379H393.265V396.683H403.84V396.379Z" fill="#EBEBEB"/>
<path d="M609.236 373.488H0.76416V373.792H609.236V373.488Z" fill="#EBEBEB"/>
<path d="M380.62 373.172H106.017L103.753 365.408H382.884L380.62 373.172Z" fill="#E0E0E0"/>
<path d="M240.708 259.923H91.1704V311.546H240.708V259.923Z" fill="#EBEBEB"/>
<path d="M240.708 311.534H91.1704V363.156H240.708V311.534Z" fill="#EBEBEB"/>
<path d="M240.708 267.845V262.625H91.1705V267.845H240.708Z" fill="#E0E0E0"/>
<path d="M240.708 319.067V313.846H91.1705V319.067H240.708Z" fill="#E0E0E0"/>
<path d="M88.5664 257.599V365.408H243.325V257.599H88.5664ZM238.104 360.175H93.7871V314.247H238.104V360.175ZM238.104 309.027H93.7871V263.099H238.104V309.027Z" fill="#F5F5F5"/>
<path d="M395.467 259.923H245.929V311.546H395.467V259.923Z" fill="#EBEBEB"/>
<path d="M395.467 311.534H245.929V363.156H395.467V311.534Z" fill="#EBEBEB"/>
<path d="M395.467 267.858V262.637H245.929V267.858H395.467Z" fill="#E0E0E0"/>
<path d="M395.467 319.079V313.858H245.929V319.079H395.467Z" fill="#E0E0E0"/>
<path d="M243.325 257.599V365.408H398.083V257.599H243.325ZM392.863 360.175H248.545V314.247H392.863V360.175ZM392.863 309.027H248.545V263.099H392.863V309.027Z" fill="#F5F5F5"/>
<path d="M325.189 290.566C325.189 293.049 323.181 295.056 320.698 295.056C318.215 295.056 316.208 293.049 316.208 290.566C316.208 288.083 318.215 286.075 320.698 286.075C323.181 286.075 325.189 288.083 325.189 290.566Z" fill="#E0E0E0"/>
<path d="M325.189 289.3C325.189 291.783 323.181 293.791 320.698 293.791C318.215 293.791 316.208 291.783 316.208 289.3C316.208 286.818 318.215 284.81 320.698 284.81C323.181 284.81 325.189 286.818 325.189 289.3Z" fill="#FAFAFA"/>
<path d="M325.189 337.978C325.189 340.46 323.181 342.468 320.698 342.468C318.215 342.468 316.208 340.46 316.208 337.978C316.208 335.495 318.215 333.487 320.698 333.487C323.181 333.487 325.189 335.495 325.189 337.978Z" fill="#E0E0E0"/>
<path d="M325.189 336.712C325.189 339.195 323.181 341.203 320.698 341.203C318.215 341.203 316.208 339.195 316.208 336.712C316.208 334.23 318.215 332.222 320.698 332.222C323.181 332.222 325.189 334.23 325.189 336.712Z" fill="#FAFAFA"/>
<path d="M170.43 290.566C170.43 293.049 168.422 295.056 165.939 295.056C163.457 295.056 161.449 293.049 161.449 290.566C161.449 288.083 163.457 286.075 165.939 286.075C168.422 286.075 170.43 288.083 170.43 290.566Z" fill="#E0E0E0"/>
<path d="M170.43 289.3C170.43 291.783 168.422 293.791 165.939 293.791C163.457 293.791 161.449 291.783 161.449 289.3C161.449 286.818 163.457 284.81 165.939 284.81C168.422 284.81 170.43 286.818 170.43 289.3Z" fill="#FAFAFA"/>
<path d="M170.43 337.978C170.43 340.46 168.422 342.468 165.939 342.468C163.457 342.468 161.449 340.46 161.449 337.978C161.449 335.495 163.457 333.487 165.939 333.487C168.422 333.487 170.43 335.495 170.43 337.978Z" fill="#E0E0E0"/>
<path d="M170.43 336.712C170.43 339.195 168.422 341.203 165.939 341.203C163.457 341.203 161.449 339.195 161.449 336.712C161.449 334.23 163.457 332.222 165.939 332.222C168.422 332.222 170.43 334.23 170.43 336.712Z" fill="#FAFAFA"/>
<path d="M299.135 423.76C429.448 423.76 535.088 417.593 535.088 409.985C535.088 402.376 429.448 396.209 299.135 396.209C168.821 396.209 63.1816 402.376 63.1816 409.985C63.1816 417.593 168.821 423.76 299.135 423.76Z" fill="url(#paint0_linear_1147_48964)"/>
<path d="M459.175 114.462H464.529V98.8607H459.175V114.462Z" fill="#263238"/>
<path d="M444.365 89.9888C445.034 85.2792 448.649 82.4559 452.981 82.3829C453.517 82.3829 457.131 82.3951 457.788 82.3829C458.348 82.3708 458.92 82.4073 459.492 82.4803C461.244 82.7237 462.729 82.8819 464.128 82.9671C465.552 82.8819 467.073 82.7237 468.887 82.4803C469.532 82.3951 474.691 82.3829 475.142 82.3829C479.608 82.3464 482.662 85.1819 482.163 89.9888C482.163 90.0862 482.151 90.1349 482.139 90.2322C481.591 95.5259 476.858 101.221 471.527 101.939C467.499 102.475 464.834 102.633 461.731 102.438C458.591 102.633 455.95 102.475 452.068 101.939C446.921 101.233 443.574 95.5259 444.329 90.2322C444.341 90.1349 444.353 90.0862 444.365 89.9888Z" fill="#263238"/>
<path d="M481.031 105.943C480.337 105.967 477.039 105.882 476.005 105.943C475.19 105.992 474.314 106.126 473.389 106.369C468.557 107.659 464.663 108.413 460.976 108.645C457.349 108.413 453.638 107.659 449.123 106.369C447.979 106.04 446.884 105.894 445.837 105.931C445.095 105.955 441.967 105.931 441.14 105.931C437.245 105.955 434.167 108.353 433.497 112.807C431.039 129.028 428.581 145.25 426.123 161.472H471.6C475.883 161.472 479.851 160.182 483.173 157.98C484.597 142.914 486.008 127.86 487.432 112.794C487.87 108.17 485.181 105.76 481.031 105.919V105.943Z" fill="#263238"/>
<path opacity="0.2" d="M452.068 101.939C457.776 102.73 460.757 102.73 466.659 101.939C471.99 101.234 476.723 95.5261 477.271 90.2324C477.271 90.135 477.283 90.0863 477.295 89.989C477.843 84.6953 474.083 81.7868 468.886 82.4804C463.118 83.2471 460.21 83.2471 454.636 82.4804C449.598 81.7868 445.132 84.6953 444.377 89.989C444.365 90.0863 444.353 90.135 444.341 90.2324C443.586 95.5261 446.921 101.221 452.08 101.939H452.068Z" fill="white"/>
<path opacity="0.2" d="M473.389 106.369C461.572 109.521 455.305 109.521 444.267 106.369C438.974 104.86 434.349 107.209 433.509 112.807C431.051 129.029 428.593 145.251 426.135 161.472H471.612C473.875 161.472 476.054 161.107 478.086 160.438C479.583 144.557 481.08 128.676 482.577 112.807C483.1 107.209 479.06 104.86 473.389 106.369Z" fill="white"/>
<path d="M400.396 137.413L392.011 138.216L379.173 135.186L374.512 142.877L377.505 144.399L381.692 143.121L387.472 144.253L392.681 143.449L402.562 143.693L400.396 137.413Z" fill="#FFC3BD"/>
<path d="M397.001 137.097L398.997 144.265C398.997 144.265 413.454 146.236 419.137 143.741C424.82 141.259 420.524 99.3109 415.06 99.7733C409.596 100.236 412.602 123.443 412.602 130.732C412.602 136.306 397.001 137.109 397.001 137.109V137.097Z" fill="#407BFF"/>
<path opacity="0.7" d="M397.001 137.097L398.997 144.265C398.997 144.265 413.454 146.236 419.137 143.741C424.82 141.259 420.524 99.3109 415.06 99.7733C409.596 100.236 412.602 123.443 412.602 130.732C412.602 136.306 397.001 137.109 397.001 137.109V137.097Z" fill="white"/>
<path d="M413.978 99.8098C408.501 107.647 421.085 119.938 421.352 161.472H461.986C463.167 150.252 467.365 106.296 461.511 97.9966C454.782 88.4679 419.198 92.3499 413.978 99.8098Z" fill="#407BFF"/>
<path d="M427.12 92.3863C427.12 92.3863 417.409 96.0615 426.195 104.653L430.881 102.73L437.635 104.653C437.635 104.653 454.769 85.7297 427.12 92.3863Z" fill="#407BFF"/>
<path opacity="0.7" d="M427.12 92.3863C427.12 92.3863 417.409 96.0615 426.195 104.653L430.881 102.73L437.635 104.653C437.635 104.653 454.769 85.7297 427.12 92.3863Z" fill="white"/>
<path d="M428.472 101.197C426.086 99.2377 423.3 96.244 425.66 94.2847C430.09 93.2016 435.286 92.5323 440.398 92.3984C441.761 93.299 440.994 95.6598 433.668 101.27C432.122 102.45 429.981 102.426 428.472 101.197Z" fill="#FFC3BD"/>
<path d="M425.977 88.7964L434.13 79.937C434.909 86.7276 438.523 92.3012 439.253 92.5202L438.365 95.6356C428.483 106.746 426.208 96.0737 426.208 96.0737C428.617 94.0535 425.989 88.7842 425.989 88.7842L425.977 88.7964Z" fill="#FFC3BD"/>
<path opacity="0.2" d="M430.869 83.4905L434.666 83.1133C434.666 83.1133 434.495 94.5039 426.707 95.4774C428.155 93.1774 425.977 88.7964 425.977 88.7964L430.869 83.4905Z" fill="#263238"/>
<path d="M433.023 70.2015C434.788 78.2577 436.236 82.8577 433.449 88.1757C430.759 93.4451 424.322 95.5382 419.052 92.861C417.117 91.8752 415.523 90.3176 414.489 88.407C410.789 81.8598 408.514 69.7999 415.268 64.1898C419.758 60.2469 426.61 60.685 430.553 65.1877C431.806 66.6115 432.658 68.3517 433.035 70.2137L433.023 70.2015Z" fill="#FFC3BD"/>
<path d="M421.815 76.2375C422.009 76.8703 421.815 77.5031 421.377 77.6005C420.951 77.6978 420.476 77.3206 420.294 76.6877C420.099 76.0549 420.294 75.41 420.744 75.3248C421.182 75.2274 421.644 75.6047 421.815 76.2496V76.2375Z" fill="#263238"/>
<path d="M414.623 78.5619C414.817 79.1947 414.623 79.8275 414.185 79.9249C413.747 80.0344 413.284 79.645 413.089 79C412.895 78.355 413.089 77.7344 413.54 77.637C413.978 77.5275 414.44 77.9169 414.623 78.5619Z" fill="#263238"/>
<path d="M423.36 73.171C423.421 73.1588 423.481 73.1344 423.53 73.0858C423.664 72.9154 423.628 72.672 423.469 72.5381C423.469 72.5381 423.469 72.5381 423.457 72.5381C422.459 71.7593 421.145 71.5159 419.94 71.9053C419.745 71.9783 419.636 72.2096 419.721 72.4043C419.794 72.599 420.025 72.7085 420.22 72.6233C421.157 72.3313 422.179 72.5138 422.958 73.1101C423.068 73.2075 423.226 73.2318 423.36 73.1588V73.171Z" fill="#263238"/>
<path d="M410.826 77.0527C410.947 77.0041 411.032 76.8945 411.045 76.7607C411.191 75.7506 411.787 74.8622 412.675 74.3633C412.858 74.2416 412.894 73.986 412.773 73.8157C412.675 73.6818 412.505 73.6088 412.335 73.6575C411.215 74.2659 410.46 75.3734 410.278 76.6268C410.241 76.8337 410.375 77.0406 410.594 77.0771C410.667 77.0892 410.74 77.0771 410.813 77.0527H410.826Z" fill="#263238"/>
<path d="M422.374 86.3869C422.021 86.4964 421.656 86.5694 421.279 86.6059C421.157 86.6303 421.048 86.5451 421.023 86.4234C421.023 86.3017 421.109 86.1922 421.23 86.18C423.129 85.9731 424.808 84.89 425.77 83.2471C425.818 83.1376 425.952 83.089 426.062 83.1498C426.171 83.1985 426.22 83.3323 426.159 83.4419C425.344 84.9022 423.968 85.9609 422.362 86.399L422.374 86.3869Z" fill="#263238"/>
<path d="M417.129 78.136C416.935 80.3508 416.436 82.5291 415.669 84.6101C417.093 85.3037 418.882 84.2328 418.882 84.2328L417.129 78.1238V78.136Z" fill="#ED893E"/>
<path d="M428.642 58.1417C402.696 53.1644 410.29 74.2906 410.29 74.2906C410.29 74.2906 410.485 70.6762 413.868 70.6762C417.251 70.6762 420.22 68.0233 420.22 68.0233C418.225 70.4329 415.669 71.1509 415.669 71.1509C421.571 71.2482 425.234 67.7434 427.218 64.9323C427.218 64.9323 427.449 66.0884 427.449 66.7333C427.449 69.7027 429.859 71.3091 431.063 75.3615C432.268 79.4017 437.087 75.3615 437.087 75.3615C443.841 58.0322 428.654 58.1417 428.654 58.1417H428.642Z" fill="#263238"/>
<path d="M437.891 75.921C437.854 77.7586 437.124 79.5231 435.846 80.8496C434.155 82.5655 432.22 81.2755 431.782 79.012C431.392 76.9554 431.806 73.6088 433.936 72.7448C436.065 71.8929 437.903 73.6453 437.879 75.921H437.891Z" fill="#FFC3BD"/>
<path d="M429.08 59.3219C429.08 59.3219 423.604 52.6166 419.795 54.4055C415.986 56.1822 426.756 56.6203 429.08 59.3219Z" fill="#263238"/>
<path d="M428.654 138.813L420.269 139.616L407.43 135.296L401.492 141.697L404.473 143.23H409.949L415.742 145.652L420.938 144.849L430.832 145.08L428.654 138.813Z" fill="#FFC3BD"/>
<path d="M459.455 97.3151C456.753 95.4775 453.869 97.2543 450.948 114.06C447.48 133.994 445.18 134.894 425.259 138.484L427.425 145.652C427.425 145.652 444.438 147.745 452.664 142.391C460.903 137.036 466.72 102.268 459.455 97.3151Z" fill="#407BFF"/>
<path opacity="0.7" d="M459.455 97.3151C456.753 95.4775 453.869 97.2543 450.948 114.06C447.48 133.994 445.18 134.894 425.259 138.484L427.425 145.652C427.425 145.652 444.438 147.745 452.664 142.391C460.903 137.036 466.72 102.268 459.455 97.3151Z" fill="white"/>
<path d="M435.201 147.66H323.997C324.715 149.632 325.725 151.469 326.966 153.112H435.201C436.71 153.112 437.927 151.895 437.927 150.386C437.927 148.877 436.71 147.66 435.201 147.66Z" fill="#263238"/>
<path opacity="0.6" d="M435.201 147.66H323.997C324.715 149.632 325.725 151.469 326.966 153.112H435.201C436.71 153.112 437.927 151.895 437.927 150.386C437.927 148.877 436.71 147.66 435.201 147.66Z" fill="white"/>
<path d="M343.71 161.472H432.657V153.112H326.965C330.799 158.186 336.859 161.472 343.71 161.472Z" fill="#263238"/>
<path opacity="0.4" d="M343.71 161.472H432.657V153.112H326.965C330.799 158.186 336.859 161.472 343.71 161.472Z" fill="white"/>
<path d="M418.067 144.119H353.265C352.291 144.119 351.5 144.91 351.5 145.883C351.5 146.857 352.291 147.648 353.265 147.648H418.067C419.04 147.648 419.831 146.857 419.831 145.883C419.831 144.91 419.04 144.119 418.067 144.119Z" fill="#263238"/>
<path opacity="0.3" d="M418.067 144.119H353.265C352.291 144.119 351.5 144.91 351.5 145.883C351.5 146.857 352.291 147.648 353.265 147.648H418.067C419.04 147.648 419.831 146.857 419.831 145.883C419.831 144.91 419.04 144.119 418.067 144.119Z" fill="white"/>
<path d="M354.226 146.577H376.374C376.946 146.577 377.36 146.005 377.165 145.457L365.02 110.75C364.692 109.789 363.779 109.156 362.769 109.156H340.621C340.049 109.156 339.635 109.728 339.83 110.276L351.975 144.983C352.303 145.944 353.216 146.577 354.226 146.577Z" fill="#263238"/>
<path opacity="0.5" d="M354.226 146.577H376.374C376.946 146.577 377.36 146.005 377.165 145.457L365.02 110.75C364.692 109.789 363.779 109.156 362.769 109.156H340.621C340.049 109.156 339.635 109.728 339.83 110.276L351.975 144.983C352.303 145.944 353.216 146.577 354.226 146.577Z" fill="white"/>
<path d="M353.155 146.577H375.303C375.875 146.577 376.289 146.005 376.094 145.457L363.949 110.75C363.608 109.789 362.708 109.156 361.698 109.156H339.549C338.977 109.156 338.564 109.728 338.758 110.276L350.903 144.983C351.232 145.944 352.145 146.577 353.155 146.577Z" fill="#263238"/>
<path opacity="0.7" d="M353.155 146.577H375.303C375.875 146.577 376.289 146.005 376.094 145.457L363.949 110.75C363.608 109.789 362.708 109.156 361.698 109.156H339.549C338.977 109.156 338.564 109.728 338.758 110.276L350.903 144.983C351.232 145.944 352.145 146.577 353.155 146.577Z" fill="white"/>
<path d="M355.637 127.86C355.917 129.187 356.842 130.27 357.694 130.27C358.545 130.27 359.008 129.187 358.728 127.86C358.448 126.534 357.523 125.451 356.671 125.451C355.819 125.451 355.357 126.534 355.637 127.86Z" fill="white"/>
<path opacity="0.2" d="M379.221 147.66C378.248 147.66 377.457 146.869 377.457 145.895C377.457 144.922 378.248 144.131 379.221 144.131H418.066C419.039 144.131 419.83 144.922 419.83 145.895C419.83 146.869 419.039 147.66 418.066 147.66H379.221Z" fill="white"/>
<path d="M339.866 89.2954H335.424V98.9701H339.866V89.2954Z" fill="#407BFF"/>
<path d="M393.071 89.2954H388.629V98.9701H393.071V89.2954Z" fill="#407BFF"/>
<path d="M366.395 70.5912L365.871 70.5547C366.918 55.0143 364.606 49.964 362.488 48.4671C361.247 47.5909 360.139 48.0534 360.127 48.0534L359.92 47.5788C359.92 47.5788 361.308 46.9946 362.792 48.0412C365.032 49.6232 367.465 54.8074 366.395 70.5912Z" fill="#407BFF"/>
<path d="M363.437 69.0088C362.926 55.7928 365.214 50.8642 367.234 49.051C368.488 47.9192 369.583 48.0652 369.619 48.0774L369.546 48.5885C369.546 48.5885 368.621 48.479 367.551 49.4647C365.64 51.2171 363.462 56.0241 363.961 68.9845L363.437 69.0088Z" fill="#407BFF"/>
<path d="M365.665 69.0209L365.142 68.9844C365.677 61.0378 364.704 56.316 362.306 55.3181C359.179 54.016 354.518 59.2367 354.469 59.2854L354.08 58.9446C354.274 58.7134 359.033 53.3954 362.501 54.8435C365.154 55.9509 366.213 60.7214 365.653 69.0209H365.665Z" fill="#407BFF"/>
<path d="M364.351 69.5322C364.351 64.6523 365.361 61.6464 367.369 60.5877C369.632 59.3951 372.236 61.1596 372.346 61.2327L372.054 61.6586C372.054 61.6586 369.596 60.0035 367.612 61.0501C365.799 62.0115 364.874 64.8591 364.874 69.5322H364.351Z" fill="#407BFF"/>
<g opacity="0.2">
<path d="M366.395 70.5912L365.871 70.5547C366.918 55.0143 364.606 49.964 362.488 48.4671C361.247 47.5909 360.139 48.0534 360.127 48.0534L359.92 47.5788C359.92 47.5788 361.308 46.9946 362.792 48.0412C365.032 49.6232 367.465 54.8074 366.395 70.5912Z" fill="black"/>
<path d="M363.437 69.0088C362.926 55.7928 365.214 50.8642 367.234 49.051C368.488 47.9192 369.583 48.0652 369.619 48.0774L369.546 48.5885C369.546 48.5885 368.621 48.479 367.551 49.4647C365.64 51.2171 363.462 56.0241 363.961 68.9845L363.437 69.0088Z" fill="black"/>
<path d="M365.665 69.0209L365.142 68.9844C365.677 61.0378 364.704 56.316 362.306 55.3181C359.179 54.016 354.518 59.2367 354.469 59.2854L354.08 58.9446C354.274 58.7134 359.033 53.3954 362.501 54.8435C365.154 55.9509 366.213 60.7214 365.653 69.0209H365.665Z" fill="black"/>
<path d="M364.351 69.5322C364.351 64.6523 365.361 61.6464 367.369 60.5877C369.632 59.3951 372.236 61.1596 372.346 61.2327L372.054 61.6586C372.054 61.6586 369.596 60.0035 367.612 61.0501C365.799 62.0115 364.874 64.8591 364.874 69.5322H364.351Z" fill="black"/>
</g>
<path d="M352.559 68.1326L354.798 80.874C355.309 83.7946 357.84 85.9243 360.809 85.9243H369.717C372.675 85.9243 375.218 83.7946 375.729 80.874L377.968 68.1326H352.546H352.559Z" fill="#263238"/>
<path opacity="0.3" d="M352.559 68.1326L354.798 80.874C355.309 83.7946 357.84 85.9243 360.809 85.9243H369.717C372.675 85.9243 375.218 83.7946 375.729 80.874L377.968 68.1326H352.546H352.559Z" fill="white"/>
<path d="M361.052 47.7125C361.052 47.7125 366.334 38.8288 357.036 38.695C355.661 38.6706 354.335 38.8897 353.069 39.2426C354.262 40.0701 356.233 41.5669 355.235 41.9564C354.189 42.358 350.416 41.5913 348.591 41.1897C343.808 44.0252 340.717 48.2845 340.717 48.2845C340.717 48.2845 343.212 50.6819 346.729 53.0792C347.654 52.1544 349.065 50.9983 349.857 51.4607C350.66 51.9231 351.524 54.3935 352.059 56.1581C353.872 56.9978 355.747 57.6306 357.572 57.874C357.523 56.4502 357.548 54.1501 358.229 53.7972C358.935 53.42 361.381 55.7808 362.768 57.2047C369.875 54.138 361.065 47.7125 361.065 47.7125H361.052Z" fill="#407BFF"/>
<path opacity="0.1" d="M361.052 47.7125C361.052 47.7125 366.334 38.8288 357.036 38.695C355.661 38.6706 354.335 38.8897 353.069 39.2426C354.262 40.0701 356.233 41.5669 355.235 41.9564C354.189 42.358 350.416 41.5913 348.591 41.1897C343.808 44.0252 340.717 48.2845 340.717 48.2845C340.717 48.2845 343.212 50.6819 346.729 53.0792C347.654 52.1544 349.065 50.9983 349.857 51.4607C350.66 51.9231 351.524 54.3935 352.059 56.1581C353.872 56.9978 355.747 57.6306 357.572 57.874C357.523 56.4502 357.548 54.1501 358.229 53.7972C358.935 53.42 361.381 55.7808 362.768 57.2047C369.875 54.138 361.065 47.7125 361.065 47.7125H361.052Z" fill="white"/>
<path opacity="0.3" d="M361.052 47.7125C361.052 47.7125 366.334 38.8288 357.036 38.695C355.661 38.6706 354.335 38.8897 353.069 39.2426C354.262 40.0701 356.233 41.5669 355.235 41.9564C354.189 42.358 350.416 41.5913 348.591 41.1897C343.808 44.0252 340.717 48.2845 340.717 48.2845C350.867 43.9765 361.065 47.7125 361.065 47.7125H361.052Z" fill="white"/>
<path d="M372.066 53.7244C373.052 53.4445 374.268 55.3916 374.901 56.5721C376.909 55.7446 378.82 54.3938 380.487 52.9578C380.037 51.9599 379.526 50.5969 379.842 50.0736C380.183 49.526 381.935 49.9641 383.201 50.3535C385.172 48.2725 386.414 46.5323 386.414 46.5323C386.414 46.5323 385.245 45.5466 383.347 44.4148C381.521 44.6217 378.942 44.7799 378.309 44.1593C377.639 43.4899 379.075 43.0032 380.085 42.7476C378.479 42.0539 376.666 41.4942 374.755 41.2629C374.512 42.0905 373.976 43.3683 372.991 43.3683C372.066 43.3683 370.971 42.2608 370.289 41.4455C362.671 43.0884 368.719 48.5403 368.719 48.5403C368.719 48.5403 362.16 56.3287 369.96 57.3631C370.374 56.0245 371.141 53.9922 372.066 53.7366V53.7244Z" fill="#407BFF"/>
<path opacity="0.2" d="M372.066 53.7244C373.052 53.4445 374.268 55.3916 374.901 56.5721C376.909 55.7446 378.82 54.3938 380.487 52.9578C380.037 51.9599 379.526 50.5969 379.842 50.0736C380.183 49.526 381.935 49.9641 383.201 50.3535C385.172 48.2725 386.414 46.5323 386.414 46.5323C386.414 46.5323 385.245 45.5466 383.347 44.4148C381.521 44.6217 378.942 44.7799 378.309 44.1593C377.639 43.4899 379.075 43.0032 380.085 42.7476C378.479 42.0539 376.666 41.4942 374.755 41.2629C374.512 42.0905 373.976 43.3683 372.991 43.3683C372.066 43.3683 370.971 42.2608 370.289 41.4455C362.671 43.0884 368.719 48.5403 368.719 48.5403C368.719 48.5403 362.16 56.3287 369.96 57.3631C370.374 56.0245 371.141 53.9922 372.066 53.7366V53.7244Z" fill="white"/>
<path opacity="0.3" d="M378.308 44.1468C377.639 43.4775 379.075 42.9907 380.085 42.7352C378.479 42.0415 376.666 41.4817 374.755 41.2505C374.512 42.078 373.976 43.3558 372.99 43.3558C372.066 43.3558 370.97 42.2484 370.289 41.433C362.671 43.0759 368.719 48.5278 368.719 48.5278C368.719 48.5278 378.613 44.9135 386.401 46.532C386.401 46.532 385.233 45.5463 383.334 44.4145C381.509 44.6214 378.929 44.7796 378.296 44.159L378.308 44.1468Z" fill="white"/>
<path d="M383.214 60.5636C382.155 61.1356 380.123 62.0605 379.307 61.2451C378.419 60.3567 379.733 56.9858 380.354 55.5741C379.356 54.3694 378.212 53.3958 376.849 52.7995C368.574 49.1244 371.385 61.0139 371.385 61.0139C371.385 61.0139 360.931 63.533 367.673 69.9462C368.172 70.4209 368.683 70.8346 369.231 71.2119C369.754 69.9706 370.776 67.9505 371.799 68.2304C372.797 68.4981 372.431 71.151 372.091 72.7939C373.904 73.5606 375.802 73.9865 377.591 74.2177C377.835 73.0616 378.297 71.5283 379.039 71.5648C379.83 71.6135 380.865 73.2807 381.485 74.4246C384.236 74.3881 386.159 73.9987 386.159 73.9987C386.159 73.9987 385.72 66.7335 383.201 60.5758L383.214 60.5636Z" fill="#407BFF"/>
<path opacity="0.2" d="M371.385 61.0137C371.385 61.0137 360.931 63.5327 367.673 69.946C368.172 70.4206 368.683 70.8344 369.231 71.2117C369.754 69.9704 370.776 67.9502 371.799 68.2301C372.797 68.4979 372.431 71.1508 372.091 72.7937C373.904 73.5604 375.802 73.9863 377.591 74.2175C377.835 73.0614 378.297 71.5281 379.039 71.5646C379.83 71.6132 380.865 73.2805 381.485 74.4244C384.236 74.3879 386.159 73.9985 386.159 73.9985C381.449 63.7396 371.373 61.0258 371.373 61.0258L371.385 61.0137Z" fill="white"/>
<path d="M355.15 58.4824C355.15 58.4824 349.552 49.2214 345.439 57.5697C344.77 58.9326 344.368 60.3443 344.149 61.756C345.865 61.0014 349.54 59.6141 349.589 61.5004C349.65 63.557 345.707 67.4026 344.392 68.6317C345.244 73.0614 347.094 76.4323 347.094 76.4323C347.094 76.4323 349.26 75.6169 352.059 74.1444C352.205 72.6476 352.643 69.6782 353.751 69.0333C354.919 68.3518 355.698 70.7613 355.99 71.8566C357.718 70.7248 359.434 69.4105 360.882 67.938C359.811 66.7089 358.338 64.7861 358.777 63.7761C359.251 62.6808 362.269 63.1554 363.949 63.5084C364.253 62.766 364.46 62.0115 364.557 61.2327C365.604 52.2273 355.162 58.4945 355.162 58.4945L355.15 58.4824Z" fill="#407BFF"/>
<path opacity="0.2" d="M347.082 76.4321C347.082 76.4321 349.248 75.6168 352.047 74.1443C352.193 72.6474 352.631 69.6781 353.739 69.0331C354.907 68.3516 355.686 70.7611 355.978 71.8564C357.706 70.7246 359.422 69.4103 360.87 67.9378C359.799 66.7087 358.327 64.786 358.765 63.7759C359.239 62.6806 362.257 63.1553 363.937 63.5082C364.241 62.7658 364.448 62.0113 364.545 61.2325C365.592 52.2271 355.15 58.4944 355.15 58.4944C355.15 58.4944 348.98 64.2383 347.094 76.4443L347.082 76.4321Z" fill="white"/>
<path d="M398.559 84.8535H329.947V90.3176H398.559V84.8535Z" fill="#407BFF"/>
<path opacity="0.3" d="M398.559 84.8535H329.947V90.3176H398.559V84.8535Z" fill="white"/>
<path d="M471.6 0.421875H343.711C329.303 0.421875 317.571 12.141 317.571 26.5618V140.48C317.571 154.888 329.29 166.62 343.711 166.62H471.6C486.008 166.62 497.74 154.901 497.74 140.48V26.5618C497.74 12.1532 486.021 0.421875 471.6 0.421875ZM492.592 140.48C492.592 152.077 483.197 161.472 471.6 161.472H343.711C332.114 161.472 322.719 152.077 322.719 140.48V26.5618C322.719 14.9643 332.114 5.56955 343.711 5.56955H471.6C483.197 5.56955 492.592 14.9643 492.592 26.5618V140.48Z" fill="#407BFF"/>
<path opacity="0.4" d="M471.6 0.421875H343.711C329.303 0.421875 317.571 12.141 317.571 26.5618V140.48C317.571 154.888 329.29 166.62 343.711 166.62H471.6C486.008 166.62 497.74 154.901 497.74 140.48V26.5618C497.74 12.1532 486.021 0.421875 471.6 0.421875ZM492.592 140.48C492.592 152.077 483.197 161.472 471.6 161.472H343.711C332.114 161.472 322.719 152.077 322.719 140.48V26.5618C322.719 14.9643 332.114 5.56955 343.711 5.56955H471.6C483.197 5.56955 492.592 14.9643 492.592 26.5618V140.48Z" fill="white"/>
<path d="M455.901 41.8469H439.874C438.16 41.8469 436.771 43.2363 436.771 44.9501V47.7734C436.771 49.4873 438.16 50.8766 439.874 50.8766H455.901C457.615 50.8766 459.005 49.4873 459.005 47.7734V44.9501C459.005 43.2363 457.615 41.8469 455.901 41.8469Z" fill="#407BFF"/>
<path d="M469.872 30.6753H453.845C452.131 30.6753 450.742 32.0646 450.742 33.7785V36.6018C450.742 38.3157 452.131 39.705 453.845 39.705H469.872C471.586 39.705 472.975 38.3157 472.975 36.6018V33.7785C472.975 32.0646 471.586 30.6753 469.872 30.6753Z" fill="#407BFF"/>
<path d="M464.846 53.0186H448.819C447.105 53.0186 445.715 54.4079 445.715 56.1218V58.9451C445.715 60.6589 447.105 62.0483 448.819 62.0483H464.846C466.56 62.0483 467.949 60.6589 467.949 58.9451V56.1218C467.949 54.4079 466.56 53.0186 464.846 53.0186Z" fill="#407BFF"/>
<path d="M480.982 41.8469H464.955C463.241 41.8469 461.852 43.2363 461.852 44.9501V47.7734C461.852 49.4873 463.241 50.8766 464.955 50.8766H480.982C482.696 50.8766 484.086 49.4873 484.086 47.7734V44.9501C484.086 43.2363 482.696 41.8469 480.982 41.8469Z" fill="#407BFF"/>
<path opacity="0.7" d="M455.901 41.8469H439.874C438.16 41.8469 436.771 43.2363 436.771 44.9501V47.7734C436.771 49.4873 438.16 50.8766 439.874 50.8766H455.901C457.615 50.8766 459.005 49.4873 459.005 47.7734V44.9501C459.005 43.2363 457.615 41.8469 455.901 41.8469Z" fill="white"/>
<path opacity="0.8" d="M469.872 30.6753H453.845C452.131 30.6753 450.742 32.0646 450.742 33.7785V36.6018C450.742 38.3157 452.131 39.705 453.845 39.705H469.872C471.586 39.705 472.975 38.3157 472.975 36.6018V33.7785C472.975 32.0646 471.586 30.6753 469.872 30.6753Z" fill="white"/>
<path opacity="0.8" d="M464.846 53.0186H448.819C447.105 53.0186 445.715 54.4079 445.715 56.1218V58.9451C445.715 60.6589 447.105 62.0483 448.819 62.0483H464.846C466.56 62.0483 467.949 60.6589 467.949 58.9451V56.1218C467.949 54.4079 466.56 53.0186 464.846 53.0186Z" fill="white"/>
<path opacity="0.7" d="M480.982 41.8469H464.955C463.241 41.8469 461.852 43.2363 461.852 44.9501V47.7734C461.852 49.4873 463.241 50.8766 464.955 50.8766H480.982C482.696 50.8766 484.086 49.4873 484.086 47.7734V44.9501C484.086 43.2363 482.696 41.8469 480.982 41.8469Z" fill="white"/>
<path d="M416.107 29.6045L432.134 29.6045C433.848 29.6045 435.237 28.2151 435.237 26.5013V23.678C435.237 21.9641 433.848 20.5748 432.134 20.5748H416.107C414.393 20.5748 413.004 21.9641 413.004 23.678V26.5013C413.004 28.2151 414.393 29.6045 416.107 29.6045Z" fill="#407BFF"/>
<path d="M407.138 40.7639H423.165C424.879 40.7639 426.268 39.3746 426.268 37.6607V34.8374C426.268 33.1236 424.879 31.7342 423.165 31.7342H407.138C405.424 31.7342 404.035 33.1236 404.035 34.8374V37.6607C404.035 39.3746 405.424 40.7639 407.138 40.7639Z" fill="#407BFF"/>
<path d="M391.001 29.6045L407.029 29.6045C408.742 29.6045 410.132 28.2151 410.132 26.5013V23.678C410.132 21.9641 408.742 20.5748 407.029 20.5748H391.001C389.288 20.5748 387.898 21.9641 387.898 23.678V26.5013C387.898 28.2151 389.288 29.6045 391.001 29.6045Z" fill="#407BFF"/>
<path opacity="0.8" d="M416.107 29.6045L432.134 29.6045C433.848 29.6045 435.237 28.2151 435.237 26.5013V23.678C435.237 21.9641 433.848 20.5748 432.134 20.5748H416.107C414.393 20.5748 413.004 21.9641 413.004 23.678V26.5013C413.004 28.2151 414.393 29.6045 416.107 29.6045Z" fill="white"/>
<path opacity="0.8" d="M407.138 40.7639H423.165C424.879 40.7639 426.268 39.3746 426.268 37.6607V34.8374C426.268 33.1236 424.879 31.7342 423.165 31.7342H407.138C405.424 31.7342 404.035 33.1236 404.035 34.8374V37.6607C404.035 39.3746 405.424 40.7639 407.138 40.7639Z" fill="white"/>
<path opacity="0.7" d="M391.001 29.6045L407.029 29.6045C408.742 29.6045 410.132 28.2151 410.132 26.5013V23.678C410.132 21.9641 408.742 20.5748 407.029 20.5748H391.001C389.288 20.5748 387.898 21.9641 387.898 23.678V26.5013C387.898 28.2151 389.288 29.6045 391.001 29.6045Z" fill="white"/>
<path d="M274.649 51.9111H201.803V134.189H274.649V51.9111Z" fill="#263238"/>
<path d="M280.479 134.189H195.962V140.821H280.479V134.189Z" fill="#263238"/>
<g opacity="0.4">
<path d="M280.479 134.189H195.962V140.821H280.479V134.189Z" fill="white"/>
</g>
<path opacity="0.6" d="M274.649 51.9111H201.803V134.189H274.649V51.9111Z" fill="white"/>
<path opacity="0.5" d="M269.513 57.0586H206.95V129.053H269.513V57.0586Z" fill="white"/>
<g opacity="0.2">
<path d="M206.95 57.0586V129.041H207.388L224.596 57.0586H206.95Z" fill="white"/>
<path d="M260.605 57.0586H257.38L240.185 129.041H243.41L260.605 57.0586Z" fill="white"/>
<path d="M253.049 57.0586H239.553L222.357 129.041H235.853L253.049 57.0586Z" fill="white"/>
</g>
<path d="M159.709 118.247C157.239 118.429 154.123 116.446 152.602 113.866C152.128 113.063 151.884 112.649 151.397 111.846C147.88 106.102 140.177 101.988 134.847 102.378C134.312 102.414 134.044 102.439 133.508 102.475C132.863 102.524 130.405 102.694 129.772 102.743C129.237 102.779 128.969 102.804 128.434 102.84C123.116 103.23 121.911 107.988 125.075 113.756C125.513 114.559 125.732 114.973 126.158 115.776C127.521 118.368 126.499 120.644 124.041 120.827C119.781 121.131 117.98 125.074 119.635 129.723C125.038 148.889 126.535 165.05 124.454 182.562C128.19 186.018 133.18 188.148 138.68 188.148H181.882C183.549 166.219 180.409 147.94 171.696 125.95C169.53 121.338 163.981 117.93 159.721 118.235L159.709 118.247Z" fill="#407BFF"/>
<path opacity="0.1" d="M159.709 118.247C157.239 118.429 154.123 116.446 152.602 113.866C152.128 113.063 151.884 112.649 151.397 111.846C147.88 106.102 140.177 101.988 134.847 102.378C134.312 102.414 134.044 102.439 133.508 102.475C132.863 102.524 130.405 102.694 129.772 102.743C129.237 102.779 128.969 102.804 128.434 102.84C123.116 103.23 121.911 107.988 125.075 113.756C125.513 114.559 125.732 114.973 126.158 115.776C127.521 118.368 126.499 120.644 124.041 120.827C119.781 121.131 117.98 125.074 119.635 129.723C125.038 148.889 126.535 165.05 124.454 182.562C128.19 186.018 133.18 188.148 138.68 188.148H181.882C183.549 166.219 180.409 147.94 171.696 125.95C169.53 121.338 163.981 117.93 159.721 118.235L159.709 118.247Z" fill="black"/>
<path opacity="0.2" d="M159.709 118.247C157.239 118.429 154.123 116.446 152.602 113.866C152.127 113.063 151.884 112.649 151.397 111.846C147.88 106.102 140.177 101.988 134.847 102.378C134.311 102.414 134.044 102.439 133.508 102.475C128.19 102.865 127.034 107.623 130.271 113.379C130.721 114.182 130.941 114.584 131.379 115.399C132.766 117.991 131.78 120.267 129.31 120.449C125.05 120.754 123.298 124.684 125.002 129.345C131.05 149.936 132.535 167.083 129.918 186.225C132.583 187.454 135.541 188.148 138.668 188.148H181.87C183.537 166.219 180.397 147.94 171.684 125.95C169.518 121.338 163.968 117.93 159.709 118.235V118.247Z" fill="black"/>
<path d="M188.94 139.969C188.94 139.969 187.054 164.904 193.309 164.649C199.564 164.393 211.88 164.478 211.88 164.478L222.053 159.927C222.601 159.683 223.234 159.805 223.66 160.219L228.272 164.782C229.197 165.695 228.527 167.277 227.225 167.241L224.414 167.168C224.414 167.168 219.498 170.234 212.014 169.541C213.462 169.09 186.275 174.141 183.476 170.295C179.655 165.014 177.988 142.975 177.988 142.975L188.952 139.957L188.94 139.969Z" fill="#B55B52"/>
<path opacity="0.1" d="M188.94 139.969C188.94 139.969 187.054 164.904 193.309 164.649C199.564 164.393 211.88 164.478 211.88 164.478L222.053 159.927C222.601 159.683 223.234 159.805 223.66 160.219L228.272 164.782C229.197 165.695 228.527 167.277 227.225 167.241L224.414 167.168C224.414 167.168 219.498 170.234 212.014 169.541C213.462 169.09 186.275 174.141 183.476 170.295C179.655 165.014 177.988 142.975 177.988 142.975L188.952 139.957L188.94 139.969Z" fill="black"/>
<path d="M183.051 124.441C187.286 124.307 192.068 129.808 189.963 144.435L178.305 146.687C178.305 146.687 174.52 124.709 183.051 124.441Z" fill="#263238"/>
<path opacity="0.2" d="M183.051 124.441C187.286 124.307 192.068 129.808 189.963 144.435L178.305 146.687C178.305 146.687 174.52 124.709 183.051 124.441Z" fill="black"/>
<path d="M140.007 124.684C133.63 132.899 134.677 176.112 135.079 187.831C136.247 188.038 137.439 188.16 138.669 188.16H175.725C178.889 146.626 192.336 134.335 187.407 126.498C182.71 119.038 147.394 115.156 140.007 124.684Z" fill="#263238"/>
<path d="M170.772 129.807C170.772 129.807 180.009 124.063 176.26 120.948C171.831 119.865 166.634 119.196 161.523 119.062C160.014 120.06 161.109 122.834 170.772 129.807Z" fill="#B55B52"/>
<path d="M175.944 115.472L167.79 106.613C167.011 113.403 163.397 118.977 162.667 119.196L163.555 122.311C173.437 133.422 175.713 122.749 175.713 122.749C173.303 120.729 175.932 115.46 175.932 115.46L175.944 115.472Z" fill="#B55B52"/>
<path opacity="0.2" d="M171.052 110.166L167.255 109.789C167.255 109.789 167.425 121.179 175.214 122.153C173.766 119.853 175.944 115.472 175.944 115.472L171.052 110.166Z" fill="#263238"/>
<path d="M168.897 96.8895C167.133 104.946 165.685 109.546 168.472 114.864C171.161 120.133 177.599 122.226 182.868 119.549C184.803 118.563 186.397 117.006 187.432 115.095C191.131 108.548 193.407 96.4879 186.653 90.8778C182.162 86.9349 175.311 87.373 171.368 91.8757C170.114 93.2995 169.263 95.0397 168.885 96.9016L168.897 96.8895Z" fill="#B55B52"/>
<path d="M180.106 102.925C179.911 103.558 180.106 104.191 180.544 104.288C180.97 104.386 181.444 104.008 181.627 103.375C181.822 102.743 181.627 102.098 181.177 102.013C180.739 101.915 180.276 102.292 180.106 102.937V102.925Z" fill="#263238"/>
<path d="M187.298 105.238C187.103 105.87 187.298 106.503 187.736 106.601C188.174 106.71 188.636 106.321 188.831 105.676C189.026 105.031 188.831 104.41 188.381 104.313C187.943 104.203 187.48 104.593 187.298 105.238Z" fill="#263238"/>
<path d="M178.56 99.8587C178.499 99.8465 178.438 99.8222 178.39 99.7735C178.256 99.6031 178.292 99.3598 178.451 99.2259C178.451 99.2259 178.451 99.2259 178.463 99.2259C179.461 98.447 180.775 98.2037 181.98 98.5931C182.174 98.6661 182.284 98.8973 182.199 99.092C182.126 99.2867 181.895 99.3963 181.7 99.3111C180.763 99.019 179.741 99.2016 178.962 99.7979C178.852 99.8952 178.694 99.9195 178.56 99.8465V99.8587Z" fill="#263238"/>
<path d="M191.095 103.741C190.973 103.692 190.888 103.583 190.876 103.449C190.73 102.439 190.133 101.55 189.245 101.051C189.062 100.93 189.026 100.674 189.148 100.504C189.245 100.37 189.415 100.297 189.586 100.345C190.705 100.954 191.46 102.061 191.642 103.315C191.679 103.522 191.545 103.729 191.326 103.765C191.253 103.777 191.18 103.765 191.107 103.741H191.095Z" fill="#263238"/>
<path d="M179.546 113.062C179.899 113.172 180.264 113.245 180.641 113.281C180.763 113.306 180.873 113.221 180.897 113.099C180.897 112.977 180.812 112.868 180.69 112.856C178.792 112.649 177.112 111.566 176.151 109.923C176.102 109.813 175.968 109.764 175.859 109.825C175.749 109.874 175.701 110.008 175.761 110.117C176.577 111.578 177.952 112.636 179.558 113.075L179.546 113.062Z" fill="#263238"/>
<path d="M184.79 104.824C184.985 107.039 185.484 109.217 186.251 111.298C184.827 111.991 183.038 110.921 183.038 110.921L184.79 104.812V104.824Z" fill="#A02724"/>
<path d="M169.056 101.368C169.056 101.368 176.869 101.453 174.629 96.9502C174.629 96.9502 185.472 99.0433 183.623 94.9423C183.623 94.9423 190.973 100.723 189.062 95.2587C189.062 95.2587 194.064 99.518 194.222 96.7798C194.38 94.0539 191.63 92.3015 191.63 92.3015C191.63 92.3015 197.739 87.3485 188.88 87.3485C188.88 87.3485 190.973 79.9008 180.872 85.8517C180.872 85.8517 182.211 78.1363 174.69 85.8517C174.69 85.8517 164.48 85.9369 166.902 89.3078C166.902 89.3078 160.476 91.4009 164.492 93.6401C164.492 93.6401 159.6 98.0698 163.166 99.8709C163.166 99.8709 158.541 106.235 165.295 105.444C165.295 105.444 162.886 111.322 165.855 110.118C168.825 108.913 169.044 101.356 169.044 101.356L169.056 101.368Z" fill="#263238"/>
<path d="M164.03 102.597C164.066 104.435 164.796 106.199 166.074 107.526C167.766 109.242 169.701 107.952 170.139 105.688C170.528 103.631 170.115 100.285 167.985 99.4208C165.855 98.5689 164.018 100.321 164.042 102.597H164.03Z" fill="#B55B52"/>
<path opacity="0.3" d="M177.16 175.078C177.525 172.595 177.915 170.259 178.341 168.032L174.459 167.253L152.931 154.56L145.216 136.72L142.003 129.808L138.985 131.414C138.985 131.414 138.948 167.119 154.051 173.618C160.403 176.344 168.459 175.492 177.16 175.078Z" fill="black"/>
<path d="M152.469 138.655C152.469 138.655 156.887 160.694 170.662 163.176C184.426 165.647 186.531 165.61 186.531 165.61L197.691 161.971C198.36 161.752 199.09 161.971 199.528 162.531L202.352 166.146C203.179 167.204 202.485 168.762 201.135 168.847L196.364 169.151C196.364 169.151 192.896 172.388 186.982 171.67C186.982 171.67 164.651 174.116 156.874 169.638C149.086 165.16 142.928 146.857 142.928 146.857L152.481 138.643L152.469 138.655Z" fill="#B55B52"/>
<path d="M142.6 152.954C142.6 152.954 134.787 127.934 142.161 123.954C149.536 119.975 154.392 137.535 156.205 144.168L142.6 152.954Z" fill="#263238"/>
<path d="M216.017 169.224L189.074 170.502V174.336H216.017H233.371V169.224H216.017Z" fill="#407BFF"/>
<path opacity="0.3" d="M216.017 174.336H189.062V170.502L216.017 169.224V174.336Z" fill="white"/>
<path opacity="0.6" d="M233.371 169.224H216.017V174.336H233.371V169.224Z" fill="white"/>
<path d="M275.258 161.156H218.329L224.073 114.353H281.002L275.258 161.156Z" fill="#407BFF"/>
<path opacity="0.3" d="M275.258 161.156H218.329L224.073 114.353H281.002L275.258 161.156Z" fill="white"/>
<path d="M227.359 114.353L221.603 161.156H275.258L281.002 114.353H227.359Z" fill="#407BFF"/>
<path opacity="0.6" d="M227.359 114.353L221.603 161.156H275.258L281.002 114.353H227.359Z" fill="white"/>
<path d="M256.723 174.19H244.615L243.398 154.877H253.207L256.723 174.19Z" fill="#407BFF"/>
<path opacity="0.3" d="M256.723 174.19H244.615L243.398 154.877H253.207L256.723 174.19Z" fill="white"/>
<path d="M258.89 174.19H246.781L245.552 154.877H255.361L258.89 174.19Z" fill="#407BFF"/>
<path opacity="0.5" d="M258.89 174.19H246.781L245.552 154.877H255.361L258.89 174.19Z" fill="white"/>
<path d="M250.493 170.831H248.534H231.801V174.335H248.534H250.493H267.226V170.831H250.493Z" fill="#407BFF"/>
<path opacity="0.3" d="M250.493 170.831H248.534H231.801V174.335H248.534H250.493H267.226V170.831H250.493Z" fill="white"/>
<path d="M267.225 170.831H248.533V174.335H267.225V170.831Z" fill="#407BFF"/>
<path opacity="0.6" d="M267.225 170.831H248.533V174.335H267.225V170.831Z" fill="white"/>
<path d="M178.073 179.787V188.148H266.557C273.408 188.148 279.468 184.862 283.302 179.787H178.073Z" fill="#263238"/>
<path opacity="0.3" d="M178.073 179.787V188.148H266.557C273.408 188.148 279.468 184.862 283.302 179.787H178.073Z" fill="white"/>
<path d="M286.271 174.336H172.803V179.788H283.302C284.543 178.145 285.553 176.307 286.271 174.336Z" fill="#263238"/>
<path opacity="0.5" d="M286.271 174.336H172.803V179.788H283.302C284.543 178.145 285.553 176.307 286.271 174.336Z" fill="white"/>
<path d="M266.569 27.1099H138.68C124.272 27.1099 112.541 38.829 112.541 53.2498V167.168C112.541 181.576 124.26 193.308 138.68 193.308H266.569C280.978 193.308 292.709 181.589 292.709 167.168V53.2498C292.709 38.8412 280.99 27.1099 266.569 27.1099ZM287.561 167.168C287.561 178.765 278.166 188.16 266.569 188.16H138.68C127.083 188.16 117.688 178.765 117.688 167.168V53.2498C117.688 41.6523 127.083 32.2575 138.68 32.2575H266.569C278.166 32.2575 287.561 41.6523 287.561 53.2498V167.168Z" fill="#407BFF"/>
<path opacity="0.4" d="M266.569 27.1099H138.68C124.272 27.1099 112.541 38.829 112.541 53.2498V167.168C112.541 181.576 124.26 193.308 138.68 193.308H266.569C280.978 193.308 292.709 181.589 292.709 167.168V53.2498C292.709 38.8412 280.99 27.1099 266.569 27.1099ZM287.561 167.168C287.561 178.765 278.166 188.16 266.569 188.16H138.68C127.083 188.16 117.688 178.765 117.688 167.168V53.2498C117.688 41.6523 127.083 32.2575 138.68 32.2575H266.569C278.166 32.2575 287.561 41.6523 287.561 53.2498V167.168Z" fill="white"/>
<path d="M329.095 88.7323C342.159 75.6678 342.159 54.486 329.095 41.4215C316.03 28.357 294.848 28.357 281.784 41.4215C268.719 54.486 268.719 75.6678 281.784 88.7323C294.848 101.797 316.03 101.797 329.095 88.7323Z" fill="#407BFF"/>
<path opacity="0.3" d="M329.095 88.7323C342.159 75.6678 342.159 54.486 329.095 41.4215C316.03 28.357 294.848 28.357 281.784 41.4215C268.719 54.486 268.719 75.6678 281.784 88.7323C294.848 101.797 316.03 101.797 329.095 88.7323Z" fill="black"/>
<path d="M337.988 70.4381C342.232 52.4561 331.095 34.4383 313.113 30.1942C295.131 25.9501 277.113 37.0868 272.869 55.0687C268.625 73.0507 279.762 91.0685 297.744 95.3126C315.726 99.5567 333.743 88.42 337.988 70.4381Z" fill="#407BFF"/>
<path opacity="0.9" d="M333.013 69.2636C336.609 54.029 327.173 38.764 311.939 35.1683C296.704 31.5727 281.439 41.0078 277.844 56.2425C274.248 71.4771 283.683 86.742 298.918 90.3377C314.152 93.9334 329.417 84.4982 333.013 69.2636Z" fill="white"/>
<path d="M304.282 42.8085C304.282 49.0879 304.075 55.3917 304.282 61.6711C304.355 63.679 305.28 64.2388 306.74 65.687L313.372 72.3193C314.431 73.3781 316.062 71.7352 315.015 70.6765L308.845 64.5066C308.054 63.7156 306.923 62.9002 306.302 61.9632C307.081 63.1436 306.606 61.805 306.606 60.8071V42.7963C306.606 41.3116 304.294 41.2995 304.294 42.7963L304.282 42.8085Z" fill="#263238"/>
<path d="M358.46 405.53C356.914 405.53 355.612 404.35 355.466 402.817L354.517 392.789V309.538H362.415V392.789L361.466 402.817C361.32 404.362 360.03 405.53 358.472 405.53H358.46Z" fill="#263238"/>
<path opacity="0.3" d="M358.46 405.53C356.914 405.53 355.612 404.35 355.466 402.817L354.517 392.789V309.538H362.415V392.789L361.466 402.817C361.32 404.362 360.03 405.53 358.472 405.53H358.46Z" fill="white"/>
<path opacity="0.1" d="M362.403 318.92H354.505V328.619H362.403V318.92Z" fill="black"/>
<path d="M365.201 394.176V391.049C365.201 389.832 364.216 388.834 362.987 388.834H353.92C352.704 388.834 351.706 389.819 351.706 391.049V394.176L329.423 400.297C326.722 401.04 324.848 403.498 324.848 406.309H392.059C392.059 403.51 390.185 401.052 387.484 400.297L365.201 394.176Z" fill="#263238"/>
<path opacity="0.2" d="M365.201 394.176V391.049C365.201 389.832 364.216 388.834 362.987 388.834H353.92C352.704 388.834 351.706 389.819 351.706 391.049V394.176L329.423 400.297C326.722 401.04 324.848 403.498 324.848 406.309H392.059C392.059 403.51 390.185 401.052 387.484 400.297L365.201 394.176Z" fill="white"/>
<path opacity="0.1" d="M365.201 394.091V391.049C365.201 390.939 365.189 390.842 365.165 390.732H351.742C351.73 390.83 351.706 390.939 351.706 391.049V394.091H365.189H365.201Z" fill="black"/>
<path d="M394.226 228.222C379.379 228.745 366.54 241.353 364.995 256.151L359.458 308.869C358.947 313.675 362.439 317.582 367.246 317.582H412.03C416.837 317.582 421.145 313.688 421.656 308.869L427.266 255.493C428.884 240.087 417.433 227.662 401.844 228.21H394.238L394.226 228.222Z" fill="#263238"/>
<path opacity="0.2" d="M394.226 228.222C379.379 228.745 366.54 241.353 364.995 256.151L359.458 308.869C358.947 313.675 362.439 317.582 367.246 317.582H412.03C416.837 317.582 421.145 313.688 421.656 308.869L427.266 255.493C428.884 240.087 417.433 227.662 401.844 228.21H394.238L394.226 228.222Z" fill="white"/>
<path d="M419.648 255.493C421.266 240.087 409.815 227.662 394.226 228.21C379.379 228.733 366.54 241.34 364.995 256.138L359.458 308.856C358.947 313.663 362.439 317.57 367.246 317.57H404.424C409.231 317.57 413.539 313.675 414.05 308.856L419.66 255.481L419.648 255.493Z" fill="#263238"/>
<path d="M296.104 309.1C305.036 306.629 314.212 305.266 323.412 305.023C332.892 304.767 368.39 304.987 376.811 304.987C387.07 304.987 397.329 306.35 407.283 309.112C413.539 310.84 411.616 320.636 405.957 320.746C405.458 320.746 298.172 320.722 297.771 320.746C291.856 321.038 289.702 310.889 296.091 309.112L296.104 309.1Z" fill="#263238"/>
<path d="M404.376 320.527C386.353 315.537 367.259 315.537 349.236 320.527C342.421 322.413 339.512 310.986 346.327 309.1C366.237 303.599 387.363 303.599 407.272 309.1C414.087 310.986 411.19 322.413 404.363 320.527H404.376Z" fill="#263238"/>
<g opacity="0.2">
<path d="M404.376 320.527C386.353 315.537 367.259 315.537 349.236 320.527C342.421 322.413 339.512 310.986 346.327 309.1C366.237 303.599 387.363 303.599 407.272 309.1C414.087 310.986 411.19 322.413 404.363 320.527H404.376Z" fill="white"/>
</g>
<path d="M282.584 347.981L274.99 370.142L268.613 368.316L273.773 344.939L282.584 347.981Z" fill="#B97964"/>
<path d="M268.735 366.613L276.572 368.974C276.913 369.059 277.144 369.375 277.132 369.728L276.84 377.517C276.816 378.21 276.244 378.758 275.55 378.734C275.465 378.734 275.367 378.721 275.282 378.697C272.033 377.784 269.173 376.847 265.109 375.801C260.314 374.547 261.385 375.436 255.726 374.048C252.319 373.209 252.708 369.18 254.193 369.363C260.995 370.251 263.417 368.438 266.581 366.747C267.25 366.442 268.017 366.382 268.723 366.601L268.735 366.613Z" fill="#263238"/>
<path opacity="0.1" d="M278.446 360.066L270.865 358.118L273.773 344.939L282.584 347.981L278.446 360.066Z" fill="black"/>
<path d="M283.947 353.896L281.817 357.997L269.684 353.896V349.198L283.947 353.896Z" fill="#407BFF"/>
<path opacity="0.3" d="M283.947 353.896L281.817 357.997L269.684 353.896V349.198L283.947 353.896Z" fill="white"/>
<path d="M331.457 375.144L333.988 394.761L326.857 394.943L321.697 376.02L331.457 375.144Z" fill="#B97964"/>
<path d="M326.759 393.86L334.901 393.884C335.254 393.884 335.558 394.128 335.631 394.481L337.298 402.099C337.456 402.768 337.03 403.45 336.349 403.596C336.264 403.62 336.178 403.62 336.081 403.632C332.71 403.559 329.704 403.377 325.506 403.364C320.553 403.364 321.806 403.949 315.977 404.022C312.472 404.058 311.84 400.067 313.324 399.872C320.139 399.032 322.062 396.975 324.703 394.542C325.275 394.079 326.005 393.836 326.735 393.872L326.759 393.86Z" fill="#263238"/>
<path opacity="0.1" d="M324.69 386.997L321.697 376.02L331.457 375.144L332.917 386.485L324.69 386.997Z" fill="black"/>
<path d="M356.026 257.405H344.502C344.502 257.405 341.472 265.254 340.863 273.456C340.255 281.646 356.026 275.586 356.026 275.586L357.402 264.353L356.026 257.417V257.405Z" fill="#407BFF"/>
<path opacity="0.1" d="M356.026 257.405H344.502C344.502 257.405 341.472 265.254 340.863 273.456C340.255 281.646 356.026 275.586 356.026 275.586L357.402 264.353L356.026 257.417V257.405Z" fill="black"/>
<path opacity="0.1" d="M349.334 257.405C352.534 274.211 346.376 273.359 346.376 273.359L349.869 275.793L356.209 274.235L357.426 264.353L356.051 257.417H349.358L349.334 257.405Z" fill="black"/>
<path d="M379.015 256.358C379.015 256.358 390.758 275.987 388.726 292.379C386.706 308.771 371.543 317.436 313.263 289.519C313.263 289.519 301.313 301.896 281.477 354.918L271.364 351.888C271.364 351.888 282.803 290.602 293.013 273.164C303.333 255.554 348.664 276.194 352.108 272.762C355.175 269.695 352.51 257.587 352.51 257.587L379.015 256.37V256.358Z" fill="#407BFF"/>
<path opacity="0.2" d="M306.607 295.02L303.419 292.55C303.419 292.55 292.186 298.634 297.772 315.951C301.837 307.481 305.171 301.506 307.69 297.405L306.607 295.02Z" fill="black"/>
<path d="M355.285 305.632C344.697 303.1 330.982 298.001 313.251 289.507C313.251 289.507 299.573 289.69 298.66 299.863C297.747 310.037 321.733 380.352 321.733 380.352L332.808 379.39C332.808 379.39 326.285 309.27 324.764 305.632H355.272H355.285Z" fill="#407BFF"/>
<path opacity="0.1" d="M355.285 305.632C344.697 303.1 330.982 298.001 313.251 289.507C313.251 289.507 299.573 289.69 298.66 299.863C297.747 310.037 321.733 380.352 321.733 380.352L332.808 379.39C332.808 379.39 326.285 309.27 324.764 305.632H355.272H355.285Z" fill="black"/>
<path opacity="0.1" d="M313.251 289.519C313.251 289.519 311.158 289.556 308.566 290.189C311.073 292.403 319.908 299.754 333.282 305.632H355.284C344.697 303.1 330.982 298.001 313.251 289.507V289.519Z" fill="black"/>
<path d="M334.146 377.578L334.45 382.129L321.55 383.139L319.713 378.807L334.146 377.578Z" fill="#407BFF"/>
<path opacity="0.3" d="M334.146 377.578L334.45 382.129L321.55 383.139L319.713 378.807L334.146 377.578Z" fill="white"/>
<path d="M328.378 236.753L315.357 244.066L306.644 243.641C305.865 243.604 305.123 243.981 304.697 244.651L302.202 248.545C301.861 249.08 301.764 249.75 301.959 250.358L302.019 250.553C302.36 251.66 303.504 252.305 304.624 252.037L308.421 251.113L315.978 249.664L334.463 241.596L328.378 236.74V236.753Z" fill="#B97964"/>
<path d="M325.823 237.154C325.823 237.154 330.459 238.517 331.518 244.054C331.518 244.054 341.01 240.756 342.665 235.45C344.32 230.145 348.738 203.944 341.582 203.907C334.439 203.859 338.321 235.256 325.823 237.154Z" fill="#263238"/>
<path d="M325.823 237.154C325.823 237.154 330.459 238.517 331.518 244.054C331.518 244.054 341.01 240.756 342.665 235.45C344.32 230.145 348.738 203.944 341.582 203.907C334.439 203.859 338.321 235.256 325.823 237.154Z" fill="#8CADB6"/>
<path d="M323.401 237.568C323.401 237.568 326.808 240.635 328.95 245.88L333.964 243.409C333.964 243.409 331.944 237.702 327.855 235.402L323.401 237.58V237.568Z" fill="#263238"/>
<path opacity="0.7" d="M323.401 237.568C323.401 237.568 326.808 240.635 328.95 245.88L333.964 243.409C333.964 243.409 331.944 237.702 327.855 235.402L323.401 237.58V237.568Z" fill="white"/>
<path d="M343.553 258.658C343.553 258.658 361.564 260.289 380.634 257.563C380.634 257.563 376.435 243.556 379.465 226.543C382.495 209.53 398.486 199.454 358.765 200.147C353.021 200.245 335.984 199.478 337.931 211.611C340.012 224.571 343.553 258.658 343.553 258.658Z" fill="#263238"/>
<path d="M343.553 258.658C343.553 258.658 361.564 260.289 380.634 257.563C380.634 257.563 376.435 243.556 379.465 226.543C382.495 209.53 398.486 199.454 358.765 200.147C353.021 200.245 335.984 199.478 337.931 211.611C340.012 224.571 343.553 258.658 343.553 258.658Z" fill="#B4D5DE"/>
<path d="M367.223 238.773L348.689 244.249L340.766 242.862C339.927 242.716 339.087 243.057 338.576 243.738L335.911 247.34C335.521 247.864 335.375 248.545 335.534 249.19L335.558 249.312C335.826 250.468 336.945 251.21 338.126 251.015L341.922 250.37L349.553 249.446L372.967 244.054L367.235 238.785L367.223 238.773Z" fill="#B97964"/>
<path d="M364.485 238.469C364.485 238.469 369.097 240.197 369.766 245.795C369.766 245.795 379.538 243.641 381.559 238.469C383.567 233.297 389.943 204.346 382.824 203.81C375.705 203.275 377.092 237.434 364.497 238.469H364.485Z" fill="#263238"/>
<path d="M364.485 238.469C364.485 238.469 369.097 240.197 369.766 245.795C369.766 245.795 379.538 243.641 381.559 238.469C383.567 233.297 389.943 204.346 382.824 203.81C375.705 203.275 377.092 237.434 364.497 238.469H364.485Z" fill="#8CADB6"/>
<path d="M361.722 238.943C361.722 238.943 365.726 242.655 367.223 247.243L372.346 245.782C372.346 245.782 370.253 239.637 366.334 237.057L361.734 238.931L361.722 238.943Z" fill="#263238"/>
<path opacity="0.7" d="M361.722 238.943C361.722 238.943 365.726 242.655 367.223 247.243L372.346 245.782C372.346 245.782 370.253 239.637 366.334 237.057L361.734 238.931L361.722 238.943Z" fill="white"/>
<path d="M366.395 164.697C366.395 164.697 360.846 153.611 369.352 155.059C377.859 156.507 372.821 178.57 380.646 181.589C380.646 181.589 371.591 183.84 366.383 164.697H366.395Z" fill="#263238"/>
<path opacity="0.6" d="M364.801 160.037C365.251 162.398 366.395 164.698 366.395 164.698C367.819 169.931 369.535 173.557 371.263 176.076C372.541 172.036 373.052 165.464 369.279 161.68C367.819 160.219 366.31 160.621 364.801 160.037Z" fill="black"/>
<path d="M363.426 162.349C363.426 162.349 366.213 159.209 368.598 163.237C370.983 167.265 367.04 168.227 367.04 168.227L363.414 162.349H363.426Z" fill="#407BFF"/>
<path d="M365.409 183.39C365.409 183.39 366.663 187.941 369.912 184.813C373.161 181.698 367.283 184.96 365.409 183.39Z" fill="#263238"/>
<path d="M358.753 199.758C358.753 199.758 350.806 197.02 347.411 203.774L350.55 205.015L348.822 207.132L355.309 211.842L366.383 208.045L365.774 206.475L371.105 205.027C371.105 205.027 372.492 197.251 358.74 199.77L358.753 199.758Z" fill="#263238"/>
<path opacity="0.7" d="M358.753 199.758C358.753 199.758 350.806 197.02 347.411 203.774L350.55 205.015L348.822 207.132L355.309 211.842L366.383 208.045L365.774 206.475L371.105 205.027C371.105 205.027 372.492 197.251 358.74 199.77L358.753 199.758Z" fill="white"/>
<path d="M358.984 200.378C358.984 200.378 345.732 197.47 355.041 210.674C355.041 210.674 381.534 200.111 358.984 200.378Z" fill="#B97964"/>
<path d="M364.253 185.167L355.248 194.026C356.051 197.884 354.932 199.879 353.69 200.902V203.774C354.725 204.102 356.209 204.309 358.376 204.187C364.911 203.834 367.04 203.141 367.04 203.141C363.11 200.001 363.669 190.424 364.253 185.167Z" fill="#B97964"/>
<path opacity="0.1" d="M355.321 198.127C355.564 197.068 355.589 195.742 355.236 194.026L363.28 186.128L364.071 187.041C364.071 187.041 362.452 197.105 355.321 198.127Z" fill="black"/>
<path d="M364.996 173.447C365.653 182.124 366.127 185.787 362.391 190.801C356.769 198.346 345.975 197.263 342.726 188.963C339.805 181.491 339.221 168.555 347.155 163.967C352.814 160.657 360.079 162.568 363.389 168.226C364.326 169.821 364.862 171.61 364.983 173.447H364.996Z" fill="#B97964"/>
<path d="M347.289 182.221C346.888 183.901 346.255 185.532 345.415 187.041C346.206 187.466 347.143 187.515 347.971 187.174L347.289 182.221Z" fill="#A24E3F"/>
<path d="M353.86 176.307C353.86 176.307 353.97 176.246 354.006 176.21C354.128 176.064 354.116 175.845 353.97 175.723C352.984 174.859 351.633 174.518 350.356 174.822C350.173 174.883 350.076 175.078 350.124 175.261C350.185 175.443 350.368 175.54 350.55 175.492C351.609 175.261 352.716 175.54 353.532 176.258C353.629 176.331 353.751 176.356 353.86 176.319V176.307Z" fill="#2E353A"/>
<path d="M341.034 177.5C341.034 177.5 341.144 177.439 341.18 177.402C341.874 176.575 342.933 176.137 344.004 176.222C344.186 176.258 344.369 176.124 344.405 175.942C344.429 175.747 344.296 175.577 344.113 175.552C342.799 175.443 341.521 175.966 340.669 176.964C340.535 177.098 340.547 177.317 340.669 177.451C340.766 177.548 340.913 177.573 341.034 177.524V177.5Z" fill="#2E353A"/>
<path d="M352.083 180.384C352.181 181.078 351.889 181.698 351.426 181.771C350.964 181.844 350.526 181.321 350.428 180.615C350.331 179.909 350.623 179.301 351.073 179.24C351.524 179.179 351.974 179.69 352.083 180.396V180.384Z" fill="#2E353A"/>
<path d="M344.162 181.479C344.259 182.173 343.967 182.793 343.517 182.854C343.066 182.915 342.616 182.404 342.507 181.698C342.409 180.992 342.701 180.384 343.152 180.323C343.602 180.262 344.064 180.773 344.162 181.479Z" fill="#2E353A"/>
<path d="M343.358 180.335L341.605 180.092C341.605 180.092 342.652 181.284 343.358 180.335Z" fill="#2E353A"/>
<path d="M351.28 179.24L349.528 178.997C349.528 178.997 350.574 180.189 351.28 179.24Z" fill="#2E353A"/>
<path d="M352.632 187.491C352.778 187.247 352.887 186.992 352.984 186.724C353.021 186.639 352.984 186.542 352.899 186.505C352.814 186.481 352.717 186.517 352.68 186.615C352.193 187.99 351.086 189.036 349.699 189.462C349.601 189.487 349.553 189.572 349.565 189.669C349.589 189.767 349.674 189.815 349.772 189.803C351.001 189.462 352.035 188.623 352.632 187.503V187.491Z" fill="#263238"/>
<path d="M365.409 183.39C365.409 183.39 360.663 180.81 360.359 173.642C360.055 166.474 349.175 165.026 342.482 169.224C342.482 169.224 340.559 162.908 347.569 162.349C347.569 162.349 357.816 154.852 366.212 163.237C373.611 170.636 365.409 183.39 365.409 183.39Z" fill="#263238"/>
<path d="M367.977 179.97C367.721 181.637 366.809 183.122 365.458 184.12C363.645 185.422 361.977 183.986 361.844 181.881C361.722 179.994 362.513 177.025 364.643 176.551C366.2 176.258 367.709 177.281 368.001 178.838C368.074 179.216 368.062 179.593 368.001 179.97H367.977Z" fill="#B97964"/>
<path d="M343.066 168.117C343.066 168.117 340.937 172.887 339.148 168.117C337.359 163.347 341.29 169.188 343.066 168.117Z" fill="#263238"/>
<path d="M348.542 250.102H286.368C285.358 250.102 284.543 250.918 284.543 251.928C284.543 252.938 285.358 253.753 286.368 253.753H348.542C349.552 253.753 350.367 252.938 350.367 251.928C350.367 250.918 349.552 250.102 348.542 250.102Z" fill="#407BFF"/>
<path opacity="0.3" d="M348.542 250.102H286.368C285.358 250.102 284.543 250.918 284.543 251.928C284.543 252.938 285.358 253.753 286.368 253.753H348.542C349.552 253.753 350.367 252.938 350.367 251.928C350.367 250.918 349.552 250.102 348.542 250.102Z" fill="white"/>
<path opacity="0.2" d="M313.166 253.753C312.156 253.753 311.34 252.938 311.34 251.928C311.34 250.918 312.156 250.102 313.166 250.102H348.542C349.552 250.102 350.368 250.918 350.368 251.928C350.368 252.938 349.552 253.753 348.542 253.753H313.166Z" fill="white"/>
<path d="M287.366 252.634H310.233C310.829 252.634 311.243 252.049 311.048 251.478L298.514 215.663C298.173 214.677 297.236 214.02 296.189 214.02H273.323C272.727 214.02 272.313 214.604 272.508 215.176L285.042 250.991C285.383 251.976 286.32 252.634 287.366 252.634Z" fill="#407BFF"/>
<path d="M286.259 252.634H309.125C309.722 252.634 310.136 252.049 309.941 251.478L297.406 215.663C297.066 214.677 296.128 214.02 295.082 214.02H272.216C271.619 214.02 271.205 214.604 271.4 215.176L283.935 250.991C284.275 251.976 285.213 252.634 286.259 252.634Z" fill="#407BFF"/>
<path opacity="0.5" d="M286.259 252.634H309.125C309.722 252.634 310.136 252.049 309.941 251.478L297.406 215.663C297.066 214.677 296.128 214.02 295.082 214.02H272.216C271.619 214.02 271.205 214.604 271.4 215.176L283.935 250.991C284.275 251.976 285.213 252.634 286.259 252.634Z" fill="white"/>
<path d="M288.815 233.333C289.107 234.708 290.056 235.815 290.933 235.815C291.809 235.815 292.283 234.708 291.991 233.333C291.699 231.958 290.75 230.85 289.874 230.85C288.998 230.85 288.523 231.958 288.815 233.333Z" fill="white"/>
<path d="M241.962 232.335C241.962 232.335 234.149 225.094 238.251 221.967C242.352 218.839 233.383 213.996 236.62 211.647C239.845 209.298 235.026 203.213 237.849 202.203C240.672 201.193 237.155 197.64 239.2 195.936C241.877 193.697 241.329 205.161 243.982 205.343C246.635 205.538 241.354 211.854 244.664 212.657C247.974 213.46 243.471 220.616 246.562 220.75C249.653 220.883 246.854 228.66 241.962 232.347V232.335Z" fill="#407BFF"/>
<path opacity="0.5" d="M241.962 232.335C241.962 232.335 234.149 225.094 238.251 221.967C242.352 218.839 233.383 213.996 236.62 211.647C239.845 209.298 235.026 203.213 237.849 202.203C240.672 201.193 237.155 197.64 239.2 195.936C241.877 193.697 241.329 205.161 243.982 205.343C246.635 205.538 241.354 211.854 244.664 212.657C247.974 213.46 243.471 220.616 246.562 220.75C249.653 220.883 246.854 228.66 241.962 232.347V232.335Z" fill="white"/>
<g opacity="0.2">
<path d="M239.358 198.857C240.149 203.603 240.794 208.373 241.317 213.156C241.962 219.022 243.313 226.433 241.463 232.201C241.269 232.822 242.242 233.09 242.437 232.469C244.335 226.542 242.984 219.192 242.327 213.156C241.792 208.288 241.135 203.42 240.332 198.589C240.222 197.956 239.261 198.224 239.358 198.857Z" fill="black"/>
</g>
<path d="M239.358 231.082C239.358 231.082 231.302 227.2 233.821 223.67C236.34 220.141 227.943 218.474 229.963 215.785C231.971 213.095 226.604 209.408 228.624 207.899C230.645 206.39 226.337 202.763 228.162 202.532C231.095 202.167 232.141 209.408 234.332 208.909C236.51 208.41 233.833 214.787 236.681 214.616C239.528 214.446 237.691 221.31 240.21 220.64C242.729 219.983 242.388 226.92 239.37 231.082H239.358Z" fill="#407BFF"/>
<g opacity="0.2">
<path d="M229.842 205.952C233.699 213.862 237.606 222.453 238.883 231.215C238.981 231.848 239.942 231.581 239.857 230.948C238.579 222.101 234.612 213.424 230.718 205.441C230.438 204.856 229.562 205.368 229.854 205.952H229.842Z" fill="black"/>
</g>
<path d="M246.124 231.082C246.124 231.082 254.18 227.2 251.661 223.67C249.142 220.141 257.539 218.474 255.519 215.785C253.498 213.095 258.877 209.408 256.857 207.899C254.849 206.39 258.537 205.027 257.32 202.532C256.018 199.879 253.34 209.408 251.15 208.909C248.971 208.41 251.649 214.787 248.801 214.616C245.953 214.446 247.791 221.31 245.272 220.64C242.753 219.983 243.094 226.92 246.112 231.082H246.124Z" fill="#407BFF"/>
<path opacity="0.2" d="M246.124 231.082C246.124 231.082 254.18 227.2 251.661 223.67C249.142 220.141 257.539 218.474 255.519 215.785C253.498 213.095 258.877 209.408 256.857 207.899C254.849 206.39 258.537 205.027 257.32 202.532C256.018 199.879 253.34 209.408 251.15 208.909C248.971 208.41 251.649 214.787 248.801 214.616C245.953 214.446 247.791 221.31 245.272 220.64C242.753 219.983 243.094 226.92 246.112 231.082H246.124Z" fill="white"/>
<g opacity="0.2">
<path d="M255.568 205.952C251.71 213.862 247.804 222.453 246.526 231.215C246.428 231.848 245.467 231.581 245.552 230.948C246.83 222.101 250.797 213.424 254.691 205.441C254.971 204.856 255.848 205.368 255.555 205.952H255.568Z" fill="black"/>
</g>
<path d="M250.383 253.96H236.06L233.371 229.853H253.061L250.383 253.96Z" fill="#407BFF"/>
<path opacity="0.3" d="M250.383 253.96H236.06L233.371 229.853H253.061L250.383 253.96Z" fill="white"/>
<path d="M286.843 405.53C285.298 405.53 283.996 404.35 283.85 402.817L282.888 392.789V255.36H290.786V392.789L289.837 402.817C289.691 404.362 288.401 405.53 286.843 405.53Z" fill="#263238"/>
<path opacity="0.3" d="M286.843 405.53C285.298 405.53 283.996 404.35 283.85 402.817L282.888 392.789V255.36H290.786V392.789L289.837 402.817C289.691 404.362 288.401 405.53 286.843 405.53Z" fill="white"/>
<path opacity="0.1" d="M290.798 256.686H282.9V266.385H290.798V256.686Z" fill="black"/>
<path d="M293.585 394.176V391.049C293.585 389.832 292.599 388.834 291.37 388.834H282.304C281.087 388.834 280.089 389.819 280.089 391.049V394.176L257.807 400.297C255.105 401.04 253.231 403.498 253.231 406.309H320.443C320.443 403.51 318.569 401.052 315.867 400.297L293.585 394.176Z" fill="#407BFF"/>
<path opacity="0.1" d="M293.585 394.091V391.049C293.585 390.939 293.573 390.842 293.548 390.732H280.125C280.113 390.83 280.089 390.939 280.089 391.049V394.091H293.573H293.585Z" fill="black"/>
<path opacity="0.2" d="M293.585 394.176V391.049C293.585 389.832 292.599 388.834 291.37 388.834H282.304C281.087 388.834 280.089 389.819 280.089 391.049V394.176L257.807 400.297C255.105 401.04 253.231 403.498 253.231 406.309H320.443C320.443 403.51 318.569 401.052 315.867 400.297L293.585 394.176Z" fill="black"/>
<path d="M372.382 258.365H201.292V262.978H372.382V258.365Z" fill="#263238"/>
<path opacity="0.3" d="M372.382 258.365H201.292V262.978H372.382V258.365Z" fill="white"/>
<path opacity="0.2" d="M372.382 258.365H287.075V262.978H372.382V258.365Z" fill="black"/>
<path d="M382.702 253.753H190.972V258.365H382.702V253.753Z" fill="#407BFF"/>
<path opacity="0.3" d="M382.702 253.753H276.755V258.365H382.702V253.753Z" fill="black"/>
<path d="M483.881 269.313C481.477 269.282 479.142 268.513 477.19 267.111C477.075 271.241 477.408 275.372 478.183 279.431C480.816 283.673 488.116 291.473 487.615 291.427C485.615 291.22 483.649 290.762 481.763 290.064C483.007 292.635 484.5 295.077 486.222 297.356C489.764 302.076 494.807 305.826 496.724 311.616C496.738 311.674 496.765 311.727 496.804 311.771C496.843 311.815 496.892 311.849 496.948 311.87C496.951 311.949 496.976 312.025 497.021 312.09C497.065 312.156 497.127 312.207 497.199 312.239C497.271 312.271 497.35 312.282 497.428 312.272C497.506 312.261 497.58 312.229 497.641 312.178C507.158 303.131 508.867 289.394 510.261 277.005C510.33 276.42 510.392 275.842 510.446 275.25C507.872 277.952 504.914 280.261 501.668 282.103C501.206 282.357 507.635 272.093 510.777 267.334C510.711 264.333 510.157 261.363 509.137 258.541C506.911 252.566 503.092 246.991 499.381 241.84C499.227 241.624 499.057 241.424 498.911 241.208C497.922 243.876 496.538 246.381 494.807 248.639C494.507 249.031 495.485 241.116 496.085 237.505C495.153 236.35 494.229 235.195 493.259 234.07C491.989 232.577 490.418 230.036 488.139 230.374C485.86 230.713 480.886 239.753 480.246 242.34C479.969 243.449 479.723 244.581 479.476 245.713C479.361 246.198 479.276 246.698 479.192 247.191C478.388 251.756 477.82 256.359 477.49 260.982C477.644 261.228 477.806 261.474 477.983 261.713C479.854 264.2 484.335 269.313 483.881 269.313Z" fill="#CAE5F6"/>
<path d="M497.371 312.555C497.218 312.553 497.069 312.502 496.947 312.409C496.825 312.316 496.736 312.187 496.693 312.04C496.573 311.946 496.487 311.817 496.447 311.67C495.176 307.82 492.428 304.832 489.763 301.922C488.477 300.505 487.145 299.05 485.99 297.502C484.258 295.209 482.754 292.751 481.501 290.164L481.193 289.533L481.856 289.764C483.548 290.387 485.304 290.821 487.092 291.057C486.676 290.526 485.844 289.517 484.982 288.532C482.454 285.687 480.101 282.691 477.936 279.561V279.461C477.155 275.39 476.82 271.246 476.935 267.103V266.564L477.374 266.872C479.162 268.152 481.277 268.897 483.473 269.02C483.026 268.358 481.817 266.88 480.816 265.648C479.7 264.285 478.545 262.876 477.798 261.859C477.613 261.62 477.459 261.374 477.297 261.089L477.243 261.012V260.904C477.572 256.271 478.14 251.658 478.945 247.083C479.037 246.544 479.122 246.067 479.23 245.597C479.476 244.365 479.723 243.287 480 242.217C480.654 239.583 485.775 230.374 488.139 230.035C490.233 229.72 491.727 231.575 492.928 233.115C493.128 233.377 493.328 233.624 493.513 233.885C494.476 234.994 495.415 236.157 496.324 237.281L496.401 237.381V237.551C495.893 240.631 495.238 245.851 495.099 247.815C496.581 245.746 497.782 243.491 498.672 241.108L498.865 240.6L499.173 241.046L499.404 241.347L499.642 241.67C503.192 246.583 507.165 252.334 509.444 258.44C510.463 261.295 511.012 264.296 511.069 267.326V267.419L511.023 267.496C508.382 271.469 503.646 279.045 502.299 281.425C505.215 279.646 507.886 277.495 510.245 275.026L510.807 274.456L510.738 275.226C510.684 275.811 510.615 276.397 510.545 276.982C509.237 288.601 507.604 303.054 497.833 312.332C497.774 312.398 497.703 312.451 497.624 312.49C497.545 312.528 497.459 312.55 497.371 312.555ZM482.333 290.534C483.501 292.862 484.88 295.079 486.452 297.156C487.592 298.696 488.916 300.128 490.195 301.529C492.89 304.486 495.685 307.55 497.001 311.539V311.608L497.148 311.678L497.194 311.847C497.198 311.882 497.211 311.914 497.231 311.943C497.251 311.971 497.278 311.994 497.309 312.009C497.309 312.009 497.348 312.009 497.402 312.009C507.019 302.877 508.636 288.539 509.937 277.02C509.976 276.697 510.006 276.381 510.045 276.066C507.601 278.56 504.814 280.694 501.768 282.403L501.567 282.51L501.398 282.349C501.205 282.141 501.128 282.056 504.709 276.281C506.672 273.132 508.967 269.536 510.445 267.303C510.375 264.363 509.829 261.453 508.828 258.687C506.58 252.65 502.63 246.937 499.103 242.055L498.949 241.847C497.968 244.359 496.638 246.72 494.999 248.862L494.861 249.039L494.63 248.962C494.391 248.854 494.276 248.808 494.807 244.342C495.092 241.978 495.461 239.298 495.746 237.604C494.838 236.48 493.929 235.356 493.005 234.286C492.805 234.055 492.605 233.801 492.397 233.516C491.234 232.053 489.91 230.397 488.146 230.659C486.144 230.944 481.139 239.768 480.447 242.409C480.192 243.441 479.946 244.534 479.677 245.774C479.576 246.236 479.492 246.706 479.407 247.168V247.237C478.643 251.755 478.105 256.309 477.798 260.881C477.936 261.097 478.075 261.305 478.229 261.513C478.999 262.521 480.115 263.923 481.232 265.286C484.119 268.82 484.312 269.136 484.166 269.421L484.089 269.59H483.873C481.593 269.564 479.369 268.882 477.467 267.626C477.389 271.536 477.722 275.444 478.46 279.284C480.587 282.374 482.901 285.332 485.39 288.139C488.016 291.219 488 291.219 487.862 291.512L487.777 291.681H487.561C485.779 291.509 484.024 291.124 482.333 290.534Z" fill="#547AC5"/>
<path d="M492.566 264.754C487.862 264.038 484.273 261.074 480.824 258.009C480.308 257.555 480.947 256.685 481.463 257.147C484.697 260.019 488.07 262.883 492.451 263.63C491.45 256.639 490.287 249.662 488.917 242.725C488.778 242.04 489.841 241.878 489.979 242.555C491.796 251.749 493.28 260.989 494.43 270.275C497.128 266.448 499.226 262.231 500.651 257.77C500.867 257.116 501.86 257.516 501.652 258.171C500.139 262.898 497.885 267.355 494.976 271.376C494.933 271.439 494.876 271.491 494.809 271.529C494.742 271.566 494.668 271.588 494.591 271.592C494.838 273.617 495.061 275.657 495.277 277.69C497.238 275.262 498.798 272.535 499.897 269.613C500.135 268.966 501.136 269.367 500.89 270.013C499.68 273.282 497.905 276.313 495.646 278.968C495.586 279.038 495.509 279.091 495.423 279.122C496.116 285.796 496.629 292.51 496.963 299.265C496.995 299.339 497.016 299.417 497.025 299.496C497.163 301.96 497.248 304.422 497.279 306.881C497.33 308.482 497.374 310.086 497.41 311.693C497.413 311.761 497.401 311.829 497.375 311.892C497.348 311.955 497.307 312.01 497.256 312.055C496.978 327.216 494.73 342.208 491.542 357.046L490.495 356.799C494.099 340.029 496.493 323.066 496.178 305.88C496.116 304.07 496.039 302.253 495.954 300.443C495.885 300.477 495.808 300.494 495.73 300.493C495.652 300.492 495.576 300.472 495.508 300.436C493.548 299.099 491.874 297.388 490.58 295.4C490.21 294.822 491.049 294.145 491.427 294.73C492.617 296.561 494.145 298.147 495.931 299.404C495.331 287.818 494.222 276.268 492.605 264.754H492.566Z" fill="#9BCEF5"/>
<path d="M491.789 357.415L491.504 357.338L490.842 357.184L490.187 357.03L490.241 356.753C494.399 337.419 496.201 321.264 495.924 305.934C495.862 304.224 495.79 302.515 495.708 300.806C495.576 300.788 495.449 300.741 495.338 300.667C493.35 299.308 491.651 297.567 490.341 295.547C490.279 295.45 490.236 295.343 490.216 295.23C490.196 295.117 490.199 295.001 490.224 294.889C490.249 294.778 490.296 294.672 490.362 294.578C490.429 294.485 490.513 294.406 490.611 294.345C490.78 294.236 490.985 294.198 491.182 294.238C491.379 294.278 491.553 294.394 491.666 294.561C492.726 296.191 494.06 297.626 495.608 298.804C495.015 287.6 493.914 276.243 492.351 265.032C487.731 264.262 484.174 261.397 480.632 258.248C480.546 258.172 480.477 258.08 480.428 257.977C480.379 257.874 480.351 257.762 480.346 257.647C480.341 257.533 480.359 257.419 480.399 257.312C480.438 257.205 480.499 257.107 480.578 257.024C480.712 256.873 480.901 256.781 481.102 256.769C481.304 256.756 481.503 256.822 481.656 256.955C484.412 259.403 487.816 262.422 492.104 263.299C491.088 256.2 489.918 249.309 488.632 242.802C488.596 242.665 488.598 242.52 488.639 242.385C488.68 242.249 488.757 242.127 488.863 242.032C488.982 241.935 489.123 241.87 489.273 241.841C489.424 241.813 489.579 241.823 489.725 241.87C489.863 241.914 489.987 241.995 490.081 242.106C490.175 242.216 490.236 242.351 490.256 242.494C491.997 251.257 493.46 260.343 494.622 269.505C497.093 265.866 499.03 261.891 500.374 257.701C500.405 257.603 500.455 257.512 500.521 257.433C500.588 257.354 500.669 257.289 500.761 257.243C500.853 257.196 500.953 257.168 501.056 257.161C501.159 257.154 501.262 257.168 501.36 257.201C501.468 257.233 501.57 257.287 501.657 257.359C501.745 257.431 501.818 257.52 501.871 257.621C501.924 257.721 501.956 257.831 501.966 257.944C501.976 258.057 501.964 258.171 501.93 258.279C500.4 263.03 498.134 267.512 495.215 271.561C495.134 271.671 495.028 271.76 494.907 271.823C495.113 273.533 495.308 275.247 495.492 276.967C497.228 274.703 498.621 272.197 499.627 269.529C499.661 269.428 499.716 269.335 499.787 269.257C499.858 269.178 499.945 269.115 500.042 269.072C500.139 269.029 500.244 269.006 500.35 269.005C500.456 269.004 500.561 269.025 500.659 269.067C500.764 269.101 500.86 269.156 500.943 269.229C501.025 269.302 501.092 269.39 501.14 269.49C501.187 269.589 501.214 269.697 501.219 269.807C501.224 269.916 501.206 270.026 501.167 270.129C499.938 273.426 498.145 276.485 495.87 279.169C495.829 279.218 495.783 279.262 495.731 279.3C496.409 285.945 496.932 292.636 497.271 299.212C497.314 299.301 497.337 299.398 497.34 299.497C497.479 301.907 497.571 304.394 497.602 306.889C497.648 308.49 497.692 310.094 497.733 311.701C497.736 311.876 497.679 312.048 497.571 312.186C497.317 325.723 495.446 340.422 491.858 357.123L491.789 357.415ZM490.888 356.645H490.988L491.365 356.73C494.923 340.145 496.755 325.538 497.009 312.071V311.932L497.117 311.847C497.117 311.847 497.163 311.847 497.163 311.716C497.127 310.115 497.084 308.513 497.032 306.912C497.032 304.425 496.909 301.945 496.771 299.535C496.782 299.5 496.782 299.462 496.771 299.427V299.304C496.415 292.584 495.902 285.873 495.231 279.177V278.961L495.438 278.876C495.478 278.865 495.514 278.84 495.539 278.807C497.775 276.176 499.534 273.174 500.736 269.937C500.749 269.905 500.756 269.871 500.754 269.837C500.753 269.802 500.745 269.769 500.729 269.738C500.714 269.707 500.692 269.68 500.665 269.659C500.639 269.637 500.608 269.622 500.574 269.613C500.547 269.6 500.518 269.592 500.488 269.591C500.457 269.59 500.427 269.595 500.399 269.607C500.372 269.619 500.347 269.636 500.326 269.659C500.306 269.681 500.291 269.708 500.282 269.736C499.143 272.695 497.53 275.449 495.508 277.891L495.077 278.437L495 277.744C494.784 275.691 494.553 273.658 494.307 271.646V271.33H494.63C494.662 271.329 494.694 271.32 494.722 271.304C494.75 271.288 494.774 271.265 494.792 271.238C497.675 267.25 499.912 262.832 501.421 258.148C501.433 258.113 501.437 258.075 501.434 258.038C501.43 258.001 501.419 257.965 501.401 257.933C501.383 257.9 501.358 257.872 501.329 257.849C501.299 257.827 501.265 257.81 501.229 257.802C501.204 257.789 501.178 257.783 501.15 257.782C501.123 257.782 501.096 257.788 501.071 257.8C501.047 257.812 501.025 257.829 501.008 257.851C500.992 257.873 500.98 257.898 500.975 257.925C499.532 262.407 497.421 266.646 494.715 270.499L494.283 271.115L494.191 270.345C493.013 260.943 491.519 251.619 489.741 242.625C489.734 242.583 489.716 242.544 489.689 242.512C489.661 242.479 489.626 242.455 489.587 242.44C489.537 242.425 489.485 242.422 489.434 242.432C489.383 242.441 489.335 242.462 489.294 242.494C489.267 242.516 489.248 242.545 489.238 242.578C489.229 242.611 489.229 242.646 489.24 242.679C490.608 249.622 491.79 256.601 492.782 263.607L492.836 264L492.451 263.931C487.831 263.161 484.212 259.95 481.317 257.378C481.302 257.357 481.282 257.341 481.259 257.329C481.237 257.317 481.212 257.311 481.186 257.311C481.16 257.311 481.135 257.317 481.112 257.329C481.09 257.341 481.07 257.357 481.055 257.378C481.027 257.404 481.004 257.436 480.989 257.471C480.973 257.506 480.965 257.544 480.965 257.582C480.965 257.621 480.973 257.658 480.989 257.694C481.004 257.729 481.027 257.76 481.055 257.786C484.566 260.905 488.093 263.761 492.605 264.454H492.89L492.928 264.678C494.538 276.181 495.654 287.839 496.247 299.327V299.92L495.762 299.581C493.934 298.302 492.366 296.687 491.142 294.823C491.142 294.823 491.05 294.669 490.888 294.777C490.854 294.796 490.825 294.821 490.802 294.852C490.778 294.883 490.761 294.918 490.752 294.955C490.743 294.993 490.741 295.032 490.747 295.07C490.753 295.108 490.767 295.144 490.788 295.177C492.055 297.137 493.702 298.823 495.631 300.136C495.664 300.153 495.701 300.161 495.739 300.161C495.776 300.161 495.813 300.153 495.847 300.136L496.216 299.997V300.39C496.309 302.202 496.386 304.017 496.447 305.834C496.778 321.226 494.992 337.349 490.888 356.645Z" fill="#547AC5"/>
<path d="M529.919 295.9C531.94 296.663 534.133 296.852 536.256 296.447C535.149 299.585 533.665 302.576 531.836 305.356C528.371 307.666 519.893 311.139 520.325 311.269C522.081 311.773 523.889 312.076 525.714 312.17C523.886 313.707 521.904 315.051 519.801 316.182C515.42 318.569 510.03 319.747 506.711 323.451C506.68 323.49 506.64 323.521 506.594 323.541C506.549 323.561 506.499 323.57 506.449 323.566C506.416 323.625 506.367 323.675 506.308 323.709C506.249 323.743 506.182 323.761 506.114 323.761C506.046 323.761 505.979 323.743 505.921 323.709C505.862 323.675 505.813 323.625 505.779 323.566C500.305 313.641 502.853 302.776 505.264 292.99C505.379 292.528 505.487 292.074 505.61 291.612C507.049 294.541 508.895 297.253 511.092 299.666C511.416 300.012 508.936 290.172 507.643 285.583C508.582 283.336 509.92 281.277 511.593 279.507C515.22 275.757 520.063 272.816 524.744 270.167L525.322 269.852C525.399 272.216 525.846 274.555 526.646 276.781C526.793 277.174 528.263 270.906 528.794 267.996C529.926 267.434 531.051 266.872 532.198 266.348C533.738 265.64 535.786 264.246 537.626 265.255C539.467 266.263 541.068 274.679 540.86 276.805C540.768 277.729 540.652 278.66 540.514 279.584C540.468 279.992 540.398 280.393 540.329 280.785C539.684 284.473 538.828 288.122 537.765 291.712C537.557 291.843 537.357 291.973 537.133 292.097C534.831 293.382 529.534 295.754 529.919 295.9Z" fill="#9BCEF5"/>
<path d="M506.111 324.051C505.993 324.053 505.876 324.022 505.775 323.963C505.673 323.903 505.589 323.816 505.533 323.713C499.912 313.503 502.73 302.091 504.986 292.913C505.11 292.428 505.217 291.981 505.341 291.527L505.533 290.811L505.88 291.473C507.176 294.096 508.792 296.548 510.692 298.773C510.192 296.347 508.382 289.356 507.366 285.629V285.436C508.32 283.158 509.679 281.071 511.377 279.276C515.089 275.427 520.148 272.416 524.59 269.89C524.683 269.829 524.791 269.775 524.891 269.721L525.168 269.575L525.584 269.328V269.813C525.648 271.894 526.005 273.955 526.646 275.935C527.101 274.349 528.04 270.306 528.487 267.911V267.765L528.618 267.703C529.726 267.149 530.874 266.579 532.029 266.056C532.252 265.948 532.491 265.832 532.737 265.702C534.2 264.932 536.017 264.046 537.711 264.97C539.675 266.025 541.315 274.572 541.091 276.836C541.007 277.706 540.899 278.622 540.745 279.631C540.706 280 540.637 280.401 540.576 280.755V280.84C539.933 284.536 539.074 288.192 538.004 291.789V291.897L537.911 291.951C537.703 292.089 537.488 292.228 537.265 292.351C536.333 292.867 534.955 293.552 533.592 294.214C532.46 294.769 531.112 295.431 530.473 295.793C532.319 296.392 534.287 296.517 536.194 296.155L536.687 296.07L536.518 296.54C535.41 299.702 533.915 302.715 532.067 305.51L531.99 305.595C529.217 307.245 526.344 308.724 523.389 310.022C522.442 310.461 521.534 310.885 520.995 311.154C522.542 311.542 524.122 311.784 525.715 311.878L526.431 311.924L525.884 312.386C524.04 313.933 522.043 315.288 519.924 316.429C518.492 317.199 516.937 317.868 515.428 318.508C512.348 319.824 509.121 321.179 506.958 323.636C506.876 323.736 506.761 323.804 506.634 323.828C506.571 323.897 506.493 323.952 506.407 323.989C506.321 324.026 506.228 324.045 506.134 324.044L506.111 324.051ZM505.71 292.405C505.664 292.613 505.61 292.821 505.556 293.036C503.316 302.138 500.528 313.426 506.034 323.428C506.041 323.442 506.052 323.454 506.066 323.462C506.079 323.47 506.095 323.474 506.111 323.474C506.13 323.474 506.15 323.469 506.167 323.459C506.185 323.45 506.2 323.436 506.211 323.42L506.295 323.266H506.48C508.79 320.702 512.047 319.316 515.212 317.976C516.706 317.345 518.246 316.69 519.655 315.928C521.53 314.915 523.309 313.732 524.968 312.394C523.369 312.271 521.788 311.985 520.248 311.539L520.055 311.478V311.27C520.055 310.977 520.055 310.962 523.181 309.499C526.092 308.222 528.92 306.766 531.651 305.14C533.367 302.533 534.773 299.734 535.84 296.802C533.819 297.112 531.752 296.892 529.842 296.162L529.665 296.093V295.885C529.665 295.577 529.757 295.477 533.399 293.691C534.739 293.036 536.133 292.351 537.049 291.843C537.234 291.743 537.403 291.635 537.573 291.527C538.623 287.986 539.466 284.386 540.098 280.747V280.662C540.16 280.301 540.221 279.892 540.267 279.561C540.414 278.553 540.529 277.644 540.606 276.789C540.822 274.595 539.136 266.348 537.526 265.486C536.094 264.716 534.5 265.486 533.091 266.256L532.321 266.618C531.22 267.118 530.119 267.665 529.056 268.158C528.833 269.305 527.316 277.005 526.693 277.051H526.469L526.377 276.82C525.614 274.716 525.167 272.51 525.052 270.275L524.883 270.368C520.471 272.878 515.458 275.873 511.793 279.654C510.168 281.371 508.864 283.366 507.943 285.544C508.559 287.716 509.483 291.15 510.199 294.145C511.578 299.689 511.501 299.735 511.254 299.874L511.054 299.989L510.885 299.812C508.831 297.59 507.09 295.098 505.71 292.405Z" fill="#547AC5"/>
<path d="M497.887 359.309C499.489 347.112 501.937 335.108 506.103 323.628C506.075 323.579 506.06 323.523 506.06 323.466C506.06 323.409 506.075 323.354 506.103 323.304C506.596 322.103 507.096 320.917 507.643 319.732C508.382 317.889 509.17 316.069 510.007 314.272C510.033 314.212 510.072 314.16 510.122 314.118C512.381 309.175 514.776 304.298 517.306 299.489C517.244 299.437 517.196 299.371 517.168 299.296C516.03 296.612 515.399 293.74 515.304 290.826C515.304 290.264 516.259 290.287 516.275 290.826C516.362 293.426 516.896 295.992 517.853 298.41C518.623 296.953 519.408 295.5 520.209 294.052C520.146 294.028 520.089 293.99 520.042 293.94C519.996 293.891 519.961 293.832 519.94 293.767C518.652 289.862 518.03 285.767 518.099 281.655C518.099 281.093 519.077 281.116 519.07 281.655C518.994 285.534 519.554 289.399 520.725 293.098C524.416 286.496 528.366 280.036 532.575 273.717C532.883 273.255 533.738 273.717 533.43 274.194C530.242 278.953 527.27 283.811 524.344 288.739C528.286 289.617 531.982 288.57 535.571 287.477C535.685 287.438 535.81 287.446 535.918 287.499C536.027 287.553 536.109 287.647 536.148 287.761C536.187 287.876 536.179 288.001 536.125 288.109C536.072 288.218 535.978 288.3 535.863 288.339C532.013 289.509 528.125 290.557 523.921 289.548H523.882C519.185 297.658 514.891 305.967 511 314.473C512.844 314.132 514.606 313.442 516.19 312.44C516.683 312.132 517.199 312.909 516.713 313.21C514.989 314.293 513.069 315.028 511.062 315.373C510.987 315.388 510.91 315.385 510.837 315.365C510.763 315.345 510.695 315.308 510.638 315.258C510.038 316.593 509.447 317.93 508.867 319.27C503.601 332.075 500.713 345.619 498.904 359.402C498.526 359.417 498.211 359.355 497.887 359.309Z" fill="#CAE5F6"/>
<path d="M499.096 359.802L497.556 359.548L497.594 359.271C499.396 345.55 502.068 333.9 505.779 323.644C505.726 323.497 505.726 323.336 505.779 323.189C506.272 321.996 506.78 320.802 507.319 319.617C508.089 317.753 508.859 315.913 509.691 314.15C509.723 314.072 509.77 314.001 509.829 313.942C512.032 309.122 514.411 304.278 516.906 299.535C516.882 299.498 516.861 299.46 516.844 299.42C515.697 296.708 515.06 293.808 514.965 290.865C514.958 290.747 514.984 290.629 515.04 290.524C515.096 290.42 515.179 290.333 515.281 290.272C515.408 290.198 515.553 290.16 515.701 290.16C515.848 290.16 515.993 290.198 516.12 290.272C516.235 290.33 516.331 290.418 516.399 290.526C516.467 290.635 516.503 290.76 516.505 290.888C516.586 293.242 517.038 295.567 517.845 297.78C518.476 296.589 519.121 295.398 519.778 294.207C519.702 294.128 519.644 294.033 519.608 293.93C518.312 289.991 517.687 285.863 517.76 281.718C517.779 281.527 517.869 281.35 518.011 281.222C518.154 281.094 518.339 281.024 518.53 281.025C518.633 281.018 518.736 281.033 518.833 281.069C518.929 281.106 519.017 281.162 519.09 281.235C519.163 281.308 519.219 281.396 519.256 281.492C519.292 281.589 519.307 281.692 519.3 281.795C519.237 285.415 519.725 289.024 520.748 292.497C524.398 285.999 528.278 279.669 532.298 273.687C532.369 273.58 532.467 273.495 532.582 273.44C532.697 273.384 532.825 273.36 532.952 273.371C533.102 273.381 533.247 273.428 533.373 273.509C533.5 273.59 533.604 273.701 533.676 273.833C533.727 273.936 533.75 274.051 533.742 274.166C533.734 274.281 533.695 274.392 533.63 274.487C530.658 278.93 527.678 283.727 524.759 288.671C528.609 289.441 532.406 288.262 535.447 287.331C535.639 287.278 535.844 287.301 536.019 287.396C536.194 287.49 536.326 287.649 536.386 287.839C536.418 287.93 536.431 288.026 536.424 288.122C536.417 288.218 536.39 288.312 536.346 288.397C536.301 288.483 536.239 288.558 536.164 288.618C536.089 288.678 536.002 288.722 535.909 288.748C531.982 289.941 528.117 290.942 523.989 289.995C519.43 297.852 515.249 305.923 511.462 314.18C513.071 313.821 514.605 313.185 515.997 312.302C516.105 312.237 516.229 312.203 516.355 312.203C516.481 312.203 516.605 312.237 516.713 312.302C516.839 312.369 516.947 312.467 517.025 312.587C517.103 312.707 517.149 312.844 517.16 312.987C517.164 313.11 517.136 313.232 517.078 313.34C517.019 313.448 516.933 313.539 516.829 313.603C515.075 314.71 513.121 315.461 511.077 315.813C510.968 315.837 510.855 315.837 510.746 315.813C510.184 317.06 509.637 318.308 509.09 319.555C504.393 330.989 501.236 343.725 499.15 359.595L499.096 359.802ZM498.21 359.032L498.534 359.086H498.587C500.674 343.294 503.839 330.597 508.528 319.185C509.113 317.84 509.706 316.501 510.307 315.166L510.438 314.873L510.669 314.365C514.519 305.895 518.854 297.525 523.566 289.417L523.682 289.21L523.905 289.287C527.978 290.272 531.813 289.287 535.709 288.093C535.728 288.089 535.747 288.081 535.763 288.069C535.778 288.057 535.791 288.041 535.8 288.023C535.809 288.005 535.814 287.986 535.814 287.966C535.814 287.946 535.81 287.926 535.801 287.908C535.796 287.885 535.786 287.862 535.771 287.843C535.757 287.824 535.739 287.808 535.717 287.796C535.696 287.784 535.673 287.777 535.649 287.775C535.625 287.774 535.601 287.777 535.578 287.785C532.375 288.763 528.386 289.98 524.213 289.056L523.828 288.963L524.028 288.624C527.016 283.519 530.072 278.614 533.122 274.064C533.129 274.052 533.133 274.039 533.133 274.025C533.133 274.012 533.129 273.998 533.122 273.987C533.094 273.946 533.058 273.912 533.015 273.888C532.972 273.864 532.924 273.851 532.875 273.848C532.849 273.844 532.821 273.847 532.797 273.858C532.772 273.869 532.751 273.887 532.737 273.91C528.617 280.07 524.636 286.576 520.902 293.267L520.571 293.853L520.371 293.214C519.192 289.479 518.628 285.579 518.7 281.664C518.7 281.525 518.538 281.517 518.507 281.517C518.476 281.517 518.315 281.517 518.315 281.648C518.242 285.726 518.859 289.788 520.14 293.66C520.146 293.686 520.158 293.71 520.176 293.73C520.193 293.75 520.215 293.766 520.24 293.776L520.54 293.891L520.386 294.184C519.616 295.624 518.8 297.079 518.03 298.534L517.729 299.089L517.506 298.503C516.537 296.047 515.996 293.443 515.905 290.803C515.905 290.778 515.898 290.752 515.885 290.73C515.871 290.708 515.851 290.691 515.828 290.68C515.786 290.659 515.74 290.648 515.693 290.648C515.646 290.648 515.6 290.659 515.558 290.68C515.545 290.69 515.534 290.703 515.527 290.717C515.521 290.732 515.518 290.749 515.52 290.765C515.613 293.639 516.234 296.471 517.352 299.119C517.366 299.15 517.387 299.176 517.414 299.196L517.599 299.343L517.483 299.551C514.957 304.355 512.54 309.276 510.307 314.18L510.222 314.288C509.375 316.09 508.582 317.923 507.827 319.786C507.319 320.979 506.811 322.165 506.287 323.359L506.372 323.482L506.318 323.674C502.684 333.9 500.012 345.465 498.21 359.071V359.032ZM510.53 314.866L510.776 315.066C510.803 315.088 510.834 315.104 510.867 315.113C510.9 315.123 510.935 315.125 510.969 315.12C512.936 314.783 514.818 314.061 516.505 312.995C516.526 312.986 516.544 312.97 516.556 312.951C516.568 312.932 516.575 312.91 516.574 312.887C516.569 312.846 516.554 312.806 516.532 312.772C516.509 312.737 516.479 312.708 516.444 312.687C516.421 312.674 516.396 312.667 516.37 312.667C516.345 312.667 516.32 312.674 516.297 312.687C514.682 313.707 512.886 314.41 511.007 314.758L510.53 314.866Z" fill="#547AC5"/>
<path d="M532.144 282.865C535.111 282.297 537.949 281.188 540.514 279.592C540.468 279.993 540.398 280.401 540.329 280.793C537.886 282.194 535.231 283.185 532.467 283.727C531.844 283.835 531.551 282.98 532.144 282.865Z" fill="#CAE5F6"/>
<path d="M532.336 284.027C532.149 284.029 531.968 283.963 531.827 283.841C531.685 283.719 531.592 283.55 531.566 283.365C531.547 283.278 531.547 283.188 531.565 283.101C531.583 283.014 531.618 282.932 531.67 282.859C531.721 282.787 531.787 282.726 531.863 282.68C531.94 282.635 532.025 282.606 532.113 282.595C535.043 282.027 537.845 280.931 540.383 279.361L540.899 279.038L540.822 279.638C540.783 280.015 540.714 280.408 540.652 280.778L540.614 280.986L540.498 281.055C538.001 282.473 535.288 283.471 532.467 284.012L532.336 284.027ZM540.144 280.177C537.683 281.615 534.996 282.625 532.198 283.165C532.105 283.165 532.098 283.211 532.105 283.273C532.112 283.304 532.124 283.333 532.142 283.359C532.16 283.385 532.183 283.407 532.209 283.424C532.236 283.442 532.265 283.453 532.296 283.459C532.327 283.465 532.359 283.464 532.39 283.457C535.091 282.932 537.691 281.978 540.09 280.632C540.09 280.462 540.121 280.316 540.167 280.162L540.144 280.177Z" fill="#547AC5"/>
<path d="M441.293 290.934C441.354 294.784 450.317 296.686 453.158 297.741C459.457 300.051 465.609 302.423 470.267 307.497C475.758 313.472 480.493 320.363 485.228 326.947C485.347 327.128 485.516 327.27 485.714 327.356C485.913 327.443 486.132 327.469 486.345 327.432C486.861 326.526 487.299 325.578 487.654 324.598C489.286 320.571 491.781 313.21 491.165 309.014C490.708 306.079 489.741 303.246 488.308 300.644C488.038 301.964 487.418 303.187 486.514 304.186C486.283 304.417 485.798 298.896 485.475 296.386C485.067 295.878 484.643 295.385 484.197 294.908C483.179 293.792 482.071 292.762 480.886 291.828C480.639 291.627 480.385 291.427 480.116 291.242C479.146 290.521 478.139 289.853 477.097 289.24L476.258 288.755C475.28 288.216 474.271 287.716 473.24 287.262C472.952 289.172 472.392 291.031 471.576 292.782C471.407 293.152 470.984 288.424 470.922 286.33C469.944 285.96 468.951 285.652 467.942 285.367C467.677 286.601 467.263 287.798 466.71 288.932C466.572 289.21 465.239 286.006 464.754 284.597C461.601 283.942 458.378 283.684 455.16 283.827C454.883 283.827 454.606 283.827 454.344 283.874C453.482 283.935 452.635 284.035 451.795 284.166C448.715 284.644 441.431 286.599 441.293 290.773C441.285 290.826 441.285 290.881 441.293 290.934Z" fill="#9BCEF5"/>
<path d="M486.137 327.74C485.91 327.735 485.687 327.676 485.488 327.567C485.288 327.459 485.117 327.304 484.99 327.116L483.057 324.413C478.991 318.723 474.787 312.864 470.052 307.689C465.316 302.515 459.095 300.243 453.058 298.01C452.558 297.826 451.849 297.61 451.025 297.364C447.06 296.155 441.062 294.33 441.015 290.942C441.012 290.886 441.012 290.829 441.015 290.773C441.154 286.669 447.83 284.536 451.757 283.927C452.627 283.789 453.489 283.696 454.329 283.635C454.59 283.635 454.875 283.635 455.153 283.589C458.396 283.441 461.645 283.699 464.824 284.359H464.985L465.039 284.52C465.51 285.846 466.049 287.147 466.656 288.416C467.097 287.426 467.437 286.394 467.673 285.336L467.742 285.044L468.034 285.129C468.866 285.367 469.959 285.691 471.03 286.099L471.207 286.168V286.36C471.253 287.9 471.484 290.634 471.653 291.951C472.272 290.442 472.709 288.865 472.955 287.254L473.016 286.884L473.355 287.038C474.395 287.492 475.419 287.993 476.435 288.54L477.282 289.025C478.344 289.644 479.372 290.32 480.362 291.05C480.608 291.227 480.863 291.427 481.132 291.627C482.337 292.559 483.463 293.589 484.497 294.707C484.905 295.146 485.328 295.631 485.79 296.201L485.837 296.263V296.347C485.937 297.117 486.052 298.195 486.168 299.289C486.329 300.829 486.545 302.761 486.699 303.616C487.388 302.707 487.865 301.654 488.093 300.536L488.27 299.812L488.632 300.467C490.081 303.1 491.059 305.966 491.519 308.937C492.228 313.726 488.994 322.196 487.985 324.675C486.768 327.671 486.607 327.678 486.445 327.686C486.345 327.718 486.242 327.737 486.137 327.74ZM457.008 284.12C456.408 284.12 455.807 284.12 455.214 284.166C454.937 284.166 454.675 284.166 454.444 284.212C453.605 284.266 452.758 284.366 451.911 284.497C448.415 285.036 441.778 287.061 441.647 290.826V290.934C441.647 293.899 447.676 295.716 451.256 296.809C452.088 297.063 452.796 297.279 453.32 297.471C459.141 299.62 465.724 302.091 470.545 307.297C475.365 312.502 479.515 318.377 483.588 324.082L485.521 326.785C485.602 326.904 485.711 327 485.839 327.064C485.967 327.129 486.109 327.16 486.252 327.155C486.696 326.288 487.094 325.398 487.446 324.49C488.439 322.042 491.627 313.711 490.942 309.091C490.528 306.43 489.688 303.854 488.455 301.46C488.143 302.568 487.57 303.585 486.784 304.424L486.653 304.563L486.46 304.509C486.191 304.409 486.129 304.394 485.59 299.396C485.475 298.342 485.359 297.31 485.267 296.547C484.836 296.016 484.435 295.562 484.05 295.146C483.042 294.052 481.944 293.042 480.77 292.128C480.508 291.912 480.27 291.72 480 291.543C479.04 290.825 478.04 290.162 477.005 289.556C476.735 289.394 476.458 289.233 476.166 289.079C475.311 288.601 474.425 288.155 473.517 287.746C473.217 289.555 472.67 291.314 471.892 292.975L471.792 293.183H471.553C470.984 293.059 470.737 287.716 470.691 286.622C469.879 286.32 469.052 286.063 468.212 285.852C467.942 287.006 467.542 288.124 467.018 289.186L466.933 289.356H466.718C466.186 289.356 464.877 285.76 464.593 284.959C462.097 284.435 459.557 284.154 457.008 284.12Z" fill="#547AC5"/>
<path d="M475.773 301.121C483.388 308.636 485.783 322.442 486.245 326.361C487.011 327.974 487.53 329.692 487.785 331.459C488.693 337.619 488.424 344.187 488.27 350.431C488.224 352.487 488.131 354.535 488.024 356.591L486.961 356.399C487.03 355.105 487.092 353.812 487.138 352.549C487.323 346.966 487.323 341.361 487.061 335.778C487.047 332.887 486.526 330.02 485.521 327.308C485.387 327.229 485.271 327.121 485.182 326.993C480.447 320.409 475.711 313.518 470.221 307.543C465.563 302.469 459.441 300.12 453.12 297.787C450.271 296.732 441.308 294.861 441.247 290.98C453.235 292.328 467.018 292.474 475.773 301.121Z" fill="#CAE5F6"/>
<path d="M488.316 356.93L487.993 356.869L486.938 356.676L486.684 356.63V356.376C486.753 355.082 486.814 353.789 486.853 352.526C487.053 346.736 487.03 341.092 486.784 335.771C486.637 332.583 486.329 329.95 485.321 327.486C485.187 327.393 485.07 327.279 484.974 327.147L483.042 324.444C478.976 318.754 474.772 312.895 470.036 307.72C465.301 302.546 459.079 300.274 453.05 298.041C452.542 297.857 451.834 297.641 451.01 297.395C447.044 296.186 441 294.361 441 290.973V290.642H441.331C442.971 290.834 444.642 291.004 446.328 291.173C457.154 292.251 468.342 293.375 475.981 300.906C483.942 308.767 486.152 323.305 486.522 326.269C487.292 327.894 487.811 329.625 488.062 331.405C488.901 337.111 488.739 343.094 488.593 348.876V350.416C488.547 352.249 488.47 354.205 488.339 356.576L488.316 356.93ZM487.284 356.16L487.777 356.245C487.892 354.028 487.962 352.172 488.008 350.432V348.892C488.154 343.132 488.316 337.18 487.484 331.521C487.225 329.782 486.706 328.092 485.944 326.508V326.416C485.59 323.597 483.434 309.122 475.557 301.352C468.073 293.96 456.985 292.882 446.259 291.774C444.719 291.62 443.125 291.458 441.639 291.289C442.101 294.061 447.799 295.785 451.218 296.833C452.049 297.087 452.758 297.302 453.289 297.495C459.102 299.643 465.686 302.115 470.506 307.32C475.326 312.525 479.476 318.4 483.55 324.106L485.482 326.808C485.556 326.901 485.645 326.982 485.744 327.047L485.821 327.093L485.86 327.178C486.93 329.742 487.246 332.452 487.4 335.74C487.646 341.076 487.669 346.728 487.469 352.541C487.407 353.727 487.353 354.944 487.284 356.153V356.16Z" fill="#547AC5"/>
<path d="M476.104 297.433C476.662 294.582 476.716 291.656 476.266 288.786L477.105 289.271C477.487 292.042 477.407 294.858 476.866 297.602C476.774 298.126 476.012 297.926 476.104 297.433Z" fill="#CAE5F6"/>
<path d="M476.52 298.195H476.381C476.205 298.167 476.047 298.07 475.942 297.926C475.837 297.782 475.792 297.602 475.819 297.425C476.365 294.607 476.419 291.715 475.981 288.878L475.888 288.293L476.404 288.578L477.251 289.063L477.374 289.133V289.271C477.758 292.089 477.674 294.95 477.128 297.741C477.09 297.872 477.01 297.988 476.9 298.07C476.79 298.152 476.657 298.196 476.52 298.195ZM476.389 297.487C476.389 297.579 476.45 297.602 476.489 297.61C476.527 297.618 476.581 297.61 476.589 297.549C477.104 294.879 477.19 292.145 476.843 289.448L476.635 289.325C476.995 292.041 476.912 294.798 476.389 297.487Z" fill="#547AC5"/>
<path d="M479.014 298.981C479.689 296.467 480.062 293.882 480.123 291.281C480.385 291.466 480.639 291.666 480.893 291.866C480.799 294.333 480.43 296.781 479.792 299.165C479.654 299.666 478.884 299.473 479.014 298.981Z" fill="#CAE5F6"/>
<path d="M479.407 299.735C479.343 299.743 479.279 299.743 479.215 299.735C479.133 299.716 479.055 299.681 478.987 299.632C478.919 299.583 478.861 299.521 478.816 299.449C478.772 299.378 478.742 299.298 478.729 299.215C478.715 299.132 478.718 299.047 478.737 298.965C479.407 296.472 479.777 293.908 479.839 291.327V290.78L480.277 291.096C480.532 291.281 480.786 291.481 481.047 291.681L481.163 291.774V291.935C481.064 294.423 480.69 296.891 480.046 299.296C479.999 299.427 479.911 299.539 479.797 299.618C479.682 299.696 479.546 299.737 479.407 299.735ZM479.292 299.05C479.292 299.05 479.292 299.127 479.361 299.15C479.375 299.156 479.39 299.159 479.406 299.159C479.421 299.159 479.436 299.155 479.45 299.148C479.464 299.142 479.476 299.133 479.486 299.121C479.496 299.109 479.503 299.095 479.507 299.081C480.122 296.765 480.486 294.39 480.593 291.997L480.393 291.835C480.296 294.274 479.927 296.694 479.292 299.05Z" fill="#547AC5"/>
<path d="M466.248 350.747C466.242 355.166 467.287 359.522 469.295 363.458C471.303 367.394 474.217 370.796 477.798 373.385H510.592C515.013 370.181 518.4 365.752 520.335 360.646C522.27 355.54 522.667 349.979 521.48 344.649C521.119 342.997 520.603 341.384 519.94 339.829H468.489C467.828 341.385 467.313 342.998 466.949 344.649C466.492 346.65 466.257 348.695 466.248 350.747Z" fill="#E47A2E"/>
<path d="M466.248 350.747C466.242 355.166 467.287 359.522 469.295 363.458C471.303 367.394 474.217 370.796 477.798 373.385H510.592C467.742 375.518 468.45 339.829 468.45 339.829C467.79 341.385 467.274 342.998 466.91 344.649C466.466 346.651 466.244 348.696 466.248 350.747Z" fill="#D0661A"/>
<path d="M509.768 339.829H519.978C520.642 341.384 521.158 342.997 521.518 344.649C522.711 349.979 522.316 355.541 520.381 360.649C518.445 365.756 515.056 370.184 510.63 373.385H506.095C511.585 369.404 514.142 351.202 509.768 339.829Z" fill="#D0661A"/>
<defs>
<linearGradient id="paint0_linear_1147_48964" x1="499.043" y1="455.599" x2="484.491" y2="385.664" gradientUnits="userSpaceOnUse">
<stop stop-color="white"/>
<stop offset="1" stop-color="#AEBDDF"/>
</linearGradient>
</defs>
</svg>
