<svg width="610" height="424" fill="none" xmlns="http://www.w3.org/2000/svg"><rect x="118" y="32" width="171" height="158" rx="16" fill="#F5F5F5"/><rect x="322" y="5" width="171" height="158" rx="22" fill="#F5F5F5"/><path d="M403.84 396.379h-10.575v.304h10.575v-.304ZM609.236 373.488H.764v.304h608.472v-.304Z" fill="#EBEBEB"/><path d="M380.62 373.172H106.017l-2.264-7.764h279.131l-2.264 7.764Z" fill="#E0E0E0"/><path d="M240.708 259.923H91.17v51.623h149.538v-51.623Z" fill="#EBEBEB"/><path d="M240.708 311.534H91.17v51.622h149.538v-51.622Z" fill="#EBEBEB"/><path d="M240.708 267.845v-5.22H91.171v5.22h149.537ZM240.708 319.067v-5.221H91.171v5.221h149.537Z" fill="#E0E0E0"/><path d="M88.566 257.599v107.809h154.759V257.599H88.566Zm149.538 102.576H93.787v-45.928h144.317v45.928Zm0-51.148H93.787v-45.928h144.317v45.928Z" fill="#F5F5F5"/><path d="M395.467 259.923H245.929v51.623h149.538v-51.623Z" fill="#EBEBEB"/><path d="M395.467 311.534H245.929v51.622h149.538v-51.622Z" fill="#EBEBEB"/><path d="M395.467 267.858v-5.221H245.929v5.221h149.538ZM395.467 319.079v-5.221H245.929v5.221h149.538Z" fill="#E0E0E0"/><path d="M243.325 257.599v107.809h154.758V257.599H243.325Zm149.538 102.576H248.545v-45.928h144.318v45.928Zm0-51.148H248.545v-45.928h144.318v45.928Z" fill="#F5F5F5"/><path d="M325.189 290.566a4.487 4.487 0 0 1-4.491 4.49 4.486 4.486 0 0 1-4.49-4.49 4.487 4.487 0 0 1 4.49-4.491 4.488 4.488 0 0 1 4.491 4.491Z" fill="#E0E0E0"/><path d="M325.189 289.3a4.488 4.488 0 0 1-4.491 4.491 4.487 4.487 0 0 1-4.49-4.491 4.486 4.486 0 0 1 4.49-4.49 4.487 4.487 0 0 1 4.491 4.49Z" fill="#FAFAFA"/><path d="M325.189 337.978a4.487 4.487 0 0 1-4.491 4.49 4.486 4.486 0 0 1-4.49-4.49 4.487 4.487 0 0 1 4.49-4.491 4.488 4.488 0 0 1 4.491 4.491Z" fill="#E0E0E0"/><path d="M325.189 336.712a4.488 4.488 0 0 1-4.491 4.491 4.487 4.487 0 0 1-4.49-4.491 4.486 4.486 0 0 1 4.49-4.49 4.487 4.487 0 0 1 4.491 4.49Z" fill="#FAFAFA"/><path d="M170.43 290.566a4.487 4.487 0 0 1-4.491 4.49 4.486 4.486 0 0 1-4.49-4.49 4.487 4.487 0 0 1 4.49-4.491 4.488 4.488 0 0 1 4.491 4.491Z" fill="#E0E0E0"/><path d="M170.43 289.3a4.488 4.488 0 0 1-4.491 4.491 4.487 4.487 0 0 1-4.49-4.491 4.487 4.487 0 0 1 4.49-4.49 4.487 4.487 0 0 1 4.491 4.49Z" fill="#FAFAFA"/><path d="M170.43 337.978a4.487 4.487 0 0 1-4.491 4.49 4.487 4.487 0 0 1-4.49-4.49 4.487 4.487 0 0 1 4.49-4.491 4.488 4.488 0 0 1 4.491 4.491Z" fill="#E0E0E0"/><path d="M170.43 336.712a4.488 4.488 0 0 1-4.491 4.491 4.487 4.487 0 0 1-4.49-4.491 4.487 4.487 0 0 1 4.49-4.49 4.487 4.487 0 0 1 4.491 4.49Z" fill="#FAFAFA"/><path d="M299.135 423.76c130.313 0 235.953-6.167 235.953-13.775 0-7.609-105.64-13.776-235.953-13.776-130.314 0-235.953 6.167-235.953 13.776 0 7.608 105.639 13.775 235.953 13.775Z" fill="url(#a)"/><path d="M459.175 114.462h5.354V98.861h-5.354v15.601Z" fill="#263238"/><path d="M444.365 89.989c.669-4.71 4.284-7.533 8.616-7.606.536 0 4.15.012 4.807 0 .56-.012 1.132.024 1.704.097 1.752.244 3.237.402 4.636.487 1.424-.085 2.945-.243 4.759-.487.645-.085 5.804-.097 6.255-.097 4.466-.037 7.52 2.799 7.021 7.606 0 .097-.012.146-.024.243-.548 5.294-5.281 10.989-10.612 11.707-4.028.536-6.693.694-9.796.499-3.14.195-5.781.037-9.663-.499-5.147-.706-8.494-6.413-7.739-11.707.012-.097.024-.146.036-.243ZM481.031 105.943c-.694.024-3.992-.061-5.026 0-.815.049-1.691.183-2.616.426-4.832 1.29-8.726 2.044-12.413 2.276-3.627-.232-7.338-.986-11.853-2.276-1.144-.329-2.239-.475-3.286-.438-.742.024-3.87 0-4.697 0-3.895.024-6.973 2.422-7.643 6.876l-7.374 48.665H471.6c4.283 0 8.251-1.29 11.573-3.492 1.424-15.066 2.835-30.12 4.259-45.186.438-4.624-2.251-7.034-6.401-6.875v.024Z" fill="#263238"/><path opacity=".2" d="M452.068 101.939c5.708.791 8.689.791 14.591 0 5.331-.705 10.064-6.413 10.612-11.707 0-.097.012-.146.024-.243.548-5.294-3.212-8.202-8.409-7.509-5.768.767-8.676.767-14.25 0-5.038-.693-9.504 2.215-10.259 7.509-.012.097-.024.146-.036.243-.755 5.294 2.58 10.989 7.739 11.707h-.012ZM473.389 106.369c-11.817 3.152-18.084 3.152-29.122 0-5.293-1.509-9.918.84-10.758 6.438l-7.374 48.665h45.477a20.68 20.68 0 0 0 6.474-1.034l4.491-47.631c.523-5.598-3.517-7.947-9.188-6.438Z" fill="#fff"/><path d="m400.396 137.413-8.385.803-12.838-3.03-4.661 7.691 2.993 1.522 4.187-1.278 5.78 1.132 5.209-.804 9.881.244-2.166-6.28Z" fill="#FFC3BD"/><path d="m397.001 137.097 1.996 7.168s14.457 1.971 20.14-.524c5.683-2.482 1.387-44.43-4.077-43.968-5.464.463-2.458 23.67-2.458 30.959 0 5.574-15.601 6.377-15.601 6.377v-.012Z" fill="#407BFF"/><path opacity=".7" d="m397.001 137.097 1.996 7.168s14.457 1.971 20.14-.524c5.683-2.482 1.387-44.43-4.077-43.968-5.464.463-2.458 23.67-2.458 30.959 0 5.574-15.601 6.377-15.601 6.377v-.012Z" fill="#fff"/><path d="M413.978 99.81c-5.477 7.837 7.107 20.128 7.374 61.662h40.634c1.181-11.22 5.379-55.176-.475-63.475-6.729-9.53-42.313-5.647-47.533 1.813Z" fill="#407BFF"/><path d="M427.12 92.386s-9.711 3.675-.925 12.267l4.686-1.923 6.754 1.923s17.134-18.923-10.515-12.267Z" fill="#407BFF"/><path opacity=".7" d="M427.12 92.386s-9.711 3.675-.925 12.267l4.686-1.923 6.754 1.923s17.134-18.923-10.515-12.267Z" fill="#fff"/><path d="M428.472 101.197c-2.386-1.96-5.172-4.953-2.812-6.912 4.43-1.083 9.626-1.753 14.738-1.887 1.363.901.596 3.262-6.73 8.872a4.188 4.188 0 0 1-5.196-.073Z" fill="#FFC3BD"/><path d="m425.977 88.796 8.153-8.859c.779 6.79 4.393 12.364 5.123 12.583l-.888 3.116c-9.882 11.11-12.157.438-12.157.438 2.409-2.02-.219-7.29-.219-7.29l-.012.012Z" fill="#FFC3BD"/><path opacity=".2" d="m430.869 83.49 3.797-.377s-.171 11.39-7.959 12.364c1.448-2.3-.73-6.68-.73-6.68l4.892-5.306Z" fill="#263238"/><path d="M433.023 70.201c1.765 8.057 3.213 12.657.426 17.975-2.69 5.27-9.127 7.362-14.397 4.685a10.739 10.739 0 0 1-4.563-4.454c-3.7-6.547-5.975-18.607.779-24.217 4.49-3.943 11.342-3.505 15.285.998a10.877 10.877 0 0 1 2.482 5.026l-.012-.013Z" fill="#FFC3BD"/><path d="M421.815 76.237c.194.633 0 1.266-.438 1.364-.426.097-.901-.28-1.083-.913-.195-.633 0-1.278.45-1.363.438-.098.9.28 1.071.925v-.013ZM414.623 78.562c.194.633 0 1.266-.438 1.363-.438.11-.901-.28-1.096-.925-.194-.645 0-1.266.451-1.363.438-.11.9.28 1.083.925ZM423.36 73.171a.325.325 0 0 0 .17-.085.398.398 0 0 0-.061-.548h-.012a3.81 3.81 0 0 0-3.517-.633.381.381 0 0 0-.219.5.381.381 0 0 0 .499.218 3.026 3.026 0 0 1 2.738.487.35.35 0 0 0 .402.049v.012ZM410.826 77.053a.349.349 0 0 0 .219-.292 3.278 3.278 0 0 1 1.63-2.398.393.393 0 0 0 .098-.547.405.405 0 0 0-.438-.159 4.034 4.034 0 0 0-2.057 2.97.386.386 0 0 0 .316.45c.073.012.146 0 .219-.024h.013ZM422.374 86.387c-.353.11-.718.182-1.095.219-.122.024-.231-.06-.256-.183 0-.121.086-.23.207-.243a6 6 0 0 0 4.54-2.933.208.208 0 0 1 .292-.097.209.209 0 0 1 .097.292 6.216 6.216 0 0 1-3.797 2.957l.012-.012Z" fill="#263238"/><path d="M417.129 78.136a25.063 25.063 0 0 1-1.46 6.474c1.424.694 3.213-.377 3.213-.377l-1.753-6.11v.013Z" fill="#ED893E"/><path d="M428.642 58.142C402.696 53.164 410.29 74.29 410.29 74.29s.195-3.615 3.578-3.615 6.352-2.653 6.352-2.653c-1.995 2.41-4.551 3.128-4.551 3.128 5.902.097 9.565-3.408 11.549-6.219 0 0 .231 1.156.231 1.801 0 2.97 2.41 4.576 3.614 8.629 1.205 4.04 6.024 0 6.024 0 6.754-17.33-8.433-17.22-8.433-17.22h-.012Z" fill="#263238"/><path d="M437.891 75.921a7.323 7.323 0 0 1-2.045 4.929c-1.691 1.716-3.626.425-4.064-1.838-.39-2.057.024-5.403 2.154-6.267 2.129-.852 3.967.9 3.943 3.176h.012Z" fill="#FFC3BD"/><path d="M429.08 59.322s-5.476-6.705-9.285-4.916c-3.809 1.776 6.961 2.214 9.285 4.916Z" fill="#263238"/><path d="m428.654 138.813-8.385.803-12.839-4.32-5.938 6.401 2.981 1.533h5.476l5.793 2.422 5.196-.803 9.894.231-2.178-6.267Z" fill="#FFC3BD"/><path d="M459.455 97.315c-2.702-1.837-5.586-.06-8.507 16.745-3.468 19.934-5.768 20.834-25.689 24.424l2.166 7.168s17.013 2.093 25.239-3.261c8.239-5.355 14.056-40.123 6.791-45.076Z" fill="#407BFF"/><path opacity=".7" d="M459.455 97.315c-2.702-1.837-5.586-.06-8.507 16.745-3.468 19.934-5.768 20.834-25.689 24.424l2.166 7.168s17.013 2.093 25.239-3.261c8.239-5.355 14.056-40.123 6.791-45.076Z" fill="#fff"/><path d="M435.201 147.66H323.997a20.948 20.948 0 0 0 2.969 5.452h108.235a2.722 2.722 0 0 0 2.726-2.726 2.722 2.722 0 0 0-2.726-2.726Z" fill="#263238"/><path opacity=".6" d="M435.201 147.66H323.997a20.948 20.948 0 0 0 2.969 5.452h108.235a2.722 2.722 0 0 0 2.726-2.726 2.722 2.722 0 0 0-2.726-2.726Z" fill="#fff"/><path d="M343.71 161.472h88.947v-8.36H326.965c3.834 5.074 9.894 8.36 16.745 8.36Z" fill="#263238"/><path opacity=".4" d="M343.71 161.472h88.947v-8.36H326.965c3.834 5.074 9.894 8.36 16.745 8.36Z" fill="#fff"/><path d="M418.067 144.119h-64.802c-.974 0-1.765.791-1.765 1.764 0 .974.791 1.765 1.765 1.765h64.802a1.766 1.766 0 0 0 0-3.529Z" fill="#263238"/><path opacity=".3" d="M418.067 144.119h-64.802c-.974 0-1.765.791-1.765 1.764 0 .974.791 1.765 1.765 1.765h64.802a1.766 1.766 0 0 0 0-3.529Z" fill="#fff"/><path d="M354.226 146.577h22.148a.842.842 0 0 0 .791-1.12L365.02 110.75a2.373 2.373 0 0 0-2.251-1.594h-22.148a.842.842 0 0 0-.791 1.12l12.145 34.707a2.373 2.373 0 0 0 2.251 1.594Z" fill="#263238"/><path opacity=".5" d="M354.226 146.577h22.148a.842.842 0 0 0 .791-1.12L365.02 110.75a2.373 2.373 0 0 0-2.251-1.594h-22.148a.842.842 0 0 0-.791 1.12l12.145 34.707a2.373 2.373 0 0 0 2.251 1.594Z" fill="#fff"/><path d="M353.155 146.577h22.148a.842.842 0 0 0 .791-1.12l-12.145-34.707a2.385 2.385 0 0 0-2.251-1.594h-22.149a.842.842 0 0 0-.791 1.12l12.145 34.707a2.375 2.375 0 0 0 2.252 1.594Z" fill="#263238"/><path opacity=".7" d="M353.155 146.577h22.148a.842.842 0 0 0 .791-1.12l-12.145-34.707a2.385 2.385 0 0 0-2.251-1.594h-22.149a.842.842 0 0 0-.791 1.12l12.145 34.707a2.375 2.375 0 0 0 2.252 1.594Z" fill="#fff"/><path d="M355.637 127.86c.28 1.327 1.205 2.41 2.057 2.41.851 0 1.314-1.083 1.034-2.41-.28-1.326-1.205-2.409-2.057-2.409-.852 0-1.314 1.083-1.034 2.409Z" fill="#fff"/><path opacity=".2" d="M379.221 147.66a1.766 1.766 0 0 1 0-3.529h38.845a1.766 1.766 0 0 1 0 3.529h-38.845Z" fill="#fff"/><path d="M339.866 89.295h-4.442v9.675h4.442v-9.675ZM393.071 89.295h-4.442v9.675h4.442v-9.675ZM366.395 70.591l-.524-.036c1.047-15.54-1.265-20.591-3.383-22.088-1.241-.876-2.349-.414-2.361-.414l-.207-.474s1.388-.584 2.872.462c2.24 1.582 4.673 6.766 3.603 22.55Z" fill="#407BFF"/><path d="M363.437 69.009c-.511-13.216 1.777-18.145 3.797-19.958 1.254-1.132 2.349-.986 2.385-.974l-.073.512s-.925-.11-1.995.876c-1.911 1.752-4.089 6.56-3.59 19.52l-.524.024Z" fill="#407BFF"/><path d="m365.665 69.02-.523-.036c.535-7.946-.438-12.668-2.836-13.666-3.127-1.302-7.788 3.919-7.837 3.967l-.389-.34c.194-.232 4.953-5.55 8.421-4.102 2.653 1.108 3.712 5.878 3.152 14.178h.012Z" fill="#407BFF"/><path d="M364.351 69.532c0-4.88 1.01-7.886 3.018-8.944 2.263-1.193 4.867.572 4.977.645l-.292.426s-2.458-1.655-4.442-.609c-1.813.962-2.738 3.81-2.738 8.482h-.523Z" fill="#407BFF"/><g opacity=".2" fill="#000"><path d="m366.395 70.591-.524-.036c1.047-15.54-1.265-20.591-3.383-22.088-1.241-.876-2.349-.414-2.361-.414l-.207-.474s1.388-.584 2.872.462c2.24 1.582 4.673 6.766 3.603 22.55Z"/><path d="M363.437 69.009c-.511-13.216 1.777-18.145 3.797-19.958 1.254-1.132 2.349-.986 2.385-.974l-.073.512s-.925-.11-1.995.876c-1.911 1.752-4.089 6.56-3.59 19.52l-.524.024Z"/><path d="m365.665 69.02-.523-.036c.535-7.946-.438-12.668-2.836-13.666-3.127-1.302-7.788 3.919-7.837 3.967l-.389-.34c.194-.232 4.953-5.55 8.421-4.102 2.653 1.108 3.712 5.878 3.152 14.178h.012Z"/><path d="M364.351 69.532c0-4.88 1.01-7.886 3.018-8.944 2.263-1.193 4.867.572 4.977.645l-.292.426s-2.458-1.655-4.442-.609c-1.813.962-2.738 3.81-2.738 8.482h-.523Z"/></g><path d="m352.559 68.133 2.239 12.741a6.098 6.098 0 0 0 6.011 5.05h8.908a6.108 6.108 0 0 0 6.012-5.05l2.239-12.741h-25.422.013Z" fill="#263238"/><path opacity=".3" d="m352.559 68.133 2.239 12.741a6.098 6.098 0 0 0 6.011 5.05h8.908a6.108 6.108 0 0 0 6.012-5.05l2.239-12.741h-25.422.013Z" fill="#fff"/><path d="M361.052 47.712s5.282-8.883-4.016-9.017c-1.375-.024-2.701.195-3.967.548 1.193.827 3.164 2.324 2.166 2.713-1.046.402-4.819-.365-6.644-.766-4.783 2.835-7.874 7.095-7.874 7.095s2.495 2.397 6.012 4.794c.925-.925 2.336-2.08 3.128-1.618.803.462 1.667 2.933 2.202 4.697 1.813.84 3.688 1.473 5.513 1.716-.049-1.424-.024-3.724.657-4.077.706-.377 3.152 1.984 4.539 3.408 7.107-3.067-1.703-9.492-1.703-9.492h-.013Z" fill="#407BFF"/><path opacity=".1" d="M361.052 47.712s5.282-8.883-4.016-9.017c-1.375-.024-2.701.195-3.967.548 1.193.827 3.164 2.324 2.166 2.713-1.046.402-4.819-.365-6.644-.766-4.783 2.835-7.874 7.095-7.874 7.095s2.495 2.397 6.012 4.794c.925-.925 2.336-2.08 3.128-1.618.803.462 1.667 2.933 2.202 4.697 1.813.84 3.688 1.473 5.513 1.716-.049-1.424-.024-3.724.657-4.077.706-.377 3.152 1.984 4.539 3.408 7.107-3.067-1.703-9.492-1.703-9.492h-.013Z" fill="#fff"/><path opacity=".3" d="M361.052 47.712s5.282-8.883-4.016-9.017c-1.375-.024-2.701.195-3.967.548 1.193.827 3.164 2.324 2.166 2.713-1.046.402-4.819-.365-6.644-.766-4.783 2.835-7.874 7.095-7.874 7.095 10.15-4.308 20.348-.572 20.348-.572h-.013Z" fill="#fff"/><path d="M372.066 53.724c.986-.28 2.202 1.668 2.835 2.848 2.008-.827 3.919-2.178 5.586-3.614-.45-.998-.961-2.361-.645-2.884.341-.548 2.093-.11 3.359.28 1.971-2.081 3.213-3.822 3.213-3.822s-1.169-.985-3.067-2.117c-1.826.207-4.405.365-5.038-.256-.67-.67.766-1.156 1.776-1.411-1.606-.694-3.419-1.254-5.33-1.485-.243.828-.779 2.105-1.764 2.105-.925 0-2.02-1.107-2.702-1.922-7.618 1.642-1.57 7.094-1.57 7.094s-6.559 7.789 1.241 8.823c.414-1.338 1.181-3.37 2.106-3.626v-.013Z" fill="#407BFF"/><path opacity=".2" d="M372.066 53.724c.986-.28 2.202 1.668 2.835 2.848 2.008-.827 3.919-2.178 5.586-3.614-.45-.998-.961-2.361-.645-2.884.341-.548 2.093-.11 3.359.28 1.971-2.081 3.213-3.822 3.213-3.822s-1.169-.985-3.067-2.117c-1.826.207-4.405.365-5.038-.256-.67-.67.766-1.156 1.776-1.411-1.606-.694-3.419-1.254-5.33-1.485-.243.828-.779 2.105-1.764 2.105-.925 0-2.02-1.107-2.702-1.922-7.618 1.642-1.57 7.094-1.57 7.094s-6.559 7.789 1.241 8.823c.414-1.338 1.181-3.37 2.106-3.626v-.013Z" fill="#fff"/><path opacity=".3" d="M378.308 44.147c-.669-.67.767-1.156 1.777-1.412-1.606-.694-3.419-1.253-5.33-1.484-.243.827-.779 2.105-1.765 2.105-.924 0-2.02-1.108-2.701-1.923-7.618 1.643-1.57 7.095-1.57 7.095s9.894-3.614 17.682-1.996c0 0-1.168-.986-3.067-2.117-1.825.206-4.405.365-5.038-.256l.012-.012Z" fill="#fff"/><path d="M383.214 60.564c-1.059.572-3.091 1.496-3.907.681-.888-.888.426-4.26 1.047-5.67-.998-1.206-2.142-2.18-3.505-2.776-8.275-3.675-5.464 8.215-5.464 8.215s-10.454 2.519-3.712 8.932c.499.475 1.01.889 1.558 1.266.523-1.241 1.545-3.261 2.568-2.982.998.268.632 2.921.292 4.564 1.813.767 3.711 1.193 5.5 1.424.244-1.156.706-2.69 1.448-2.653.791.049 1.826 1.716 2.446 2.86 2.751-.037 4.674-.426 4.674-.426s-.439-7.265-2.958-13.423l.013-.012Z" fill="#407BFF"/><path opacity=".2" d="M371.385 61.014s-10.454 2.519-3.712 8.932c.499.475 1.01.888 1.558 1.266.523-1.242 1.545-3.262 2.568-2.982.998.268.632 2.92.292 4.564 1.813.766 3.711 1.192 5.5 1.424.244-1.157.706-2.69 1.448-2.653.791.048 1.826 1.716 2.446 2.86 2.751-.037 4.674-.426 4.674-.426-4.71-10.26-14.786-12.973-14.786-12.973l.012-.012Z" fill="#fff"/><path d="M355.15 58.482s-5.598-9.26-9.711-.912c-.669 1.363-1.071 2.774-1.29 4.186 1.716-.755 5.391-2.142 5.44-.256.061 2.057-3.882 5.903-5.197 7.132.852 4.43 2.702 7.8 2.702 7.8s2.166-.815 4.965-2.288c.146-1.496.584-4.466 1.692-5.11 1.168-.682 1.947 1.727 2.239 2.823 1.728-1.132 3.444-2.447 4.892-3.919-1.071-1.23-2.544-3.152-2.105-4.162.474-1.095 3.492-.62 5.172-.268a8.872 8.872 0 0 0 .608-2.275c1.047-9.006-9.395-2.738-9.395-2.738l-.012-.013Z" fill="#407BFF"/><path opacity=".2" d="M347.082 76.432s2.166-.815 4.965-2.288c.146-1.497.584-4.466 1.692-5.11 1.168-.682 1.947 1.727 2.239 2.822 1.728-1.131 3.444-2.446 4.892-3.918-1.071-1.23-2.543-3.152-2.105-4.162.474-1.095 3.492-.62 5.172-.268a8.872 8.872 0 0 0 .608-2.276c1.047-9.005-9.395-2.738-9.395-2.738s-6.17 5.744-8.056 17.95l-.012-.012Z" fill="#fff"/><path d="M398.559 84.853h-68.612v5.465h68.612v-5.465Z" fill="#407BFF"/><path opacity=".3" d="M398.559 84.853h-68.612v5.465h68.612v-5.465Z" fill="#fff"/><path d="M471.6.422H343.711c-14.408 0-26.14 11.719-26.14 26.14V140.48c0 14.408 11.719 26.14 26.14 26.14H471.6c14.408 0 26.14-11.719 26.14-26.14V26.562c0-14.409-11.719-26.14-26.14-26.14Zm20.992 140.058c0 11.597-9.395 20.992-20.992 20.992H343.711c-11.597 0-20.992-9.395-20.992-20.992V26.562c0-11.598 9.395-20.992 20.992-20.992H471.6c11.597 0 20.992 9.394 20.992 20.992V140.48Z" fill="#407BFF"/><path opacity=".4" d="M471.6.422H343.711c-14.408 0-26.14 11.719-26.14 26.14V140.48c0 14.408 11.719 26.14 26.14 26.14H471.6c14.408 0 26.14-11.719 26.14-26.14V26.562c0-14.409-11.719-26.14-26.14-26.14Zm20.992 140.058c0 11.597-9.395 20.992-20.992 20.992H343.711c-11.597 0-20.992-9.395-20.992-20.992V26.562c0-11.598 9.395-20.992 20.992-20.992H471.6c11.597 0 20.992 9.394 20.992 20.992V140.48Z" fill="#fff"/><path d="M455.901 41.847h-16.027a3.103 3.103 0 0 0-3.103 3.103v2.823a3.103 3.103 0 0 0 3.103 3.104h16.027a3.104 3.104 0 0 0 3.104-3.104V44.95a3.104 3.104 0 0 0-3.104-3.103ZM469.872 30.675h-16.027a3.103 3.103 0 0 0-3.103 3.104v2.823a3.103 3.103 0 0 0 3.103 3.103h16.027a3.103 3.103 0 0 0 3.103-3.103v-2.823a3.103 3.103 0 0 0-3.103-3.104ZM464.846 53.019h-16.027a3.104 3.104 0 0 0-3.104 3.103v2.823a3.104 3.104 0 0 0 3.104 3.103h16.027a3.103 3.103 0 0 0 3.103-3.103v-2.823a3.103 3.103 0 0 0-3.103-3.103ZM480.982 41.847h-16.027a3.103 3.103 0 0 0-3.103 3.103v2.823a3.103 3.103 0 0 0 3.103 3.104h16.027a3.104 3.104 0 0 0 3.104-3.104V44.95a3.104 3.104 0 0 0-3.104-3.103Z" fill="#407BFF"/><path opacity=".7" d="M455.901 41.847h-16.027a3.103 3.103 0 0 0-3.103 3.103v2.823a3.103 3.103 0 0 0 3.103 3.104h16.027a3.104 3.104 0 0 0 3.104-3.104V44.95a3.104 3.104 0 0 0-3.104-3.103Z" fill="#fff"/><path opacity=".8" d="M469.872 30.675h-16.027a3.103 3.103 0 0 0-3.103 3.104v2.823a3.103 3.103 0 0 0 3.103 3.103h16.027a3.103 3.103 0 0 0 3.103-3.103v-2.823a3.103 3.103 0 0 0-3.103-3.104ZM464.846 53.019h-16.027a3.104 3.104 0 0 0-3.104 3.103v2.823a3.104 3.104 0 0 0 3.104 3.103h16.027a3.103 3.103 0 0 0 3.103-3.103v-2.823a3.103 3.103 0 0 0-3.103-3.103Z" fill="#fff"/><path opacity=".7" d="M480.982 41.847h-16.027a3.103 3.103 0 0 0-3.103 3.103v2.823a3.103 3.103 0 0 0 3.103 3.104h16.027a3.104 3.104 0 0 0 3.104-3.104V44.95a3.104 3.104 0 0 0-3.104-3.103Z" fill="#fff"/><path d="M416.107 29.605h16.027a3.103 3.103 0 0 0 3.103-3.104v-2.823a3.103 3.103 0 0 0-3.103-3.103h-16.027a3.103 3.103 0 0 0-3.103 3.103v2.823a3.103 3.103 0 0 0 3.103 3.104ZM407.138 40.764h16.027a3.103 3.103 0 0 0 3.103-3.103v-2.824a3.103 3.103 0 0 0-3.103-3.103h-16.027a3.103 3.103 0 0 0-3.103 3.103v2.824a3.103 3.103 0 0 0 3.103 3.103ZM391.001 29.605h16.028a3.104 3.104 0 0 0 3.103-3.104v-2.823a3.104 3.104 0 0 0-3.103-3.103h-16.028a3.104 3.104 0 0 0-3.103 3.103v2.823a3.104 3.104 0 0 0 3.103 3.104Z" fill="#407BFF"/><path opacity=".8" d="M416.107 29.605h16.027a3.103 3.103 0 0 0 3.103-3.104v-2.823a3.103 3.103 0 0 0-3.103-3.103h-16.027a3.103 3.103 0 0 0-3.103 3.103v2.823a3.103 3.103 0 0 0 3.103 3.104ZM407.138 40.764h16.027a3.103 3.103 0 0 0 3.103-3.103v-2.824a3.103 3.103 0 0 0-3.103-3.103h-16.027a3.103 3.103 0 0 0-3.103 3.103v2.824a3.103 3.103 0 0 0 3.103 3.103Z" fill="#fff"/><path opacity=".7" d="M391.001 29.605h16.028a3.104 3.104 0 0 0 3.103-3.104v-2.823a3.104 3.104 0 0 0-3.103-3.103h-16.028a3.104 3.104 0 0 0-3.103 3.103v2.823a3.104 3.104 0 0 0 3.103 3.104Z" fill="#fff"/><path d="M274.649 51.911h-72.846v82.278h72.846V51.911Z" fill="#263238"/><path d="M280.479 134.189h-84.517v6.632h84.517v-6.632Z" fill="#263238"/><path d="M280.479 134.189h-84.517v6.632h84.517v-6.632Z" fill="#fff" opacity=".4"/><path opacity=".6" d="M274.649 51.911h-72.846v82.278h72.846V51.911Z" fill="#fff"/><path opacity=".5" d="M269.513 57.059H206.95v71.994h62.563V57.059Z" fill="#fff"/><g opacity=".2" fill="#fff"><path d="M206.95 57.059v71.982h.438l17.208-71.982H206.95ZM260.605 57.059h-3.225l-17.195 71.982h3.225l17.195-71.982ZM253.049 57.059h-13.496l-17.196 71.982h13.496l17.196-71.982Z"/></g><path d="M159.709 118.247c-2.47.182-5.586-1.801-7.107-4.381-.474-.803-.718-1.217-1.205-2.02-3.517-5.744-11.22-9.858-16.55-9.468-.535.036-.803.061-1.339.097-.645.049-3.103.219-3.736.268-.535.036-.803.061-1.338.097-5.318.39-6.523 5.148-3.359 10.916.438.803.657 1.217 1.083 2.02 1.363 2.592.341 4.868-2.117 5.051-4.26.304-6.061 4.247-4.406 8.896 5.403 19.166 6.9 35.327 4.819 52.839 3.736 3.456 8.726 5.586 14.226 5.586h43.202c1.667-21.929-1.473-40.208-10.186-62.198-2.166-4.612-7.715-8.02-11.975-7.715l-.012.012Z" fill="#407BFF"/><path opacity=".1" d="M159.709 118.247c-2.47.182-5.586-1.801-7.107-4.381-.474-.803-.718-1.217-1.205-2.02-3.517-5.744-11.22-9.858-16.55-9.468-.535.036-.803.061-1.339.097-.645.049-3.103.219-3.736.268-.535.036-.803.061-1.338.097-5.318.39-6.523 5.148-3.359 10.916.438.803.657 1.217 1.083 2.02 1.363 2.592.341 4.868-2.117 5.051-4.26.304-6.061 4.247-4.406 8.896 5.403 19.166 6.9 35.327 4.819 52.839 3.736 3.456 8.726 5.586 14.226 5.586h43.202c1.667-21.929-1.473-40.208-10.186-62.198-2.166-4.612-7.715-8.02-11.975-7.715l-.012.012Z" fill="#000"/><path opacity=".2" d="M159.709 118.247c-2.47.182-5.586-1.801-7.107-4.381-.475-.803-.718-1.217-1.205-2.02-3.517-5.744-11.22-9.858-16.55-9.468-.536.036-.803.061-1.339.097-5.318.39-6.474 5.148-3.237 10.904.45.803.67 1.205 1.108 2.02 1.387 2.592.401 4.868-2.069 5.05-4.26.305-6.012 4.235-4.308 8.896 6.048 20.591 7.533 37.738 4.916 56.88a20.826 20.826 0 0 0 8.75 1.923h43.202c1.667-21.929-1.473-40.208-10.186-62.198-2.166-4.612-7.716-8.02-11.975-7.715v.012Z" fill="#000"/><path d="M188.94 139.969s-1.886 24.935 4.369 24.68c6.255-.256 18.571-.171 18.571-.171l10.173-4.551a1.454 1.454 0 0 1 1.607.292l4.612 4.563c.925.913.255 2.495-1.047 2.459l-2.811-.073s-4.916 3.066-12.4 2.373c1.448-.451-25.739 4.6-28.538.754-3.821-5.281-5.488-27.32-5.488-27.32l10.964-3.018-.012.012Z" fill="#B55B52"/><path opacity=".1" d="M188.94 139.969s-1.886 24.935 4.369 24.68c6.255-.256 18.571-.171 18.571-.171l10.173-4.551a1.454 1.454 0 0 1 1.607.292l4.612 4.563c.925.913.255 2.495-1.047 2.459l-2.811-.073s-4.916 3.066-12.4 2.373c1.448-.451-25.739 4.6-28.538.754-3.821-5.281-5.488-27.32-5.488-27.32l10.964-3.018-.012.012Z" fill="#000"/><path d="M183.051 124.441c4.235-.134 9.017 5.367 6.912 19.994l-11.658 2.252s-3.785-21.978 4.746-22.246Z" fill="#263238"/><path opacity=".2" d="M183.051 124.441c4.235-.134 9.017 5.367 6.912 19.994l-11.658 2.252s-3.785-21.978 4.746-22.246Z" fill="#000"/><path d="M140.007 124.684c-6.377 8.215-5.33 51.428-4.928 63.147 1.168.207 2.36.329 3.59.329h37.056c3.164-41.534 16.611-53.825 11.682-61.662-4.697-7.46-40.013-11.342-47.4-1.814Z" fill="#263238"/><path d="M170.772 129.807s9.237-5.744 5.488-8.859c-4.429-1.083-9.626-1.752-14.737-1.886-1.509.998-.414 3.772 9.249 10.745Z" fill="#B55B52"/><path d="m175.944 115.472-8.154-8.859c-.779 6.79-4.393 12.364-5.123 12.583l.888 3.115c9.882 11.111 12.158.438 12.158.438-2.41-2.02.219-7.289.219-7.289l.012.012Z" fill="#B55B52"/><path opacity=".2" d="m171.052 110.166-3.797-.377s.17 11.39 7.959 12.364c-1.448-2.3.73-6.681.73-6.681l-4.892-5.306Z" fill="#263238"/><path d="M168.897 96.89c-1.764 8.056-3.212 12.656-.425 17.974 2.689 5.269 9.127 7.362 14.396 4.685a10.746 10.746 0 0 0 4.564-4.454c3.699-6.547 5.975-18.607-.779-24.217-4.491-3.943-11.342-3.505-15.285.998a10.879 10.879 0 0 0-2.483 5.026l.012-.013Z" fill="#B55B52"/><path d="M180.106 102.925c-.195.633 0 1.266.438 1.363.426.098.9-.28 1.083-.913.195-.632 0-1.277-.45-1.362-.438-.098-.901.279-1.071.924v-.012ZM187.298 105.238c-.195.632 0 1.265.438 1.363.438.109.9-.28 1.095-.925.195-.645 0-1.266-.45-1.363-.438-.11-.901.28-1.083.925ZM178.56 99.859a.32.32 0 0 1-.17-.085.398.398 0 0 1 .061-.548h.012a3.81 3.81 0 0 1 3.517-.633.382.382 0 0 1 .219.499.381.381 0 0 1-.499.22 3.026 3.026 0 0 0-2.738.486.35.35 0 0 1-.402.049v.012ZM191.095 103.741a.346.346 0 0 1-.219-.292 3.28 3.28 0 0 0-1.631-2.398.391.391 0 0 1-.097-.547.405.405 0 0 1 .438-.159 4.037 4.037 0 0 1 2.056 2.97.385.385 0 0 1-.316.45.459.459 0 0 1-.219-.024h-.012ZM179.546 113.062c.353.11.718.183 1.095.219.122.025.232-.06.256-.182 0-.122-.085-.231-.207-.243a6 6 0 0 1-4.539-2.933.208.208 0 0 0-.292-.098.21.21 0 0 0-.098.292 6.22 6.22 0 0 0 3.797 2.958l-.012-.013Z" fill="#263238"/><path d="M184.79 104.824a25.103 25.103 0 0 0 1.461 6.474c-1.424.693-3.213-.377-3.213-.377l1.752-6.109v.012Z" fill="#A02724"/><path d="M169.056 101.368s7.813.085 5.573-4.418c0 0 10.843 2.093 8.994-2.008 0 0 7.35 5.781 5.439.317 0 0 5.002 4.259 5.16 1.52.158-2.725-2.592-4.477-2.592-4.477s6.109-4.954-2.75-4.954c0 0 2.093-7.447-8.008-1.496 0 0 1.339-7.716-6.182 0 0 0-10.21.085-7.788 3.456 0 0-6.426 2.093-2.41 4.332 0 0-4.892 4.43-1.326 6.23 0 0-4.625 6.365 2.129 5.574 0 0-2.409 5.878.56 4.674 2.97-1.205 3.189-8.762 3.189-8.762l.012.012Z" fill="#263238"/><path d="M164.03 102.597a7.319 7.319 0 0 0 2.044 4.929c1.692 1.716 3.627.426 4.065-1.838.389-2.057-.024-5.403-2.154-6.267-2.13-.852-3.967.9-3.943 3.176h-.012Z" fill="#B55B52"/><path opacity=".3" d="M177.16 175.078c.365-2.483.755-4.819 1.181-7.046l-3.882-.779-21.528-12.693-7.715-17.84-3.213-6.912-3.018 1.606s-.037 35.705 15.066 42.204c6.352 2.726 14.408 1.874 23.109 1.46Z" fill="#000"/><path d="M152.469 138.655s4.418 22.039 18.193 24.521c13.764 2.471 15.869 2.434 15.869 2.434l11.16-3.639c.669-.219 1.399 0 1.837.56l2.824 3.615c.827 1.058.133 2.616-1.217 2.701l-4.771.304s-3.468 3.237-9.382 2.519c0 0-22.331 2.446-30.108-2.032-7.788-4.478-13.946-22.781-13.946-22.781l9.553-8.214-.012.012Z" fill="#B55B52"/><path d="M142.6 152.954s-7.813-25.02-.439-29c7.375-3.979 12.231 13.581 14.044 20.214l-13.605 8.786Z" fill="#263238"/><path d="m216.017 169.224-26.943 1.278v3.834h44.297v-5.112h-17.354Z" fill="#407BFF"/><path opacity=".3" d="M216.017 174.336h-26.955v-3.834l26.955-1.278v5.112Z" fill="#fff"/><path opacity=".6" d="M233.371 169.224h-17.354v5.112h17.354v-5.112Z" fill="#fff"/><path d="M275.258 161.156h-56.929l5.744-46.803h56.929l-5.744 46.803Z" fill="#407BFF"/><path opacity=".3" d="M275.258 161.156h-56.929l5.744-46.803h56.929l-5.744 46.803Z" fill="#fff"/><path d="m227.359 114.353-5.756 46.803h53.655l5.744-46.803h-53.643Z" fill="#407BFF"/><path opacity=".6" d="m227.359 114.353-5.756 46.803h53.655l5.744-46.803h-53.643Z" fill="#fff"/><path d="M256.723 174.19h-12.108l-1.217-19.313h9.809l3.516 19.313Z" fill="#407BFF"/><path opacity=".3" d="M256.723 174.19h-12.108l-1.217-19.313h9.809l3.516 19.313Z" fill="#fff"/><path d="M258.89 174.19h-12.109l-1.229-19.313h9.809l3.529 19.313Z" fill="#407BFF"/><path opacity=".5" d="M258.89 174.19h-12.109l-1.229-19.313h9.809l3.529 19.313Z" fill="#fff"/><path d="M250.493 170.831h-18.692v3.504h35.425v-3.504h-16.733Z" fill="#407BFF"/><path opacity=".3" d="M250.493 170.831h-18.692v3.504h35.425v-3.504h-16.733Z" fill="#fff"/><path d="M267.225 170.831h-18.692v3.504h18.692v-3.504Z" fill="#407BFF"/><path opacity=".6" d="M267.225 170.831h-18.692v3.504h18.692v-3.504Z" fill="#fff"/><path d="M178.073 179.787v8.361h88.484c6.851 0 12.911-3.286 16.745-8.361H178.073Z" fill="#263238"/><path opacity=".3" d="M178.073 179.787v8.361h88.484c6.851 0 12.911-3.286 16.745-8.361H178.073Z" fill="#fff"/><path d="M286.271 174.336H172.803v5.452h110.499a20.964 20.964 0 0 0 2.969-5.452Z" fill="#263238"/><path opacity=".5" d="M286.271 174.336H172.803v5.452h110.499a20.964 20.964 0 0 0 2.969-5.452Z" fill="#fff"/><path d="M266.569 27.11H138.68c-14.408 0-26.139 11.719-26.139 26.14v113.918c0 14.408 11.719 26.14 26.139 26.14h127.889c14.409 0 26.14-11.719 26.14-26.14V53.25c0-14.409-11.719-26.14-26.14-26.14Zm20.992 140.058c0 11.597-9.395 20.992-20.992 20.992H138.68c-11.597 0-20.992-9.395-20.992-20.992V53.25c0-11.598 9.395-20.992 20.992-20.992h127.889c11.597 0 20.992 9.394 20.992 20.992v113.918Z" fill="#407BFF"/><path opacity=".4" d="M266.569 27.11H138.68c-14.408 0-26.139 11.719-26.139 26.14v113.918c0 14.408 11.719 26.14 26.139 26.14h127.889c14.409 0 26.14-11.719 26.14-26.14V53.25c0-14.409-11.719-26.14-26.14-26.14Zm20.992 140.058c0 11.597-9.395 20.992-20.992 20.992H138.68c-11.597 0-20.992-9.395-20.992-20.992V53.25c0-11.598 9.395-20.992 20.992-20.992h127.889c11.597 0 20.992 9.394 20.992 20.992v113.918Z" fill="#fff"/><path d="M329.095 88.732c13.064-13.064 13.064-34.246 0-47.31-13.065-13.065-34.247-13.065-47.311 0-13.065 13.064-13.065 34.246 0 47.31 13.064 13.065 34.246 13.065 47.311 0Z" fill="#407BFF"/><path opacity=".3" d="M329.095 88.732c13.064-13.064 13.064-34.246 0-47.31-13.065-13.065-34.247-13.065-47.311 0-13.065 13.064-13.065 34.246 0 47.31 13.064 13.065 34.246 13.065 47.311 0Z" fill="#000"/><path d="M337.988 70.438c4.244-17.982-6.893-36-24.875-40.244s-36 6.893-40.244 24.875 6.893 36 24.875 40.244 35.999-6.893 40.244-24.875Z" fill="#407BFF"/><path opacity=".9" d="M333.013 69.264c3.596-15.235-5.84-30.5-21.074-34.096-15.235-3.595-30.5 5.84-34.095 21.075-3.596 15.234 5.839 30.499 21.074 34.095 15.234 3.595 30.499-5.84 34.095-21.074Z" fill="#fff"/><path d="M304.282 42.809c0 6.279-.207 12.583 0 18.862.073 2.008.998 2.568 2.458 4.016l6.632 6.632c1.059 1.06 2.69-.584 1.643-1.642l-6.17-6.17c-.791-.791-1.922-1.607-2.543-2.544.779 1.18.304-.158.304-1.156v-18.01c0-1.485-2.312-1.497-2.312 0l-.012.012ZM358.46 405.53a3.01 3.01 0 0 1-2.994-2.713l-.949-10.028v-83.251h7.898v83.251l-.949 10.028a2.992 2.992 0 0 1-2.994 2.713h-.012Z" fill="#263238"/><path opacity=".3" d="M358.46 405.53a3.01 3.01 0 0 1-2.994-2.713l-.949-10.028v-83.251h7.898v83.251l-.949 10.028a2.992 2.992 0 0 1-2.994 2.713h-.012Z" fill="#fff"/><path opacity=".1" d="M362.403 318.92h-7.898v9.699h7.898v-9.699Z" fill="#000"/><path d="M365.201 394.176v-3.127a2.215 2.215 0 0 0-2.214-2.215h-9.067a2.215 2.215 0 0 0-2.214 2.215v3.127l-22.283 6.121a6.23 6.23 0 0 0-4.575 6.012h67.211a6.252 6.252 0 0 0-4.575-6.012l-22.283-6.121Z" fill="#263238"/><path opacity=".2" d="M365.201 394.176v-3.127a2.215 2.215 0 0 0-2.214-2.215h-9.067a2.215 2.215 0 0 0-2.214 2.215v3.127l-22.283 6.121a6.23 6.23 0 0 0-4.575 6.012h67.211a6.252 6.252 0 0 0-4.575-6.012l-22.283-6.121Z" fill="#fff"/><path opacity=".1" d="M365.201 394.091v-3.042c0-.11-.012-.207-.036-.317h-13.423c-.012.098-.036.207-.036.317v3.042H365.201Z" fill="#000"/><path d="M394.226 228.222c-14.847.523-27.686 13.131-29.231 27.929l-5.537 52.718c-.511 4.806 2.981 8.713 7.788 8.713h44.784c4.807 0 9.115-3.894 9.626-8.713l5.61-53.376c1.618-15.406-9.833-27.831-25.422-27.283h-7.606l-.012.012Z" fill="#263238"/><path opacity=".2" d="M394.226 228.222c-14.847.523-27.686 13.131-29.231 27.929l-5.537 52.718c-.511 4.806 2.981 8.713 7.788 8.713h44.784c4.807 0 9.115-3.894 9.626-8.713l5.61-53.376c1.618-15.406-9.833-27.831-25.422-27.283h-7.606l-.012.012Z" fill="#fff"/><path d="M419.648 255.493c1.618-15.406-9.833-27.831-25.422-27.283-14.847.523-27.686 13.13-29.231 27.928l-5.537 52.718c-.511 4.807 2.981 8.714 7.788 8.714h37.178c4.807 0 9.115-3.895 9.626-8.714l5.61-53.375-.012.012Z" fill="#263238"/><path d="M296.104 309.1a113.706 113.706 0 0 1 27.308-4.077c9.48-.256 44.978-.036 53.399-.036a113.98 113.98 0 0 1 30.472 4.125c6.256 1.728 4.333 11.524-1.326 11.634-.499 0-107.785-.024-108.186 0-5.915.292-8.069-9.857-1.68-11.634l.013-.012Z" fill="#263238"/><path d="M404.376 320.527a103.422 103.422 0 0 0-55.14 0c-6.815 1.886-9.724-9.541-2.909-11.427a114.597 114.597 0 0 1 60.945 0c6.815 1.886 3.918 13.313-2.909 11.427h.013Z" fill="#263238"/><path d="M404.376 320.527a103.422 103.422 0 0 0-55.14 0c-6.815 1.886-9.724-9.541-2.909-11.427a114.597 114.597 0 0 1 60.945 0c6.815 1.886 3.918 13.313-2.909 11.427h.013Z" fill="#fff" opacity=".2"/><path d="m282.584 347.981-7.594 22.161-6.377-1.826 5.16-23.377 8.811 3.042Z" fill="#B97964"/><path d="m268.735 366.613 7.837 2.361a.747.747 0 0 1 .56.754l-.292 7.789a1.252 1.252 0 0 1-1.558 1.18c-3.249-.913-6.109-1.85-10.173-2.896-4.795-1.254-3.724-.365-9.383-1.753-3.407-.839-3.018-4.868-1.533-4.685 6.802.888 9.224-.925 12.388-2.616a3.023 3.023 0 0 1 2.142-.146l.012.012Z" fill="#263238"/><path opacity=".1" d="m278.446 360.066-7.581-1.948 2.908-13.179 8.811 3.042-4.138 12.085Z" fill="#000"/><path d="m283.947 353.896-2.13 4.101-12.133-4.101v-4.698l14.263 4.698Z" fill="#407BFF"/><path opacity=".3" d="m283.947 353.896-2.13 4.101-12.133-4.101v-4.698l14.263 4.698Z" fill="#fff"/><path d="m331.457 375.144 2.531 19.617-7.131.182-5.16-18.923 9.76-.876Z" fill="#B97964"/><path d="m326.759 393.86 8.142.024c.353 0 .657.244.73.597l1.667 7.618a1.245 1.245 0 0 1-.949 1.497c-.085.024-.171.024-.268.036-3.371-.073-6.377-.255-10.575-.268-4.953 0-3.7.585-9.529.658-3.505.036-4.137-3.955-2.653-4.15 6.815-.84 8.738-2.897 11.379-5.33a3.014 3.014 0 0 1 2.032-.67l.024-.012Z" fill="#263238"/><path opacity=".1" d="m324.69 386.997-2.993-10.977 9.76-.876 1.46 11.341-8.227.512Z" fill="#000"/><path d="M356.026 257.405h-11.524s-3.03 7.849-3.639 16.051c-.608 8.19 15.163 2.13 15.163 2.13l1.376-11.233-1.376-6.936v-.012Z" fill="#407BFF"/><path opacity=".1" d="M356.026 257.405h-11.524s-3.03 7.849-3.639 16.051c-.608 8.19 15.163 2.13 15.163 2.13l1.376-11.233-1.376-6.936v-.012Z" fill="#000"/><path opacity=".1" d="M349.334 257.405c3.2 16.806-2.958 15.954-2.958 15.954l3.493 2.434 6.34-1.558 1.217-9.882-1.375-6.936h-6.693l-.024-.012Z" fill="#000"/><path d="M379.015 256.358s11.743 19.629 9.711 36.021c-2.02 16.392-17.183 25.057-75.463-2.86 0 0-11.95 12.377-31.786 65.399l-10.113-3.03s11.439-61.286 21.649-78.724c10.32-17.61 55.651 3.03 59.095-.402 3.067-3.067.402-15.175.402-15.175l26.505-1.217v-.012Z" fill="#407BFF"/><path opacity=".2" d="m306.607 295.02-3.188-2.47s-11.233 6.084-5.647 23.401c4.065-8.47 7.399-14.445 9.918-18.546l-1.083-2.385Z" fill="#000"/><path d="M355.285 305.632c-10.588-2.532-24.303-7.631-42.034-16.125 0 0-13.678.183-14.591 10.356-.913 10.174 23.073 80.489 23.073 80.489l11.075-.962s-6.523-70.12-8.044-73.758h30.521Z" fill="#407BFF"/><path opacity=".1" d="M355.285 305.632c-10.588-2.532-24.303-7.631-42.034-16.125 0 0-13.678.183-14.591 10.356-.913 10.174 23.073 80.489 23.073 80.489l11.075-.962s-6.523-70.12-8.044-73.758h30.521Z" fill="#000"/><path opacity=".1" d="M313.251 289.519s-2.093.037-4.685.67c2.507 2.214 11.342 9.565 24.716 15.443h22.002c-10.587-2.532-24.302-7.631-42.033-16.125v.012Z" fill="#000"/><path d="m334.146 377.578.304 4.551-12.9 1.01-1.837-4.332 14.433-1.229Z" fill="#407BFF"/><path opacity=".3" d="m334.146 377.578.304 4.551-12.9 1.01-1.837-4.332 14.433-1.229Z" fill="#fff"/><path d="m328.378 236.753-13.021 7.313-8.713-.425a2.178 2.178 0 0 0-1.947 1.01l-2.495 3.894a2.163 2.163 0 0 0-.243 1.813l.06.195a2.192 2.192 0 0 0 2.605 1.484l3.797-.924 7.557-1.449 18.485-8.068-6.085-4.856v.013Z" fill="#B97964"/><path d="M325.823 237.154s4.636 1.363 5.695 6.9c0 0 9.492-3.298 11.147-8.604 1.655-5.305 6.073-31.506-1.083-31.543-7.143-.048-3.261 31.349-15.759 33.247Z" fill="#263238"/><path d="M325.823 237.154s4.636 1.363 5.695 6.9c0 0 9.492-3.298 11.147-8.604 1.655-5.305 6.073-31.506-1.083-31.543-7.143-.048-3.261 31.349-15.759 33.247Z" fill="#8CADB6"/><path d="M323.401 237.568s3.407 3.067 5.549 8.312l5.014-2.471s-2.02-5.707-6.109-8.007l-4.454 2.178v-.012Z" fill="#263238"/><path opacity=".7" d="M323.401 237.568s3.407 3.067 5.549 8.312l5.014-2.471s-2.02-5.707-6.109-8.007l-4.454 2.178v-.012Z" fill="#fff"/><path d="M343.553 258.658s18.011 1.631 37.081-1.095c0 0-4.199-14.007-1.169-31.02 3.03-17.013 19.021-27.089-20.7-26.396-5.744.098-22.781-.669-20.834 11.464 2.081 12.96 5.622 47.047 5.622 47.047Z" fill="#263238"/><path d="M343.553 258.658s18.011 1.631 37.081-1.095c0 0-4.199-14.007-1.169-31.02 3.03-17.013 19.021-27.089-20.7-26.396-5.744.098-22.781-.669-20.834 11.464 2.081 12.96 5.622 47.047 5.622 47.047Z" fill="#B4D5DE"/><path d="m367.223 238.773-18.534 5.476-7.923-1.387a2.251 2.251 0 0 0-2.19.876l-2.665 3.602a2.22 2.22 0 0 0-.377 1.85l.024.122a2.247 2.247 0 0 0 2.568 1.703l3.796-.645 7.631-.924 23.414-5.392-5.732-5.269-.012-.012Z" fill="#B97964"/><path d="M364.485 238.469s4.612 1.728 5.281 7.326c0 0 9.772-2.154 11.793-7.326 2.008-5.172 8.384-34.123 1.265-34.659-7.119-.535-5.732 33.624-18.327 34.659h-.012Z" fill="#263238"/><path d="M364.485 238.469s4.612 1.728 5.281 7.326c0 0 9.772-2.154 11.793-7.326 2.008-5.172 8.384-34.123 1.265-34.659-7.119-.535-5.732 33.624-18.327 34.659h-.012Z" fill="#8CADB6"/><path d="M361.722 238.943s4.004 3.712 5.501 8.3l5.123-1.461s-2.093-6.145-6.012-8.725l-4.6 1.874-.012.012Z" fill="#263238"/><path opacity=".7" d="M361.722 238.943s4.004 3.712 5.501 8.3l5.123-1.461s-2.093-6.145-6.012-8.725l-4.6 1.874-.012.012Z" fill="#fff"/><path d="M366.395 164.697s-5.549-11.086 2.957-9.638c8.507 1.448 3.469 23.511 11.294 26.53 0 0-9.055 2.251-14.263-16.892h.012Z" fill="#263238"/><path opacity=".6" d="M364.801 160.037c.45 2.361 1.594 4.661 1.594 4.661 1.424 5.233 3.14 8.859 4.868 11.378 1.278-4.04 1.789-10.612-1.984-14.396-1.46-1.461-2.969-1.059-4.478-1.643Z" fill="#000"/><path d="M363.426 162.349s2.787-3.14 5.172.888c2.385 4.028-1.558 4.99-1.558 4.99l-3.626-5.878h.012Z" fill="#407BFF"/><path d="M365.409 183.39s1.254 4.551 4.503 1.423c3.249-3.115-2.629.147-4.503-1.423ZM358.753 199.758s-7.947-2.738-11.342 4.016l3.139 1.241-1.728 2.117 6.487 4.71 11.074-3.797-.609-1.57 5.331-1.448s1.387-7.776-12.365-5.257l.013-.012Z" fill="#263238"/><path opacity=".7" d="M358.753 199.758s-7.947-2.738-11.342 4.016l3.139 1.241-1.728 2.117 6.487 4.71 11.074-3.797-.609-1.57 5.331-1.448s1.387-7.776-12.365-5.257l.013-.012Z" fill="#fff"/><path d="M358.984 200.378s-13.252-2.908-3.943 10.296c0 0 26.493-10.563 3.943-10.296Z" fill="#B97964"/><path d="m364.253 185.167-9.005 8.859c.803 3.858-.316 5.853-1.558 6.876v2.872c1.035.328 2.519.535 4.686.413 6.535-.353 8.664-1.046 8.664-1.046-3.93-3.14-3.371-12.717-2.787-17.974Z" fill="#B97964"/><path opacity=".1" d="M355.321 198.127c.243-1.059.268-2.385-.085-4.101l8.044-7.898.791.913s-1.619 10.064-8.75 11.086Z" fill="#000"/><path d="M364.996 173.447c.657 8.677 1.131 12.34-2.605 17.354-5.622 7.545-16.416 6.462-19.665-1.838-2.921-7.472-3.505-20.408 4.429-24.996 5.659-3.31 12.924-1.399 16.234 4.259a11.83 11.83 0 0 1 1.594 5.221h.013Z" fill="#B97964"/><path d="M347.289 182.221a19.01 19.01 0 0 1-1.874 4.82 2.991 2.991 0 0 0 2.556.133l-.682-4.953Z" fill="#A24E3F"/><path d="M353.86 176.307s.11-.061.146-.097a.346.346 0 0 0-.036-.487 4.067 4.067 0 0 0-3.614-.901.364.364 0 0 0-.232.439.35.35 0 0 0 .426.231 3.41 3.41 0 0 1 2.982.766.357.357 0 0 0 .328.061v-.012ZM341.034 177.5s.11-.061.146-.098a3.35 3.35 0 0 1 2.824-1.18c.182.036.365-.098.401-.28a.346.346 0 0 0-.292-.39 4.075 4.075 0 0 0-3.444 1.412c-.134.134-.122.353 0 .487a.34.34 0 0 0 .365.073v-.024ZM352.083 180.384c.098.694-.194 1.314-.657 1.387-.462.073-.9-.45-.998-1.156-.097-.706.195-1.314.645-1.375.451-.061.901.45 1.01 1.156v-.012ZM344.162 181.479c.097.694-.195 1.314-.645 1.375-.451.061-.901-.45-1.01-1.156-.098-.706.194-1.314.645-1.375.45-.061.912.45 1.01 1.156Z" fill="#2E353A"/><path d="m343.358 180.335-1.753-.243s1.047 1.192 1.753.243ZM351.28 179.24l-1.752-.243s1.046 1.192 1.752.243Z" fill="#2E353A"/><path d="M352.632 187.491c.146-.244.255-.499.352-.767a.165.165 0 0 0-.085-.219.178.178 0 0 0-.219.11 4.576 4.576 0 0 1-2.981 2.847c-.098.025-.146.11-.134.207.024.098.109.146.207.134a4.664 4.664 0 0 0 2.86-2.3v-.012ZM365.409 183.39s-4.746-2.58-5.05-9.748c-.304-7.168-11.184-8.616-17.877-4.418 0 0-1.923-6.316 5.087-6.875 0 0 10.247-7.497 18.643.888 7.399 7.399-.803 20.153-.803 20.153Z" fill="#263238"/><path d="M367.977 179.97a6.363 6.363 0 0 1-2.519 4.15c-1.813 1.302-3.481-.134-3.614-2.239-.122-1.887.669-4.856 2.799-5.33a2.875 2.875 0 0 1 3.358 2.287c.073.378.061.755 0 1.132h-.024Z" fill="#B97964"/><path d="M343.066 168.117s-2.129 4.77-3.918 0c-1.789-4.77 2.142 1.071 3.918 0Z" fill="#263238"/><path d="M348.542 250.102h-62.174c-1.01 0-1.825.816-1.825 1.826 0 1.01.815 1.825 1.825 1.825h62.174c1.01 0 1.825-.815 1.825-1.825s-.815-1.826-1.825-1.826Z" fill="#407BFF"/><path opacity=".3" d="M348.542 250.102h-62.174c-1.01 0-1.825.816-1.825 1.826 0 1.01.815 1.825 1.825 1.825h62.174c1.01 0 1.825-.815 1.825-1.825s-.815-1.826-1.825-1.826Z" fill="#fff"/><path opacity=".2" d="M313.166 253.753a1.823 1.823 0 0 1-1.826-1.825c0-1.01.816-1.826 1.826-1.826h35.376c1.01 0 1.826.816 1.826 1.826 0 1.01-.816 1.825-1.826 1.825h-35.376Z" fill="#fff"/><path d="M287.366 252.634h22.867a.866.866 0 0 0 .815-1.156l-12.534-35.815a2.455 2.455 0 0 0-2.325-1.643h-22.866a.866.866 0 0 0-.815 1.156l12.534 35.815a2.456 2.456 0 0 0 2.324 1.643Z" fill="#407BFF"/><path d="M286.259 252.634h22.866a.867.867 0 0 0 .816-1.156l-12.535-35.815a2.454 2.454 0 0 0-2.324-1.643h-22.866a.866.866 0 0 0-.816 1.156l12.535 35.815a2.455 2.455 0 0 0 2.324 1.643Z" fill="#407BFF"/><path opacity=".5" d="M286.259 252.634h22.866a.867.867 0 0 0 .816-1.156l-12.535-35.815a2.454 2.454 0 0 0-2.324-1.643h-22.866a.866.866 0 0 0-.816 1.156l12.535 35.815a2.455 2.455 0 0 0 2.324 1.643Z" fill="#fff"/><path d="M288.815 233.333c.292 1.375 1.241 2.482 2.118 2.482.876 0 1.35-1.107 1.058-2.482-.292-1.375-1.241-2.483-2.117-2.483-.876 0-1.351 1.108-1.059 2.483Z" fill="#fff"/><path d="M241.962 232.335s-7.813-7.241-3.711-10.368c4.101-3.128-4.868-7.971-1.631-10.32 3.225-2.349-1.594-8.434 1.229-9.444 2.823-1.01-.694-4.563 1.351-6.267 2.677-2.239 2.129 9.225 4.782 9.407 2.653.195-2.628 6.511.682 7.314 3.31.803-1.193 7.959 1.898 8.093 3.091.133.292 7.91-4.6 11.597v-.012Z" fill="#407BFF"/><path opacity=".5" d="M241.962 232.335s-7.813-7.241-3.711-10.368c4.101-3.128-4.868-7.971-1.631-10.32 3.225-2.349-1.594-8.434 1.229-9.444 2.823-1.01-.694-4.563 1.351-6.267 2.677-2.239 2.129 9.225 4.782 9.407 2.653.195-2.628 6.511.682 7.314 3.31.803-1.193 7.959 1.898 8.093 3.091.133.292 7.91-4.6 11.597v-.012Z" fill="#fff"/><path d="M239.358 198.857a256.695 256.695 0 0 1 1.959 14.299c.645 5.866 1.996 13.277.146 19.045-.194.621.779.889.974.268 1.898-5.927.547-13.277-.11-19.313a266.402 266.402 0 0 0-1.995-14.567c-.11-.633-1.071-.365-.974.268Z" fill="#000" opacity=".2"/><path d="M239.358 231.082s-8.056-3.882-5.537-7.412c2.519-3.529-5.878-5.196-3.858-7.885 2.008-2.69-3.359-6.377-1.339-7.886 2.021-1.509-2.287-5.136-.462-5.367 2.933-.365 3.979 6.876 6.17 6.377 2.178-.499-.499 5.878 2.349 5.707 2.847-.17 1.01 6.694 3.529 6.024 2.519-.657 2.178 6.28-.84 10.442h-.012Z" fill="#407BFF"/><path d="M229.842 205.952c3.857 7.91 7.764 16.501 9.041 25.263.098.633 1.059.366.974-.267-1.278-8.847-5.245-17.524-9.139-25.507-.28-.585-1.156-.073-.864.511h-.012Z" fill="#000" opacity=".2"/><path d="M246.124 231.082s8.056-3.882 5.537-7.412c-2.519-3.529 5.878-5.196 3.858-7.885-2.021-2.69 3.358-6.377 1.338-7.886-2.008-1.509 1.68-2.872.463-5.367-1.302-2.653-3.98 6.876-6.17 6.377-2.179-.499.499 5.878-2.349 5.707-2.848-.17-1.01 6.694-3.529 6.024-2.519-.657-2.178 6.28.84 10.442h.012Z" fill="#407BFF"/><path opacity=".2" d="M246.124 231.082s8.056-3.882 5.537-7.412c-2.519-3.529 5.878-5.196 3.858-7.885-2.021-2.69 3.358-6.377 1.338-7.886-2.008-1.509 1.68-2.872.463-5.367-1.302-2.653-3.98 6.876-6.17 6.377-2.179-.499.499 5.878-2.349 5.707-2.848-.17-1.01 6.694-3.529 6.024-2.519-.657-2.178 6.28.84 10.442h.012Z" fill="#fff"/><path d="M255.568 205.952c-3.858 7.91-7.764 16.501-9.042 25.263-.098.633-1.059.366-.974-.267 1.278-8.847 5.245-17.524 9.139-25.507.28-.585 1.157-.073.864.511h.013Z" fill="#000" opacity=".2"/><path d="M250.383 253.96H236.06l-2.689-24.107h19.69l-2.678 24.107Z" fill="#407BFF"/><path opacity=".3" d="M250.383 253.96H236.06l-2.689-24.107h19.69l-2.678 24.107Z" fill="#fff"/><path d="M286.843 405.53a3.01 3.01 0 0 1-2.993-2.713l-.962-10.028V255.36h7.898v137.429l-.949 10.028a2.992 2.992 0 0 1-2.994 2.713Z" fill="#263238"/><path opacity=".3" d="M286.843 405.53a3.01 3.01 0 0 1-2.993-2.713l-.962-10.028V255.36h7.898v137.429l-.949 10.028a2.992 2.992 0 0 1-2.994 2.713Z" fill="#fff"/><path opacity=".1" d="M290.798 256.686H282.9v9.699h7.898v-9.699Z" fill="#000"/><path d="M293.585 394.176v-3.127a2.215 2.215 0 0 0-2.215-2.215h-9.066a2.215 2.215 0 0 0-2.215 2.215v3.127l-22.282 6.121a6.23 6.23 0 0 0-4.576 6.012h67.212a6.252 6.252 0 0 0-4.576-6.012l-22.282-6.121Z" fill="#407BFF"/><path opacity=".1" d="M293.585 394.091v-3.042c0-.11-.012-.207-.037-.317h-13.423c-.012.098-.036.207-.036.317v3.042h13.496Z" fill="#000"/><path opacity=".2" d="M293.585 394.176v-3.127a2.215 2.215 0 0 0-2.215-2.215h-9.066a2.215 2.215 0 0 0-2.215 2.215v3.127l-22.282 6.121a6.23 6.23 0 0 0-4.576 6.012h67.212a6.252 6.252 0 0 0-4.576-6.012l-22.282-6.121Z" fill="#000"/><path d="M372.382 258.365h-171.09v4.613h171.09v-4.613Z" fill="#263238"/><path opacity=".3" d="M372.382 258.365h-171.09v4.613h171.09v-4.613Z" fill="#fff"/><path opacity=".2" d="M372.382 258.365h-85.307v4.613h85.307v-4.613Z" fill="#000"/><path d="M382.702 253.753h-191.73v4.612h191.73v-4.612Z" fill="#407BFF"/><path opacity=".3" d="M382.702 253.753H276.755v4.612h105.947v-4.612Z" fill="#000"/><path d="M483.881 269.313a11.728 11.728 0 0 1-6.691-2.202c-.115 4.13.218 8.261.993 12.32 2.633 4.242 9.933 12.042 9.432 11.996a23.97 23.97 0 0 1-5.852-1.363 43.58 43.58 0 0 0 4.459 7.292c3.542 4.72 8.585 8.47 10.502 14.26a.36.36 0 0 0 .224.254.413.413 0 0 0 .073.22.429.429 0 0 0 .407.182.424.424 0 0 0 .213-.094c9.517-9.047 11.226-22.784 12.62-35.173.069-.585.131-1.163.185-1.755a38.081 38.081 0 0 1-8.778 6.853c-.462.254 5.967-10.01 9.109-14.769a27.657 27.657 0 0 0-1.64-8.793c-2.226-5.975-6.045-11.55-9.756-16.701-.154-.216-.324-.416-.47-.632a28.494 28.494 0 0 1-4.104 7.431c-.3.392.678-7.523 1.278-11.134-.932-1.155-1.856-2.31-2.826-3.435-1.27-1.493-2.841-4.034-5.12-3.696-2.279.339-7.253 9.379-7.893 11.966-.277 1.109-.523 2.241-.77 3.373-.115.485-.2.985-.284 1.478a134.87 134.87 0 0 0-1.702 13.791c.154.246.316.492.493.731 1.871 2.487 6.352 7.6 5.898 7.6Z" fill="#CAE5F6"/><path d="M497.371 312.555a.715.715 0 0 1-.678-.515.704.704 0 0 1-.246-.37c-1.271-3.85-4.019-6.838-6.684-9.748-1.286-1.417-2.618-2.872-3.773-4.42a43.992 43.992 0 0 1-4.489-7.338l-.308-.631.663.231a24.392 24.392 0 0 0 5.236 1.293 69.139 69.139 0 0 0-2.11-2.525 94.07 94.07 0 0 1-7.046-8.971v-.1a57.173 57.173 0 0 1-1.001-12.358v-.539l.439.308a11.59 11.59 0 0 0 6.099 2.148c-.447-.662-1.656-2.14-2.657-3.372-1.116-1.363-2.271-2.772-3.018-3.789a6.346 6.346 0 0 1-.501-.77l-.054-.077v-.108a134.89 134.89 0 0 1 1.702-13.821c.092-.539.177-1.016.285-1.486a60.45 60.45 0 0 1 .77-3.38c.654-2.634 5.775-11.843 8.139-12.182 2.094-.315 3.588 1.54 4.789 3.08.2.262.4.509.585.77.963 1.109 1.902 2.272 2.811 3.396l.077.1v.17c-.508 3.08-1.163 8.3-1.302 10.264a28.852 28.852 0 0 0 3.573-6.707l.193-.508.308.446.231.301.238.323c3.55 4.913 7.523 10.664 9.802 16.77a28.002 28.002 0 0 1 1.625 8.886v.093l-.046.077c-2.641 3.973-7.377 11.549-8.724 13.929a39.292 39.292 0 0 0 7.946-6.399l.562-.57-.069.77a65.41 65.41 0 0 1-.193 1.756c-1.308 11.619-2.941 26.072-12.712 35.35a.671.671 0 0 1-.462.223Zm-15.038-22.021a42.712 42.712 0 0 0 4.119 6.622c1.14 1.54 2.464 2.972 3.743 4.373 2.695 2.957 5.49 6.021 6.806 10.01v.069l.147.07.046.169a.21.21 0 0 0 .115.162h.093c9.617-9.132 11.234-23.47 12.535-34.989.039-.323.069-.639.108-.954a36.801 36.801 0 0 1-8.277 6.337l-.201.107-.169-.161c-.193-.208-.27-.293 3.311-6.068 1.963-3.149 4.258-6.745 5.736-8.978-.07-2.94-.616-5.85-1.617-8.616-2.248-6.037-6.198-11.75-9.725-16.632l-.154-.208a28.76 28.76 0 0 1-3.95 7.015l-.138.177-.231-.077c-.239-.108-.354-.154.177-4.62.285-2.364.654-5.044.939-6.738a132.135 132.135 0 0 0-2.741-3.318c-.2-.231-.4-.485-.608-.77-1.163-1.463-2.487-3.119-4.251-2.857-2.002.285-7.007 9.109-7.699 11.75a121.05 121.05 0 0 0-.77 3.365c-.101.462-.185.932-.27 1.394v.069a136.807 136.807 0 0 0-1.609 13.644c.138.216.277.424.431.632.77 1.008 1.886 2.41 3.003 3.773 2.887 3.534 3.08 3.85 2.934 4.135l-.077.169h-.216a11.87 11.87 0 0 1-6.406-1.964 55.87 55.87 0 0 0 .993 11.658 91.808 91.808 0 0 0 6.93 8.855c2.626 3.08 2.61 3.08 2.472 3.373l-.085.169h-.216a22.402 22.402 0 0 1-5.228-1.147Z" fill="#547AC5"/><path d="M492.566 264.754c-4.704-.716-8.293-3.68-11.742-6.745-.516-.454.123-1.324.639-.862 3.234 2.872 6.607 5.736 10.988 6.483a401.949 401.949 0 0 0-3.534-20.905c-.139-.685.924-.847 1.062-.17a390.435 390.435 0 0 1 4.451 27.72 45.99 45.99 0 0 0 6.221-12.505c.216-.654 1.209-.254 1.001.401a46.945 46.945 0 0 1-6.676 13.205.5.5 0 0 1-.385.216c.247 2.025.47 4.065.686 6.098a29.235 29.235 0 0 0 4.62-8.077c.238-.647 1.239-.246.993.4a29.761 29.761 0 0 1-5.244 8.955.531.531 0 0 1-.223.154 373.662 373.662 0 0 1 1.54 20.143.815.815 0 0 1 .062.231c.138 2.464.223 4.926.254 7.385.051 1.601.095 3.205.131 4.812a.468.468 0 0 1-.035.199.458.458 0 0 1-.119.163c-.278 15.161-2.526 30.153-5.714 44.991l-1.047-.247c3.604-16.77 5.998-33.733 5.683-50.919-.062-1.81-.139-3.627-.224-5.437a.493.493 0 0 1-.446-.007 17.944 17.944 0 0 1-4.928-5.036c-.37-.578.469-1.255.847-.67a17.128 17.128 0 0 0 4.504 4.674 396.467 396.467 0 0 0-3.326-34.65h-.039Z" fill="#9BCEF5"/><path d="m491.789 357.415-.285-.077-.662-.154-.655-.154.054-.277c4.158-19.334 5.96-35.489 5.683-50.819a438.52 438.52 0 0 0-.216-5.128.882.882 0 0 1-.37-.139 18.196 18.196 0 0 1-4.997-5.12.87.87 0 0 1-.117-.658.878.878 0 0 1 .138-.311.879.879 0 0 1 .249-.233.77.77 0 0 1 1.055.216 16.934 16.934 0 0 0 3.942 4.243 397.877 397.877 0 0 0-3.257-33.772c-4.62-.77-8.177-3.635-11.719-6.784a.846.846 0 0 1-.286-.601.85.85 0 0 1 .232-.623.768.768 0 0 1 1.078-.069c2.756 2.448 6.16 5.467 10.448 6.344a394.521 394.521 0 0 0-3.472-20.497.767.767 0 0 1 .231-.77.924.924 0 0 1 .862-.162.774.774 0 0 1 .531.624 392.934 392.934 0 0 1 4.366 27.011 46.05 46.05 0 0 0 5.752-11.804.762.762 0 0 1 .682-.54.785.785 0 0 1 .304.04.844.844 0 0 1 .511.42.85.85 0 0 1 .059.658 47.733 47.733 0 0 1-6.715 13.282.895.895 0 0 1-.308.262c.206 1.71.401 3.424.585 5.144a29.09 29.09 0 0 0 4.135-7.438.77.77 0 0 1 1.032-.462.804.804 0 0 1 .481.423.828.828 0 0 1 .027.639 30.41 30.41 0 0 1-5.297 9.04.785.785 0 0 1-.139.131 399.712 399.712 0 0 1 1.54 19.912.703.703 0 0 1 .069.285c.139 2.41.231 4.897.262 7.392.046 1.601.09 3.205.131 4.812a.767.767 0 0 1-.162.485c-.254 13.537-2.125 28.236-5.713 44.937l-.069.292Zm-.901-.77h.1l.377.085c3.558-16.585 5.39-31.192 5.644-44.659v-.139l.108-.085s.046 0 .046-.131a481.34 481.34 0 0 0-.131-4.804c0-2.487-.123-4.967-.261-7.377a.18.18 0 0 0 0-.108v-.123a429.996 429.996 0 0 0-1.54-20.127v-.216l.207-.085a.192.192 0 0 0 .101-.069 29.619 29.619 0 0 0 5.197-8.87.23.23 0 0 0 .018-.1.227.227 0 0 0-.025-.099.224.224 0 0 0-.064-.079.23.23 0 0 0-.091-.046.215.215 0 0 0-.175-.006.212.212 0 0 0-.117.129 29.281 29.281 0 0 1-4.774 8.155l-.431.546-.077-.693a364.578 364.578 0 0 0-.693-6.098v-.316h.323a.2.2 0 0 0 .162-.092 46.882 46.882 0 0 0 6.629-13.09.273.273 0 0 0 .013-.11.275.275 0 0 0-.105-.189.27.27 0 0 0-.1-.047.181.181 0 0 0-.079-.02.182.182 0 0 0-.142.069.183.183 0 0 0-.033.074 46.874 46.874 0 0 1-6.26 12.574l-.432.616-.092-.77a399.944 399.944 0 0 0-4.45-27.72.235.235 0 0 0-.052-.113.25.25 0 0 0-.102-.072.317.317 0 0 0-.153-.008.316.316 0 0 0-.14.062.172.172 0 0 0-.056.084.174.174 0 0 0 .002.101 393.984 393.984 0 0 1 3.542 20.928l.054.393-.385-.069c-4.62-.77-8.239-3.981-11.134-6.553a.162.162 0 0 0-.058-.049.159.159 0 0 0-.204.049.277.277 0 0 0 0 .408c3.511 3.119 7.038 5.975 11.55 6.668h.285l.038.224a399.675 399.675 0 0 1 3.319 34.649v.593l-.485-.339a17.593 17.593 0 0 1-4.62-4.758s-.092-.154-.254-.046a.27.27 0 0 0-.086.075.274.274 0 0 0-.05.103.28.28 0 0 0 .036.222 17.475 17.475 0 0 0 4.843 4.959.24.24 0 0 0 .216 0l.369-.139v.393c.093 1.812.17 3.627.231 5.444.331 15.392-1.455 31.515-5.559 50.811Z" fill="#547AC5"/><path d="M529.919 295.9c2.021.763 4.214.952 6.337.547a41.061 41.061 0 0 1-4.42 8.909c-3.465 2.31-11.943 5.783-11.511 5.913 1.756.504 3.564.807 5.389.901a34.8 34.8 0 0 1-5.913 4.012c-4.381 2.387-9.771 3.565-13.09 7.269a.305.305 0 0 1-.262.115.38.38 0 0 1-.335.195.383.383 0 0 1-.335-.195c-5.474-9.925-2.926-20.79-.515-30.576.115-.462.223-.916.346-1.378a34.677 34.677 0 0 0 5.482 8.054c.324.346-2.156-9.494-3.449-14.083a20.163 20.163 0 0 1 3.95-6.076c3.627-3.75 8.47-6.691 13.151-9.34l.578-.315a22.674 22.674 0 0 0 1.324 6.929c.147.393 1.617-5.875 2.148-8.785 1.132-.562 2.257-1.124 3.404-1.648 1.54-.708 3.588-2.102 5.428-1.093 1.841 1.008 3.442 9.424 3.234 11.55a57.277 57.277 0 0 1-.346 2.779 19.56 19.56 0 0 1-.185 1.201 97.886 97.886 0 0 1-2.564 10.927c-.208.131-.408.261-.632.385-2.302 1.285-7.599 3.657-7.214 3.803Z" fill="#9BCEF5"/><path d="M506.111 324.051a.647.647 0 0 1-.578-.338c-5.621-10.21-2.803-21.622-.547-30.8.124-.485.231-.932.355-1.386l.192-.716.347.662a35.364 35.364 0 0 0 4.812 7.3c-.5-2.426-2.31-9.417-3.326-13.144v-.193a20.471 20.471 0 0 1 4.011-6.16c3.712-3.849 8.771-6.86 13.213-9.386.093-.061.201-.115.301-.169l.277-.146.416-.247v.485a22.079 22.079 0 0 0 1.062 6.122c.455-1.586 1.394-5.629 1.841-8.024v-.146l.131-.062a98.915 98.915 0 0 1 3.411-1.647c.223-.108.462-.224.708-.354 1.463-.77 3.28-1.656 4.974-.732 1.964 1.055 3.604 9.602 3.38 11.866-.084.87-.192 1.786-.346 2.795-.039.369-.108.77-.169 1.124v.085a96.279 96.279 0 0 1-2.572 10.949v.108l-.093.054a9.323 9.323 0 0 1-.646.4c-.932.516-2.31 1.201-3.673 1.863-1.132.555-2.48 1.217-3.119 1.579 1.846.599 3.814.724 5.721.362l.493-.085-.169.47a40.62 40.62 0 0 1-4.451 8.97l-.077.085a78.789 78.789 0 0 1-8.601 4.427c-.947.439-1.855.863-2.394 1.132 1.547.388 3.127.63 4.72.724l.716.046-.547.462a35.35 35.35 0 0 1-5.96 4.043c-1.432.77-2.987 1.439-4.496 2.079-3.08 1.316-6.307 2.671-8.47 5.128a.552.552 0 0 1-.324.192.663.663 0 0 1-.5.216l-.023.007Zm-.401-31.646c-.046.208-.1.416-.154.631-2.24 9.102-5.028 20.39.478 30.392a.08.08 0 0 0 .032.034.087.087 0 0 0 .045.012.112.112 0 0 0 .056-.015.118.118 0 0 0 .044-.039l.084-.154h.185c2.31-2.564 5.567-3.95 8.732-5.29 1.494-.631 3.034-1.286 4.443-2.048a34.853 34.853 0 0 0 5.313-3.534 23.42 23.42 0 0 1-4.72-.855l-.193-.061v-.208c0-.293 0-.308 3.126-1.771a77.1 77.1 0 0 0 8.47-4.359 40.123 40.123 0 0 0 4.189-8.338c-2.021.31-4.088.09-5.998-.64l-.177-.069v-.208c0-.308.092-.408 3.734-2.194 1.34-.655 2.734-1.34 3.65-1.848.185-.1.354-.208.524-.316a95.254 95.254 0 0 0 2.525-10.78v-.085c.062-.361.123-.77.169-1.101.147-1.008.262-1.917.339-2.772.216-2.194-1.47-10.441-3.08-11.303-1.432-.77-3.026 0-4.435.77l-.77.362c-1.101.5-2.202 1.047-3.265 1.54-.223 1.147-1.74 8.847-2.363 8.893h-.224l-.092-.231a22.608 22.608 0 0 1-1.325-6.545l-.169.093c-4.412 2.51-9.425 5.505-13.09 9.286a19.771 19.771 0 0 0-3.85 5.89c.616 2.172 1.54 5.606 2.256 8.601 1.379 5.544 1.302 5.59 1.055 5.729l-.2.115-.169-.177a33.252 33.252 0 0 1-5.175-7.407Z" fill="#547AC5"/><path d="M497.887 359.309c1.602-12.197 4.05-24.201 8.216-35.681a.327.327 0 0 1 0-.324 90.2 90.2 0 0 1 1.54-3.572 109.068 109.068 0 0 1 2.364-5.46.416.416 0 0 1 .115-.154 292.924 292.924 0 0 1 7.184-14.629.465.465 0 0 1-.138-.193 23.674 23.674 0 0 1-1.864-8.47c0-.562.955-.539.971 0a22.67 22.67 0 0 0 1.578 7.584c.77-1.457 1.555-2.91 2.356-4.358a.448.448 0 0 1-.269-.285c-1.288-3.905-1.91-8-1.841-12.112 0-.562.978-.539.971 0a35.604 35.604 0 0 0 1.655 11.443 291.877 291.877 0 0 1 11.85-19.381c.308-.462 1.163 0 .855.477-3.188 4.759-6.16 9.617-9.086 14.545 3.942.878 7.638-.169 11.227-1.262a.454.454 0 1 1 .292.862c-3.85 1.17-7.738 2.218-11.942 1.209h-.039A292.426 292.426 0 0 0 511 314.473a14.714 14.714 0 0 0 5.19-2.033c.493-.308 1.009.469.523.77a15.589 15.589 0 0 1-5.651 2.163.489.489 0 0 1-.424-.115c-.6 1.335-1.191 2.672-1.771 4.012-5.266 12.805-8.154 26.349-9.963 40.132-.378.015-.693-.047-1.017-.093Z" fill="#CAE5F6"/><path d="m499.096 359.802-1.54-.254.038-.277c1.802-13.721 4.474-25.371 8.185-35.627a.67.67 0 0 1 0-.455 111.08 111.08 0 0 1 1.54-3.572c.77-1.864 1.54-3.704 2.372-5.467a.636.636 0 0 1 .138-.208 290.16 290.16 0 0 1 7.077-14.407.752.752 0 0 1-.062-.115 23.945 23.945 0 0 1-1.879-8.555.644.644 0 0 1 .316-.593.833.833 0 0 1 .839 0 .704.704 0 0 1 .385.616 22.357 22.357 0 0 0 1.34 6.892 240.555 240.555 0 0 1 1.933-3.573.764.764 0 0 1-.17-.277 36.99 36.99 0 0 1-1.848-12.212.771.771 0 0 1 .77-.693.728.728 0 0 1 .56.21.728.728 0 0 1 .21.56 35.68 35.68 0 0 0 1.448 10.702 277.562 277.562 0 0 1 11.55-18.81.706.706 0 0 1 .284-.247.707.707 0 0 1 .37-.069.887.887 0 0 1 .724.462.65.65 0 0 1-.046.654c-2.972 4.443-5.952 9.24-8.871 14.184 3.85.77 7.647-.409 10.688-1.34a.77.77 0 0 1 .939.508.699.699 0 0 1-.477.909c-3.927 1.193-7.792 2.194-11.92 1.247a284.565 284.565 0 0 0-12.527 24.185 14.267 14.267 0 0 0 4.535-1.878.694.694 0 0 1 .716 0 .846.846 0 0 1 .447.685.698.698 0 0 1-.331.616 15.8 15.8 0 0 1-5.752 2.21.77.77 0 0 1-.331 0c-.562 1.247-1.109 2.495-1.656 3.742-4.697 11.434-7.854 24.17-9.94 40.04l-.054.207Zm-.886-.77.324.054h.053c2.087-15.792 5.252-28.489 9.941-39.901a344.737 344.737 0 0 1 1.779-4.019l.131-.293.231-.508c3.85-8.47 8.185-16.84 12.897-24.948l.116-.207.223.077c4.073.985 7.908 0 11.804-1.194a.138.138 0 0 0 .054-.024.14.14 0 0 0 .051-.103.13.13 0 0 0-.013-.058.16.16 0 0 0-.03-.065.164.164 0 0 0-.054-.047.164.164 0 0 0-.139-.011c-3.203.978-7.192 2.195-11.365 1.271l-.385-.093.2-.339c2.988-5.105 6.044-10.01 9.094-14.56a.073.073 0 0 0 0-.077.317.317 0 0 0-.247-.139.14.14 0 0 0-.078.01.132.132 0 0 0-.06.052 283.096 283.096 0 0 0-11.835 19.357l-.331.586-.2-.639a36.157 36.157 0 0 1-1.671-11.55c0-.139-.162-.147-.193-.147s-.192 0-.192.131a36.185 36.185 0 0 0 1.825 12.012c.006.026.018.05.036.07.017.02.039.036.064.046l.3.115-.154.293c-.77 1.44-1.586 2.895-2.356 4.35l-.301.555-.223-.586a23.152 23.152 0 0 1-1.601-7.7.146.146 0 0 0-.02-.073.138.138 0 0 0-.057-.05.301.301 0 0 0-.27 0 .11.11 0 0 0-.031.037.099.099 0 0 0-.007.048 23.426 23.426 0 0 0 1.832 8.354.195.195 0 0 0 .062.077l.185.147-.116.208a288.243 288.243 0 0 0-7.176 14.629l-.085.108a110.299 110.299 0 0 0-2.395 5.498 352.93 352.93 0 0 1-1.54 3.573l.085.123-.054.192c-3.634 10.226-6.306 21.791-8.108 35.397v-.039Zm12.32-44.166.246.2a.247.247 0 0 0 .193.054 15.156 15.156 0 0 0 5.536-2.125.115.115 0 0 0 .069-.108.275.275 0 0 0-.13-.2.15.15 0 0 0-.074-.02.149.149 0 0 0-.073.02 15.035 15.035 0 0 1-5.29 2.071l-.477.108Z" fill="#547AC5"/><path d="M532.144 282.865a24.598 24.598 0 0 0 8.37-3.273c-.046.401-.116.809-.185 1.201a25.77 25.77 0 0 1-7.862 2.934c-.623.108-.916-.747-.323-.862Z" fill="#CAE5F6"/><path d="M532.336 284.027a.769.769 0 0 1-.77-.662.635.635 0 0 1 .104-.506.647.647 0 0 1 .193-.179.657.657 0 0 1 .25-.085 24.63 24.63 0 0 0 8.27-3.234l.516-.323-.077.6c-.039.377-.108.77-.17 1.14l-.038.208-.116.069a26.288 26.288 0 0 1-8.031 2.957l-.131.015Zm7.808-3.85a25.225 25.225 0 0 1-7.946 2.988c-.093 0-.1.046-.093.108a.244.244 0 0 0 .104.151.235.235 0 0 0 .181.033 25.797 25.797 0 0 0 7.7-2.825c0-.17.031-.316.077-.47l-.023.015Z" fill="#547AC5"/><path d="M441.293 290.934c.061 3.85 9.024 5.752 11.865 6.807 6.299 2.31 12.451 4.682 17.109 9.756 5.491 5.975 10.226 12.866 14.961 19.45a1.112 1.112 0 0 0 1.117.485c.516-.906.954-1.854 1.309-2.834 1.632-4.027 4.127-11.388 3.511-15.584a25.477 25.477 0 0 0-2.857-8.37 7.528 7.528 0 0 1-1.794 3.542c-.231.231-.716-5.29-1.039-7.8a25.97 25.97 0 0 0-1.278-1.478 27.643 27.643 0 0 0-3.311-3.08 11.983 11.983 0 0 0-.77-.586 33.723 33.723 0 0 0-3.019-2.002l-.839-.485a37.928 37.928 0 0 0-3.018-1.493 20.197 20.197 0 0 1-1.664 5.52c-.169.37-.592-4.358-.654-6.452a36.176 36.176 0 0 0-2.98-.963 15.613 15.613 0 0 1-1.232 3.565c-.138.278-1.471-2.926-1.956-4.335a38.718 38.718 0 0 0-9.594-.77c-.277 0-.554 0-.816.047-.862.061-1.709.161-2.549.292-3.08.478-10.364 2.433-10.502 6.607a.543.543 0 0 0 0 .161Z" fill="#9BCEF5"/><path d="M486.137 327.74a1.416 1.416 0 0 1-1.147-.624l-1.933-2.703c-4.066-5.69-8.27-11.549-13.005-16.724-4.736-5.174-10.957-7.446-16.994-9.679-.5-.184-1.209-.4-2.033-.646-3.965-1.209-9.963-3.034-10.01-6.422a1.588 1.588 0 0 1 0-.169c.139-4.104 6.815-6.237 10.742-6.846.87-.138 1.732-.231 2.572-.292.261 0 .546 0 .824-.046a38.86 38.86 0 0 1 9.671.77h.161l.054.161a40.25 40.25 0 0 0 1.617 3.896c.441-.99.781-2.022 1.017-3.08l.069-.292.292.085c.832.238 1.925.562 2.996.97l.177.069v.192c.046 1.54.277 4.274.446 5.591a20.551 20.551 0 0 0 1.302-4.697l.061-.37.339.154c1.04.454 2.064.955 3.08 1.502l.847.485a34.257 34.257 0 0 1 3.08 2.025c.246.177.501.377.77.577a27.502 27.502 0 0 1 3.365 3.08c.408.439.831.924 1.293 1.494l.047.062v.084c.1.77.215 1.848.331 2.942.161 1.54.377 3.472.531 4.327a7.622 7.622 0 0 0 1.394-3.08l.177-.724.362.655a25.734 25.734 0 0 1 2.887 8.47c.709 4.789-2.525 13.259-3.534 15.738-1.217 2.996-1.378 3.003-1.54 3.011-.1.032-.203.051-.308.054Zm-29.129-43.62c-.6 0-1.201 0-1.794.046-.277 0-.539 0-.77.046-.839.054-1.686.154-2.533.285-3.496.539-10.133 2.564-10.264 6.329v.108c0 2.965 6.029 4.782 9.609 5.875.832.254 1.54.47 2.064.662 5.821 2.149 12.404 4.62 17.225 9.826 4.82 5.205 8.97 11.08 13.043 16.785l1.933 2.703a.846.846 0 0 0 .731.37c.444-.867.842-1.757 1.194-2.665.993-2.448 4.181-10.779 3.496-15.399a25.088 25.088 0 0 0-2.487-7.631 7.183 7.183 0 0 1-1.671 2.964l-.131.139-.193-.054c-.269-.1-.331-.115-.87-5.113a274.42 274.42 0 0 0-.323-2.849 28.158 28.158 0 0 0-1.217-1.401 27.091 27.091 0 0 0-3.28-3.018 8.69 8.69 0 0 0-.77-.585 31.971 31.971 0 0 0-2.995-1.987c-.27-.162-.547-.323-.839-.477a34.316 34.316 0 0 0-2.649-1.333 20.067 20.067 0 0 1-1.625 5.229l-.1.208h-.239c-.569-.124-.816-5.467-.862-6.561a23.609 23.609 0 0 0-2.479-.77 15.525 15.525 0 0 1-1.194 3.334l-.085.17h-.215c-.532 0-1.841-3.596-2.125-4.397a39.48 39.48 0 0 0-7.585-.839Z" fill="#547AC5"/><path d="M475.773 301.121c7.615 7.515 10.01 21.321 10.472 25.24a17.814 17.814 0 0 1 1.54 5.098c.908 6.16.639 12.728.485 18.972a207.86 207.86 0 0 1-.246 6.16l-1.063-.192c.069-1.294.131-2.587.177-3.85.185-5.583.185-11.188-.077-16.771a24.72 24.72 0 0 0-1.54-8.47 1.085 1.085 0 0 1-.339-.315c-4.735-6.584-9.471-13.475-14.961-19.45-4.658-5.074-10.78-7.423-17.101-9.756-2.849-1.055-11.812-2.926-11.873-6.807 11.988 1.348 25.771 1.494 34.526 10.141Z" fill="#CAE5F6"/><path d="m488.316 356.93-.323-.061-1.055-.193-.254-.046v-.254c.069-1.294.13-2.587.169-3.85.2-5.79.177-11.434-.069-16.755-.147-3.188-.455-5.821-1.463-8.285a1.45 1.45 0 0 1-.347-.339l-1.932-2.703c-4.066-5.69-8.27-11.549-13.006-16.724-4.735-5.174-10.957-7.446-16.986-9.679-.508-.184-1.216-.4-2.04-.646-3.966-1.209-10.01-3.034-10.01-6.422v-.331h.331c1.64.192 3.311.362 4.997.531 10.826 1.078 22.014 2.202 29.653 9.733 7.961 7.861 10.171 22.399 10.541 25.363a17.794 17.794 0 0 1 1.54 5.136c.839 5.706.677 11.689.531 17.471v1.54a201.009 201.009 0 0 1-.254 6.16l-.023.354Zm-1.032-.77.493.085c.115-2.217.185-4.073.231-5.813v-1.54c.146-5.76.308-11.712-.524-17.371a17.516 17.516 0 0 0-1.54-5.013v-.092c-.354-2.819-2.51-17.294-10.387-25.064-7.484-7.392-18.572-8.47-29.298-9.578-1.54-.154-3.134-.316-4.62-.485.462 2.772 6.16 4.496 9.579 5.544.831.254 1.54.469 2.071.662 5.813 2.148 12.397 4.62 17.217 9.825 4.82 5.205 8.97 11.08 13.044 16.786l1.932 2.702c.074.093.163.174.262.239l.077.046.039.085c1.07 2.564 1.386 5.274 1.54 8.562.246 5.336.269 10.988.069 16.801-.062 1.186-.116 2.403-.185 3.612v.007Z" fill="#547AC5"/><path d="M476.104 297.433c.558-2.851.612-5.777.162-8.647l.839.485a25.248 25.248 0 0 1-.239 8.331c-.092.524-.854.324-.762-.169Z" fill="#CAE5F6"/><path d="M476.52 298.195h-.139a.675.675 0 0 1-.562-.77c.546-2.818.6-5.71.162-8.547l-.093-.585.516.285.847.485.123.07v.138c.384 2.818.3 5.679-.246 8.47a.63.63 0 0 1-.608.454Zm-.131-.708c0 .092.061.115.1.123.038.008.092 0 .1-.061.515-2.67.601-5.404.254-8.101l-.208-.123c.36 2.716.277 5.473-.246 8.162Z" fill="#547AC5"/><path d="M479.014 298.981a32.647 32.647 0 0 0 1.109-7.7c.262.185.516.385.77.585a33.108 33.108 0 0 1-1.101 7.299c-.138.501-.908.308-.778-.184Z" fill="#CAE5F6"/><path d="M479.407 299.735a.771.771 0 0 1-.192 0 .636.636 0 0 1-.478-.77 32.428 32.428 0 0 0 1.102-7.638v-.547l.438.316c.255.185.509.385.77.585l.116.093v.161a33.62 33.62 0 0 1-1.117 7.361.667.667 0 0 1-.639.439Zm-.115-.685s0 .077.069.1a.113.113 0 0 0 .045.009c.015 0 .03-.004.044-.011a.095.095 0 0 0 .036-.027.11.11 0 0 0 .021-.04 33.418 33.418 0 0 0 1.086-7.084l-.2-.162a32.72 32.72 0 0 1-1.101 7.215Z" fill="#547AC5"/><path d="M466.248 350.747a27.886 27.886 0 0 0 11.55 22.638h32.794a27.977 27.977 0 0 0 10.888-28.736 26.966 26.966 0 0 0-1.54-4.82h-51.451a27.429 27.429 0 0 0-1.54 4.82 27.938 27.938 0 0 0-.701 6.098Z" fill="#E47A2E"/><path d="M466.248 350.747a27.886 27.886 0 0 0 11.55 22.638h32.794c-42.85 2.133-42.142-33.556-42.142-33.556a27.912 27.912 0 0 0-2.202 10.918Z" fill="#D0661A"/><path d="M509.768 339.829h10.21a26.806 26.806 0 0 1 1.54 4.82 27.937 27.937 0 0 1-10.888 28.736h-4.535c5.49-3.981 8.047-22.183 3.673-33.556Z" fill="#D0661A"/><defs><linearGradient id="a" x1="499.043" y1="455.599" x2="484.491" y2="385.664" gradientUnits="userSpaceOnUse"><stop stop-color="#fff"/><stop offset="1" stop-color="#AEBDDF"/></linearGradient></defs></svg>