<svg width="928" height="406" viewBox="0 0 928 406" fill="none" xmlns="http://www.w3.org/2000/svg">
<rect x="0.5" y="0.5" width="927" height="405" rx="19.5" fill="#EFF8FE" stroke="#EFF8FE"/>
<path d="M328.883 316.162C327.47 314.884 325.28 314.685 323.519 315.408C321.759 316.131 320.413 317.655 319.587 319.369C318.761 321.085 318.409 322.989 318.199 324.882C317.851 328.015 317.901 331.29 318.933 334.24C314.802 332.149 310.838 329.742 307.076 327.043C306.734 326.797 306.396 326.545 306.057 326.295L312.38 318.678C313.786 316.985 315.224 315.235 315.896 313.137C316.569 311.04 316.302 308.484 314.667 307.006C313.254 305.728 311.064 305.528 309.303 306.251C307.543 306.974 306.196 308.498 305.371 310.213C304.545 311.928 304.193 313.833 303.983 315.726C303.624 318.957 303.687 322.34 304.816 325.362C300.731 322.238 296.915 318.776 293.408 315.015L299.518 307.051C300.858 305.304 302.227 303.5 302.819 301.379C303.41 299.257 303.046 296.714 301.355 295.299C299.894 294.076 297.698 293.961 295.966 294.751C294.235 295.541 292.948 297.115 292.189 298.86C291.429 300.606 291.15 302.523 291.013 304.422C290.793 307.464 290.948 310.626 291.994 313.462C289.519 310.685 287.218 307.758 285.103 304.697C284.48 303.79 283.873 302.871 283.285 301.94L289.299 293.543C290.581 291.753 291.89 289.905 292.412 287.765C292.933 285.625 292.485 283.095 290.749 281.736C289.248 280.561 287.05 280.519 285.346 281.366C283.641 282.212 282.407 283.828 281.706 285.598C281.004 287.367 280.788 289.292 280.714 291.195C280.607 293.915 280.804 296.719 281.656 299.282C279.765 296.06 278.085 292.719 276.625 289.28L277.882 279.289C278.158 277.103 278.429 274.853 277.869 272.721C277.309 270.589 275.712 268.575 273.54 268.205C271.662 267.886 269.711 268.895 268.616 270.452C267.52 272.008 267.205 274.018 267.43 275.91C267.655 277.802 268.381 279.598 269.221 281.31C270.768 284.462 272.824 287.502 275.726 289.444C275.73 289.456 275.732 289.467 275.737 289.478C277.285 293.141 279.081 296.694 281.113 300.112C278.925 298.313 276.22 297.12 273.493 296.271C271.674 295.705 269.787 295.264 267.885 295.333C265.982 295.402 264.046 296.024 262.678 297.347C261.31 298.67 260.615 300.755 261.22 302.562C261.919 304.652 264.154 305.921 266.346 306.146C268.537 306.371 270.717 305.755 272.833 305.146L282.5 302.363C285.109 306.472 288.046 310.364 291.281 314.001C288.62 312.656 285.546 312.124 282.543 311.971C280.641 311.874 278.705 311.915 276.879 312.454C275.054 312.993 273.333 314.077 272.337 315.699C271.341 317.321 271.185 319.514 272.219 321.115C273.415 322.967 275.894 323.641 278.072 323.315C280.25 322.989 282.208 321.851 284.106 320.736L292.773 315.641C292.878 315.753 292.98 315.867 293.085 315.978C296.531 319.631 300.266 322.999 304.254 326.051C301.105 324.936 297.599 325.003 294.274 325.516C292.393 325.806 290.506 326.239 288.828 327.136C287.15 328.035 285.685 329.445 285.038 331.235C284.39 333.026 284.682 335.206 286.018 336.565C287.564 338.136 290.127 338.295 292.194 337.534C294.259 336.773 295.946 335.262 297.578 333.785L305.272 326.821C305.328 326.863 305.385 326.904 305.441 326.946L305.436 327.044L305.489 326.981C309.416 329.887 313.569 332.475 317.909 334.72C314.914 334.912 311.971 336.003 309.276 337.386C307.551 338.272 305.865 339.297 304.531 340.705C303.197 342.113 302.233 343.948 302.18 345.886C302.128 347.825 303.108 349.839 304.835 350.723C306.832 351.745 309.36 351.073 311.114 349.673C312.867 348.273 314.014 346.269 315.118 344.316L319.824 335.994L320.009 335.771C324.854 338.118 329.906 340.012 335.1 341.429C335.648 341.579 335.986 340.751 335.43 340.6C330.329 339.207 325.364 337.353 320.599 335.061L326.597 327.835C328.003 326.141 329.441 324.391 330.113 322.294C330.785 320.196 330.518 317.641 328.883 316.162ZM608.77 232.52C609.726 230.872 611.751 230.014 613.648 230.164C615.545 230.315 617.292 231.355 618.602 232.736C619.912 234.118 620.829 235.824 621.607 237.562C622.894 240.44 623.846 243.573 623.764 246.698C627.06 243.445 630.1 239.944 632.858 236.225C633.109 235.886 633.354 235.543 633.6 235.202L625.254 229.879C623.398 228.695 621.494 227.467 620.214 225.676C618.933 223.884 618.407 221.369 619.513 219.461C620.469 217.812 622.493 216.954 624.39 217.106C626.288 217.257 628.035 218.297 629.344 219.678C630.654 221.059 631.571 222.765 632.349 224.504C633.677 227.471 634.649 230.713 634.496 233.935C637.433 229.712 640.011 225.251 642.202 220.598L633.952 214.88C632.143 213.625 630.289 212.326 629.077 210.486C627.866 208.646 627.437 206.113 628.615 204.249C629.633 202.638 631.689 201.859 633.579 202.083C635.469 202.306 637.175 203.413 638.431 204.843C639.687 206.274 640.538 208.013 641.248 209.781C642.386 212.61 643.204 215.668 643.073 218.689C644.582 215.289 645.88 211.799 646.96 208.239C647.276 207.184 647.573 206.124 647.849 205.058L639.559 198.898C637.792 197.585 635.981 196.225 634.831 194.345C633.682 192.467 633.335 189.921 634.574 188.097C635.645 186.52 637.724 185.809 639.606 186.095C641.488 186.38 643.157 187.542 644.364 189.013C645.572 190.484 646.366 192.252 647.018 194.041C647.95 196.598 648.618 199.329 648.589 202.029C649.406 198.384 649.986 194.689 650.327 190.969L646.079 181.838C645.15 179.841 644.204 177.781 644.087 175.58C643.969 173.378 644.875 170.973 646.831 169.958C648.521 169.081 650.688 169.446 652.206 170.594C653.724 171.742 654.639 173.559 655.002 175.43C655.365 177.301 655.222 179.233 654.944 181.119C654.433 184.594 653.403 188.116 651.233 190.851C651.232 190.864 651.234 190.874 651.233 190.887C650.876 194.847 650.251 198.779 649.36 202.654C650.894 200.273 653.106 198.311 655.443 196.67C657.003 195.576 658.665 194.58 660.498 194.065C662.331 193.549 664.364 193.551 666.071 194.393C667.777 195.235 669.076 197.009 669.051 198.914C669.023 201.118 667.282 203.009 665.264 203.892C663.246 204.775 660.982 204.854 658.781 204.92L648.725 205.221C647.495 209.931 645.887 214.533 643.917 218.984C646.04 216.89 648.805 215.446 651.619 214.383C653.4 213.71 655.257 213.159 657.159 213.115C659.062 213.071 661.031 213.578 662.475 214.818C663.919 216.058 664.737 218.099 664.241 219.94C663.667 222.068 661.513 223.467 659.339 223.821C657.165 224.175 654.954 223.69 652.805 223.207L642.997 221.001C642.932 221.139 642.869 221.279 642.803 221.417C640.636 225.947 638.107 230.295 635.241 234.418C637.9 232.395 641.259 231.389 644.581 230.862C646.461 230.564 648.391 230.4 650.262 230.743C652.135 231.086 653.96 231.981 655.123 233.489C656.286 234.997 656.674 237.162 655.816 238.863C654.824 240.832 652.431 241.765 650.231 241.671C648.032 241.578 645.964 240.654 643.959 239.745L634.507 235.462C634.466 235.519 634.424 235.576 634.383 235.632L634.418 235.724L634.349 235.68C631.497 239.646 628.332 243.379 624.885 246.841C627.795 246.109 630.931 246.25 633.919 246.745C635.833 247.062 637.751 247.524 639.451 248.457C641.151 249.39 642.629 250.843 643.271 252.674C643.913 254.504 643.595 256.721 642.22 258.089C640.629 259.672 638.017 259.804 635.92 259.006C633.823 258.208 632.119 256.65 630.472 255.127L623.45 248.638C623.368 248.587 623.287 248.535 623.205 248.482C619.308 252.196 615.076 255.542 610.563 258.477C610.087 258.787 609.512 258.102 609.994 257.788C614.432 254.906 618.591 251.617 622.428 247.986L614.509 242.937C612.653 241.753 610.75 240.525 609.47 238.734C608.191 236.942 607.665 234.428 608.77 232.52Z" fill="#507CC7"/>
<path d="M352.211 284.135C350.021 283.722 347.845 283.242 345.685 282.697C345.64 282.686 345.598 282.666 345.56 282.638C345.523 282.611 345.491 282.576 345.467 282.536C345.443 282.497 345.427 282.452 345.421 282.406C345.414 282.36 345.416 282.314 345.428 282.269C345.453 282.177 345.513 282.1 345.594 282.052C345.676 282.005 345.773 281.992 345.864 282.015C348.01 282.558 350.171 283.034 352.345 283.445C352.54 283.481 352.667 283.666 352.63 283.857C352.611 283.949 352.557 284.03 352.478 284.083C352.399 284.135 352.303 284.154 352.211 284.135ZM365.912 285.788C363.662 285.702 361.416 285.549 359.176 285.33C358.976 285.31 358.82 285.138 358.827 284.946C358.834 284.754 359 284.616 359.201 284.633C361.453 284.854 363.704 285.007 365.892 285.089C366.091 285.096 366.257 285.259 366.263 285.452C366.265 285.533 366.237 285.612 366.185 285.673C366.133 285.734 366.06 285.774 365.98 285.785C365.957 285.788 365.934 285.789 365.912 285.788ZM381.815 286.375C379.564 286.474 377.31 286.505 375.057 286.47C374.857 286.467 374.68 286.309 374.664 286.117C374.647 285.925 374.795 285.774 374.997 285.775C377.264 285.81 379.523 285.779 381.71 285.682C381.91 285.673 382.095 285.821 382.124 286.013C382.137 286.092 382.119 286.172 382.074 286.238C382.029 286.304 381.961 286.35 381.883 286.367C381.861 286.372 381.838 286.375 381.815 286.375ZM396.188 285.209C393.959 285.5 391.722 285.724 389.479 285.882C389.279 285.896 389.084 285.754 389.042 285.565C389.001 285.375 389.129 285.212 389.33 285.196C391.557 285.04 393.779 284.817 395.993 284.528C396.191 284.502 396.394 284.633 396.448 284.822C396.46 284.859 396.464 284.898 396.461 284.937C396.457 284.976 396.446 285.014 396.428 285.048C396.41 285.083 396.386 285.114 396.356 285.139C396.326 285.164 396.291 285.183 396.254 285.194C396.232 285.201 396.21 285.206 396.188 285.209ZM409.797 282.59C407.66 283.194 405.505 283.733 403.335 284.205C403.141 284.248 402.918 284.135 402.837 283.955C402.756 283.774 402.847 283.595 403.041 283.551C405.197 283.082 407.338 282.547 409.461 281.946C409.649 281.893 409.878 281.993 409.97 282.171C410.052 282.328 410.002 282.492 409.859 282.566C409.839 282.576 409.819 282.584 409.797 282.59ZM339.263 280.875C337.141 280.207 335.038 279.48 332.957 278.694C332.913 278.678 332.873 278.654 332.839 278.622C332.805 278.591 332.778 278.553 332.759 278.51C332.739 278.468 332.729 278.422 332.728 278.376C332.726 278.329 332.734 278.283 332.751 278.24C332.786 278.152 332.855 278.082 332.941 278.044C333.028 278.006 333.126 278.004 333.214 278.038C335.283 278.819 337.373 279.541 339.482 280.205C339.526 280.219 339.568 280.241 339.604 280.27C339.639 280.3 339.669 280.337 339.691 280.378C339.712 280.419 339.725 280.464 339.729 280.51C339.733 280.557 339.728 280.603 339.714 280.648C339.684 280.737 339.62 280.812 339.535 280.854C339.451 280.897 339.353 280.904 339.263 280.875ZM326.785 276.164C324.755 275.264 322.751 274.304 320.776 273.287C320.735 273.266 320.698 273.237 320.668 273.202C320.638 273.166 320.615 273.125 320.601 273.081C320.587 273.037 320.582 272.99 320.586 272.944C320.59 272.898 320.604 272.853 320.626 272.812C320.671 272.729 320.747 272.667 320.838 272.639C320.928 272.611 321.026 272.621 321.11 272.664C323.072 273.675 325.063 274.629 327.081 275.523C327.124 275.542 327.162 275.568 327.194 275.602C327.226 275.635 327.252 275.675 327.268 275.718C327.285 275.762 327.293 275.808 327.291 275.854C327.29 275.901 327.279 275.946 327.26 275.988C327.22 276.074 327.148 276.141 327.059 276.174C326.97 276.207 326.872 276.203 326.785 276.164ZM314.958 270.051C313.055 268.913 311.192 267.707 309.374 266.438C309.336 266.411 309.303 266.378 309.278 266.339C309.253 266.3 309.236 266.256 309.229 266.21C309.221 266.164 309.222 266.118 309.233 266.072C309.243 266.027 309.263 265.985 309.29 265.947C309.346 265.871 309.43 265.819 309.523 265.804C309.617 265.789 309.713 265.811 309.79 265.865C311.595 267.125 313.444 268.321 315.332 269.451C315.501 269.552 315.554 269.768 315.451 269.934C315.401 270.015 315.321 270.072 315.229 270.094C315.136 270.116 315.039 270.1 314.958 270.051ZM304.083 262.415C302.33 260.961 300.68 259.456 299.18 257.94C299.147 257.908 299.121 257.868 299.104 257.826C299.086 257.783 299.078 257.736 299.079 257.69C299.079 257.644 299.089 257.598 299.108 257.556C299.127 257.513 299.154 257.475 299.187 257.443C299.256 257.378 299.348 257.342 299.442 257.344C299.537 257.345 299.627 257.383 299.694 257.45C301.178 258.949 302.81 260.439 304.546 261.877C304.582 261.907 304.612 261.943 304.633 261.984C304.655 262.025 304.668 262.07 304.672 262.116C304.676 262.163 304.67 262.209 304.656 262.253C304.642 262.297 304.619 262.338 304.588 262.373C304.526 262.445 304.439 262.489 304.344 262.497C304.25 262.505 304.156 262.475 304.083 262.415ZM294.801 252.962C293.398 251.146 292.171 249.287 291.156 247.437C291.134 247.396 291.12 247.351 291.115 247.305C291.111 247.259 291.115 247.212 291.129 247.168C291.142 247.123 291.165 247.082 291.195 247.046C291.224 247.011 291.261 246.981 291.302 246.96C291.386 246.916 291.483 246.906 291.574 246.932C291.665 246.959 291.742 247.02 291.788 247.103C292.786 248.922 293.992 250.75 295.373 252.537C295.401 252.573 295.422 252.615 295.434 252.66C295.446 252.705 295.449 252.752 295.442 252.798C295.436 252.844 295.42 252.888 295.397 252.928C295.373 252.968 295.341 253.002 295.304 253.03C295.228 253.086 295.133 253.111 295.039 253.098C294.945 253.085 294.86 253.037 294.801 252.962ZM288.55 241.364C287.88 239.207 287.478 237.024 287.354 234.876C287.352 234.83 287.359 234.783 287.374 234.739C287.39 234.695 287.414 234.655 287.446 234.621C287.477 234.586 287.515 234.558 287.557 234.538C287.599 234.519 287.645 234.507 287.692 234.505C287.738 234.501 287.785 234.507 287.83 234.522C287.875 234.536 287.916 234.56 287.951 234.591C287.986 234.622 288.015 234.659 288.035 234.702C288.056 234.744 288.068 234.79 288.07 234.837C288.19 236.929 288.583 239.056 289.236 241.159C289.25 241.204 289.254 241.25 289.249 241.296C289.245 241.343 289.231 241.388 289.209 241.428C289.187 241.469 289.157 241.505 289.12 241.534C289.084 241.564 289.043 241.585 288.998 241.598C288.908 241.626 288.81 241.617 288.726 241.573C288.642 241.53 288.579 241.454 288.55 241.364ZM288.119 228.702C288.074 228.693 288.03 228.676 287.991 228.65C287.952 228.625 287.919 228.592 287.893 228.553C287.867 228.514 287.849 228.471 287.839 228.425C287.83 228.38 287.83 228.333 287.839 228.287C288.274 226.185 288.987 224.077 289.96 222.021C290.001 221.937 290.074 221.871 290.163 221.839C290.252 221.807 290.35 221.811 290.436 221.85C290.478 221.869 290.517 221.896 290.548 221.93C290.58 221.964 290.605 222.003 290.621 222.047C290.638 222.09 290.645 222.137 290.643 222.183C290.641 222.23 290.63 222.275 290.61 222.317C289.662 224.323 288.966 226.378 288.542 228.427C288.523 228.52 288.467 228.601 288.388 228.652C288.308 228.704 288.212 228.722 288.119 228.702ZM293.455 216.834C293.416 216.808 293.384 216.774 293.359 216.735C293.334 216.696 293.318 216.652 293.31 216.606C293.302 216.561 293.304 216.514 293.315 216.469C293.325 216.423 293.345 216.381 293.372 216.343C293.787 215.777 294.217 215.222 294.661 214.677C295.575 213.554 296.615 212.448 297.752 211.39C297.822 211.326 297.914 211.291 298.008 211.293C298.103 211.296 298.193 211.335 298.259 211.403C298.292 211.436 298.317 211.475 298.334 211.519C298.351 211.562 298.359 211.608 298.358 211.654C298.356 211.701 298.346 211.746 298.327 211.789C298.308 211.831 298.28 211.869 298.246 211.9C297.133 212.936 296.115 214.018 295.221 215.116C294.785 215.652 294.363 216.198 293.955 216.754C293.922 216.8 293.878 216.837 293.827 216.863C293.776 216.888 293.72 216.901 293.664 216.901C293.589 216.901 293.516 216.877 293.455 216.834ZM302.864 207.776C302.837 207.738 302.818 207.696 302.809 207.65C302.799 207.605 302.798 207.558 302.807 207.513C302.815 207.467 302.833 207.424 302.858 207.385C302.884 207.346 302.917 207.313 302.956 207.287C304.687 206.116 306.611 204.973 308.675 203.89C308.758 203.846 308.856 203.836 308.947 203.863C309.037 203.89 309.114 203.951 309.16 204.034C309.182 204.075 309.196 204.12 309.201 204.166C309.205 204.212 309.201 204.259 309.187 204.303C309.173 204.347 309.151 204.388 309.121 204.424C309.091 204.459 309.054 204.489 309.013 204.51C306.973 205.581 305.072 206.71 303.363 207.866C303.284 207.92 303.188 207.94 303.095 207.924C303.001 207.907 302.919 207.854 302.864 207.776ZM314.517 201.512C314.499 201.469 314.489 201.424 314.488 201.377C314.487 201.331 314.496 201.284 314.513 201.241C314.531 201.198 314.557 201.159 314.589 201.126C314.622 201.093 314.661 201.067 314.704 201.049C316.753 200.183 318.828 199.38 320.926 198.642C321.015 198.61 321.113 198.615 321.199 198.654C321.285 198.694 321.352 198.766 321.385 198.854C321.401 198.898 321.408 198.944 321.405 198.991C321.403 199.037 321.391 199.083 321.371 199.125C321.351 199.167 321.323 199.204 321.288 199.235C321.253 199.266 321.213 199.29 321.169 199.305C319.085 200.038 317.024 200.835 314.989 201.695C314.944 201.714 314.895 201.724 314.847 201.724C314.777 201.724 314.709 201.705 314.65 201.667C314.592 201.629 314.546 201.575 314.517 201.512ZM327.035 197.018C327.022 196.974 327.017 196.927 327.022 196.881C327.026 196.835 327.04 196.79 327.062 196.749C327.085 196.708 327.115 196.672 327.151 196.643C327.187 196.614 327.229 196.593 327.273 196.58C329.406 195.943 331.55 195.347 333.706 194.792C333.797 194.768 333.894 194.781 333.976 194.828C334.058 194.875 334.118 194.952 334.143 195.043C334.155 195.088 334.158 195.135 334.151 195.181C334.145 195.227 334.129 195.271 334.105 195.311C334.082 195.351 334.05 195.386 334.013 195.414C333.975 195.442 333.933 195.462 333.888 195.473C331.742 196.025 329.606 196.618 327.483 197.252C327.392 197.28 327.295 197.271 327.211 197.227C327.127 197.184 327.064 197.108 327.035 197.018ZM339.927 193.652C339.917 193.607 339.916 193.56 339.924 193.514C339.932 193.468 339.949 193.424 339.974 193.385C339.999 193.346 340.032 193.312 340.07 193.286C340.108 193.259 340.151 193.24 340.197 193.231C342.369 192.744 344.547 192.286 346.731 191.857C346.823 191.838 346.919 191.857 346.998 191.909C347.077 191.96 347.133 192.041 347.153 192.133C347.162 192.178 347.161 192.225 347.152 192.271C347.143 192.317 347.125 192.36 347.099 192.398C347.072 192.437 347.039 192.47 347 192.495C346.961 192.521 346.918 192.538 346.872 192.547C344.694 192.975 342.523 193.432 340.357 193.917C340.265 193.939 340.168 193.923 340.087 193.873C340.007 193.824 339.949 193.744 339.927 193.652ZM353.004 191.048C352.996 191.002 352.997 190.955 353.008 190.91C353.018 190.864 353.037 190.821 353.064 190.784C353.091 190.746 353.126 190.714 353.165 190.689C353.204 190.664 353.248 190.648 353.294 190.64C355.487 190.259 357.683 189.898 359.882 189.558C360.077 189.531 360.261 189.658 360.292 189.85C360.299 189.896 360.297 189.943 360.286 189.988C360.274 190.034 360.254 190.076 360.227 190.113C360.199 190.151 360.164 190.182 360.124 190.206C360.084 190.23 360.04 190.246 359.994 190.253C357.799 190.592 355.608 190.952 353.42 191.333C353.327 191.35 353.231 191.33 353.153 191.276C353.075 191.223 353.022 191.141 353.004 191.048ZM366.182 188.987C366.176 188.941 366.179 188.894 366.191 188.849C366.203 188.804 366.223 188.762 366.252 188.725C366.28 188.688 366.316 188.657 366.356 188.634C366.396 188.611 366.441 188.596 366.487 188.59C368.691 188.285 370.898 187.996 373.106 187.722C373.199 187.71 373.294 187.735 373.369 187.792C373.444 187.849 373.493 187.933 373.507 188.026C373.512 188.073 373.509 188.119 373.496 188.164C373.483 188.209 373.462 188.251 373.433 188.288C373.404 188.324 373.369 188.355 373.328 188.377C373.287 188.4 373.242 188.415 373.196 188.42C370.991 188.694 368.788 188.982 366.588 189.286C366.541 189.293 366.494 189.291 366.449 189.28C366.403 189.269 366.361 189.249 366.323 189.221C366.285 189.193 366.253 189.158 366.229 189.118C366.205 189.078 366.189 189.034 366.182 188.987ZM379.419 187.33C379.414 187.284 379.418 187.237 379.431 187.193C379.444 187.148 379.466 187.106 379.495 187.07C379.525 187.034 379.561 187.004 379.602 186.982C379.643 186.96 379.688 186.946 379.734 186.941C381.906 186.699 384.14 186.461 386.372 186.236C386.465 186.226 386.559 186.253 386.633 186.312C386.707 186.37 386.754 186.456 386.765 186.549C386.77 186.596 386.765 186.643 386.751 186.687C386.737 186.732 386.715 186.773 386.685 186.809C386.656 186.845 386.619 186.875 386.578 186.896C386.537 186.918 386.492 186.931 386.445 186.936C384.216 187.161 381.985 187.397 379.816 187.64C379.722 187.651 379.628 187.625 379.553 187.567C379.479 187.509 379.43 187.424 379.419 187.33ZM392.691 185.98C392.687 185.933 392.693 185.886 392.707 185.842C392.721 185.798 392.744 185.756 392.774 185.721C392.804 185.685 392.841 185.656 392.882 185.635C392.923 185.613 392.969 185.6 393.015 185.596C395.213 185.395 397.429 185.202 399.664 185.016C399.864 184.999 400.035 185.143 400.052 185.337C400.068 185.531 399.922 185.701 399.724 185.718C397.492 185.903 395.277 186.096 393.082 186.297C392.988 186.307 392.894 186.279 392.821 186.219C392.748 186.16 392.701 186.073 392.691 185.98ZM405.986 184.865C405.983 184.819 405.989 184.772 406.004 184.728C406.019 184.684 406.042 184.643 406.073 184.608C406.104 184.573 406.141 184.544 406.183 184.523C406.224 184.503 406.27 184.49 406.316 184.487C408.52 184.32 410.739 184.159 412.972 184.005C413.166 183.998 413.341 184.137 413.355 184.331C413.358 184.377 413.352 184.424 413.336 184.468C413.321 184.512 413.298 184.553 413.267 184.587C413.236 184.622 413.198 184.651 413.156 184.671C413.115 184.692 413.069 184.703 413.023 184.706C410.791 184.861 408.574 185.022 406.372 185.189L406.344 185.19C406.254 185.191 406.168 185.158 406.102 185.097C406.035 185.037 405.994 184.954 405.986 184.865ZM419.295 183.935C419.293 183.889 419.299 183.842 419.315 183.798C419.33 183.754 419.354 183.713 419.385 183.679C419.416 183.644 419.454 183.616 419.496 183.596C419.538 183.575 419.583 183.564 419.63 183.561C421.839 183.421 424.059 183.285 426.29 183.153C426.384 183.147 426.477 183.179 426.548 183.24C426.619 183.302 426.662 183.389 426.67 183.483C426.672 183.53 426.665 183.576 426.65 183.62C426.634 183.664 426.61 183.705 426.579 183.739C426.548 183.774 426.51 183.802 426.468 183.822C426.425 183.842 426.38 183.853 426.333 183.855C424.104 183.987 421.884 184.122 419.676 184.263L419.653 184.264C419.563 184.264 419.476 184.231 419.409 184.17C419.343 184.109 419.302 184.025 419.295 183.935ZM432.614 183.148C432.611 183.101 432.618 183.054 432.634 183.01C432.65 182.967 432.674 182.926 432.706 182.892C432.737 182.857 432.775 182.829 432.818 182.81C432.86 182.79 432.906 182.779 432.952 182.776C435.173 182.656 437.394 182.539 439.615 182.426C439.662 182.422 439.709 182.428 439.753 182.443C439.798 182.458 439.839 182.482 439.874 182.513C439.909 182.544 439.937 182.582 439.958 182.624C439.978 182.666 439.99 182.712 439.992 182.759C439.994 182.805 439.987 182.852 439.971 182.896C439.955 182.94 439.93 182.98 439.899 183.014C439.867 183.048 439.829 183.076 439.787 183.096C439.745 183.115 439.699 183.126 439.652 183.128C437.425 183.241 435.204 183.358 432.992 183.479C432.985 183.48 432.978 183.48 432.972 183.48C432.881 183.48 432.793 183.446 432.727 183.385C432.66 183.323 432.62 183.238 432.614 183.148ZM445.938 182.467C445.936 182.42 445.943 182.374 445.96 182.33C445.976 182.286 446 182.246 446.032 182.212C446.064 182.178 446.102 182.15 446.144 182.131C446.187 182.111 446.232 182.101 446.279 182.099C448.495 181.993 450.717 181.891 452.943 181.791C453.139 181.768 453.309 181.932 453.318 182.126C453.32 182.172 453.312 182.219 453.296 182.262C453.28 182.306 453.255 182.346 453.223 182.38C453.192 182.414 453.153 182.442 453.111 182.461C453.069 182.481 453.023 182.492 452.976 182.493C450.751 182.593 448.529 182.696 446.314 182.801L446.296 182.802C446.205 182.803 446.117 182.768 446.05 182.706C445.984 182.644 445.943 182.558 445.938 182.467ZM459.251 181.866C459.249 181.819 459.257 181.773 459.273 181.729C459.29 181.685 459.314 181.645 459.346 181.611C459.378 181.577 459.416 181.549 459.459 181.53C459.501 181.511 459.547 181.5 459.594 181.499C461.813 181.403 464.035 181.31 466.259 181.219C466.353 181.214 466.445 181.247 466.515 181.31C466.585 181.373 466.627 181.461 466.632 181.556C466.634 181.602 466.626 181.649 466.61 181.692C466.593 181.736 466.568 181.776 466.537 181.81C466.505 181.844 466.466 181.871 466.424 181.89C466.381 181.909 466.336 181.92 466.289 181.921C464.063 182.013 461.836 182.106 459.61 182.202C459.518 182.203 459.43 182.169 459.363 182.106C459.296 182.043 459.256 181.957 459.251 181.866ZM472.593 181.314C472.592 181.267 472.599 181.221 472.616 181.177C472.632 181.134 472.657 181.094 472.689 181.06C472.721 181.026 472.759 180.998 472.802 180.979C472.844 180.96 472.89 180.95 472.937 180.948C475.159 180.859 477.381 180.772 479.603 180.685C479.65 180.681 479.697 180.687 479.742 180.702C479.786 180.717 479.827 180.741 479.862 180.773C479.897 180.804 479.925 180.843 479.944 180.885C479.964 180.928 479.975 180.974 479.976 181.021C479.977 181.068 479.97 181.115 479.953 181.158C479.937 181.202 479.912 181.242 479.88 181.276C479.848 181.31 479.809 181.337 479.767 181.356C479.724 181.375 479.678 181.386 479.632 181.387C477.41 181.474 475.188 181.562 472.967 181.651L472.952 181.651C472.86 181.652 472.771 181.617 472.705 181.554C472.638 181.492 472.598 181.405 472.593 181.314ZM485.924 180.79C485.923 180.744 485.931 180.697 485.947 180.654C485.964 180.61 485.989 180.57 486.021 180.537C486.053 180.503 486.091 180.475 486.133 180.456C486.176 180.437 486.222 180.427 486.268 180.425L492.934 180.166C493.126 180.145 493.299 180.309 493.307 180.503C493.309 180.55 493.301 180.596 493.284 180.64C493.268 180.683 493.243 180.723 493.211 180.757C493.179 180.791 493.141 180.819 493.098 180.838C493.055 180.857 493.01 180.867 492.963 180.869L486.297 181.128L486.282 181.129C486.191 181.129 486.102 181.094 486.035 181.031C485.969 180.968 485.929 180.882 485.924 180.79ZM499.256 180.269C499.254 180.222 499.262 180.175 499.279 180.132C499.295 180.088 499.32 180.048 499.352 180.014C499.384 179.98 499.422 179.953 499.465 179.934C499.507 179.915 499.553 179.904 499.6 179.903C501.827 179.815 504.049 179.725 506.265 179.635C506.471 179.609 506.63 179.778 506.638 179.972C506.64 180.018 506.632 180.065 506.616 180.108C506.599 180.152 506.574 180.192 506.543 180.226C506.511 180.26 506.472 180.287 506.43 180.306C506.387 180.325 506.342 180.336 506.295 180.337C504.078 180.427 501.856 180.517 499.629 180.605L499.614 180.606C499.522 180.607 499.434 180.572 499.367 180.509C499.3 180.446 499.261 180.36 499.256 180.269ZM512.587 179.725C512.585 179.678 512.593 179.632 512.609 179.588C512.625 179.545 512.65 179.505 512.682 179.471C512.714 179.436 512.752 179.409 512.795 179.39C512.837 179.371 512.883 179.36 512.93 179.359C515.159 179.264 517.381 179.168 519.594 179.07C519.64 179.067 519.687 179.074 519.731 179.089C519.775 179.105 519.815 179.129 519.85 179.16C519.885 179.191 519.913 179.229 519.933 179.271C519.954 179.313 519.965 179.359 519.968 179.405C519.97 179.452 519.962 179.498 519.946 179.542C519.93 179.586 519.905 179.626 519.873 179.66C519.841 179.694 519.803 179.722 519.761 179.741C519.718 179.76 519.672 179.771 519.626 179.773C517.399 179.871 515.172 179.967 512.945 180.062C512.853 180.062 512.765 180.028 512.698 179.965C512.631 179.902 512.591 179.816 512.587 179.725ZM525.916 179.134C525.914 179.087 525.921 179.041 525.937 178.997C525.954 178.953 525.978 178.913 526.01 178.879C526.041 178.845 526.08 178.817 526.122 178.797C526.164 178.778 526.21 178.767 526.257 178.765C528.488 178.66 530.709 178.553 532.919 178.441C532.966 178.438 533.013 178.443 533.057 178.458C533.102 178.473 533.143 178.497 533.178 178.528C533.213 178.559 533.242 178.597 533.262 178.64C533.282 178.682 533.293 178.728 533.295 178.775C533.297 178.822 533.29 178.868 533.274 178.912C533.258 178.956 533.234 178.996 533.202 179.03C533.17 179.064 533.132 179.092 533.09 179.112C533.048 179.131 533.002 179.142 532.956 179.144C530.746 179.256 528.523 179.363 526.291 179.468L526.274 179.468C526.183 179.469 526.095 179.435 526.028 179.373C525.961 179.31 525.921 179.225 525.916 179.134ZM539.241 178.465C539.237 178.371 539.27 178.279 539.333 178.21C539.397 178.14 539.485 178.099 539.579 178.095C541.814 177.974 544.034 177.849 546.239 177.719C546.333 177.713 546.425 177.744 546.497 177.806C546.568 177.868 546.611 177.955 546.618 178.049C546.621 178.096 546.614 178.143 546.598 178.187C546.583 178.23 546.558 178.271 546.527 178.305C546.496 178.34 546.458 178.368 546.416 178.388C546.374 178.408 546.328 178.419 546.282 178.422C544.075 178.551 541.854 178.676 539.619 178.797L539.599 178.797C539.508 178.798 539.421 178.764 539.354 178.702C539.287 178.641 539.247 178.556 539.241 178.465ZM552.56 177.684C552.558 177.638 552.564 177.591 552.58 177.547C552.595 177.503 552.619 177.463 552.65 177.428C552.681 177.393 552.719 177.365 552.761 177.345C552.803 177.325 552.849 177.313 552.895 177.311C555.132 177.167 557.35 177.018 559.549 176.864C559.745 176.853 559.918 176.996 559.933 177.189C559.936 177.236 559.929 177.283 559.914 177.327C559.899 177.371 559.876 177.411 559.845 177.446C559.814 177.481 559.776 177.51 559.735 177.53C559.693 177.551 559.647 177.562 559.601 177.565C557.4 177.719 555.18 177.868 552.942 178.012L552.919 178.012C552.828 178.014 552.741 177.98 552.675 177.919C552.608 177.858 552.567 177.774 552.56 177.684ZM565.871 176.752C565.867 176.705 565.873 176.659 565.888 176.615C565.903 176.57 565.926 176.529 565.957 176.494C565.987 176.459 566.025 176.43 566.066 176.41C566.108 176.389 566.153 176.376 566.2 176.373C568.439 176.2 570.655 176.019 572.846 175.831C572.892 175.827 572.939 175.831 572.984 175.845C573.029 175.859 573.07 175.881 573.106 175.91C573.142 175.94 573.172 175.977 573.194 176.018C573.216 176.059 573.23 176.104 573.234 176.151C573.238 176.197 573.232 176.244 573.218 176.288C573.204 176.333 573.181 176.374 573.15 176.409C573.12 176.444 573.083 176.473 573.041 176.495C573 176.516 572.955 176.528 572.908 176.532C570.715 176.72 568.497 176.901 566.256 177.075L566.227 177.076C566.138 177.077 566.052 177.044 565.986 176.984C565.92 176.924 565.879 176.841 565.871 176.752ZM579.164 175.612C579.16 175.565 579.165 175.519 579.179 175.474C579.193 175.43 579.215 175.388 579.245 175.353C579.275 175.317 579.312 175.287 579.353 175.266C579.395 175.245 579.44 175.231 579.486 175.228C581.751 175.01 583.982 174.784 586.119 174.555C586.166 174.549 586.213 174.553 586.258 174.565C586.303 174.578 586.345 174.599 586.382 174.628C586.419 174.657 586.45 174.693 586.472 174.734C586.495 174.775 586.51 174.82 586.515 174.867C586.536 175.059 586.394 175.233 586.198 175.254C584.058 175.484 581.823 175.71 579.556 175.927C579.462 175.937 579.368 175.91 579.295 175.851C579.221 175.791 579.174 175.706 579.164 175.612ZM592.43 174.193C592.425 174.147 592.428 174.1 592.441 174.055C592.454 174.011 592.476 173.969 592.505 173.932C592.534 173.896 592.569 173.866 592.61 173.843C592.651 173.821 592.696 173.806 592.742 173.801C594.948 173.535 597.151 173.252 599.352 172.952C599.446 172.939 599.54 172.963 599.616 173.019C599.692 173.075 599.743 173.159 599.757 173.252C599.763 173.298 599.76 173.345 599.748 173.39C599.736 173.435 599.715 173.477 599.687 173.514C599.659 173.551 599.623 173.582 599.583 173.605C599.542 173.628 599.498 173.643 599.451 173.649C597.246 173.949 595.039 174.233 592.83 174.499C592.736 174.511 592.642 174.486 592.567 174.429C592.492 174.371 592.443 174.287 592.43 174.193ZM605.648 172.392C605.641 172.346 605.643 172.299 605.654 172.253C605.665 172.208 605.685 172.166 605.713 172.128C605.741 172.091 605.776 172.059 605.816 172.035C605.856 172.011 605.9 171.995 605.946 171.989C608.14 171.648 610.33 171.282 612.515 170.892C612.711 170.859 612.897 170.984 612.933 171.175C612.941 171.22 612.94 171.267 612.93 171.313C612.92 171.358 612.901 171.401 612.874 171.439C612.847 171.477 612.813 171.51 612.774 171.534C612.734 171.559 612.69 171.576 612.645 171.584C610.453 171.975 608.258 172.341 606.059 172.684C606.04 172.686 606.021 172.688 606.002 172.688C605.917 172.688 605.835 172.659 605.77 172.605C605.705 172.551 605.662 172.475 605.648 172.392ZM618.775 170.049C618.766 170.003 618.766 169.956 618.774 169.91C618.783 169.865 618.801 169.821 618.827 169.782C618.853 169.744 618.886 169.71 618.924 169.684C618.963 169.659 619.007 169.641 619.052 169.632C621.223 169.182 623.387 168.695 625.541 168.171C625.633 168.148 625.73 168.162 625.811 168.21C625.893 168.258 625.952 168.336 625.976 168.428C625.987 168.473 625.989 168.52 625.982 168.566C625.975 168.611 625.958 168.656 625.934 168.695C625.91 168.735 625.878 168.769 625.84 168.796C625.802 168.823 625.759 168.843 625.714 168.853C623.552 169.379 621.38 169.868 619.201 170.319C619.155 170.33 619.108 170.331 619.062 170.322C619.015 170.314 618.971 170.297 618.932 170.272C618.892 170.247 618.858 170.214 618.831 170.176C618.804 170.138 618.785 170.094 618.775 170.049ZM631.718 166.896C631.705 166.851 631.7 166.805 631.705 166.758C631.71 166.712 631.724 166.667 631.747 166.627C631.769 166.586 631.8 166.55 631.836 166.521C631.873 166.492 631.914 166.471 631.959 166.458C634.082 165.842 636.185 165.164 638.268 164.424C638.357 164.392 638.455 164.397 638.541 164.436C638.626 164.475 638.694 164.546 638.728 164.634C638.744 164.678 638.751 164.724 638.749 164.771C638.747 164.817 638.735 164.863 638.715 164.905C638.695 164.947 638.667 164.984 638.632 165.015C638.598 165.046 638.557 165.07 638.513 165.085C636.417 165.829 634.3 166.512 632.164 167.133C632.13 167.142 632.096 167.147 632.061 167.147C631.984 167.147 631.91 167.123 631.848 167.078C631.786 167.033 631.74 166.969 631.718 166.896ZM644.221 162.433C644.202 162.391 644.191 162.346 644.189 162.299C644.187 162.253 644.195 162.206 644.211 162.163C644.227 162.119 644.252 162.08 644.284 162.046C644.316 162.012 644.354 161.985 644.397 161.966C646.517 161.007 648.474 159.987 650.212 158.936C650.293 158.887 650.39 158.872 650.482 158.893C650.574 158.915 650.655 158.972 650.706 159.051C650.73 159.09 650.747 159.134 650.754 159.18C650.762 159.226 650.76 159.273 650.749 159.318C650.738 159.363 650.718 159.406 650.691 159.443C650.663 159.48 650.628 159.512 650.588 159.535C648.826 160.601 646.844 161.634 644.697 162.605C644.611 162.644 644.513 162.648 644.424 162.616C644.335 162.584 644.263 162.518 644.221 162.433ZM655.42 155.632C655.388 155.598 655.364 155.558 655.348 155.515C655.332 155.471 655.325 155.425 655.327 155.378C655.329 155.332 655.341 155.287 655.361 155.245C655.381 155.203 655.41 155.166 655.445 155.135C657.14 153.629 658.535 152.019 659.591 150.348C659.643 150.269 659.723 150.212 659.815 150.191C659.907 150.17 660.004 150.186 660.085 150.235C660.125 150.259 660.16 150.29 660.187 150.328C660.215 150.365 660.234 150.408 660.245 150.453C660.256 150.498 660.257 150.545 660.25 150.591C660.242 150.636 660.225 150.68 660.201 150.719C659.109 152.445 657.671 154.106 655.926 155.656C655.855 155.719 655.763 155.752 655.668 155.747C655.573 155.743 655.484 155.701 655.42 155.632ZM662.298 144.863C662.253 144.852 662.211 144.832 662.173 144.804C662.136 144.776 662.105 144.741 662.081 144.701C662.057 144.661 662.042 144.617 662.036 144.571C662.029 144.525 662.032 144.478 662.044 144.433C662.61 142.348 662.992 140.216 663.183 138.064C663.188 138.017 663.201 137.972 663.223 137.931C663.245 137.89 663.275 137.853 663.311 137.823C663.347 137.794 663.388 137.771 663.433 137.758C663.478 137.744 663.525 137.739 663.571 137.744C663.768 137.761 663.915 137.931 663.897 138.125C663.703 140.318 663.314 142.489 662.737 144.614C662.711 144.705 662.651 144.782 662.569 144.829C662.487 144.876 662.389 144.888 662.298 144.863ZM663.171 131.612C662.972 129.464 662.593 127.336 662.037 125.251C662.026 125.206 662.023 125.159 662.03 125.113C662.036 125.067 662.052 125.023 662.076 124.983C662.1 124.943 662.131 124.908 662.169 124.88C662.206 124.853 662.249 124.833 662.294 124.822C662.385 124.797 662.483 124.81 662.565 124.857C662.646 124.905 662.706 124.982 662.731 125.074C663.297 127.196 663.683 129.363 663.885 131.55C663.889 131.599 663.883 131.649 663.867 131.695C663.851 131.742 663.825 131.785 663.791 131.821C663.758 131.857 663.717 131.885 663.671 131.905C663.626 131.924 663.577 131.934 663.528 131.933C663.439 131.933 663.353 131.901 663.287 131.842C663.221 131.782 663.18 131.7 663.171 131.612ZM659.897 119.133C659.057 117.202 658.05 115.258 656.907 113.356C656.883 113.316 656.868 113.272 656.861 113.226C656.855 113.181 656.857 113.134 656.869 113.089C656.881 113.044 656.902 113.002 656.93 112.965C656.958 112.929 656.994 112.898 657.034 112.875C657.116 112.827 657.213 112.814 657.305 112.837C657.396 112.86 657.475 112.918 657.525 112.999C658.684 114.927 659.704 116.897 660.556 118.857C660.575 118.9 660.584 118.946 660.585 118.992C660.585 119.039 660.576 119.085 660.559 119.128C660.541 119.17 660.515 119.209 660.482 119.242C660.449 119.275 660.41 119.301 660.367 119.318C660.28 119.356 660.182 119.357 660.094 119.322C660.006 119.288 659.935 119.219 659.897 119.133ZM653.226 107.964C651.896 106.233 650.483 104.566 648.992 102.969C648.961 102.935 648.936 102.896 648.92 102.852C648.904 102.809 648.897 102.762 648.899 102.716C648.901 102.67 648.913 102.624 648.933 102.582C648.953 102.541 648.981 102.503 649.015 102.472C649.086 102.409 649.179 102.377 649.273 102.381C649.368 102.385 649.457 102.426 649.522 102.494C651.028 104.107 652.456 105.792 653.8 107.542C653.828 107.579 653.849 107.621 653.861 107.665C653.872 107.71 653.875 107.757 653.868 107.803C653.862 107.849 653.846 107.893 653.822 107.933C653.798 107.972 653.766 108.007 653.729 108.034C653.666 108.08 653.591 108.105 653.513 108.104C653.458 108.105 653.403 108.092 653.354 108.068C653.304 108.044 653.26 108.008 653.226 107.964ZM644.316 98.361C642.69 96.8872 641.011 95.4726 639.284 94.1201C639.247 94.0918 639.216 94.0563 639.193 94.0159C639.171 93.9755 639.156 93.931 639.151 93.8849C639.146 93.8388 639.15 93.7922 639.163 93.7477C639.176 93.7032 639.198 93.6618 639.227 93.6259C639.288 93.5529 639.374 93.5063 639.468 93.4959C639.562 93.4855 639.657 93.5123 639.731 93.5704C641.502 94.9576 643.209 96.3959 644.803 97.8447C644.838 97.8757 644.866 97.9133 644.885 97.9553C644.905 97.9973 644.916 98.0428 644.918 98.0891C644.92 98.1354 644.912 98.1816 644.896 98.225C644.879 98.2684 644.855 98.3081 644.823 98.3417C644.789 98.3774 644.748 98.4059 644.703 98.4252C644.658 98.4446 644.609 98.4545 644.56 98.4544C644.469 98.4549 644.382 98.4216 644.316 98.361ZM633.963 90.2257C632.146 88.983 630.293 87.7929 628.407 86.6569C628.367 86.6333 628.332 86.602 628.305 86.5647C628.277 86.5275 628.257 86.485 628.246 86.4399C628.235 86.3948 628.233 86.348 628.241 86.3022C628.248 86.2563 628.265 86.2125 628.289 86.1732C628.34 86.0933 628.42 86.0365 628.513 86.0149C628.605 85.9933 628.702 86.0087 628.783 86.0577C630.705 87.2159 632.586 88.424 634.374 89.6486C634.412 89.6746 634.445 89.708 634.471 89.7469C634.496 89.7857 634.513 89.8293 634.522 89.875C634.53 89.9206 634.529 89.9675 634.519 90.0128C634.509 90.0581 634.49 90.101 634.463 90.1388C634.407 90.2156 634.324 90.2676 634.231 90.2839C634.137 90.3001 634.041 90.2792 633.963 90.2257ZM622.657 83.3943C620.71 82.3557 618.738 81.3637 616.744 80.4191C616.702 80.3996 616.664 80.3718 616.633 80.3375C616.601 80.3031 616.577 80.2629 616.562 80.2191C616.546 80.1754 616.539 80.1289 616.542 80.0826C616.545 80.0362 616.556 79.9908 616.577 79.949C616.619 79.8645 616.693 79.7999 616.783 79.7693C616.872 79.7387 616.97 79.7444 617.056 79.7853C619.06 80.7348 621.042 81.732 622.999 82.7762C623.04 82.7976 623.077 82.8271 623.107 82.8629C623.136 82.8987 623.158 82.9401 623.172 82.9845C623.185 83.029 623.189 83.0757 623.185 83.1219C623.18 83.1681 623.165 83.2128 623.143 83.2535C623.112 83.3093 623.066 83.3558 623.01 83.3881C622.955 83.4203 622.892 83.4372 622.828 83.437C622.768 83.4367 622.71 83.422 622.657 83.3943ZM610.695 77.7155C608.658 76.8581 606.603 76.0429 604.532 75.2703C604.489 75.2544 604.448 75.2301 604.414 75.1986C604.38 75.1671 604.353 75.1291 604.333 75.0868C604.314 75.0446 604.303 74.9989 604.302 74.9525C604.3 74.906 604.308 74.8598 604.325 74.8163C604.36 74.7287 604.428 74.6584 604.514 74.6203C604.601 74.5822 604.699 74.5795 604.787 74.6127C606.867 75.3894 608.931 76.2083 610.978 77.0688C611.021 77.0864 611.06 77.1124 611.093 77.1453C611.126 77.1782 611.151 77.2173 611.169 77.2603C611.186 77.3034 611.195 77.3494 611.195 77.3959C611.194 77.4423 611.184 77.4882 611.166 77.5308C611.138 77.5945 611.091 77.6486 611.033 77.6864C610.974 77.7242 610.906 77.7441 610.836 77.7437C610.788 77.7438 610.74 77.7342 610.695 77.7155ZM598.272 73.0694C596.171 72.3757 594.057 71.7208 591.931 71.1051C591.887 71.0925 591.845 71.0712 591.808 71.0423C591.772 71.0135 591.741 70.9777 591.719 70.937C591.696 70.8963 591.682 70.8515 591.677 70.8053C591.672 70.759 591.676 70.7122 591.689 70.6676C591.717 70.5772 591.78 70.5015 591.863 70.4571C591.946 70.4126 592.044 70.4029 592.135 70.4302C594.268 71.0489 596.391 71.7063 598.501 72.4021C598.689 72.4641 598.789 72.6637 598.727 72.848C598.702 72.9184 598.656 72.9792 598.595 73.0222C598.534 73.0651 598.461 73.0879 598.387 73.0875C598.348 73.0878 598.309 73.0816 598.272 73.0694ZM585.521 69.3661C583.374 68.8233 581.217 68.3159 579.053 67.8441C579.008 67.8346 578.965 67.8162 578.926 67.7899C578.888 67.7636 578.855 67.73 578.83 67.691C578.804 67.6519 578.787 67.6083 578.779 67.5625C578.77 67.5168 578.771 67.4698 578.781 67.4244C578.803 67.3327 578.86 67.2533 578.94 67.2034C579.02 67.1534 579.117 67.1368 579.209 67.1571C581.381 67.6308 583.545 68.1401 585.7 68.6848C585.745 68.6958 585.788 68.7156 585.825 68.7431C585.863 68.7707 585.894 68.8054 585.918 68.8453C585.942 68.8851 585.958 68.9294 585.965 68.9754C585.972 69.0214 585.969 69.0683 585.958 69.1134C585.937 69.1895 585.892 69.2566 585.829 69.3042C585.766 69.3519 585.69 69.3775 585.611 69.377C585.581 69.3769 585.55 69.3733 585.521 69.3661ZM572.538 66.5305C570.358 66.1274 568.173 65.7575 565.982 65.421C565.936 65.4144 565.892 65.3987 565.852 65.3748C565.812 65.351 565.777 65.3195 565.749 65.2821C565.721 65.2448 565.701 65.2023 565.69 65.1571C565.679 65.112 565.677 65.065 565.684 65.019C565.7 64.926 565.752 64.843 565.828 64.7882C565.905 64.7333 566.001 64.711 566.094 64.726C568.292 65.0641 570.505 65.4387 572.671 65.8396C572.866 65.8758 572.994 66.0597 572.957 66.2504C572.948 66.2964 572.93 66.34 572.904 66.379C572.878 66.4179 572.844 66.4513 572.805 66.4773C572.766 66.5034 572.723 66.5214 572.677 66.5306C572.631 66.5397 572.583 66.5397 572.538 66.5305ZM559.395 64.5079C557.195 64.2358 554.99 63.995 552.783 63.7855C552.737 63.7816 552.691 63.7686 552.65 63.7471C552.609 63.7257 552.572 63.6963 552.542 63.6606C552.512 63.6249 552.489 63.5837 552.475 63.5392C552.462 63.4948 552.456 63.448 552.461 63.4016C552.471 63.3079 552.518 63.2221 552.591 63.1629C552.665 63.1037 552.758 63.076 552.852 63.0857C555.066 63.2953 557.278 63.5367 559.485 63.8097C559.681 63.8338 559.82 64.0097 559.796 64.2024C559.79 64.2488 559.774 64.2935 559.751 64.334C559.727 64.3744 559.696 64.4099 559.659 64.4382C559.622 64.4666 559.579 64.4874 559.534 64.4993C559.489 64.5113 559.441 64.5142 559.395 64.5079ZM546.152 63.2503C543.939 63.1026 541.725 62.9847 539.509 62.8965C539.462 62.8952 539.416 62.8846 539.374 62.8655C539.331 62.8464 539.293 62.8191 539.261 62.7852C539.229 62.7512 539.204 62.7113 539.187 62.6677C539.171 62.6241 539.163 62.5777 539.165 62.5311C539.173 62.3367 539.343 62.1713 539.538 62.1939C541.764 62.2824 544.006 62.4015 546.201 62.5484C546.248 62.5511 546.293 62.5629 546.335 62.5832C546.377 62.6035 546.415 62.6318 546.445 62.6666C546.476 62.7014 546.5 62.742 546.515 62.786C546.531 62.83 546.537 62.8766 546.534 62.9231C546.531 62.9697 546.518 63.0151 546.497 63.0568C546.476 63.0984 546.447 63.1355 546.411 63.1659C546.375 63.1963 546.334 63.2193 546.29 63.2338C546.245 63.2483 546.199 63.2539 546.152 63.2503ZM532.786 62.7198C532.88 62.7207 532.97 62.6848 533.037 62.6198C533.104 62.5548 533.143 62.4659 533.145 62.3725C533.145 62.2784 533.108 62.1879 533.042 62.1211C532.975 62.0542 532.885 62.0164 532.791 62.016C531.674 62.0013 530.557 61.994 529.439 61.9939C529.345 61.993 529.254 62.0296 529.187 62.0955C529.12 62.1615 529.082 62.2514 529.081 62.3456C529.081 62.54 529.241 62.6973 529.439 62.6973C530.555 62.6973 531.671 62.7048 532.786 62.7198Z" fill="#325899"/>
<path d="M534.274 62.9259L523.254 63.6149L526.55 58.1228L534.274 62.9259Z" fill="#244885"/>
<path d="M524.119 65.3426L509.748 61.243L527.543 60.395L524.119 65.3426ZM509.734 61.2261L531.817 51.0906L528.682 56.1199L509.734 61.2261Z" fill="#3A67B3"/>
<path d="M509.748 61.2429L527.582 60.442L534.273 62.9259L528.682 56.0402L509.748 61.2429Z" fill="#295399"/>
<path d="M474.202 375.813C580.417 375.813 666.52 368.566 666.52 359.627C666.52 350.688 580.417 343.441 474.202 343.441C367.988 343.441 281.885 350.688 281.885 359.627C281.885 368.566 367.988 375.813 474.202 375.813Z" fill="#E0EAFF"/>
<path d="M614.956 169.997V352.66H324.625V169.997H324.746L324.819 169.925C400.32 95.9706 455.834 42.1243 462.069 36.6865C465.646 33.5688 468.522 32.8923 470.698 33.0131C474.975 33.2791 477.537 36.1308 478.02 36.6865L613.264 168.475L613.627 168.814L614.836 169.998H614.956V169.997Z" fill="#6CB6FF"/>
<path d="M349.061 112.249L573.273 93.937L588.182 276.489L363.969 294.8L349.061 112.249Z" fill="#DDE6F0"/>
<path d="M363.148 104.935H588.103V288.091H363.148V104.935Z" fill="white"/>
<path d="M614.871 169.998V352.223H614.386L469.09 352.657H467.061L324.537 352.223V169.998H324.663L324.732 169.923C335.552 179.148 386.198 221.968 425.035 250.747C426.699 251.982 428.344 253.192 429.963 254.371C430.297 254.61 430.637 254.85 430.952 255.096C447.847 267.371 461.811 276.288 468.075 277.473C474.358 276.288 488.329 267.346 505.267 255.071C505.583 254.825 505.898 254.611 506.238 254.371C507.763 253.262 509.307 252.128 510.876 250.962C552.649 220.04 608.236 172.689 613.176 168.474L613.542 168.814L614.752 169.999H614.871V169.998Z" fill="#6CB6FF"/>
<path d="M614.871 343.57V352.222H614.386L469.09 352.657H467.061L324.537 352.222V339.878L425.035 250.748C426.699 251.983 428.344 253.192 429.963 254.371C430.297 254.611 430.637 254.85 430.952 255.096C447.847 267.371 461.811 276.288 468.075 277.473C474.358 276.288 488.329 267.347 505.267 255.071C505.583 254.825 505.898 254.611 506.238 254.372C507.763 253.262 509.307 252.128 510.876 250.962C545.529 281.84 580.194 312.692 614.871 343.57Z" fill="#62ACF5"/>
<path d="M614.87 352.66H324.539V349.469L430.951 255.093L431.676 254.416L431.724 254.392L468.121 255.407L504.519 254.392L504.543 254.416L505.268 255.069L614.387 352.224C614.556 352.37 614.7 352.515 614.87 352.66Z" fill="#6CB6FF"/>
<path d="M389.714 75.6812C389.912 76.0007 389.976 76.3863 389.883 76.7658C389.825 77.0096 389.703 77.2336 389.53 77.4147C389.356 77.5959 389.138 77.7276 388.897 77.7964L384.118 79.1901C383.878 79.2617 383.623 79.2681 383.379 79.2085C383.136 79.149 382.913 79.0256 382.732 78.8512C382.551 78.6789 382.418 78.4613 382.348 78.2207C382.277 77.9801 382.272 77.7252 382.333 77.4821L383.516 72.6468C383.574 72.4029 383.696 72.1789 383.869 71.9978C384.042 71.8167 384.261 71.6849 384.502 71.6162C384.742 71.5445 384.997 71.5382 385.241 71.5977C385.484 71.6573 385.707 71.7806 385.887 71.955L389.483 75.3967C389.574 75.4836 389.651 75.579 389.714 75.6812ZM383.46 77.9775C383.477 78.0057 383.497 78.0266 383.51 78.0391C383.548 78.0753 383.652 78.155 383.803 78.1107L388.582 76.7171C388.633 76.7027 388.679 76.6749 388.716 76.6366C388.752 76.5982 388.778 76.5507 388.79 76.499C388.803 76.4476 388.802 76.3936 388.787 76.3427C388.773 76.2918 388.744 76.2458 388.705 76.2096L385.109 72.768C385.071 72.7308 385.024 72.7045 384.972 72.6919C384.921 72.6793 384.867 72.6808 384.816 72.6963C384.765 72.7106 384.718 72.7383 384.682 72.7766C384.645 72.8149 384.619 72.8624 384.607 72.914L383.425 77.7493C383.415 77.7878 383.413 77.8278 383.419 77.8671C383.425 77.9063 383.439 77.9439 383.46 77.9775Z" fill="#1F4380"/>
<path d="M631.843 273.365C632.041 273.685 632.105 274.07 632.012 274.45C631.954 274.694 631.832 274.918 631.659 275.099C631.485 275.28 631.267 275.412 631.026 275.481L626.247 276.874C626.007 276.946 625.752 276.952 625.508 276.893C625.265 276.833 625.042 276.71 624.861 276.535C624.679 276.363 624.547 276.146 624.476 275.905C624.406 275.664 624.401 275.409 624.462 275.166L625.645 270.331C625.703 270.087 625.825 269.863 625.998 269.682C626.171 269.501 626.39 269.369 626.631 269.3C626.871 269.229 627.126 269.222 627.37 269.282C627.613 269.342 627.836 269.465 628.016 269.639L631.613 273.081C631.702 273.168 631.78 273.263 631.843 273.365ZM625.589 275.662C625.606 275.69 625.626 275.711 625.639 275.723C625.677 275.76 625.781 275.839 625.932 275.795L630.711 274.401C630.762 274.387 630.808 274.359 630.845 274.321C630.881 274.282 630.907 274.235 630.919 274.183C630.933 274.132 630.932 274.078 630.917 274.027C630.902 273.976 630.874 273.93 630.835 273.894L627.238 270.452C627.2 270.415 627.153 270.389 627.102 270.376C627.05 270.363 626.996 270.365 626.945 270.381C626.894 270.395 626.848 270.423 626.811 270.461C626.774 270.499 626.749 270.547 626.736 270.598L625.554 275.434C625.544 275.472 625.542 275.512 625.548 275.551C625.554 275.591 625.568 275.628 625.589 275.662Z" fill="url(#paint0_linear_962_16)"/>
<path d="M303.667 233.66L305.502 231.825C305.7 231.624 305.811 231.354 305.81 231.072C305.809 230.79 305.697 230.52 305.498 230.321C305.298 230.122 305.028 230.01 304.747 230.009C304.465 230.008 304.194 230.118 303.994 230.316L302.158 232.152L300.323 230.316C300.122 230.118 299.851 230.008 299.57 230.009C299.288 230.01 299.018 230.122 298.819 230.321C298.62 230.52 298.507 230.79 298.506 231.072C298.505 231.354 298.616 231.624 298.814 231.825L300.649 233.66L298.817 235.493C298.668 235.642 298.566 235.832 298.525 236.039C298.483 236.246 298.504 236.461 298.585 236.656C298.666 236.851 298.803 237.017 298.978 237.135C299.154 237.252 299.36 237.314 299.571 237.314C299.711 237.314 299.85 237.287 299.98 237.233C300.109 237.18 300.227 237.101 300.325 237.002L302.158 235.169L303.99 237.002C304.089 237.101 304.207 237.18 304.336 237.233C304.465 237.287 304.604 237.314 304.744 237.314C304.955 237.314 305.162 237.252 305.337 237.135C305.513 237.017 305.65 236.851 305.731 236.656C305.811 236.461 305.832 236.246 305.791 236.039C305.75 235.832 305.648 235.642 305.498 235.493L303.667 233.66Z" fill="#6CB6FF"/>
<path d="M553.166 78.6569L555.001 76.8214C555.199 76.6208 555.31 76.3502 555.309 76.0684C555.308 75.7867 555.195 75.5168 554.996 75.3175C554.797 75.1183 554.527 75.006 554.245 75.0051C553.964 75.0042 553.693 75.1147 553.492 75.3126L551.657 77.1482L549.821 75.3126C549.722 75.2135 549.605 75.1349 549.475 75.0813C549.346 75.0276 549.207 75 549.067 75C548.927 75 548.788 75.0276 548.659 75.0813C548.529 75.1349 548.412 75.2135 548.313 75.3126C548.214 75.4117 548.135 75.5293 548.081 75.6587C548.028 75.7881 548 75.9269 548 76.067C548 76.2071 548.028 76.3459 548.081 76.4753C548.135 76.6047 548.214 76.7223 548.313 76.8214L550.148 78.6569L548.316 80.4892C548.166 80.6383 548.065 80.8284 548.023 81.0354C547.982 81.2425 548.003 81.4571 548.084 81.6522C548.164 81.8472 548.301 82.0139 548.477 82.1311C548.652 82.2483 548.859 82.3108 549.07 82.3106C549.21 82.3108 549.349 82.2833 549.478 82.2296C549.608 82.176 549.725 82.0972 549.824 81.9979L551.656 80.1656L553.489 81.9979C553.588 82.0972 553.705 82.176 553.835 82.2296C553.964 82.2833 554.103 82.3108 554.243 82.3106C554.454 82.3108 554.66 82.2483 554.836 82.1311C555.012 82.0139 555.148 81.8472 555.229 81.6522C555.31 81.4571 555.331 81.2425 555.29 81.0354C555.248 80.8284 555.147 80.6383 554.997 80.4892L553.166 78.6569Z" fill="#6CB6FF"/>
<path d="M301.876 122.174C299.726 122.174 297.977 120.425 297.977 118.275C297.977 116.125 299.726 114.376 301.876 114.376C304.026 114.376 305.775 116.125 305.775 118.275C305.775 120.425 304.026 122.174 301.876 122.174ZM301.876 115.596C301.166 115.597 300.485 115.879 299.982 116.381C299.48 116.884 299.198 117.565 299.197 118.275C299.198 118.985 299.48 119.666 299.982 120.168C300.485 120.671 301.166 120.953 301.876 120.954C302.586 120.953 303.267 120.671 303.769 120.168C304.271 119.666 304.554 118.985 304.555 118.275C304.554 117.565 304.271 116.884 303.769 116.381C303.267 115.879 302.586 115.597 301.876 115.596Z" fill="url(#paint1_linear_962_16)"/>
<path d="M642.032 141.642C639.882 141.642 638.133 139.892 638.133 137.742C638.133 135.592 639.882 133.843 642.032 133.843C644.182 133.843 645.931 135.593 645.931 137.742C645.931 139.892 644.182 141.642 642.032 141.642ZM642.032 135.063C641.322 135.064 640.641 135.346 640.139 135.849C639.636 136.351 639.354 137.032 639.353 137.742C639.354 138.452 639.636 139.133 640.139 139.635C640.641 140.138 641.322 140.42 642.032 140.421C642.742 140.42 643.423 140.138 643.925 139.635C644.428 139.133 644.71 138.452 644.711 137.742C644.71 137.032 644.428 136.351 643.925 135.849C643.423 135.346 642.742 135.064 642.032 135.063Z" fill="url(#paint2_linear_962_16)"/>
<path d="M600.075 244.455C597.476 241.097 592.79 238.909 588.898 240.607C587.803 241.086 586.828 241.838 585.688 242.18C584.85 242.436 583.967 242.454 583.095 242.562C579.834 242.961 576.75 244.654 574.658 247.19C572.573 249.727 571.495 253.078 571.729 256.356C571.757 256.761 571.803 257.177 571.677 257.57C571.558 257.952 571.278 258.266 571.01 258.562C567.978 261.863 564.307 265.191 563.88 269.649C563.714 271.342 564.051 273.097 563.554 274.727C562.552 278.033 558.738 279.435 556.281 281.869C553.836 284.292 552.747 288.008 553.494 291.371C553.716 292.38 554.167 293.435 555.079 293.925C556.127 294.489 557.41 294.124 558.578 293.902C559.03 293.814 559.487 293.755 559.947 293.725C560.699 293.685 561.446 293.742 562.152 293.942C562.594 294.056 563.017 294.235 563.406 294.472C565.321 295.64 566.205 298.108 567.938 299.431C568.231 299.658 568.553 299.846 568.896 299.989C569.927 300.417 571.005 300.365 572.047 300.023L572.053 300.018C572.128 299.995 572.202 299.972 572.276 299.938C573.125 299.63 573.946 299.129 574.693 298.547C574.824 298.445 574.955 298.342 575.086 298.234C575.396 297.973 575.695 297.699 575.981 297.413C577.642 295.77 579.109 293.941 580.353 291.963C581.316 290.43 582.183 288.766 583.602 287.643C585.597 286.064 588.316 285.836 590.853 285.676C593.794 281.726 596.273 277.69 597.516 273.529C598.599 269.893 598.736 266.159 597.391 262.289V262.283C597.22 261.776 597.026 261.278 596.809 260.79C597.141 260.61 597.467 260.418 597.784 260.214C600.252 258.629 602.6 256.115 602.857 253.322C603.148 250.166 602.019 246.963 600.075 244.455ZM559.799 280.496C559.691 280.245 562.649 279.51 564.103 277.002C564.803 275.793 564.616 275.098 564.917 272.778C565.197 270.612 565.67 266.919 567.676 263.926C569.506 261.196 572.065 259.862 572.145 259.948C572.213 260.027 570.327 261.367 568.531 264.012C567.842 265.021 566.65 266.811 566.052 269.37C565.596 271.331 566.046 271.337 565.607 273.634C565.214 275.669 564.758 278.04 562.842 279.482C561.475 280.513 559.879 280.672 559.799 280.496ZM601.563 254.019C601.444 254.019 601.483 253.062 601.238 251.585C601.044 250.389 600.771 248.69 599.836 246.986C599.488 246.353 598.263 244.193 595.772 242.921C594.381 242.215 592.984 241.981 592.146 241.838C590.568 241.576 589.496 241.656 589.49 241.57C589.49 241.456 591.451 240.932 593.606 241.354C596.649 241.947 598.497 244.101 599.346 245.087C600.166 246.045 601.512 247.652 601.888 250.069C602.207 252.098 601.734 254.025 601.563 254.019Z" fill="#173456"/>
<path d="M574.308 325.791C574.308 325.791 556.008 328.498 556.32 328.316C556.633 328.135 589.813 345.152 589.813 345.152L622.506 330.504L606.296 325.791H574.308Z" fill="#1A3A68"/>
<path d="M581.409 356.101C581.321 356.12 581.234 356.139 581.15 356.158L580.99 356.193C576.592 357.164 573.69 357.655 573.69 357.655C573.69 357.655 573.488 357.746 573.119 357.907C569.512 359.476 549.994 367.591 550.128 359.571C550.242 352.529 562.611 350.819 567.63 350.415C567.649 350.411 567.665 350.412 567.68 350.412C568.933 350.313 569.714 350.294 569.714 350.294C569.714 350.294 571.922 348.744 575.441 346.459C575.586 346.363 575.735 346.264 575.883 346.169C587.476 338.64 612.07 323.822 620.102 327.965V327.969C620.19 328.011 620.278 328.06 620.361 328.11C620.365 328.106 620.372 328.11 620.376 328.118C620.464 328.171 620.548 328.228 620.632 328.285C620.704 328.331 620.777 328.384 620.845 328.445C620.872 328.46 620.898 328.483 620.925 328.506C621.02 328.586 621.115 328.67 621.203 328.757C621.203 328.761 621.207 328.761 621.207 328.761C621.302 328.856 621.393 328.955 621.481 329.058C621.564 329.157 621.641 329.26 621.713 329.366C621.877 329.595 622.018 329.846 622.14 330.117C622.261 330.391 622.372 330.661 622.463 330.931C622.631 331.415 622.757 331.891 622.833 332.367C624.862 344.851 595.744 352.91 581.409 356.101Z" fill="#F9CBCB"/>
<path d="M581.939 357.495L581.15 356.158L580.807 355.576C580.803 355.572 580.803 355.568 580.803 355.568L575.441 346.459L574.672 345.152C586.276 337.616 611.895 323.597 620.094 327.954L620.098 327.958C620.189 328.004 620.277 328.053 620.36 328.11C620.364 328.106 620.372 328.11 620.376 328.118C620.463 328.171 620.547 328.228 620.631 328.285C620.703 328.331 620.776 328.384 620.844 328.445C620.871 328.46 620.897 328.483 620.924 328.506C621.019 328.586 621.114 328.67 621.202 328.757C621.202 328.761 621.206 328.761 621.206 328.761C621.301 328.856 621.392 328.955 621.48 329.058C621.564 329.157 621.64 329.26 621.712 329.366C621.876 329.595 622.017 329.846 622.139 330.116C622.26 330.391 622.371 330.661 622.462 330.931C622.63 331.415 622.756 331.891 622.832 332.367C624.938 344.996 596.28 354.303 581.939 357.495Z" fill="#1F4380"/>
<path d="M569.714 350.329C569.714 350.329 545.782 350.636 546.809 360.565C547.913 371.232 573.69 357.692 573.69 357.692C573.69 357.692 560.827 362.808 560.091 356.775C559.38 350.937 569.714 350.329 569.714 350.329Z" fill="#173456"/>
<path d="M606.797 300.785C602.032 307.477 606.294 325.791 606.294 325.791H574.308C575.191 324.537 577.682 308.752 572.072 300.05C563.02 286.012 572.773 275.098 572.773 275.098L586.075 272.679L586.924 268.444L587.507 265.527L587.644 264.849H593.627L593.844 266.121L594.313 268.894L595.006 272.984L607.234 275.638C607.234 275.638 617.707 285.456 606.797 300.785Z" fill="#F9CBCB"/>
<path d="M606.793 300.789C602.027 307.479 606.295 325.791 606.295 325.791H574.307C575.058 324.724 576.974 313.111 574.062 304.322C573.554 302.783 572.898 301.341 572.068 300.046C563.017 286.011 572.767 275.098 572.767 275.098L586.077 272.675C585.097 279.426 594.716 280.887 595.005 272.981L607.231 275.64C607.231 275.64 617.707 285.451 606.793 300.789Z" fill="#3EFFDA"/>
<path d="M574.306 325.791C575.057 324.724 576.973 313.111 574.061 304.322C580.368 302.489 579.303 319.997 589.81 325.791H574.306Z" fill="#C4626E"/>
<path d="M624.19 314.706C623.858 316.778 622.398 319.026 620.237 321.247C614.711 326.922 603.455 326.668 595.734 328.732L594.928 324.618C594.928 324.618 608.712 320.731 611.676 315.895C611.992 315.379 612.21 314.898 612.298 314.47C613.303 309.651 607.724 303.626 607.724 303.626L607.13 275.652C607.13 275.652 625.869 304.168 624.19 314.706Z" fill="#F9CBCB"/>
<path d="M624.375 314.704C624.017 316.654 622.848 319.103 620.902 321.239C620.801 321.347 620.666 321.416 620.52 321.434C620.374 321.452 620.226 321.419 620.102 321.339L617.733 319.8L611.522 315.775C611.838 315.261 611.997 314.743 612.085 314.312C613.09 309.495 604.152 302.042 604.152 302.042L606.3 275.479C609.18 275.349 613.909 281.918 617.836 289.973L617.847 290.003C622.097 298.717 625.395 309.156 624.375 314.704Z" fill="#3EFFDA"/>
<path d="M585.55 324.687L585.69 327.423C585.937 327.338 585.916 326.979 585.661 326.926C578.778 325.504 567.469 327.471 561.963 322.794C558.569 319.908 556.716 316.356 556.279 313.619C554.6 303.081 572.878 275.119 572.878 275.119L572.202 303.057C572.202 303.057 566.624 309.083 567.629 313.901C567.804 314.758 568.486 315.816 569.474 316.97C573.602 321.815 585.55 324.687 585.55 324.687Z" fill="#F9CBCB"/>
<path d="M567.626 313.901C567.802 314.758 568.971 315.508 569.957 316.662L564.188 321.46L561.868 323.388C558.475 320.501 556.483 316.807 555.737 314.137C554.583 310.028 556.224 303.005 558.993 296.032C558.998 296.013 559.005 295.994 559.012 295.976C563.189 285.453 569.911 275.064 573.423 274.98L575.449 303.329C575.449 303.329 566.621 309.083 567.626 313.901Z" fill="#3EFFDA"/>
<path d="M626.082 359.688C626.211 367.709 606.698 359.593 603.091 358.024C602.721 357.865 602.52 357.773 602.52 357.773C602.52 357.773 599.545 357.27 595.059 356.276L594.797 356.219C588.284 354.768 578.718 352.316 570.412 348.896C560.221 344.703 551.918 339.063 553.461 332.044C553.464 332.029 553.468 332.017 553.468 332.006C553.533 331.721 553.613 331.435 553.712 331.146C553.716 331.138 553.716 331.134 553.716 331.13C553.818 330.833 553.937 330.536 554.07 330.236C554.192 329.965 554.333 329.714 554.496 329.485C554.569 329.379 554.645 329.276 554.729 329.177C554.816 329.074 554.908 328.975 555.003 328.88C555.003 328.88 555.007 328.88 555.007 328.876C555.094 328.788 555.189 328.705 555.285 328.625C555.311 328.602 555.338 328.579 555.365 328.564C555.433 328.503 555.506 328.45 555.578 328.404C555.662 328.347 555.746 328.29 555.833 328.237C555.837 328.229 555.845 328.225 555.849 328.229C556.835 327.642 558.095 327.376 559.573 327.368C569.734 327.319 590.093 339.643 600.327 346.288C600.475 346.383 600.623 346.482 600.768 346.578C604.287 348.863 606.496 350.413 606.496 350.413C606.496 350.413 607.277 350.432 608.529 350.531C608.545 350.531 608.56 350.535 608.579 350.535C613.598 350.937 625.964 352.647 626.082 359.688Z" fill="#F9CBCB"/>
<path d="M601.537 345.27L600.767 346.577L595.059 356.276L594.27 357.613C588.36 356.299 580.02 353.946 572.407 350.75L572.403 350.747C561.317 346.097 551.762 339.661 553.46 332.044C553.464 332.028 553.468 332.017 553.468 332.006C553.533 331.72 553.617 331.431 553.712 331.145C553.716 331.138 553.716 331.133 553.716 331.13C553.818 330.833 553.936 330.536 554.07 330.235C554.192 329.965 554.332 329.713 554.496 329.485C554.569 329.378 554.645 329.275 554.728 329.176C554.816 329.074 554.908 328.975 555.003 328.879C555.003 328.879 555.007 328.879 555.007 328.876C555.094 328.788 555.189 328.704 555.285 328.625C555.311 328.602 555.338 328.579 555.365 328.564C555.433 328.503 555.506 328.449 555.578 328.404C555.662 328.347 555.746 328.289 555.833 328.236C555.837 328.229 555.844 328.225 555.848 328.229C556.873 327.596 558.206 327.292 559.771 327.258C570.266 326.99 591.323 338.64 601.537 345.27Z" fill="#1F4380"/>
<path d="M606.494 350.447C606.494 350.447 630.425 350.754 629.398 360.683C628.295 371.35 602.518 357.81 602.518 357.81C602.518 357.81 615.381 362.927 616.116 356.893C616.828 351.055 606.494 350.447 606.494 350.447Z" fill="#173456"/>
<path d="M612.664 301.109V327.363C612.664 328.042 612.395 328.693 611.915 329.173C611.435 329.653 610.784 329.922 610.105 329.922H569.878C569.199 329.922 568.548 329.653 568.068 329.173C567.588 328.693 567.319 328.042 567.318 327.363V301.109C567.319 300.43 567.588 299.779 568.068 299.299C568.548 298.819 569.199 298.55 569.878 298.55H610.105C610.784 298.55 611.435 298.819 611.915 299.299C612.395 299.779 612.664 300.43 612.664 301.109Z" fill="white"/>
<path d="M589.992 318.242C592.205 318.242 593.998 316.449 593.998 314.236C593.998 312.024 592.205 310.23 589.992 310.23C587.78 310.23 585.986 312.024 585.986 314.236C585.986 316.449 587.78 318.242 589.992 318.242Z" fill="#4D4C63"/>
<path d="M594.312 268.894C593.509 269.34 592.588 270.125 591.252 270.159C589.328 270.205 586.924 268.444 586.924 268.444L587.507 265.528H589.594L593.2 265.741L593.843 266.122L594.312 268.894Z" fill="#EDB7B7"/>
<path d="M612.664 301.109V327.363C612.664 328.042 612.395 328.693 611.915 329.173C611.435 329.653 610.784 329.922 610.105 329.922H569.878C569.199 329.922 568.548 329.653 568.068 329.173C567.588 328.693 567.319 328.042 567.318 327.363C608.003 329.231 612.664 323.264 610.105 298.55C610.784 298.55 611.435 298.819 611.915 299.299C612.395 299.779 612.664 300.43 612.664 301.109Z" fill="#CCCCCC"/>
<path d="M564.188 321.46L561.868 323.388C558.475 320.501 556.483 316.807 555.737 314.137C554.583 310.028 556.224 303.005 558.993 296.032C558.715 296.851 555.133 306.912 557.673 313.066C559.924 318.523 563.361 320.668 564.188 321.46Z" fill="#999999"/>
<path d="M624.374 314.704C624.016 316.654 622.847 319.103 620.901 321.239C620.801 321.347 620.666 321.416 620.519 321.434C620.373 321.453 620.225 321.419 620.101 321.339L617.732 319.8C618.978 317.641 620.814 315.928 621.677 312.585C623.986 303.637 618.163 290.777 617.847 290.003C622.097 298.717 625.395 309.156 624.374 314.704Z" fill="#CCCCCC"/>
<path d="M597.576 261.481C596.528 266.671 593.556 268.902 590.623 268.735C586.689 268.514 582.929 261.06 582.929 261.06C582.929 261.06 579.362 259.286 580.103 257.723C581.052 255.713 581.746 256.565 584.184 256.579C587.885 256.605 590.857 249.853 590.884 248.216C592.42 251.91 594.631 254.441 597.897 255.136C598.064 257.608 597.931 259.718 597.576 261.481Z" fill="#F9CBCB"/>
<path d="M358.286 314.993C353.826 316.537 349.883 317.774 345.802 316.993C342.631 316.387 340.04 312.252 340.04 312.252C344.415 311.223 345.594 308.905 345.594 308.905C343.808 309.908 340.447 309.688 340.447 309.688C337.699 308.589 337.561 301.993 337.561 301.993C340.172 301.718 341.434 299.762 341.434 299.762C338.173 299.892 336.842 297.497 336.842 297.497C335.83 288.562 339.285 285.74 339.285 285.74C343.315 285.29 349.72 286.095 350.985 288.613C350.985 288.613 352.136 292.842 350.163 294.986C350.163 294.986 353.043 293.758 353.558 291.872C353.558 291.872 357.674 293.587 357.589 296.417C357.589 296.417 358.034 300.926 354.517 302.708C354.517 302.708 358.532 301.391 359.904 298.304C359.904 298.304 362.781 302.541 362.078 307.451C361.534 311.26 358.286 314.993 358.286 314.993Z" fill="#4A73AF"/>
<path d="M342.99 293.453C343.844 297.013 345.302 300.422 347.31 303.486C349.338 306.582 351.98 309.037 354.574 311.642C355.925 312.998 357.196 314.427 358.194 316.068C359.186 317.698 359.92 319.47 360.439 321.304C361.338 324.482 361.516 327.798 361.664 331.08C361.824 334.607 361.96 338.235 361.486 341.745C361.416 342.258 362.202 342.481 362.273 341.962C362.69 338.873 362.641 335.717 362.54 332.609C362.435 329.381 362.326 326.076 361.67 322.906C360.908 319.231 359.362 315.797 356.907 312.942C354.402 310.03 351.349 307.661 349.051 304.56C346.546 301.182 344.757 297.323 343.776 293.236C343.654 292.726 342.867 292.942 342.99 293.453Z" fill="#2A4163"/>
<path d="M372.848 313.513C377.307 315.057 381.251 316.294 385.332 315.514C388.503 314.908 391.094 310.772 391.094 310.772C386.72 309.743 385.54 307.425 385.54 307.425C387.326 308.427 390.687 308.208 390.687 308.208C393.435 307.109 393.573 300.513 393.573 300.513C390.962 300.238 389.7 298.282 389.7 298.282C392.961 298.412 394.292 296.017 394.292 296.017C395.303 287.082 391.849 284.26 391.849 284.26C387.819 283.81 381.414 284.615 380.149 287.132C380.149 287.132 378.998 291.362 380.97 293.506C380.97 293.506 378.09 292.278 377.576 290.391C377.576 290.391 373.46 292.107 373.545 294.937C373.545 294.937 373.1 299.446 376.617 301.228C376.617 301.228 372.602 299.911 371.23 296.824C371.23 296.824 368.354 301.061 369.056 305.971C369.6 309.78 372.848 313.513 372.848 313.513Z" fill="#4A73AF"/>
<path d="M387.59 290.696C386.754 294.194 385.321 297.523 383.352 300.534C381.361 303.573 378.76 305.969 376.215 308.524C373.652 311.1 371.65 313.966 370.486 317.432C369.423 320.593 369.104 323.898 369.025 327.213C368.928 331.246 369.065 335.28 369.079 339.313C369.081 339.838 369.898 339.839 369.896 339.313C369.882 335.75 369.78 332.188 369.817 328.625C369.853 325.223 370.027 321.824 370.993 318.539C372.053 314.928 373.998 311.931 376.628 309.267C379.102 306.762 381.673 304.431 383.679 301.51C385.88 298.303 387.47 294.693 388.377 290.913C388.5 290.403 387.713 290.185 387.59 290.696Z" fill="#2A4163"/>
<path d="M375.933 327.243C379.581 330.236 382.851 332.763 386.95 333.446C390.134 333.976 393.998 330.995 393.998 330.995C390.252 328.514 389.949 325.93 389.949 325.93C391.277 327.49 394.505 328.449 394.505 328.449C397.464 328.37 399.878 322.231 399.878 322.231C397.525 321.068 397.019 318.795 397.019 318.795C400.033 320.048 402.111 318.263 402.111 318.263C406.157 310.232 403.894 306.388 403.894 306.388C400.27 304.569 393.983 303.104 391.923 305.027C391.923 305.027 389.378 308.596 390.485 311.29C390.485 311.29 388.209 309.141 388.381 307.192C388.381 307.192 383.925 307.375 383.024 310.059C383.024 310.059 381.044 314.134 383.725 317.025C383.725 317.025 380.416 314.398 380.198 311.026C380.198 311.026 376.032 314.004 374.988 318.853C374.18 322.615 375.933 327.243 375.933 327.243Z" fill="#507CC7"/>
<path d="M397.668 310.949C395.669 313.939 393.176 316.569 390.283 318.709C387.363 320.869 384.092 322.216 380.82 323.731C377.522 325.258 374.652 327.253 372.358 330.1C370.265 332.697 368.821 335.686 367.597 338.769C366.109 342.518 364.839 346.35 363.455 350.138C363.275 350.631 364.04 350.915 364.22 350.421C365.443 347.075 366.582 343.698 367.851 340.369C369.063 337.189 370.405 334.062 372.449 331.315C374.696 328.295 377.558 326.158 380.949 324.571C384.137 323.078 387.357 321.783 390.251 319.737C393.427 317.492 396.17 314.657 398.331 311.425C398.623 310.989 397.96 310.512 397.668 310.949Z" fill="#2A4163"/>
<path d="M357.126 329.62C352.987 331.888 349.307 333.767 345.153 333.681C341.925 333.614 338.679 329.971 338.679 329.971C342.819 328.224 343.594 325.741 343.594 325.741C342 327.029 338.65 327.375 338.65 327.375C335.757 326.751 334.518 320.271 334.518 320.271C337.046 319.564 337.963 317.423 337.963 317.423C334.77 318.098 333.057 315.959 333.057 315.959C330.564 307.319 333.498 303.959 333.498 303.959C337.395 302.841 343.845 302.563 345.514 304.833C345.514 304.833 347.356 308.81 345.77 311.254C345.77 311.254 348.404 309.562 348.595 307.615C348.595 307.615 352.941 308.617 353.33 311.422C353.33 311.422 354.523 315.793 351.355 318.139C351.355 318.139 355.092 316.169 355.928 312.895C355.928 312.895 359.473 316.591 359.603 321.55C359.703 325.396 357.126 329.62 357.126 329.62Z" fill="#507CC7"/>
<path d="M338.44 310.943C339.878 314.31 341.887 317.426 344.378 320.111C346.897 322.825 349.912 324.803 352.905 326.936C354.463 328.048 355.956 329.244 357.215 330.694C358.465 332.136 359.485 333.76 360.304 335.482C361.723 338.464 362.453 341.704 363.148 344.915C363.896 348.366 364.638 351.919 364.757 355.459C364.775 355.977 365.586 356.065 365.569 355.541C365.464 352.426 364.887 349.323 364.267 346.276C363.624 343.111 362.963 339.871 361.785 336.855C360.42 333.359 358.32 330.232 355.422 327.829C352.466 325.377 349.06 323.552 346.275 320.879C343.241 317.968 340.83 314.462 339.18 310.597C338.974 310.114 338.234 310.459 338.44 310.943Z" fill="#2A4163"/>
<path d="M366.72 324.606C371.435 324.394 375.556 324.087 379.06 321.855C381.783 320.12 382.663 315.321 382.663 315.321C378.219 315.98 376.266 314.261 376.266 314.261C378.297 314.533 381.339 313.088 381.339 313.088C383.487 311.051 381.179 304.872 381.179 304.872C378.651 305.58 376.755 304.228 376.755 304.228C379.834 303.145 380.187 300.427 380.187 300.427C377.827 291.751 373.575 290.404 373.575 290.404C369.664 291.474 364.009 294.588 363.762 297.394C363.762 297.394 364.254 301.749 366.88 303.013C366.88 303.013 363.75 302.936 362.575 301.373C362.575 301.373 359.383 304.487 360.508 307.085C360.508 307.085 361.76 311.44 365.686 311.797C365.686 311.797 361.468 312.056 359.053 309.694C359.053 309.694 357.945 314.693 360.41 318.997C362.323 322.337 366.72 324.606 366.72 324.606Z" fill="#6493D8"/>
<path d="M371.993 297.958C372.505 301.518 372.409 305.14 371.688 308.665C370.96 312.224 369.428 315.413 368.007 318.727C366.575 322.067 365.774 325.47 365.971 329.121C366.151 332.451 367.075 335.64 368.226 338.75C369.626 342.534 371.242 346.233 372.746 349.975C372.941 350.462 373.7 350.162 373.504 349.673C372.176 346.367 370.765 343.095 369.484 339.77C368.26 336.595 367.167 333.372 366.851 329.963C366.503 326.215 367.204 322.712 368.664 319.265C370.038 316.023 371.566 312.907 372.351 309.452C373.212 305.659 373.357 301.717 372.804 297.869C372.73 297.349 371.918 297.437 371.993 297.958Z" fill="#2A4163"/>
<path d="M382.498 341.502L382.103 344.633L381.579 348.786L381.521 349.239L380.874 354.335L380.805 354.866L380.175 359.857L380.1 360.46L379.47 365.424H356.291L355.539 360.035L355.085 356.791L354.802 354.775L354.343 351.474L354.074 349.545L353.604 346.186L353.385 344.633L352.949 341.502H382.498Z" fill="#D72B65"/>
<path d="M381.579 348.786L381.521 349.239C372.37 352.009 363.224 346.861 354.074 349.546L353.604 346.187C362.931 344.197 372.251 350.618 381.579 348.786ZM380.874 354.335L380.805 354.866C372.135 357.108 363.473 352.615 354.803 354.775L354.343 351.473C363.186 349.995 372.03 355.687 380.874 354.335ZM380.175 359.857L380.1 360.46C371.914 362.245 363.725 358.341 355.539 360.034L355.086 356.791C363.449 355.766 371.812 360.791 380.175 359.857Z" fill="#F05B8E"/>
<path d="M381.919 341.504H353.53C351.625 341.504 350.08 340.245 350.08 338.691C350.08 337.137 351.625 335.878 353.53 335.878H381.919C383.824 335.878 385.368 337.137 385.368 338.691C385.368 340.245 383.824 341.504 381.919 341.504Z" fill="#D72B65"/>
<path d="M352.951 341.503L353.544 345.752C367.057 344.666 378.213 353.465 379.471 365.424L382.498 341.503H352.951Z" fill="#CCCCCC"/>
<defs>
<linearGradient id="paint0_linear_962_16" x1="625.072" y1="272.531" x2="634.071" y2="276.197" gradientUnits="userSpaceOnUse">
<stop stop-color="#FF9666"/>
<stop offset="1" stop-color="#C42D40"/>
</linearGradient>
<linearGradient id="paint1_linear_962_16" x1="297.977" y1="118.275" x2="305.775" y2="118.275" gradientUnits="userSpaceOnUse">
<stop stop-color="#5D64C2"/>
<stop offset="1" stop-color="#251978"/>
</linearGradient>
<linearGradient id="paint2_linear_962_16" x1="638.133" y1="137.742" x2="645.931" y2="137.742" gradientUnits="userSpaceOnUse">
<stop stop-color="#5D64C2"/>
<stop offset="1" stop-color="#251978"/>
</linearGradient>
</defs>
</svg>
