<svg width="428" height="320" viewBox="0 0 428 320" fill="none" xmlns="http://www.w3.org/2000/svg">
<path d="M424.593 283.55V230.833H420.083V205.721H413.498V118.396H403.97V107.124L383.633 97.6398V86.2802H380.82V118.396H376.872V205.721H372.935V159.797H362.226V136.141H359.237V205.721H351.109V179.241H345.76V172.48H333.364V149.375H326.57V133.042H318.233V109.242H315.255V133.042H306.906V149.375H300.124V172.48H287.727V179.241H282.379V205.721H276.026V172.48H263.63V100.926H259.693V93.0408H233.213V100.926H227.577V152.761H205.034V157.834H196.586V161.772H205.034V182.053H181.378V114.447H176.305V100.077H165.32V49.0916H162.221V100.077H154.336V114.447H108.092V109.716H105.269V141.832H101.332V142.394H98.9606V174.51H95.0124V183.244H86.6857V159.577H83.6969V215.922H80.3663V192.255H77.3775V229.157H75.5578V202.677H70.2089V195.916H57.8126V172.822H51.03V156.478H42.6813V132.678H39.7036V156.478H31.3659V172.822H24.5722V195.916H12.176V202.677H6.82708V228.594H5.86758V229.157H3.2207V283.55H424.593Z" fill="#F0F0F0"/>
<path d="M137.075 117.613H133.888V120.8H137.075V117.613Z" fill="#FAFAFA"/>
<path d="M137.075 122.962H133.888V126.149H137.075V122.962Z" fill="#FAFAFA"/>
<path d="M137.075 144.368H133.888V147.556H137.075V144.368Z" fill="#FAFAFA"/>
<path d="M137.075 149.717H133.888V152.905H137.075V149.717Z" fill="#FAFAFA"/>
<path d="M137.075 155.077H133.888V158.276H137.075V155.077Z" fill="#FAFAFA"/>
<path d="M137.075 171.135H133.888V174.322H137.075V171.135Z" fill="#FAFAFA"/>
<path d="M137.075 176.484H133.888V179.682H137.075V176.484Z" fill="#FAFAFA"/>
<path d="M142.148 139.019H138.961V142.218H142.148V139.019Z" fill="#FAFAFA"/>
<path d="M142.148 144.368H138.961V147.556H142.148V144.368Z" fill="#FAFAFA"/>
<path d="M142.148 149.717H138.961V152.905H142.148V149.717Z" fill="#FAFAFA"/>
<path d="M142.148 155.077H138.961V158.276H142.148V155.077Z" fill="#FAFAFA"/>
<path d="M142.148 160.426H138.961V163.624H142.148V160.426Z" fill="#FAFAFA"/>
<path d="M142.148 171.135H138.961V174.322H142.148V171.135Z" fill="#FAFAFA"/>
<path d="M142.148 176.484H138.961V179.682H142.148V176.484Z" fill="#FAFAFA"/>
<path d="M147.221 117.613H144.034V120.8H147.221V117.613Z" fill="#FAFAFA"/>
<path d="M147.221 122.962H144.034V126.149H147.221V122.962Z" fill="#FAFAFA"/>
<path d="M147.221 128.311H144.034V131.509H147.221V128.311Z" fill="#FAFAFA"/>
<path d="M147.221 133.659H144.034V136.858H147.221V133.659Z" fill="#FAFAFA"/>
<path d="M147.221 139.019H144.034V142.218H147.221V139.019Z" fill="#FAFAFA"/>
<path d="M147.221 144.368H144.034V147.556H147.221V144.368Z" fill="#FAFAFA"/>
<path d="M147.221 149.717H144.034V152.905H147.221V149.717Z" fill="#FAFAFA"/>
<path d="M147.221 155.077H144.034V158.276H147.221V155.077Z" fill="#FAFAFA"/>
<path d="M147.221 160.426H144.034V163.624H147.221V160.426Z" fill="#FAFAFA"/>
<path d="M147.221 165.775H144.034V168.973H147.221V165.775Z" fill="#FAFAFA"/>
<path d="M147.221 176.484H144.034V179.682H147.221V176.484Z" fill="#FAFAFA"/>
<path d="M152.295 117.613H149.107V120.8H152.295V117.613Z" fill="#FAFAFA"/>
<path d="M152.295 122.962H149.107V126.149H152.295V122.962Z" fill="#FAFAFA"/>
<path d="M152.295 128.311H149.107V131.509H152.295V128.311Z" fill="#FAFAFA"/>
<path d="M152.295 133.659H149.107V136.858H152.295V133.659Z" fill="#FAFAFA"/>
<path d="M152.295 139.019H149.107V142.218H152.295V139.019Z" fill="#FAFAFA"/>
<path d="M152.295 144.368H149.107V147.556H152.295V144.368Z" fill="#FAFAFA"/>
<path d="M152.295 149.717H149.107V152.905H152.295V149.717Z" fill="#FAFAFA"/>
<path d="M152.295 197.891H149.107V201.078H152.295V197.891Z" fill="#FAFAFA"/>
<path d="M157.357 117.613H154.17V120.8H157.357V117.613Z" fill="#FAFAFA"/>
<path d="M157.357 122.962H154.17V126.149H157.357V122.962Z" fill="#FAFAFA"/>
<path d="M157.357 128.311H154.17V131.509H157.357V128.311Z" fill="#FAFAFA"/>
<path d="M157.357 133.659H154.17V136.858H157.357V133.659Z" fill="#FAFAFA"/>
<path d="M157.357 139.019H154.17V142.218H157.357V139.019Z" fill="#FAFAFA"/>
<path d="M157.357 144.368H154.17V147.556H157.357V144.368Z" fill="#FAFAFA"/>
<path d="M157.357 149.717H154.17V152.905H157.357V149.717Z" fill="#FAFAFA"/>
<path d="M157.357 155.077H154.17V158.276H157.357V155.077Z" fill="#FAFAFA"/>
<path d="M157.357 187.193H154.17V190.38H157.357V187.193Z" fill="#FAFAFA"/>
<path d="M157.357 192.542H154.17V195.729H157.357V192.542Z" fill="#FAFAFA"/>
<path d="M157.357 197.891H154.17V201.078H157.357V197.891Z" fill="#FAFAFA"/>
<path d="M157.357 203.239H154.17V206.438H157.357V203.239Z" fill="#FAFAFA"/>
<path d="M157.357 224.657H154.17V227.844H157.357V224.657Z" fill="#FAFAFA"/>
<path d="M162.43 117.613H159.243V120.8H162.43V117.613Z" fill="#FAFAFA"/>
<path d="M162.43 122.962H159.243V126.149H162.43V122.962Z" fill="#FAFAFA"/>
<path d="M162.43 128.311H159.243V131.509H162.43V128.311Z" fill="#FAFAFA"/>
<path d="M162.43 133.659H159.243V136.858H162.43V133.659Z" fill="#FAFAFA"/>
<path d="M162.43 139.019H159.243V142.218H162.43V139.019Z" fill="#FAFAFA"/>
<path d="M162.43 144.368H159.243V147.556H162.43V144.368Z" fill="#FAFAFA"/>
<path d="M162.43 149.717H159.243V152.905H162.43V149.717Z" fill="#FAFAFA"/>
<path d="M162.43 155.077H159.243V158.276H162.43V155.077Z" fill="#FAFAFA"/>
<path d="M162.43 160.426H159.243V163.624H162.43V160.426Z" fill="#FAFAFA"/>
<path d="M162.43 165.775H159.243V168.973H162.43V165.775Z" fill="#FAFAFA"/>
<path d="M162.43 181.833H159.243V185.02H162.43V181.833Z" fill="#FAFAFA"/>
<path d="M162.43 187.193H159.243V190.38H162.43V187.193Z" fill="#FAFAFA"/>
<path d="M162.43 192.542H159.243V195.729H162.43V192.542Z" fill="#FAFAFA"/>
<path d="M162.43 197.891H159.243V201.078H162.43V197.891Z" fill="#FAFAFA"/>
<path d="M162.43 203.239H159.243V206.438H162.43V203.239Z" fill="#FAFAFA"/>
<path d="M162.43 224.657H159.243V227.844H162.43V224.657Z" fill="#FAFAFA"/>
<path d="M167.504 117.613H164.316V120.8H167.504V117.613Z" fill="#FAFAFA"/>
<path d="M167.504 122.962H164.316V126.149H167.504V122.962Z" fill="#FAFAFA"/>
<path d="M167.504 128.311H164.316V131.509H167.504V128.311Z" fill="#FAFAFA"/>
<path d="M167.504 133.659H164.316V136.858H167.504V133.659Z" fill="#FAFAFA"/>
<path d="M167.504 139.019H164.316V142.218H167.504V139.019Z" fill="#FAFAFA"/>
<path d="M167.504 144.368H164.316V147.556H167.504V144.368Z" fill="#FAFAFA"/>
<path d="M167.504 149.717H164.316V152.905H167.504V149.717Z" fill="#FAFAFA"/>
<path d="M167.504 155.077H164.316V158.276H167.504V155.077Z" fill="#FAFAFA"/>
<path d="M167.504 160.426H164.316V163.624H167.504V160.426Z" fill="#FAFAFA"/>
<path d="M167.504 165.775H164.316V168.973H167.504V165.775Z" fill="#FAFAFA"/>
<path d="M167.504 171.135H164.316V174.322H167.504V171.135Z" fill="#FAFAFA"/>
<path d="M167.504 176.484H164.316V179.682H167.504V176.484Z" fill="#FAFAFA"/>
<path d="M167.504 181.833H164.316V185.02H167.504V181.833Z" fill="#FAFAFA"/>
<path d="M167.504 187.193H164.316V190.38H167.504V187.193Z" fill="#FAFAFA"/>
<path d="M167.504 192.542H164.316V195.729H167.504V192.542Z" fill="#FAFAFA"/>
<path d="M167.504 197.891H164.316V201.078H167.504V197.891Z" fill="#FAFAFA"/>
<path d="M167.504 203.239H164.316V206.438H167.504V203.239Z" fill="#FAFAFA"/>
<path d="M167.504 208.599H164.316V211.798H167.504V208.599Z" fill="#FAFAFA"/>
<path d="M172.577 117.613H169.39V120.8H172.577V117.613Z" fill="#FAFAFA"/>
<path d="M172.577 122.962H169.39V126.149H172.577V122.962Z" fill="#FAFAFA"/>
<path d="M172.577 128.311H169.39V131.509H172.577V128.311Z" fill="#FAFAFA"/>
<path d="M172.577 133.659H169.39V136.858H172.577V133.659Z" fill="#FAFAFA"/>
<path d="M172.577 139.019H169.39V142.218H172.577V139.019Z" fill="#FAFAFA"/>
<path d="M172.577 144.368H169.39V147.556H172.577V144.368Z" fill="#FAFAFA"/>
<path d="M172.577 149.717H169.39V152.905H172.577V149.717Z" fill="#FAFAFA"/>
<path d="M172.577 155.077H169.39V158.276H172.577V155.077Z" fill="#FAFAFA"/>
<path d="M172.577 160.426H169.39V163.624H172.577V160.426Z" fill="#FAFAFA"/>
<path d="M172.577 165.775H169.39V168.973H172.577V165.775Z" fill="#FAFAFA"/>
<path d="M172.577 181.833H169.39V185.02H172.577V181.833Z" fill="#FAFAFA"/>
<path d="M172.577 187.193H169.39V190.38H172.577V187.193Z" fill="#FAFAFA"/>
<path d="M172.577 192.542H169.39V195.729H172.577V192.542Z" fill="#FAFAFA"/>
<path d="M172.577 197.891H169.39V201.078H172.577V197.891Z" fill="#FAFAFA"/>
<path d="M177.638 117.613H174.451V120.8H177.638V117.613Z" fill="#FAFAFA"/>
<path d="M177.638 122.962H174.451V126.149H177.638V122.962Z" fill="#FAFAFA"/>
<path d="M177.638 128.311H174.451V131.509H177.638V128.311Z" fill="#FAFAFA"/>
<path d="M177.638 133.659H174.451V136.858H177.638V133.659Z" fill="#FAFAFA"/>
<path d="M177.638 139.019H174.451V142.218H177.638V139.019Z" fill="#FAFAFA"/>
<path d="M177.638 144.368H174.451V147.556H177.638V144.368Z" fill="#FAFAFA"/>
<path d="M177.638 149.717H174.451V152.905H177.638V149.717Z" fill="#FAFAFA"/>
<path d="M177.638 155.077H174.451V158.276H177.638V155.077Z" fill="#FAFAFA"/>
<path d="M177.638 160.426H174.451V163.624H177.638V160.426Z" fill="#FAFAFA"/>
<path d="M177.638 165.775H174.451V168.973H177.638V165.775Z" fill="#FAFAFA"/>
<path d="M177.638 181.833H174.451V185.02H177.638V181.833Z" fill="#FAFAFA"/>
<path d="M177.638 187.193H174.451V190.38H177.638V187.193Z" fill="#FAFAFA"/>
<path d="M177.638 192.542H174.451V195.729H177.638V192.542Z" fill="#FAFAFA"/>
<path d="M234.734 103.706H231.547V106.893H234.734V103.706Z" fill="#FAFAFA"/>
<path d="M234.734 109.066H231.547V112.253H234.734V109.066Z" fill="#FAFAFA"/>
<path d="M234.734 114.414H231.547V117.602H234.734V114.414Z" fill="#FAFAFA"/>
<path d="M234.734 119.763H231.547V122.951H234.734V119.763Z" fill="#FAFAFA"/>
<path d="M234.734 125.123H231.547V128.311H234.734V125.123Z" fill="#FAFAFA"/>
<path d="M234.734 130.472H231.547V133.66H234.734V130.472Z" fill="#FAFAFA"/>
<path d="M234.734 135.821H231.547V139.008H234.734V135.821Z" fill="#FAFAFA"/>
<path d="M234.734 141.181H231.547V144.368H234.734V141.181Z" fill="#FAFAFA"/>
<path d="M234.734 157.239H231.547V160.426H234.734V157.239Z" fill="#FAFAFA"/>
<path d="M234.734 162.588H231.547V165.775H234.734V162.588Z" fill="#FAFAFA"/>
<path d="M239.818 103.706H236.62V106.893H239.818V103.706Z" fill="#FAFAFA"/>
<path d="M239.818 109.066H236.62V112.253H239.818V109.066Z" fill="#FAFAFA"/>
<path d="M239.818 114.414H236.62V117.602H239.818V114.414Z" fill="#FAFAFA"/>
<path d="M239.818 119.763H236.62V122.951H239.818V119.763Z" fill="#FAFAFA"/>
<path d="M239.818 125.123H236.62V128.311H239.818V125.123Z" fill="#FAFAFA"/>
<path d="M239.818 130.472H236.62V133.66H239.818V130.472Z" fill="#FAFAFA"/>
<path d="M239.818 135.821H236.62V139.008H239.818V135.821Z" fill="#FAFAFA"/>
<path d="M239.818 141.181H236.62V144.368H239.818V141.181Z" fill="#FAFAFA"/>
<path d="M239.818 162.588H236.62V165.775H239.818V162.588Z" fill="#FAFAFA"/>
<path d="M244.88 103.706H241.682V106.893H244.88V103.706Z" fill="#FAFAFA"/>
<path d="M244.88 109.066H241.682V112.253H244.88V109.066Z" fill="#FAFAFA"/>
<path d="M244.88 114.414H241.682V117.602H244.88V114.414Z" fill="#FAFAFA"/>
<path d="M244.88 119.763H241.682V122.951H244.88V119.763Z" fill="#FAFAFA"/>
<path d="M244.88 125.123H241.682V128.311H244.88V125.123Z" fill="#FAFAFA"/>
<path d="M244.88 130.472H241.682V133.66H244.88V130.472Z" fill="#FAFAFA"/>
<path d="M244.88 135.821H241.682V139.008H244.88V135.821Z" fill="#FAFAFA"/>
<path d="M244.88 141.181H241.682V144.368H244.88V141.181Z" fill="#FAFAFA"/>
<path d="M249.954 103.706H246.756V106.893H249.954V103.706Z" fill="#FAFAFA"/>
<path d="M249.954 109.066H246.756V112.253H249.954V109.066Z" fill="#FAFAFA"/>
<path d="M249.954 114.414H246.756V117.602H249.954V114.414Z" fill="#FAFAFA"/>
<path d="M249.954 119.763H246.756V122.951H249.954V119.763Z" fill="#FAFAFA"/>
<path d="M249.954 125.123H246.756V128.311H249.954V125.123Z" fill="#FAFAFA"/>
<path d="M249.954 130.472H246.756V133.66H249.954V130.472Z" fill="#FAFAFA"/>
<path d="M249.954 141.181H246.756V144.368H249.954V141.181Z" fill="#FAFAFA"/>
<path d="M249.954 146.53H246.756V149.728H249.954V146.53Z" fill="#FAFAFA"/>
<path d="M249.954 162.588H246.756V165.775H249.954V162.588Z" fill="#FAFAFA"/>
<path d="M249.954 167.937H246.756V171.124H249.954V167.937Z" fill="#FAFAFA"/>
<path d="M249.954 173.286H246.756V176.473H249.954V173.286Z" fill="#FAFAFA"/>
<path d="M249.954 178.645H246.756V181.833H249.954V178.645Z" fill="#FAFAFA"/>
<path d="M249.954 183.994H246.756V187.182H249.954V183.994Z" fill="#FAFAFA"/>
<path d="M249.954 189.343H246.756V192.531H249.954V189.343Z" fill="#FAFAFA"/>
<path d="M249.954 194.703H246.756V197.901H249.954V194.703Z" fill="#FAFAFA"/>
<path d="M255.016 103.706H251.829V106.893H255.016V103.706Z" fill="#FAFAFA"/>
<path d="M255.016 109.066H251.829V112.253H255.016V109.066Z" fill="#FAFAFA"/>
<path d="M255.016 114.414H251.829V117.602H255.016V114.414Z" fill="#FAFAFA"/>
<path d="M255.016 119.763H251.829V122.951H255.016V119.763Z" fill="#FAFAFA"/>
<path d="M255.016 125.123H251.829V128.311H255.016V125.123Z" fill="#FAFAFA"/>
<path d="M255.016 130.472H251.829V133.66H255.016V130.472Z" fill="#FAFAFA"/>
<path d="M255.016 146.53H251.829V149.728H255.016V146.53Z" fill="#FAFAFA"/>
<path d="M255.016 151.879H251.829V155.066H255.016V151.879Z" fill="#FAFAFA"/>
<path d="M255.016 157.239H251.829V160.426H255.016V157.239Z" fill="#FAFAFA"/>
<path d="M255.016 162.588H251.829V165.775H255.016V162.588Z" fill="#FAFAFA"/>
<path d="M255.016 167.937H251.829V171.124H255.016V167.937Z" fill="#FAFAFA"/>
<path d="M255.016 173.286H251.829V176.473H255.016V173.286Z" fill="#FAFAFA"/>
<path d="M255.016 178.645H251.829V181.833H255.016V178.645Z" fill="#FAFAFA"/>
<path d="M255.016 183.994H251.829V187.182H255.016V183.994Z" fill="#FAFAFA"/>
<path d="M255.016 189.343H251.829V192.531H255.016V189.343Z" fill="#FAFAFA"/>
<path d="M255.016 194.703H251.829V197.901H255.016V194.703Z" fill="#FAFAFA"/>
<path d="M255.016 200.052H251.829V203.239H255.016V200.052Z" fill="#FAFAFA"/>
<path d="M255.016 210.761H251.829V213.948H255.016V210.761Z" fill="#FAFAFA"/>
<path d="M260.101 103.706H256.902V106.893H260.101V103.706Z" fill="#FAFAFA"/>
<path d="M260.101 109.066H256.902V112.253H260.101V109.066Z" fill="#FAFAFA"/>
<path d="M260.101 114.414H256.902V117.602H260.101V114.414Z" fill="#FAFAFA"/>
<path d="M260.101 119.763H256.902V122.951H260.101V119.763Z" fill="#FAFAFA"/>
<path d="M260.101 125.123H256.902V128.311H260.101V125.123Z" fill="#FAFAFA"/>
<path d="M260.101 130.472H256.902V133.66H260.101V130.472Z" fill="#FAFAFA"/>
<path d="M260.101 146.53H256.902V149.728H260.101V146.53Z" fill="#FAFAFA"/>
<path d="M260.101 151.879H256.902V155.066H260.101V151.879Z" fill="#FAFAFA"/>
<path d="M260.101 157.239H256.902V160.426H260.101V157.239Z" fill="#FAFAFA"/>
<path d="M260.101 162.588H256.902V165.775H260.101V162.588Z" fill="#FAFAFA"/>
<path d="M260.101 178.645H256.902V181.833H260.101V178.645Z" fill="#FAFAFA"/>
<path d="M260.101 183.994H256.902V187.182H260.101V183.994Z" fill="#FAFAFA"/>
<path d="M260.101 189.343H256.902V192.531H260.101V189.343Z" fill="#FAFAFA"/>
<path d="M260.101 194.703H256.902V197.901H260.101V194.703Z" fill="#FAFAFA"/>
<path d="M260.101 200.052H256.902V203.239H260.101V200.052Z" fill="#FAFAFA"/>
<path d="M260.101 210.761H256.902V213.948H260.101V210.761Z" fill="#FAFAFA"/>
<path d="M260.101 216.11H256.902V219.297H260.101V216.11Z" fill="#FAFAFA"/>
<path d="M306.1 153.478H302.913V156.665H306.1V153.478Z" fill="#FAFAFA"/>
<path d="M306.1 158.827H302.913V162.014H306.1V158.827Z" fill="#FAFAFA"/>
<path d="M306.1 164.187H302.913V167.374H306.1V164.187Z" fill="#FAFAFA"/>
<path d="M306.1 169.536H302.913V172.723H306.1V169.536Z" fill="#FAFAFA"/>
<path d="M306.1 174.885H302.913V178.072H306.1V174.885Z" fill="#FAFAFA"/>
<path d="M306.1 180.245H302.913V183.432H306.1V180.245Z" fill="#FAFAFA"/>
<path d="M306.1 185.594H302.913V188.781H306.1V185.594Z" fill="#FAFAFA"/>
<path d="M306.1 201.651H302.913V204.839H306.1V201.651Z" fill="#FAFAFA"/>
<path d="M306.1 207H302.913V210.187H306.1V207Z" fill="#FAFAFA"/>
<path d="M306.1 212.349H302.913V215.536H306.1V212.349Z" fill="#FAFAFA"/>
<path d="M311.163 153.478H307.976V156.665H311.163V153.478Z" fill="#FAFAFA"/>
<path d="M311.163 158.827H307.976V162.014H311.163V158.827Z" fill="#FAFAFA"/>
<path d="M311.163 164.187H307.976V167.374H311.163V164.187Z" fill="#FAFAFA"/>
<path d="M311.163 169.536H307.976V172.723H311.163V169.536Z" fill="#FAFAFA"/>
<path d="M311.163 174.885H307.976V178.072H311.163V174.885Z" fill="#FAFAFA"/>
<path d="M311.163 180.245H307.976V183.432H311.163V180.245Z" fill="#FAFAFA"/>
<path d="M311.163 185.594H307.976V188.781H311.163V185.594Z" fill="#FAFAFA"/>
<path d="M316.236 153.478H313.049V156.665H316.236V153.478Z" fill="#FAFAFA"/>
<path d="M316.236 158.827H313.049V162.014H316.236V158.827Z" fill="#FAFAFA"/>
<path d="M316.236 164.187H313.049V167.374H316.236V164.187Z" fill="#FAFAFA"/>
<path d="M316.236 169.536H313.049V172.723H316.236V169.536Z" fill="#FAFAFA"/>
<path d="M316.236 174.885H313.049V178.072H316.236V174.885Z" fill="#FAFAFA"/>
<path d="M316.236 180.245H313.049V183.432H316.236V180.245Z" fill="#FAFAFA"/>
<path d="M316.236 185.594H313.049V188.781H316.236V185.594Z" fill="#FAFAFA"/>
<path d="M321.309 153.478H318.122V156.665H321.309V153.478Z" fill="#FAFAFA"/>
<path d="M321.309 158.827H318.122V162.014H321.309V158.827Z" fill="#FAFAFA"/>
<path d="M321.309 164.187H318.122V167.374H321.309V164.187Z" fill="#FAFAFA"/>
<path d="M321.309 169.536H318.122V172.723H321.309V169.536Z" fill="#FAFAFA"/>
<path d="M321.309 174.885H318.122V178.072H321.309V174.885Z" fill="#FAFAFA"/>
<path d="M321.309 180.245H318.122V183.432H321.309V180.245Z" fill="#FAFAFA"/>
<path d="M321.309 185.594H318.122V188.781H321.309V185.594Z" fill="#FAFAFA"/>
<path d="M321.309 190.942H318.122V194.13H321.309V190.942Z" fill="#FAFAFA"/>
<path d="M321.309 196.291H318.122V199.479H321.309V196.291Z" fill="#FAFAFA"/>
<path d="M321.309 201.651H318.122V204.839H321.309V201.651Z" fill="#FAFAFA"/>
<path d="M321.309 207H318.122V210.187H321.309V207Z" fill="#FAFAFA"/>
<path d="M326.383 153.478H323.195V156.665H326.383V153.478Z" fill="#FAFAFA"/>
<path d="M326.383 158.827H323.195V162.014H326.383V158.827Z" fill="#FAFAFA"/>
<path d="M326.383 164.187H323.195V167.374H326.383V164.187Z" fill="#FAFAFA"/>
<path d="M326.383 169.536H323.195V172.723H326.383V169.536Z" fill="#FAFAFA"/>
<path d="M326.383 174.885H323.195V178.072H326.383V174.885Z" fill="#FAFAFA"/>
<path d="M326.383 180.245H323.195V183.432H326.383V180.245Z" fill="#FAFAFA"/>
<path d="M326.383 185.594H323.195V188.781H326.383V185.594Z" fill="#FAFAFA"/>
<path d="M326.383 190.942H323.195V194.13H326.383V190.942Z" fill="#FAFAFA"/>
<path d="M326.383 196.291H323.195V199.479H326.383V196.291Z" fill="#FAFAFA"/>
<path d="M326.383 201.651H323.195V204.839H326.383V201.651Z" fill="#FAFAFA"/>
<path d="M326.383 207H323.195V210.187H326.383V207Z" fill="#FAFAFA"/>
<path d="M326.383 212.349H323.195V215.536H326.383V212.349Z" fill="#FAFAFA"/>
<path d="M326.383 228.407H323.195V231.594H326.383V228.407Z" fill="#FAFAFA"/>
<path d="M326.383 233.767H323.195V236.965H326.383V233.767Z" fill="#FAFAFA"/>
<path d="M331.456 153.478H328.269V156.665H331.456V153.478Z" fill="#FAFAFA"/>
<path d="M331.456 158.827H328.269V162.014H331.456V158.827Z" fill="#FAFAFA"/>
<path d="M331.456 164.187H328.269V167.374H331.456V164.187Z" fill="#FAFAFA"/>
<path d="M331.456 180.245H328.269V183.432H331.456V180.245Z" fill="#FAFAFA"/>
<path d="M331.456 185.594H328.269V188.781H331.456V185.594Z" fill="#FAFAFA"/>
<path d="M331.456 190.942H328.269V194.13H331.456V190.942Z" fill="#FAFAFA"/>
<path d="M331.456 196.291H328.269V199.479H331.456V196.291Z" fill="#FAFAFA"/>
<path d="M331.456 201.651H328.269V204.839H331.456V201.651Z" fill="#FAFAFA"/>
<path d="M331.456 207H328.269V210.187H331.456V207Z" fill="#FAFAFA"/>
<path d="M331.456 212.349H328.269V215.536H331.456V212.349Z" fill="#FAFAFA"/>
<path d="M331.456 228.407H328.269V231.594H331.456V228.407Z" fill="#FAFAFA"/>
<path d="M331.456 233.767H328.269V236.965H331.456V233.767Z" fill="#FAFAFA"/>
<path d="M331.456 239.116H328.269V242.314H331.456V239.116Z" fill="#FAFAFA"/>
<path d="M384.603 121.363H381.416V124.55H384.603V121.363Z" fill="#FAFAFA"/>
<path d="M384.603 126.711H381.416V129.899H384.603V126.711Z" fill="#FAFAFA"/>
<path d="M384.614 132.071H381.416V135.259H384.614V132.071Z" fill="#FAFAFA"/>
<path d="M384.614 137.42H381.416V140.608H384.614V137.42Z" fill="#FAFAFA"/>
<path d="M384.614 142.769H381.416V145.956H384.614V142.769Z" fill="#FAFAFA"/>
<path d="M384.614 148.129H381.416V151.316H384.614V148.129Z" fill="#FAFAFA"/>
<path d="M384.614 153.478H381.416V156.665H384.614V153.478Z" fill="#FAFAFA"/>
<path d="M384.614 158.827H381.416V162.014H384.614V158.827Z" fill="#FAFAFA"/>
<path d="M384.614 164.187H381.416V167.374H384.614V164.187Z" fill="#FAFAFA"/>
<path d="M384.614 169.536H381.416V172.723H384.614V169.536Z" fill="#FAFAFA"/>
<path d="M384.614 174.885H381.416V178.072H384.614V174.885Z" fill="#FAFAFA"/>
<path d="M384.614 180.245H381.416V183.432H384.614V180.245Z" fill="#FAFAFA"/>
<path d="M384.614 185.594H381.416V188.781H384.614V185.594Z" fill="#FAFAFA"/>
<path d="M384.614 190.942H381.416V194.13H384.614V190.942Z" fill="#FAFAFA"/>
<path d="M384.614 196.291H381.416V199.479H384.614V196.291Z" fill="#FAFAFA"/>
<path d="M384.614 201.651H381.416V204.839H384.614V201.651Z" fill="#FAFAFA"/>
<path d="M384.614 207H381.416V210.187H384.614V207Z" fill="#FAFAFA"/>
<path d="M384.614 212.349H381.416V215.536H384.614V212.349Z" fill="#FAFAFA"/>
<path d="M384.614 217.709H381.416V220.896H384.614V217.709Z" fill="#FAFAFA"/>
<path d="M384.614 223.058H381.416V226.245H384.614V223.058Z" fill="#FAFAFA"/>
<path d="M384.614 228.407H381.416V231.594H384.614V228.407Z" fill="#FAFAFA"/>
<path d="M384.614 233.767H381.416V236.965H384.614V233.767Z" fill="#FAFAFA"/>
<path d="M384.614 239.116H381.416V242.314H384.614V239.116Z" fill="#FAFAFA"/>
<path d="M389.676 121.363H386.478V124.55H389.676V121.363Z" fill="#FAFAFA"/>
<path d="M389.676 126.711H386.478V129.899H389.676V126.711Z" fill="#FAFAFA"/>
<path d="M389.676 132.071H386.478V135.259H389.676V132.071Z" fill="#FAFAFA"/>
<path d="M389.676 137.42H386.478V140.608H389.676V137.42Z" fill="#FAFAFA"/>
<path d="M389.676 142.769H386.478V145.956H389.676V142.769Z" fill="#FAFAFA"/>
<path d="M389.676 148.129H386.478V151.316H389.676V148.129Z" fill="#FAFAFA"/>
<path d="M389.676 153.478H386.478V156.665H389.676V153.478Z" fill="#FAFAFA"/>
<path d="M389.676 158.827H386.478V162.014H389.676V158.827Z" fill="#FAFAFA"/>
<path d="M389.676 164.187H386.478V167.374H389.676V164.187Z" fill="#FAFAFA"/>
<path d="M389.676 169.536H386.478V172.723H389.676V169.536Z" fill="#FAFAFA"/>
<path d="M389.676 174.885H386.478V178.072H389.676V174.885Z" fill="#FAFAFA"/>
<path d="M389.676 180.245H386.478V183.432H389.676V180.245Z" fill="#FAFAFA"/>
<path d="M389.676 185.594H386.478V188.781H389.676V185.594Z" fill="#FAFAFA"/>
<path d="M389.676 190.942H386.478V194.13H389.676V190.942Z" fill="#FAFAFA"/>
<path d="M389.676 196.291H386.478V199.479H389.676V196.291Z" fill="#FAFAFA"/>
<path d="M389.676 201.651H386.478V204.839H389.676V201.651Z" fill="#FAFAFA"/>
<path d="M389.676 207H386.478V210.187H389.676V207Z" fill="#FAFAFA"/>
<path d="M389.676 212.349H386.478V215.536H389.676V212.349Z" fill="#FAFAFA"/>
<path d="M389.676 217.709H386.478V220.896H389.676V217.709Z" fill="#FAFAFA"/>
<path d="M394.738 121.363H391.551V124.55H394.738V121.363Z" fill="#FAFAFA"/>
<path d="M394.738 126.711H391.551V129.899H394.738V126.711Z" fill="#FAFAFA"/>
<path d="M394.738 132.071H391.551V135.259H394.738V132.071Z" fill="#FAFAFA"/>
<path d="M394.738 137.42H391.551V140.608H394.738V137.42Z" fill="#FAFAFA"/>
<path d="M394.738 142.769H391.551V145.956H394.738V142.769Z" fill="#FAFAFA"/>
<path d="M394.738 148.129H391.551V151.316H394.738V148.129Z" fill="#FAFAFA"/>
<path d="M394.738 153.478H391.551V156.665H394.738V153.478Z" fill="#FAFAFA"/>
<path d="M394.738 158.827H391.551V162.014H394.738V158.827Z" fill="#FAFAFA"/>
<path d="M394.738 164.187H391.551V167.374H394.738V164.187Z" fill="#FAFAFA"/>
<path d="M394.738 169.536H391.551V172.723H394.738V169.536Z" fill="#FAFAFA"/>
<path d="M394.738 174.885H391.551V178.072H394.738V174.885Z" fill="#FAFAFA"/>
<path d="M394.738 180.245H391.551V183.432H394.738V180.245Z" fill="#FAFAFA"/>
<path d="M394.738 185.594H391.551V188.781H394.738V185.594Z" fill="#FAFAFA"/>
<path d="M394.738 190.942H391.551V194.13H394.738V190.942Z" fill="#FAFAFA"/>
<path d="M394.738 196.291H391.551V199.479H394.738V196.291Z" fill="#FAFAFA"/>
<path d="M394.738 201.651H391.551V204.839H394.738V201.651Z" fill="#FAFAFA"/>
<path d="M394.738 207H391.551V210.187H394.738V207Z" fill="#FAFAFA"/>
<path d="M394.738 212.349H391.551V215.536H394.738V212.349Z" fill="#FAFAFA"/>
<path d="M394.738 217.709H391.551V220.896H394.738V217.709Z" fill="#FAFAFA"/>
<path d="M399.822 121.363H396.624V124.55H399.822V121.363Z" fill="#FAFAFA"/>
<path d="M399.822 126.711H396.624V129.899H399.822V126.711Z" fill="#FAFAFA"/>
<path d="M399.822 132.071H396.624V135.259H399.822V132.071Z" fill="#FAFAFA"/>
<path d="M399.822 137.42H396.624V140.608H399.822V137.42Z" fill="#FAFAFA"/>
<path d="M399.822 142.769H396.624V145.956H399.822V142.769Z" fill="#FAFAFA"/>
<path d="M399.822 148.129H396.624V151.316H399.822V148.129Z" fill="#FAFAFA"/>
<path d="M399.822 153.478H396.624V156.665H399.822V153.478Z" fill="#FAFAFA"/>
<path d="M399.822 158.827H396.624V162.014H399.822V158.827Z" fill="#FAFAFA"/>
<path d="M399.822 164.187H396.624V167.374H399.822V164.187Z" fill="#FAFAFA"/>
<path d="M399.822 169.536H396.624V172.723H399.822V169.536Z" fill="#FAFAFA"/>
<path d="M399.822 174.885H396.624V178.072H399.822V174.885Z" fill="#FAFAFA"/>
<path d="M399.822 180.245H396.624V183.432H399.822V180.245Z" fill="#FAFAFA"/>
<path d="M399.822 185.594H396.624V188.781H399.822V185.594Z" fill="#FAFAFA"/>
<path d="M399.822 190.942H396.624V194.13H399.822V190.942Z" fill="#FAFAFA"/>
<path d="M399.822 196.291H396.624V199.479H399.822V196.291Z" fill="#FAFAFA"/>
<path d="M404.896 121.363H401.697V124.55H404.896V121.363Z" fill="#FAFAFA"/>
<path d="M404.896 126.711H401.697V129.899H404.896V126.711Z" fill="#FAFAFA"/>
<path d="M404.896 132.071H401.697V135.259H404.896V132.071Z" fill="#FAFAFA"/>
<path d="M404.896 137.42H401.697V140.608H404.896V137.42Z" fill="#FAFAFA"/>
<path d="M404.896 142.769H401.697V145.956H404.896V142.769Z" fill="#FAFAFA"/>
<path d="M404.896 148.129H401.697V151.316H404.896V148.129Z" fill="#FAFAFA"/>
<path d="M404.896 153.478H401.697V156.665H404.896V153.478Z" fill="#FAFAFA"/>
<path d="M404.896 158.827H401.697V162.014H404.896V158.827Z" fill="#FAFAFA"/>
<path d="M404.896 164.187H401.697V167.374H404.896V164.187Z" fill="#FAFAFA"/>
<path d="M404.896 169.536H401.697V172.723H404.896V169.536Z" fill="#FAFAFA"/>
<path d="M404.896 174.885H401.697V178.072H404.896V174.885Z" fill="#FAFAFA"/>
<path d="M404.896 180.245H401.697V183.432H404.896V180.245Z" fill="#FAFAFA"/>
<path d="M404.896 185.594H401.697V188.781H404.896V185.594Z" fill="#FAFAFA"/>
<path d="M409.947 121.363H406.76V124.55H409.947V121.363Z" fill="#FAFAFA"/>
<path d="M409.947 126.711H406.76V129.899H409.947V126.711Z" fill="#FAFAFA"/>
<path d="M409.947 132.071H406.76V135.259H409.947V132.071Z" fill="#FAFAFA"/>
<path d="M409.947 137.42H406.76V140.608H409.947V137.42Z" fill="#FAFAFA"/>
<path d="M409.947 142.769H406.76V145.956H409.947V142.769Z" fill="#FAFAFA"/>
<path d="M409.947 148.129H406.76V151.316H409.947V148.129Z" fill="#FAFAFA"/>
<path d="M409.947 153.478H406.76V156.665H409.947V153.478Z" fill="#FAFAFA"/>
<path d="M409.947 158.827H406.76V162.014H409.947V158.827Z" fill="#FAFAFA"/>
<path d="M409.947 164.187H406.76V167.374H409.947V164.187Z" fill="#FAFAFA"/>
<path d="M409.947 169.536H406.76V172.723H409.947V169.536Z" fill="#FAFAFA"/>
<path d="M409.947 174.885H406.76V178.072H409.947V174.885Z" fill="#FAFAFA"/>
<path d="M409.947 180.245H406.76V183.432H409.947V180.245Z" fill="#FAFAFA"/>
<path d="M37.3543 160.426H34.167V163.624H37.3543V160.426Z" fill="#FAFAFA"/>
<path d="M37.3543 165.775H34.167V168.973H37.3543V165.775Z" fill="#FAFAFA"/>
<path d="M37.3543 171.135H34.167V174.322H37.3543V171.135Z" fill="#FAFAFA"/>
<path d="M37.3543 176.484H34.167V179.682H37.3543V176.484Z" fill="#FAFAFA"/>
<path d="M37.3543 181.833H34.167V185.02H37.3543V181.833Z" fill="#FAFAFA"/>
<path d="M37.3543 187.193H34.167V190.38H37.3543V187.193Z" fill="#FAFAFA"/>
<path d="M37.3543 192.542H34.167V195.729H37.3543V192.542Z" fill="#FAFAFA"/>
<path d="M37.3543 197.891H34.167V201.078H37.3543V197.891Z" fill="#FAFAFA"/>
<path d="M37.3543 203.239H34.167V206.438H37.3543V203.239Z" fill="#FAFAFA"/>
<path d="M37.3543 208.599H34.167V211.798H37.3543V208.599Z" fill="#FAFAFA"/>
<path d="M37.3543 213.948H34.167V217.147H37.3543V213.948Z" fill="#FAFAFA"/>
<path d="M37.3543 219.297H34.167V222.484H37.3543V219.297Z" fill="#FAFAFA"/>
<path d="M37.3543 224.657H34.167V227.844H37.3543V224.657Z" fill="#FAFAFA"/>
<path d="M37.3543 230.006H34.167V233.193H37.3543V230.006Z" fill="#FAFAFA"/>
<path d="M37.3543 235.355H34.167V238.542H37.3543V235.355Z" fill="#FAFAFA"/>
<path d="M37.3543 240.715H34.167V243.902H37.3543V240.715Z" fill="#FAFAFA"/>
<path d="M37.3543 246.064H34.167V249.251H37.3543V246.064Z" fill="#FAFAFA"/>
<path d="M37.3543 251.413H34.167V254.6H37.3543V251.413Z" fill="#FAFAFA"/>
<path d="M37.3543 256.773H34.167V259.96H37.3543V256.773Z" fill="#FAFAFA"/>
<path d="M37.3543 262.122H34.167V265.309H37.3543V262.122Z" fill="#FAFAFA"/>
<path d="M42.4265 160.426H39.2393V163.624H42.4265V160.426Z" fill="#FAFAFA"/>
<path d="M42.4265 165.775H39.2393V168.973H42.4265V165.775Z" fill="#FAFAFA"/>
<path d="M42.4265 171.135H39.2393V174.322H42.4265V171.135Z" fill="#FAFAFA"/>
<path d="M42.4265 176.484H39.2393V179.682H42.4265V176.484Z" fill="#FAFAFA"/>
<path d="M42.4265 181.833H39.2393V185.02H42.4265V181.833Z" fill="#FAFAFA"/>
<path d="M42.4265 187.193H39.2393V190.38H42.4265V187.193Z" fill="#FAFAFA"/>
<path d="M42.4265 192.542H39.2393V195.729H42.4265V192.542Z" fill="#FAFAFA"/>
<path d="M42.4265 197.891H39.2393V201.078H42.4265V197.891Z" fill="#FAFAFA"/>
<path d="M42.4265 203.239H39.2393V206.438H42.4265V203.239Z" fill="#FAFAFA"/>
<path d="M42.4265 208.599H39.2393V211.798H42.4265V208.599Z" fill="#FAFAFA"/>
<path d="M42.4265 213.948H39.2393V217.147H42.4265V213.948Z" fill="#FAFAFA"/>
<path d="M42.4265 219.297H39.2393V222.484H42.4265V219.297Z" fill="#FAFAFA"/>
<path d="M42.4265 224.657H39.2393V227.844H42.4265V224.657Z" fill="#FAFAFA"/>
<path d="M42.4265 230.006H39.2393V233.193H42.4265V230.006Z" fill="#FAFAFA"/>
<path d="M42.4265 235.355H39.2393V238.542H42.4265V235.355Z" fill="#FAFAFA"/>
<path d="M42.4265 240.715H39.2393V243.902H42.4265V240.715Z" fill="#FAFAFA"/>
<path d="M42.4265 246.064H39.2393V249.251H42.4265V246.064Z" fill="#FAFAFA"/>
<path d="M42.4265 251.413H39.2393V254.6H42.4265V251.413Z" fill="#FAFAFA"/>
<path d="M47.4998 160.426H44.3125V163.624H47.4998V160.426Z" fill="#FAFAFA"/>
<path d="M47.4998 165.775H44.3125V168.973H47.4998V165.775Z" fill="#FAFAFA"/>
<path d="M47.4998 171.135H44.3125V174.322H47.4998V171.135Z" fill="#FAFAFA"/>
<path d="M47.4998 176.484H44.3125V179.682H47.4998V176.484Z" fill="#FAFAFA"/>
<path d="M47.4998 181.833H44.3125V185.02H47.4998V181.833Z" fill="#FAFAFA"/>
<path d="M47.4998 187.193H44.3125V190.38H47.4998V187.193Z" fill="#FAFAFA"/>
<path d="M47.4998 192.542H44.3125V195.729H47.4998V192.542Z" fill="#FAFAFA"/>
<path d="M47.4998 197.891H44.3125V201.078H47.4998V197.891Z" fill="#FAFAFA"/>
<path d="M47.4998 203.239H44.3125V206.438H47.4998V203.239Z" fill="#FAFAFA"/>
<path d="M47.4998 208.599H44.3125V211.798H47.4998V208.599Z" fill="#FAFAFA"/>
<path d="M47.4998 213.948H44.3125V217.147H47.4998V213.948Z" fill="#FAFAFA"/>
<path d="M47.4998 219.297H44.3125V222.484H47.4998V219.297Z" fill="#FAFAFA"/>
<path d="M47.4998 224.657H44.3125V227.844H47.4998V224.657Z" fill="#FAFAFA"/>
<path d="M47.4998 230.006H44.3125V233.193H47.4998V230.006Z" fill="#FAFAFA"/>
<path d="M47.4998 235.355H44.3125V238.542H47.4998V235.355Z" fill="#FAFAFA"/>
<path d="M47.4998 240.715H44.3125V243.902H47.4998V240.715Z" fill="#FAFAFA"/>
<path d="M47.4998 246.064H44.3125V249.251H47.4998V246.064Z" fill="#FAFAFA"/>
<path d="M47.4998 251.413H44.3125V254.6H47.4998V251.413Z" fill="#FAFAFA"/>
<path d="M18.3956 199.49H15.1973V202.688H18.3956V199.49Z" fill="#FAFAFA"/>
<path d="M18.3956 204.839H15.1973V208.026H18.3956V204.839Z" fill="#FAFAFA"/>
<path d="M18.3956 210.198H15.1973V213.386H18.3956V210.198Z" fill="#FAFAFA"/>
<path d="M18.3956 215.547H15.1973V218.746H18.3956V215.547Z" fill="#FAFAFA"/>
<path d="M18.3956 220.896H15.1973V224.084H18.3956V220.896Z" fill="#FAFAFA"/>
<path d="M18.3956 226.256H15.1973V229.444H18.3956V226.256Z" fill="#FAFAFA"/>
<path d="M18.3956 231.605H15.1973V234.792H18.3956V231.605Z" fill="#FAFAFA"/>
<path d="M18.3956 236.954H15.1973V240.141H18.3956V236.954Z" fill="#FAFAFA"/>
<path d="M18.3956 242.303H15.1973V245.49H18.3956V242.303Z" fill="#FAFAFA"/>
<path d="M18.3956 247.663H15.1973V250.85H18.3956V247.663Z" fill="#FAFAFA"/>
<path d="M18.3956 253.012H15.1973V256.199H18.3956V253.012Z" fill="#FAFAFA"/>
<path d="M18.3956 258.361H15.1973V261.548H18.3956V258.361Z" fill="#FAFAFA"/>
<path d="M18.3956 263.721H15.1973V266.908H18.3956V263.721Z" fill="#FAFAFA"/>
<path d="M23.4688 199.49H20.2705V202.688H23.4688V199.49Z" fill="#FAFAFA"/>
<path d="M23.4688 204.839H20.2705V208.026H23.4688V204.839Z" fill="#FAFAFA"/>
<path d="M23.4688 210.198H20.2705V213.386H23.4688V210.198Z" fill="#FAFAFA"/>
<path d="M23.4688 215.547H20.2705V218.746H23.4688V215.547Z" fill="#FAFAFA"/>
<path d="M23.4688 220.896H20.2705V224.084H23.4688V220.896Z" fill="#FAFAFA"/>
<path d="M23.4688 226.256H20.2705V229.444H23.4688V226.256Z" fill="#FAFAFA"/>
<path d="M23.4688 231.605H20.2705V234.792H23.4688V231.605Z" fill="#FAFAFA"/>
<path d="M23.4688 236.954H20.2705V240.141H23.4688V236.954Z" fill="#FAFAFA"/>
<path d="M23.4688 242.303H20.2705V245.49H23.4688V242.303Z" fill="#FAFAFA"/>
<path d="M23.4688 247.663H20.2705V250.85H23.4688V247.663Z" fill="#FAFAFA"/>
<path d="M23.4688 253.012H20.2705V256.199H23.4688V253.012Z" fill="#FAFAFA"/>
<path d="M23.4688 258.361H20.2705V261.548H23.4688V258.361Z" fill="#FAFAFA"/>
<path d="M23.4688 263.721H20.2705V266.908H23.4688V263.721Z" fill="#FAFAFA"/>
<path d="M28.531 199.49H25.3438V202.688H28.531V199.49Z" fill="#FAFAFA"/>
<path d="M28.531 204.839H25.3438V208.026H28.531V204.839Z" fill="#FAFAFA"/>
<path d="M28.531 210.198H25.3438V213.386H28.531V210.198Z" fill="#FAFAFA"/>
<path d="M28.531 215.547H25.3438V218.746H28.531V215.547Z" fill="#FAFAFA"/>
<path d="M28.531 220.896H25.3438V224.084H28.531V220.896Z" fill="#FAFAFA"/>
<path d="M28.531 226.256H25.3438V229.444H28.531V226.256Z" fill="#FAFAFA"/>
<path d="M28.531 231.605H25.3438V234.792H28.531V231.605Z" fill="#FAFAFA"/>
<path d="M28.531 236.954H25.3438V240.141H28.531V236.954Z" fill="#FAFAFA"/>
<path d="M28.531 242.303H25.3438V245.49H28.531V242.303Z" fill="#FAFAFA"/>
<path d="M28.531 247.663H25.3438V250.85H28.531V247.663Z" fill="#FAFAFA"/>
<path d="M28.531 253.012H25.3438V256.199H28.531V253.012Z" fill="#FAFAFA"/>
<path d="M28.531 258.361H25.3438V261.548H28.531V258.361Z" fill="#FAFAFA"/>
<path d="M28.531 263.721H25.3438V266.908H28.531V263.721Z" fill="#FAFAFA"/>
<path d="M28.531 269.07H25.3438V272.257H28.531V269.07Z" fill="#FAFAFA"/>
<path d="M56.71 201.089H53.5117V204.276H56.71V201.089Z" fill="#FAFAFA"/>
<path d="M56.71 206.438H53.5117V209.625H56.71V206.438Z" fill="#FAFAFA"/>
<path d="M56.71 211.787H53.5117V214.974H56.71V211.787Z" fill="#FAFAFA"/>
<path d="M56.71 217.147H53.5117V220.334H56.71V217.147Z" fill="#FAFAFA"/>
<path d="M56.71 222.495H53.5117V225.683H56.71V222.495Z" fill="#FAFAFA"/>
<path d="M56.71 227.844H53.5117V231.032H56.71V227.844Z" fill="#FAFAFA"/>
<path d="M56.71 233.204H53.5117V236.392H56.71V233.204Z" fill="#FAFAFA"/>
<path d="M56.71 238.553H53.5117V241.752H56.71V238.553Z" fill="#FAFAFA"/>
<path d="M56.71 243.902H53.5117V247.089H56.71V243.902Z" fill="#FAFAFA"/>
<path d="M56.71 249.251H53.5117V252.438H56.71V249.251Z" fill="#FAFAFA"/>
<path d="M56.71 265.309H53.5117V268.496H56.71V265.309Z" fill="#FAFAFA"/>
<path d="M61.7823 201.089H58.584V204.276H61.7823V201.089Z" fill="#FAFAFA"/>
<path d="M61.7823 206.438H58.584V209.625H61.7823V206.438Z" fill="#FAFAFA"/>
<path d="M61.7823 211.787H58.584V214.974H61.7823V211.787Z" fill="#FAFAFA"/>
<path d="M61.7823 217.147H58.584V220.334H61.7823V217.147Z" fill="#FAFAFA"/>
<path d="M61.7823 222.495H58.584V225.683H61.7823V222.495Z" fill="#FAFAFA"/>
<path d="M61.7823 227.844H58.584V231.032H61.7823V227.844Z" fill="#FAFAFA"/>
<path d="M61.7823 233.204H58.584V236.392H61.7823V233.204Z" fill="#FAFAFA"/>
<path d="M61.7823 238.553H58.584V241.752H61.7823V238.553Z" fill="#FAFAFA"/>
<path d="M61.7823 243.902H58.584V247.089H61.7823V243.902Z" fill="#FAFAFA"/>
<path d="M61.7823 259.96H58.584V263.158H61.7823V259.96Z" fill="#FAFAFA"/>
<path d="M61.7823 265.309H58.584V268.496H61.7823V265.309Z" fill="#FAFAFA"/>
<path d="M66.8445 201.089H63.6572V204.276H66.8445V201.089Z" fill="#FAFAFA"/>
<path d="M66.8445 206.438H63.6572V209.625H66.8445V206.438Z" fill="#FAFAFA"/>
<path d="M66.8445 211.787H63.6572V214.974H66.8445V211.787Z" fill="#FAFAFA"/>
<path d="M66.8445 217.147H63.6572V220.334H66.8445V217.147Z" fill="#FAFAFA"/>
<path d="M66.8445 222.495H63.6572V225.683H66.8445V222.495Z" fill="#FAFAFA"/>
<path d="M66.8445 227.844H63.6572V231.032H66.8445V227.844Z" fill="#FAFAFA"/>
<path d="M66.8445 233.204H63.6572V236.392H66.8445V233.204Z" fill="#FAFAFA"/>
<path d="M66.8445 238.553H63.6572V241.752H66.8445V238.553Z" fill="#FAFAFA"/>
<path d="M66.8445 254.611H63.6572V257.809H66.8445V254.611Z" fill="#FAFAFA"/>
<path d="M66.8445 259.96H63.6572V263.158H66.8445V259.96Z" fill="#FAFAFA"/>
<path d="M66.8445 265.309H63.6572V268.496H66.8445V265.309Z" fill="#FAFAFA"/>
<path d="M113.981 119.763H110.794V122.951H113.981V119.763Z" fill="#FAFAFA"/>
<path d="M113.981 125.123H110.794V128.311H113.981V125.123Z" fill="#FAFAFA"/>
<path d="M113.981 130.472H110.794V133.66H113.981V130.472Z" fill="#FAFAFA"/>
<path d="M113.981 135.821H110.794V139.008H113.981V135.821Z" fill="#FAFAFA"/>
<path d="M113.981 141.181H110.794V144.368H113.981V141.181Z" fill="#FAFAFA"/>
<path d="M113.981 146.53H110.794V149.728H113.981V146.53Z" fill="#FAFAFA"/>
<path d="M113.981 151.879H110.794V155.066H113.981V151.879Z" fill="#FAFAFA"/>
<path d="M113.981 157.239H110.794V160.426H113.981V157.239Z" fill="#FAFAFA"/>
<path d="M113.981 162.588H110.794V165.775H113.981V162.588Z" fill="#FAFAFA"/>
<path d="M113.981 167.937H110.794V171.124H113.981V167.937Z" fill="#FAFAFA"/>
<path d="M113.981 173.286H110.794V176.473H113.981V173.286Z" fill="#FAFAFA"/>
<path d="M113.981 178.645H110.794V181.833H113.981V178.645Z" fill="#FAFAFA"/>
<path d="M113.981 183.994H110.794V187.182H113.981V183.994Z" fill="#FAFAFA"/>
<path d="M113.981 189.343H110.794V192.531H113.981V189.343Z" fill="#FAFAFA"/>
<path d="M113.981 194.703H110.794V197.901H113.981V194.703Z" fill="#FAFAFA"/>
<path d="M113.981 200.052H110.794V203.239H113.981V200.052Z" fill="#FAFAFA"/>
<path d="M113.981 205.401H110.794V208.588H113.981V205.401Z" fill="#FAFAFA"/>
<path d="M113.981 216.11H110.794V219.297H113.981V216.11Z" fill="#FAFAFA"/>
<path d="M113.981 221.459H110.794V224.646H113.981V221.459Z" fill="#FAFAFA"/>
<path d="M113.981 226.819H110.794V230.006H113.981V226.819Z" fill="#FAFAFA"/>
<path d="M113.981 232.168H110.794V235.355H113.981V232.168Z" fill="#FAFAFA"/>
<path d="M113.981 237.517H110.794V240.704H113.981V237.517Z" fill="#FAFAFA"/>
<path d="M119.044 119.763H115.856V122.951H119.044V119.763Z" fill="#FAFAFA"/>
<path d="M119.044 125.123H115.856V128.311H119.044V125.123Z" fill="#FAFAFA"/>
<path d="M119.044 130.472H115.856V133.66H119.044V130.472Z" fill="#FAFAFA"/>
<path d="M119.044 135.821H115.856V139.008H119.044V135.821Z" fill="#FAFAFA"/>
<path d="M119.044 141.181H115.856V144.368H119.044V141.181Z" fill="#FAFAFA"/>
<path d="M119.044 146.53H115.856V149.728H119.044V146.53Z" fill="#FAFAFA"/>
<path d="M119.044 151.879H115.856V155.066H119.044V151.879Z" fill="#FAFAFA"/>
<path d="M119.044 157.239H115.856V160.426H119.044V157.239Z" fill="#FAFAFA"/>
<path d="M119.044 162.588H115.856V165.775H119.044V162.588Z" fill="#FAFAFA"/>
<path d="M119.044 167.937H115.856V171.124H119.044V167.937Z" fill="#FAFAFA"/>
<path d="M119.044 173.286H115.856V176.473H119.044V173.286Z" fill="#FAFAFA"/>
<path d="M119.044 178.645H115.856V181.833H119.044V178.645Z" fill="#FAFAFA"/>
<path d="M119.044 183.994H115.856V187.182H119.044V183.994Z" fill="#FAFAFA"/>
<path d="M119.044 189.343H115.856V192.531H119.044V189.343Z" fill="#FAFAFA"/>
<path d="M119.044 194.703H115.856V197.901H119.044V194.703Z" fill="#FAFAFA"/>
<path d="M119.044 200.052H115.856V203.239H119.044V200.052Z" fill="#FAFAFA"/>
<path d="M119.044 232.168H115.856V235.355H119.044V232.168Z" fill="#FAFAFA"/>
<path d="M119.044 237.517H115.856V240.704H119.044V237.517Z" fill="#FAFAFA"/>
<path d="M124.117 119.763H120.93V122.951H124.117V119.763Z" fill="#FAFAFA"/>
<path d="M124.117 125.123H120.93V128.311H124.117V125.123Z" fill="#FAFAFA"/>
<path d="M124.117 130.472H120.93V133.66H124.117V130.472Z" fill="#FAFAFA"/>
<path d="M124.117 135.821H120.93V139.008H124.117V135.821Z" fill="#FAFAFA"/>
<path d="M124.117 141.181H120.93V144.368H124.117V141.181Z" fill="#FAFAFA"/>
<path d="M124.117 146.53H120.93V149.728H124.117V146.53Z" fill="#FAFAFA"/>
<path d="M124.117 151.879H120.93V155.066H124.117V151.879Z" fill="#FAFAFA"/>
<path d="M124.117 157.239H120.93V160.426H124.117V157.239Z" fill="#FAFAFA"/>
<path d="M124.117 162.588H120.93V165.775H124.117V162.588Z" fill="#FAFAFA"/>
<path d="M124.117 167.937H120.93V171.124H124.117V167.937Z" fill="#FAFAFA"/>
<path d="M124.117 173.286H120.93V176.473H124.117V173.286Z" fill="#FAFAFA"/>
<path d="M124.117 178.645H120.93V181.833H124.117V178.645Z" fill="#FAFAFA"/>
<path d="M124.117 183.994H120.93V187.182H124.117V183.994Z" fill="#FAFAFA"/>
<path d="M124.117 189.343H120.93V192.531H124.117V189.343Z" fill="#FAFAFA"/>
<path d="M124.117 194.703H120.93V197.901H124.117V194.703Z" fill="#FAFAFA"/>
<path d="M124.117 200.052H120.93V203.239H124.117V200.052Z" fill="#FAFAFA"/>
<path d="M124.117 210.761H120.93V213.948H124.117V210.761Z" fill="#FAFAFA"/>
<path d="M124.117 216.11H120.93V219.297H124.117V216.11Z" fill="#FAFAFA"/>
<path d="M124.117 221.459H120.93V224.646H124.117V221.459Z" fill="#FAFAFA"/>
<path d="M124.117 226.819H120.93V230.006H124.117V226.819Z" fill="#FAFAFA"/>
<path d="M124.117 237.517H120.93V240.704H124.117V237.517Z" fill="#FAFAFA"/>
<path d="M95.586 187.193H92.3877V190.38H95.586V187.193Z" fill="#FAFAFA"/>
<path d="M95.586 192.542H92.3877V195.729H95.586V192.542Z" fill="#FAFAFA"/>
<path d="M95.586 197.891H92.3877V201.078H95.586V197.891Z" fill="#FAFAFA"/>
<path d="M95.586 203.239H92.3877V206.438H95.586V203.239Z" fill="#FAFAFA"/>
<path d="M95.586 208.599H92.3877V211.798H95.586V208.599Z" fill="#FAFAFA"/>
<path d="M95.586 213.948H92.3877V217.147H95.586V213.948Z" fill="#FAFAFA"/>
<path d="M95.586 219.297H92.3877V222.484H95.586V219.297Z" fill="#FAFAFA"/>
<path d="M95.586 230.006H92.3877V233.193H95.586V230.006Z" fill="#FAFAFA"/>
<path d="M95.586 235.355H92.3877V238.542H95.586V235.355Z" fill="#FAFAFA"/>
<path d="M95.586 240.715H92.3877V243.902H95.586V240.715Z" fill="#FAFAFA"/>
<path d="M95.586 246.064H92.3877V249.251H95.586V246.064Z" fill="#FAFAFA"/>
<path d="M95.586 251.413H92.3877V254.6H95.586V251.413Z" fill="#FAFAFA"/>
<path d="M95.586 256.773H92.3877V259.96H95.586V256.773Z" fill="#FAFAFA"/>
<path d="M95.586 262.122H92.3877V265.309H95.586V262.122Z" fill="#FAFAFA"/>
<path d="M95.586 267.47H92.3877V270.658H95.586V267.47Z" fill="#FAFAFA"/>
<path d="M100.647 187.193H97.46V190.38H100.647V187.193Z" fill="#FAFAFA"/>
<path d="M100.647 192.542H97.46V195.729H100.647V192.542Z" fill="#FAFAFA"/>
<path d="M100.647 197.891H97.46V201.078H100.647V197.891Z" fill="#FAFAFA"/>
<path d="M100.647 203.239H97.46V206.438H100.647V203.239Z" fill="#FAFAFA"/>
<path d="M100.647 208.599H97.46V211.798H100.647V208.599Z" fill="#FAFAFA"/>
<path d="M100.647 213.948H97.46V217.147H100.647V213.948Z" fill="#FAFAFA"/>
<path d="M100.647 230.006H97.46V233.193H100.647V230.006Z" fill="#FAFAFA"/>
<path d="M100.647 235.355H97.46V238.542H100.647V235.355Z" fill="#FAFAFA"/>
<path d="M100.647 240.715H97.46V243.902H100.647V240.715Z" fill="#FAFAFA"/>
<path d="M100.647 246.064H97.46V249.251H100.647V246.064Z" fill="#FAFAFA"/>
<path d="M100.647 251.413H97.46V254.6H100.647V251.413Z" fill="#FAFAFA"/>
<path d="M100.647 256.773H97.46V259.96H100.647V256.773Z" fill="#FAFAFA"/>
<path d="M100.647 262.122H97.46V265.309H100.647V262.122Z" fill="#FAFAFA"/>
<path d="M100.647 267.47H97.46V270.658H100.647V267.47Z" fill="#FAFAFA"/>
<path d="M105.71 187.193H102.522V190.38H105.71V187.193Z" fill="#FAFAFA"/>
<path d="M105.71 192.542H102.522V195.729H105.71V192.542Z" fill="#FAFAFA"/>
<path d="M105.71 197.891H102.522V201.078H105.71V197.891Z" fill="#FAFAFA"/>
<path d="M105.71 203.239H102.522V206.438H105.71V203.239Z" fill="#FAFAFA"/>
<path d="M105.71 208.599H102.522V211.798H105.71V208.599Z" fill="#FAFAFA"/>
<path d="M105.71 213.948H102.522V217.147H105.71V213.948Z" fill="#FAFAFA"/>
<path d="M105.71 224.657H102.522V227.844H105.71V224.657Z" fill="#FAFAFA"/>
<path d="M105.71 230.006H102.522V233.193H105.71V230.006Z" fill="#FAFAFA"/>
<path d="M105.71 235.355H102.522V238.542H105.71V235.355Z" fill="#FAFAFA"/>
<path d="M105.71 240.715H102.522V243.902H105.71V240.715Z" fill="#FAFAFA"/>
<path d="M105.71 246.064H102.522V249.251H105.71V246.064Z" fill="#FAFAFA"/>
<path d="M105.71 251.413H102.522V254.6H105.71V251.413Z" fill="#FAFAFA"/>
<path d="M105.71 256.773H102.522V259.96H105.71V256.773Z" fill="#FAFAFA"/>
<path d="M105.71 262.122H102.522V265.309H105.71V262.122Z" fill="#FAFAFA"/>
<path d="M105.71 267.47H102.522V270.658H105.71V267.47Z" fill="#FAFAFA"/>
<path d="M212.578 157.239H209.391V160.426H212.578V157.239Z" fill="#FAFAFA"/>
<path d="M212.578 162.588H209.391V165.775H212.578V162.588Z" fill="#FAFAFA"/>
<path d="M212.578 167.937H209.391V171.124H212.578V167.937Z" fill="#FAFAFA"/>
<path d="M212.578 173.286H209.391V176.473H212.578V173.286Z" fill="#FAFAFA"/>
<path d="M212.578 178.645H209.391V181.833H212.578V178.645Z" fill="#FAFAFA"/>
<path d="M212.578 183.994H209.391V187.182H212.578V183.994Z" fill="#FAFAFA"/>
<path d="M212.578 189.343H209.391V192.531H212.578V189.343Z" fill="#FAFAFA"/>
<path d="M212.578 194.703H209.391V197.901H212.578V194.703Z" fill="#FAFAFA"/>
<path d="M212.578 200.052H209.391V203.239H212.578V200.052Z" fill="#FAFAFA"/>
<path d="M212.578 205.401H209.391V208.588H212.578V205.401Z" fill="#FAFAFA"/>
<path d="M212.578 210.761H209.391V213.948H212.578V210.761Z" fill="#FAFAFA"/>
<path d="M212.578 216.11H209.391V219.297H212.578V216.11Z" fill="#FAFAFA"/>
<path d="M212.578 221.459H209.391V224.646H212.578V221.459Z" fill="#FAFAFA"/>
<path d="M212.578 232.168H209.391V235.355H212.578V232.168Z" fill="#FAFAFA"/>
<path d="M212.578 237.517H209.391V240.704H212.578V237.517Z" fill="#FAFAFA"/>
<path d="M212.578 242.865H209.391V246.053H212.578V242.865Z" fill="#FAFAFA"/>
<path d="M212.578 248.225H209.391V251.413H212.578V248.225Z" fill="#FAFAFA"/>
<path d="M212.578 258.923H209.391V262.121H212.578V258.923Z" fill="#FAFAFA"/>
<path d="M212.578 264.283H209.391V267.47H212.578V264.283Z" fill="#FAFAFA"/>
<path d="M212.578 269.632H209.391V272.819H212.578V269.632Z" fill="#FAFAFA"/>
<path d="M217.639 157.239H214.452V160.426H217.639V157.239Z" fill="#FAFAFA"/>
<path d="M217.639 162.588H214.452V165.775H217.639V162.588Z" fill="#FAFAFA"/>
<path d="M217.639 167.937H214.452V171.124H217.639V167.937Z" fill="#FAFAFA"/>
<path d="M217.639 173.286H214.452V176.473H217.639V173.286Z" fill="#FAFAFA"/>
<path d="M217.639 178.645H214.452V181.833H217.639V178.645Z" fill="#FAFAFA"/>
<path d="M217.639 183.994H214.452V187.182H217.639V183.994Z" fill="#FAFAFA"/>
<path d="M217.639 189.343H214.452V192.531H217.639V189.343Z" fill="#FAFAFA"/>
<path d="M217.639 194.703H214.452V197.901H217.639V194.703Z" fill="#FAFAFA"/>
<path d="M217.639 200.052H214.452V203.239H217.639V200.052Z" fill="#FAFAFA"/>
<path d="M217.639 205.401H214.452V208.588H217.639V205.401Z" fill="#FAFAFA"/>
<path d="M217.639 210.761H214.452V213.948H217.639V210.761Z" fill="#FAFAFA"/>
<path d="M217.639 216.11H214.452V219.297H217.639V216.11Z" fill="#FAFAFA"/>
<path d="M217.639 221.459H214.452V224.646H217.639V221.459Z" fill="#FAFAFA"/>
<path d="M217.639 237.517H214.452V240.704H217.639V237.517Z" fill="#FAFAFA"/>
<path d="M217.639 242.865H214.452V246.053H217.639V242.865Z" fill="#FAFAFA"/>
<path d="M217.639 253.574H214.452V256.762H217.639V253.574Z" fill="#FAFAFA"/>
<path d="M217.639 258.923H214.452V262.121H217.639V258.923Z" fill="#FAFAFA"/>
<path d="M217.639 264.283H214.452V267.47H217.639V264.283Z" fill="#FAFAFA"/>
<path d="M217.639 269.632H214.452V272.819H217.639V269.632Z" fill="#FAFAFA"/>
<path d="M222.713 157.239H219.525V160.426H222.713V157.239Z" fill="#FAFAFA"/>
<path d="M222.713 162.588H219.525V165.775H222.713V162.588Z" fill="#FAFAFA"/>
<path d="M222.713 167.937H219.525V171.124H222.713V167.937Z" fill="#FAFAFA"/>
<path d="M222.713 173.286H219.525V176.473H222.713V173.286Z" fill="#FAFAFA"/>
<path d="M222.713 178.645H219.525V181.833H222.713V178.645Z" fill="#FAFAFA"/>
<path d="M222.713 183.994H219.525V187.182H222.713V183.994Z" fill="#FAFAFA"/>
<path d="M222.713 189.343H219.525V192.531H222.713V189.343Z" fill="#FAFAFA"/>
<path d="M222.713 194.703H219.525V197.901H222.713V194.703Z" fill="#FAFAFA"/>
<path d="M222.713 200.052H219.525V203.239H222.713V200.052Z" fill="#FAFAFA"/>
<path d="M222.713 205.401H219.525V208.588H222.713V205.401Z" fill="#FAFAFA"/>
<path d="M222.713 210.761H219.525V213.948H222.713V210.761Z" fill="#FAFAFA"/>
<path d="M222.713 216.11H219.525V219.297H222.713V216.11Z" fill="#FAFAFA"/>
<path d="M222.713 221.459H219.525V224.646H222.713V221.459Z" fill="#FAFAFA"/>
<path d="M222.713 226.819H219.525V230.006H222.713V226.819Z" fill="#FAFAFA"/>
<path d="M222.713 237.517H219.525V240.704H222.713V237.517Z" fill="#FAFAFA"/>
<path d="M222.713 248.225H219.525V251.413H222.713V248.225Z" fill="#FAFAFA"/>
<path d="M222.713 253.574H219.525V256.762H222.713V253.574Z" fill="#FAFAFA"/>
<path d="M222.713 258.923H219.525V262.121H222.713V258.923Z" fill="#FAFAFA"/>
<path d="M222.713 264.283H219.525V267.47H222.713V264.283Z" fill="#FAFAFA"/>
<path d="M222.713 269.632H219.525V272.819H222.713V269.632Z" fill="#FAFAFA"/>
<path d="M191.91 187.755H188.723V190.942H191.91V187.755Z" fill="#FAFAFA"/>
<path d="M191.91 193.104H188.723V196.291H191.91V193.104Z" fill="#FAFAFA"/>
<path d="M191.91 198.453H188.723V201.64H191.91V198.453Z" fill="#FAFAFA"/>
<path d="M191.91 203.813H188.723V207H191.91V203.813Z" fill="#FAFAFA"/>
<path d="M191.91 209.162H188.723V212.349H191.91V209.162Z" fill="#FAFAFA"/>
<path d="M191.91 214.511H188.723V217.698H191.91V214.511Z" fill="#FAFAFA"/>
<path d="M191.91 230.568H188.723V233.756H191.91V230.568Z" fill="#FAFAFA"/>
<path d="M191.91 235.917H188.723V239.105H191.91V235.917Z" fill="#FAFAFA"/>
<path d="M191.91 241.277H188.723V244.465H191.91V241.277Z" fill="#FAFAFA"/>
<path d="M191.91 246.626H188.723V249.824H191.91V246.626Z" fill="#FAFAFA"/>
<path d="M191.91 251.975H188.723V255.162H191.91V251.975Z" fill="#FAFAFA"/>
<path d="M191.91 257.335H188.723V260.522H191.91V257.335Z" fill="#FAFAFA"/>
<path d="M191.91 262.684H188.723V265.871H191.91V262.684Z" fill="#FAFAFA"/>
<path d="M196.983 187.755H193.796V190.942H196.983V187.755Z" fill="#FAFAFA"/>
<path d="M196.983 193.104H193.796V196.291H196.983V193.104Z" fill="#FAFAFA"/>
<path d="M196.983 198.453H193.796V201.64H196.983V198.453Z" fill="#FAFAFA"/>
<path d="M196.983 203.813H193.796V207H196.983V203.813Z" fill="#FAFAFA"/>
<path d="M196.983 209.162H193.796V212.349H196.983V209.162Z" fill="#FAFAFA"/>
<path d="M196.983 214.511H193.796V217.698H196.983V214.511Z" fill="#FAFAFA"/>
<path d="M196.983 230.568H193.796V233.756H196.983V230.568Z" fill="#FAFAFA"/>
<path d="M196.983 235.917H193.796V239.105H196.983V235.917Z" fill="#FAFAFA"/>
<path d="M196.983 241.277H193.796V244.465H196.983V241.277Z" fill="#FAFAFA"/>
<path d="M196.983 246.626H193.796V249.824H196.983V246.626Z" fill="#FAFAFA"/>
<path d="M196.983 251.975H193.796V255.162H196.983V251.975Z" fill="#FAFAFA"/>
<path d="M196.983 257.335H193.796V260.522H196.983V257.335Z" fill="#FAFAFA"/>
<path d="M196.983 268.033H193.796V271.22H196.983V268.033Z" fill="#FAFAFA"/>
<path d="M365.457 164.187H362.259V167.374H365.457V164.187Z" fill="#FAFAFA"/>
<path d="M365.457 169.536H362.259V172.723H365.457V169.536Z" fill="#FAFAFA"/>
<path d="M365.457 174.885H362.259V178.072H365.457V174.885Z" fill="#FAFAFA"/>
<path d="M365.457 180.245H362.259V183.432H365.457V180.245Z" fill="#FAFAFA"/>
<path d="M365.457 185.594H362.259V188.781H365.457V185.594Z" fill="#FAFAFA"/>
<path d="M365.457 190.942H362.259V194.13H365.457V190.942Z" fill="#FAFAFA"/>
<path d="M365.457 196.291H362.259V199.479H365.457V196.291Z" fill="#FAFAFA"/>
<path d="M365.457 201.651H362.259V204.839H365.457V201.651Z" fill="#FAFAFA"/>
<path d="M365.457 207H362.259V210.187H365.457V207Z" fill="#FAFAFA"/>
<path d="M365.457 212.349H362.259V215.536H365.457V212.349Z" fill="#FAFAFA"/>
<path d="M365.457 217.709H362.259V220.896H365.457V217.709Z" fill="#FAFAFA"/>
<path d="M365.457 228.407H362.259V231.594H365.457V228.407Z" fill="#FAFAFA"/>
<path d="M365.457 233.767H362.259V236.965H365.457V233.767Z" fill="#FAFAFA"/>
<path d="M365.457 239.116H362.259V242.314H365.457V239.116Z" fill="#FAFAFA"/>
<path d="M365.457 244.465H362.259V247.652H365.457V244.465Z" fill="#FAFAFA"/>
<path d="M365.457 249.825H362.259V253.012H365.457V249.825Z" fill="#FAFAFA"/>
<path d="M365.457 255.173H362.259V258.361H365.457V255.173Z" fill="#FAFAFA"/>
<path d="M365.457 260.522H362.259V263.71H365.457V260.522Z" fill="#FAFAFA"/>
<path d="M365.457 265.871H362.259V269.059H365.457V265.871Z" fill="#FAFAFA"/>
<path d="M370.508 164.187H367.32V167.374H370.508V164.187Z" fill="#FAFAFA"/>
<path d="M370.508 169.536H367.32V172.723H370.508V169.536Z" fill="#FAFAFA"/>
<path d="M370.508 174.885H367.32V178.072H370.508V174.885Z" fill="#FAFAFA"/>
<path d="M370.508 180.245H367.32V183.432H370.508V180.245Z" fill="#FAFAFA"/>
<path d="M370.508 185.594H367.32V188.781H370.508V185.594Z" fill="#FAFAFA"/>
<path d="M370.508 190.942H367.32V194.13H370.508V190.942Z" fill="#FAFAFA"/>
<path d="M370.508 196.291H367.32V199.479H370.508V196.291Z" fill="#FAFAFA"/>
<path d="M370.508 201.651H367.32V204.839H370.508V201.651Z" fill="#FAFAFA"/>
<path d="M370.508 207H367.32V210.187H370.508V207Z" fill="#FAFAFA"/>
<path d="M370.508 212.349H367.32V215.536H370.508V212.349Z" fill="#FAFAFA"/>
<path d="M370.508 217.709H367.32V220.896H370.508V217.709Z" fill="#FAFAFA"/>
<path d="M370.508 223.058H367.32V226.245H370.508V223.058Z" fill="#FAFAFA"/>
<path d="M370.508 228.407H367.32V231.594H370.508V228.407Z" fill="#FAFAFA"/>
<path d="M370.508 233.767H367.32V236.965H370.508V233.767Z" fill="#FAFAFA"/>
<path d="M370.508 239.116H367.32V242.314H370.508V239.116Z" fill="#FAFAFA"/>
<path d="M370.508 244.465H367.32V247.652H370.508V244.465Z" fill="#FAFAFA"/>
<path d="M370.508 249.825H367.32V253.012H370.508V249.825Z" fill="#FAFAFA"/>
<path d="M370.508 255.173H367.32V258.361H370.508V255.173Z" fill="#FAFAFA"/>
<path d="M370.508 260.522H367.32V263.71H370.508V260.522Z" fill="#FAFAFA"/>
<path d="M370.508 265.871H367.32V269.059H370.508V265.871Z" fill="#FAFAFA"/>
<path d="M340.467 185.031H337.279V188.218H340.467V185.031Z" fill="#FAFAFA"/>
<path d="M340.467 190.38H337.279V193.567H340.467V190.38Z" fill="#FAFAFA"/>
<path d="M340.467 195.729H337.279V198.916H340.467V195.729Z" fill="#FAFAFA"/>
<path d="M340.467 201.089H337.279V204.276H340.467V201.089Z" fill="#FAFAFA"/>
<path d="M340.467 206.438H337.279V209.625H340.467V206.438Z" fill="#FAFAFA"/>
<path d="M340.467 211.787H337.279V214.974H340.467V211.787Z" fill="#FAFAFA"/>
<path d="M340.467 217.147H337.279V220.334H340.467V217.147Z" fill="#FAFAFA"/>
<path d="M340.467 222.495H337.279V225.683H340.467V222.495Z" fill="#FAFAFA"/>
<path d="M340.467 227.844H337.279V231.032H340.467V227.844Z" fill="#FAFAFA"/>
<path d="M340.467 233.204H337.279V236.392H340.467V233.204Z" fill="#FAFAFA"/>
<path d="M345.54 185.031H342.353V188.218H345.54V185.031Z" fill="#FAFAFA"/>
<path d="M345.54 190.38H342.353V193.567H345.54V190.38Z" fill="#FAFAFA"/>
<path d="M345.54 195.729H342.353V198.916H345.54V195.729Z" fill="#FAFAFA"/>
<path d="M345.54 201.089H342.353V204.276H345.54V201.089Z" fill="#FAFAFA"/>
<path d="M345.54 206.438H342.353V209.625H345.54V206.438Z" fill="#FAFAFA"/>
<path d="M345.54 211.787H342.353V214.974H345.54V211.787Z" fill="#FAFAFA"/>
<path d="M345.54 217.147H342.353V220.334H345.54V217.147Z" fill="#FAFAFA"/>
<path d="M345.54 222.495H342.353V225.683H345.54V222.495Z" fill="#FAFAFA"/>
<path d="M345.54 227.844H342.353V231.032H345.54V227.844Z" fill="#FAFAFA"/>
<path d="M352.918 66.3494C352.918 63.151 355.51 60.5483 358.719 60.5483C359.304 60.5483 359.855 60.6365 360.384 60.7909C360.296 60.2064 360.252 59.6108 360.252 59.0153C360.252 52.2327 365.755 46.7293 372.538 46.7293C373.31 46.7293 374.071 46.8065 374.799 46.9389C376.685 43.8509 380.082 41.7775 383.964 41.7775C389.842 41.7775 394.617 46.4977 394.706 52.365C394.761 52.365 394.827 52.365 394.882 52.365C400.341 52.365 404.775 56.7985 404.775 62.2577C404.775 67.7169 400.341 72.1504 394.882 72.1504H358.554C355.421 72.0622 352.918 69.5036 352.918 66.3604V66.3494Z" fill="#F5F5F5"/>
<path d="M111.754 39.6158H86.8625C86.9287 39.0203 86.9728 38.4137 86.9728 37.7961C86.9728 28.7415 79.6388 21.4075 70.5842 21.4075C70.3857 21.4075 70.1872 21.4295 69.9887 21.4405C67.9373 15.9262 62.6436 12 56.4124 12C48.4056 12 41.9097 18.4959 41.9097 26.5027C41.9097 26.5137 41.9097 26.5248 41.9097 26.5358C34.8072 26.8667 29.1274 32.5354 28.7525 39.6158H28.0907C24.0873 39.6158 20.8008 42.8913 20.8008 46.9058C20.8008 50.9202 24.0763 54.1957 28.0907 54.1957H111.743C115.747 54.1957 119.033 50.9202 119.033 46.9058C119.033 42.8913 115.758 39.6158 111.743 39.6158H111.754Z" fill="#F5F5F5"/>
<path d="M213.835 319.969C331.933 319.969 427.67 314.379 427.67 307.484C427.67 300.589 331.933 295 213.835 295C95.7372 295 0 300.589 0 307.484C0 314.379 95.7372 319.969 213.835 319.969Z" fill="#DCDCDC"/>
<path d="M88.3073 216.252H58.3203V221.248H88.3073V216.252Z" fill="#263238"/>
<path opacity="0.3" d="M88.296 221.259H61L61.6286 216.252H88.296V221.259Z" fill="white"/>
<path d="M27.1641 310.922H32.3917L73.2419 121.593H68.0032L27.1641 310.922Z" fill="#263238"/>
<path opacity="0.2" d="M28.6533 310.922H32.392L73.2423 121.593H69.4925L28.6533 310.922Z" fill="white"/>
<path d="M101.607 310.702H96.3683L73.5059 121.593H78.7445L101.607 310.702Z" fill="#263238"/>
<path opacity="0.4" d="M101.607 310.702H97.8576L74.9951 121.593H78.7449L101.607 310.702Z" fill="white"/>
<path d="M46.707 310.702H51.9457L69.9224 121.593H64.6948L46.707 310.702Z" fill="#263238"/>
<path opacity="0.4" d="M48.1963 310.702H51.946L69.9228 121.593H66.1841L48.1963 310.702Z" fill="white"/>
<path d="M84.0773 152.919C98.5329 145.455 102.73 124.838 93.4522 106.87C84.1743 88.9022 64.9344 80.3873 50.4789 87.8515C36.0233 95.3158 31.826 115.933 41.1039 133.901C50.3819 151.869 69.6217 160.384 84.0773 152.919Z" fill="#268FC5"/>
<path d="M86.2804 151.81C100.736 144.345 104.933 123.728 95.6554 105.76C86.3774 87.7925 67.1376 79.2775 52.682 86.7418C38.2264 94.2061 34.0291 114.823 43.307 132.791C52.585 150.759 71.8248 159.274 86.2804 151.81Z" fill="#407BFF"/>
<g opacity="0.7">
<path d="M86.2804 151.81C100.736 144.345 104.933 123.728 95.6554 105.76C86.3774 87.7925 67.1376 79.2775 52.682 86.7418C38.2264 94.2061 34.0291 114.823 43.307 132.791C52.585 150.759 71.8248 159.274 86.2804 151.81Z" fill="white"/>
</g>
<path opacity="0.3" d="M95.6618 105.778C86.3867 87.8123 67.1416 79.2981 52.683 86.7535C38.2244 94.2199 34.0225 114.833 43.2976 132.809C52.5727 150.775 71.8178 159.289 86.2764 151.834C100.735 144.367 104.937 123.755 95.6618 105.778ZM85.0963 144.489C73.428 150.51 57.8996 143.639 50.4111 129.137C42.9226 114.634 46.3195 97.9917 57.9878 91.9701C69.6562 85.9484 85.1845 92.8193 92.673 107.322C100.161 121.825 96.7646 138.467 85.0963 144.489Z" fill="#268FC5"/>
<path opacity="0.5" d="M90.2362 108.579C84.2366 96.9661 71.7963 91.4628 62.455 96.2824C53.1137 101.113 50.3896 114.436 56.3892 126.049C62.3888 137.662 74.8181 143.176 84.1704 138.346C93.5117 133.526 96.2358 120.193 90.2362 108.579ZM82.9132 132.82C76.0202 136.383 66.701 132.037 62.091 123.115C57.481 114.193 59.3449 104.08 66.2378 100.517C73.1307 96.9551 82.45 101.3 87.06 110.223C91.6699 119.145 89.8061 129.258 82.9132 132.82Z" fill="#268FC5"/>
<path opacity="0.7" d="M69.7118 105.194C65.0136 107.62 63.8666 114.744 67.1532 121.108C70.4397 127.471 76.9025 130.659 81.6117 128.232C86.321 125.806 87.4569 118.682 84.1704 112.318C80.8839 105.955 74.4211 102.767 69.7118 105.194ZM80.7405 124.461C77.5532 126.104 73.0535 123.711 70.6823 119.123C68.3112 114.524 68.9729 109.473 72.1491 107.829C75.3364 106.186 79.8361 108.579 82.2073 113.167C84.5785 117.755 83.9278 122.817 80.7405 124.461Z" fill="#268FC5"/>
<path d="M74.6192 111.138C72.8657 112.042 72.5017 114.833 73.8141 117.358C75.1155 119.884 77.597 121.207 79.3505 120.303C81.1041 119.398 81.468 116.608 80.1556 114.083C78.8432 111.557 76.3728 110.234 74.6192 111.138Z" fill="#268FC5"/>
<path d="M119.749 85.4081L111.191 89.8306L110.562 98.2345L117.775 102.58L126.334 98.1683L118.977 93.8892L119.749 85.4081Z" fill="#268FC5"/>
<path d="M78.6123 116.421C77.9616 116.509 77.2999 116.189 76.9801 115.572C76.572 114.789 76.8808 113.829 77.6638 113.421L119.551 91.7938C120.334 91.3857 121.293 91.6945 121.701 92.4776C122.109 93.2606 121.801 94.2201 121.018 94.6281L79.1306 116.255C78.9652 116.344 78.7888 116.399 78.6123 116.421Z" fill="#263238"/>
<g opacity="0.6">
<path d="M78.6123 116.421C77.9616 116.509 77.2999 116.189 76.9801 115.572C76.572 114.789 76.8808 113.829 77.6638 113.421L119.551 91.7938C120.334 91.3857 121.293 91.6945 121.701 92.4776C122.109 93.2606 121.801 94.2201 121.018 94.6281L79.1306 116.255C78.9652 116.344 78.7888 116.399 78.6123 116.421Z" fill="white"/>
</g>
<path d="M353.194 47.6903H365.325L350.834 36.6947L340.323 43.1465L353.194 47.6903Z" fill="#407BFF"/>
<path opacity="0.4" d="M353.194 47.6903H365.325L350.834 36.6947L340.323 43.1465L353.194 47.6903Z" fill="black"/>
<path d="M355.112 0.123535H344.073L299.418 29.2834L311.726 33.7831L232.573 181.479L144.321 191.151L72.0283 310.923H112.294H128.705H168.97L206.369 227.292L287.97 218.238L352.454 43.1464L365.336 47.7012L355.112 0.123535Z" fill="#407BFF"/>
<path d="M313.181 29.2834L325.93 33.7831L260.674 181.479L173.316 191.151L112.294 310.923H72.0283L144.321 191.151L232.573 181.479L311.726 33.7831L299.406 29.2834L344.073 0.123535H355.112L313.181 29.2834Z" fill="#127BB1"/>
<path opacity="0.4" d="M299.406 29.2833H313.181L325.93 33.783H311.725L299.406 29.2833Z" fill="#407BFF"/>
<path d="M365.325 47.6902L352.454 43.1464L287.97 218.238L206.369 227.292L168.97 310.923H112.294L173.316 191.151L260.674 181.479L325.93 33.7831L313.181 29.2834L355.101 0.123535L365.325 47.6902Z" fill="#268FC5"/>
<path opacity="0.4" d="M144.321 191.151H173.316L260.674 181.479H232.573L144.321 191.151Z" fill="white"/>
<path d="M217.001 65.2478C217.001 65.2478 205.608 67.8726 204.936 76.3537C204.428 82.6731 208.333 92.9408 205.829 106.429C204.671 112.649 204.726 125.972 222.162 121.648C243.15 116.443 239.478 69.6593 230.776 67.4205C222.074 65.1927 217.001 65.2478 217.001 65.2478Z" fill="#263238"/>
<path d="M237.801 101.808C237.801 101.808 237.768 101.808 237.757 101.808C237.636 101.786 237.558 101.664 237.581 101.543C240.426 87.2499 236.378 71.3576 232.221 68.5563C231.493 68.06 230.798 68.027 230.169 68.435C230.07 68.5012 229.927 68.4791 229.86 68.3688C229.794 68.2696 229.816 68.1262 229.927 68.06C230.71 67.5417 231.592 67.5858 232.474 68.1814C236.709 71.0378 240.999 86.6875 238.022 101.631C238 101.742 237.911 101.808 237.801 101.808Z" fill="#263238"/>
<path d="M269.575 244.905L263.432 243.736L266.266 219.318L271.13 177.421L230.996 176.252L228.416 159.267L227.533 153.477C227.533 153.477 235.22 154.062 245.014 155.242C254.664 156.411 266.354 158.142 274.758 160.481H274.769C278.552 161.528 281.662 162.697 283.625 163.977C294.4 171.024 269.575 244.905 269.575 244.905Z" fill="#E4897B"/>
<path opacity="0.2" d="M266.265 219.318L271.129 177.42L230.996 176.251L228.415 159.267L245.013 155.242C254.663 156.411 266.354 158.142 274.758 160.48C274.36 160.48 264.766 160.657 258.148 165.256C258.148 165.256 270.434 168.829 277.956 176.24C282.908 181.126 273.346 204.198 266.265 219.318Z" fill="black"/>
<path d="M241.142 96.7347C247.318 96.7678 253.681 96.867 259.824 96.47C262.383 96.2163 264.942 96.2384 267.07 94.8267C273.158 90.9336 278.661 86.0148 284.385 81.5261C285.411 80.6769 286.955 80.8313 287.793 81.868C288.499 82.7393 288.488 83.9635 287.837 84.8127C285.19 88.3308 282.389 91.6505 279.356 94.8598C275.981 98.2235 272.629 101.984 268.107 103.947C263.442 105.624 258.843 105.9 254.056 106.23C249.612 106.484 245.289 106.539 240.833 106.352C234.558 105.9 234.833 96.7898 241.131 96.7347H241.142Z" fill="#DC897C"/>
<path d="M240.127 96.4148C247.593 95.6097 258.059 96.4148 258.059 96.4148L255.875 107.752L238.902 111.127L240.127 96.4148Z" fill="#407BFF"/>
<path d="M258.06 96.4148L255.887 107.752L244.263 110.068L238.914 111.127L239.51 103.947L240.127 96.4148C247.594 95.6097 258.06 96.4148 258.06 96.4148Z" fill="#127BB1"/>
<path opacity="0.2" d="M247.538 109.407L238.914 111.116L240.215 99.8558C242.962 101.168 246.237 105.866 247.538 109.407Z" fill="#127BB1"/>
<path d="M257.553 95.8524L255.303 108.657L257.707 108.006L259.306 95.8524H257.553Z" fill="#127BB1"/>
<path d="M220.541 156.973C220.541 156.973 267.314 165.774 275.916 175.358C284.507 184.931 239.312 251.048 239.312 251.048L233.676 248.346L258.171 186.243L215.468 186.376L220.541 156.984V156.973Z" fill="#E4897B"/>
<path d="M264.457 157.481C253.197 164.098 238.992 187.523 238.992 187.523C238.992 187.523 182.569 204.893 211.122 148.018L239.929 145.79L241.672 154.018C254.619 155.661 264.446 157.481 264.446 157.481H264.457Z" fill="#263238"/>
<path d="M211.298 144.103L210.824 148.426L240.602 149.441L241.164 144.323L211.298 144.103Z" fill="#263238"/>
<path opacity="0.2" d="M211.298 144.103L210.824 148.426L240.602 149.441L241.164 144.323L211.298 144.103Z" fill="white"/>
<path d="M221.399 143.398L219.924 143.31L219.476 150.819L220.952 150.906L221.399 143.398Z" fill="#263238"/>
<path d="M234.219 144.33L227.702 144.191L227.597 149.142L234.113 149.28L234.219 144.33Z" fill="white"/>
<path d="M239.664 143.422L238.188 143.333L237.74 150.842L239.215 150.93L239.664 143.422Z" fill="#263238"/>
<path d="M241.142 144.599L211.133 144.081C211.133 144.081 211.155 142.526 210.901 137C210.747 133.471 210.482 129.225 210.041 124.781C209.324 117.755 208.166 110.245 206.247 104.334C206.247 104.334 215.963 99.6243 240.127 96.4149C240.127 96.4149 245.752 111.954 241.142 144.599Z" fill="#268FC5"/>
<path opacity="0.6" d="M233.631 121.715C233.598 122.178 233.19 122.531 232.727 122.498C232.263 122.465 231.91 122.057 231.944 121.593C231.977 121.13 232.385 120.777 232.848 120.81C233.311 120.843 233.664 121.252 233.631 121.715Z" fill="white"/>
<path opacity="0.6" d="M233.731 130.891C233.697 131.354 233.289 131.707 232.826 131.674C232.363 131.641 232.01 131.232 232.043 130.769C232.076 130.306 232.484 129.953 232.948 129.986C233.411 130.019 233.764 130.427 233.731 130.891Z" fill="white"/>
<path opacity="0.6" d="M233.024 139.493C232.991 139.956 232.583 140.309 232.12 140.276C231.657 140.243 231.304 139.835 231.337 139.372C231.37 138.908 231.778 138.555 232.241 138.589C232.705 138.622 233.058 139.03 233.024 139.493Z" fill="white"/>
<path d="M216.427 109.771C216.427 109.771 211.431 100.065 224.092 97.7715C236.764 95.4775 240.006 103.22 240.006 103.22L233.885 101.698L232.022 116.443C232.022 116.443 228.912 108.535 219.725 104.598L216.416 109.771H216.427Z" fill="#407BFF"/>
<path d="M216.427 109.771C216.427 109.771 211.431 100.065 224.092 97.7715C236.764 95.4775 240.006 103.22 240.006 103.22L233.885 101.698L232.022 116.443C232.022 116.443 228.912 108.535 219.725 104.598L216.416 109.771H216.427Z" fill="#127BB1"/>
<path d="M230.654 109.032C224.742 105.855 219.206 101.301 219.206 101.301C222.327 98.764 222.096 94.6724 221.533 92.0806C221.235 90.6469 220.827 89.6764 220.827 89.6764L229.308 91.9152C228.977 93.3159 228.79 94.507 228.713 95.5106C228.614 96.6134 228.647 97.4957 228.757 98.1905C229.154 100.804 230.61 100.948 230.61 100.948C231.911 103.881 230.654 109.043 230.654 109.043V109.032Z" fill="#E4897B"/>
<path opacity="0.2" d="M228.702 95.4996C228.603 96.6024 228.636 97.4847 228.746 98.1795C225.371 97.4847 222.978 94.5621 221.522 92.0697C221.224 90.6359 220.816 89.6654 220.816 89.6654L229.297 91.9042C228.967 93.3049 228.779 94.496 228.702 95.4996Z" fill="black"/>
<path d="M258.149 245.148L259.362 246.151L260.939 244.927L263.454 250.077L273.644 258.536C273.644 258.536 276.622 258.25 272.839 252.923C272.662 252.68 272.508 252.404 272.365 252.085C270.788 248.721 270.501 241.563 270.501 241.563L264.909 236.92C264.909 236.92 264.479 237.042 263.784 237.35C262.152 238.078 258.954 239.788 258.138 245.126L258.149 245.148Z" fill="#263238"/>
<path d="M263.795 237.372L263.784 237.394C265.207 237.185 265.571 243.593 267.005 246.857C268.295 249.78 270.368 252.305 272.387 252.107C270.809 248.743 271.129 240.063 271.129 240.063L266.63 236.336C266.63 236.336 264.501 237.064 263.795 237.372Z" fill="#E4897B"/>
<path d="M226.508 250.684L227.456 251.941L229.276 251.125L230.522 256.728L238.474 267.326C238.474 267.326 241.43 267.745 238.992 261.68C238.882 261.404 238.794 261.095 238.728 260.764C237.967 257.125 239.356 250.099 239.356 250.099L235 244.287C235 244.287 234.559 244.298 233.809 244.442C232.055 244.762 228.548 245.688 226.508 250.695V250.684Z" fill="#263238"/>
<path d="M233.809 244.442H233.787C235.221 244.585 234.085 250.894 234.725 254.412C235.298 257.555 236.721 260.5 238.728 260.764C237.967 257.125 240.305 248.765 240.305 248.765L236.798 244.089C236.798 244.089 234.559 244.309 233.798 244.442H233.809Z" fill="#E4897B"/>
<path d="M283.46 82.4746L287.938 73.9384L294.687 78.9896C294.687 78.9896 292.393 85.3972 286.78 85.5626L283.46 82.4746Z" fill="#E4897B"/>
<path d="M293.606 70.0674L297.731 75.0413L294.687 78.9896L287.938 73.9384L293.606 70.0674Z" fill="#E4897B"/>
<path d="M225.868 149.441L235.474 150.235L233.444 158.418C233.444 158.418 226.651 158.804 224.312 153.698L225.857 149.441H225.868Z" fill="#E4897B"/>
<path d="M241.252 153.94L238.286 159.686L233.455 158.418L235.484 150.235L241.252 153.94Z" fill="#E4897B"/>
<path d="M281.783 157.128V159.929C281.783 160.646 280.934 160.944 280.228 160.944H224.28C223.563 160.944 222.691 160.646 222.691 159.929V157.128H281.772H281.783Z" fill="#263238"/>
<path opacity="0.4" d="M281.783 157.128V159.929C281.783 160.646 280.934 160.944 280.228 160.944H224.28C223.563 160.944 222.691 160.646 222.691 159.929V157.128H281.772H281.783Z" fill="white"/>
<path opacity="0.2" d="M281.783 157.128V159.929C281.783 160.646 280.934 160.944 280.228 160.944H243.326C242.609 160.944 241.76 160.646 241.76 159.929V157.128H281.783Z" fill="black"/>
<path d="M291.146 128.056L284.485 158.264C284.264 159.256 283.305 159.984 282.323 159.984H245.94C244.969 159.984 244.351 159.08 244.572 158.087L251.222 128.111C251.443 127.13 252.402 126.633 253.384 126.633H289.768C290.749 126.633 291.356 127.075 291.146 128.067V128.056Z" fill="#263238"/>
<path opacity="0.4" d="M291.146 128.056L284.485 158.264C284.264 159.256 283.305 159.984 282.323 159.984H247.175C246.193 159.984 245.587 159.08 245.796 158.087L252.458 128.111C252.678 127.13 253.638 126.633 254.619 126.633H289.768C290.749 126.633 291.356 127.075 291.146 128.067V128.056Z" fill="white"/>
<path opacity="0.2" d="M273.203 143.419C273.203 146.011 270.435 148.117 268.395 148.117C266.354 148.117 265.152 146.011 265.737 143.43C266.321 140.894 268.34 138.831 270.325 138.754C269.74 141.335 270.986 143.43 273.016 143.43C273.06 143.43 273.203 143.43 273.203 143.43V143.419Z" fill="black"/>
<path opacity="0.2" d="M210.901 137.011C210.747 133.482 210.482 129.236 210.041 124.792C211.817 121.869 213.272 119.696 213.272 119.696C213.272 119.696 217.816 130.471 210.901 137.011Z" fill="black"/>
<path d="M212.434 112.009C212.545 119.344 212.236 130.582 212.975 137.761L213.052 138.258C213.052 138.313 213.107 138.423 212.898 138.048C217.309 142.118 225.481 147.279 231.238 151.613C232.33 152.385 232.573 153.907 231.79 154.988C231.128 155.893 229.959 156.201 228.966 155.804C224.742 154.139 220.662 152.286 216.614 150.213C213.14 148.327 209.578 146.617 206.534 143.86C205.288 142.746 204.593 140.905 204.317 139.482C202.663 130.317 202.74 121.163 202.806 111.91C203.137 105.635 212.247 105.734 212.434 112.02V112.009Z" fill="#DC897C"/>
<path d="M206.247 104.333C201.24 106.881 200.446 115.539 201.428 128.729L213.427 127.957C213.427 127.957 215.467 117.005 213.824 111.921C211.376 104.333 206.247 104.333 206.247 104.333Z" fill="#407BFF"/>
<path d="M206.247 104.333C201.24 106.881 200.446 115.539 201.428 128.729L213.427 127.957C213.427 127.957 215.467 117.005 213.824 111.921C211.376 104.333 206.247 104.333 206.247 104.333Z" fill="#127BB1"/>
<path d="M200.59 127.979L213.89 127.549L213.604 129.479L200.59 130.163V127.979Z" fill="#127BB1"/>
<path d="M222.018 68.4902C231.084 66.5051 232.804 70.718 234.977 78.1513C237.701 87.4375 237.061 94.5951 227.466 94.573C214.43 94.5399 209.853 71.1592 222.018 68.4902Z" fill="#E4897B"/>
<path d="M230.157 78.769C230.157 78.769 231.591 80.4674 232.947 81.3497C232.947 81.3497 232.539 82.4856 231.194 82.5959L230.157 78.769Z" fill="#DE5753"/>
<path d="M225.548 79.144C225.691 79.7396 225.481 80.302 225.084 80.4013C224.687 80.5005 224.246 80.0925 224.103 79.4969C223.959 78.9014 224.169 78.3389 224.566 78.2397C224.963 78.1404 225.404 78.5485 225.548 79.144Z" fill="#263238"/>
<path d="M224.4 78.3058L225.58 77.4786C225.58 77.4786 225.194 78.7359 224.4 78.3058Z" fill="#263238"/>
<path d="M232.959 77.2251C233.102 77.8206 232.893 78.3831 232.495 78.4823C232.098 78.5816 231.657 78.1735 231.514 77.578C231.371 76.9824 231.58 76.42 231.977 76.3207C232.374 76.2215 232.815 76.6295 232.959 77.2251Z" fill="#263238"/>
<path d="M231.812 76.3759L232.992 75.5487C232.992 75.5487 232.606 76.806 231.812 76.3759Z" fill="#263238"/>
<path d="M221.433 76.2215C221.433 76.2215 221.334 76.2104 221.29 76.1884C221.136 76.1112 221.069 75.9127 221.147 75.7583C222.04 74.0047 224.246 73.7951 224.345 73.7841C224.521 73.7841 224.676 73.8944 224.687 74.0709C224.698 74.2473 224.577 74.4017 224.4 74.4128C224.378 74.4128 222.448 74.6002 221.72 76.034C221.665 76.1443 221.555 76.2104 221.433 76.2104V76.2215Z" fill="#263238"/>
<path d="M229.628 72.9569C229.518 72.9569 229.419 72.9017 229.364 72.8135C229.264 72.6701 229.308 72.4716 229.463 72.3723C229.518 72.3393 230.808 71.5342 232.804 72.3172C232.97 72.3834 233.047 72.5709 232.981 72.7253C232.915 72.8907 232.727 72.9679 232.573 72.9017C230.908 72.251 229.849 72.8797 229.805 72.9017C229.75 72.9348 229.694 72.9458 229.639 72.9458L229.628 72.9569Z" fill="#263238"/>
<path d="M216.945 82.982C216.945 82.982 219.062 76.2214 217.54 71.6886C217.54 71.6886 221.533 65.2258 229.65 68.9645C229.65 68.9645 233.653 73.3319 234.69 77.1809C234.69 77.1809 233.267 63.781 220.606 66.2294C207.968 68.6667 212.004 87.0846 219.702 91.1652C219.702 91.1652 215.655 87.2059 216.956 82.982H216.945Z" fill="#263238"/>
<path d="M218.478 84.2723C218.169 83.1033 216.526 81.3718 214.375 82.0887C212.158 82.8276 212.092 87.7243 217.982 87.6251C218.831 87.614 219.107 86.7207 218.478 84.2834V84.2723Z" fill="#E4897B"/>
<path d="M229.23 87.4707C228.216 87.4707 226.992 87.1398 226.043 85.8825C225.933 85.7392 225.966 85.5406 226.109 85.4414C226.253 85.3311 226.451 85.3642 226.55 85.5076C228.238 87.7353 230.841 86.5553 230.951 86.5112C231.105 86.434 231.304 86.5112 231.37 86.6656C231.447 86.82 231.37 87.0185 231.216 87.0847C231.205 87.0847 230.333 87.4817 229.23 87.4817V87.4707Z" fill="#263238"/>
<path d="M217.541 71.6887C217.541 71.6887 225.095 66.1412 231.713 69.8248C231.713 69.8248 232.474 62.8878 224.566 62.3143C216.658 61.7408 210.747 70.8174 210.747 70.8174L217.552 71.6887H217.541Z" fill="#263238"/>
<path d="M220.474 69.3837C220.474 69.3837 214.519 74.3466 215.997 84.0849C217.519 94.121 216.151 98.72 215.5 105.139C214.64 113.708 220.188 115.131 220.188 115.131C220.188 115.131 214.684 115.671 212.909 109.572C211.993 106.44 212.534 93.5144 207.637 85.5738C202.068 76.5523 213.14 67.9058 220.485 69.3837H220.474Z" fill="#263238"/>
</svg>
