<svg width="341" height="461" viewBox="0 0 341 461" fill="none" xmlns="http://www.w3.org/2000/svg">
<path d="M142.428 5.61376V199.785C142.428 200.883 141.992 201.935 141.216 202.711C140.44 203.488 139.387 203.923 138.29 203.923H4.46424C3.92177 203.923 3.3848 203.815 2.884 203.606C2.38319 203.398 1.92836 203.093 1.54546 202.708C1.16257 202.324 0.859125 201.868 0.652431 201.367C0.445738 200.865 0.339852 200.328 0.340827 199.785V5.62117C0.339852 4.92872 0.475273 4.24286 0.739363 3.60275C1.00345 2.96263 1.39102 2.3808 1.87997 1.89047C2.36892 1.40015 2.94968 1.01093 3.58904 0.745042C4.22841 0.479153 4.9139 0.341799 5.60635 0.340826H137.148C137.841 0.339851 138.527 0.475521 139.168 0.740074C139.809 1.00463 140.391 1.39287 140.881 1.88261C141.372 2.37234 141.761 2.95396 142.026 3.59418C142.292 4.23441 142.428 4.92068 142.428 5.61376Z" fill="white"/>
<path d="M138.29 204.258H4.46438C3.28424 204.258 2.15243 203.789 1.31794 202.954C0.483455 202.12 0.0146484 200.988 0.0146484 199.808V5.6215C0.0146471 4.13187 0.605884 2.70314 1.65852 1.64912C2.71115 0.595096 4.13911 0.00196521 5.62873 0H137.148C138.636 0.00196222 140.063 0.594073 141.116 1.64649C142.168 2.69891 142.76 4.12574 142.762 5.61408V199.786C142.765 200.374 142.651 200.956 142.428 201.5C142.204 202.044 141.875 202.538 141.459 202.954C141.043 203.37 140.549 203.699 140.005 203.923C139.461 204.147 138.878 204.26 138.29 204.258ZM5.61389 0.674879C4.30325 0.676844 3.04697 1.19887 2.1209 2.12632C1.19483 3.05378 0.674679 4.31086 0.67468 5.6215V199.786C0.674678 200.791 1.07372 201.756 1.78422 202.468C2.49471 203.18 3.45861 203.581 4.46438 203.583H138.29C139.298 203.583 140.264 203.183 140.978 202.471C141.691 201.759 142.093 200.793 142.095 199.786V5.61408C142.093 4.30344 141.571 3.04715 140.643 2.12108C139.716 1.19502 138.459 0.674877 137.148 0.674879H5.61389Z" fill="#547AC7"/>
<path d="M142.429 18.5106H0.311523V5.61376C0.311523 4.92068 0.448159 4.23441 0.713613 3.59418C0.979066 2.95396 1.36812 2.37234 1.85855 1.88261C2.34897 1.39287 2.93114 1.00463 3.57174 0.740074C4.21233 0.475521 4.89879 0.339851 5.59187 0.340826H137.148C137.841 0.339851 138.528 0.475521 139.168 0.740074C139.809 1.00463 140.391 1.39287 140.882 1.88261C141.372 2.37234 141.761 2.95396 142.026 3.59418C142.292 4.23441 142.429 4.92068 142.429 5.61376V18.5106Z" fill="#CCE7F8"/>
<path d="M142.762 18.852H0V5.61408C0.00196222 4.12574 0.594073 2.69891 1.64649 1.64649C2.69891 0.594073 4.12574 0.00196222 5.61408 0H137.148C138.637 0.00196222 140.063 0.594073 141.116 1.64649C142.168 2.69891 142.76 4.12574 142.762 5.61408V18.852ZM0.674879 18.1772H142.087V5.61408C142.085 4.30473 141.564 3.04955 140.639 2.1237C139.713 1.19784 138.458 0.67684 137.148 0.674879H5.61408C4.30413 0.674879 3.04783 1.19526 2.12155 2.12154C1.19527 3.04782 0.674879 4.30413 0.674879 5.61408V18.1772Z" fill="#547AC7"/>
<path d="M29.4125 9.42571C29.4125 8.87242 29.5767 8.33156 29.8843 7.87162C30.1918 7.41167 30.6289 7.05332 31.1402 6.84192C31.6516 6.63052 32.2141 6.5756 32.7566 6.68408C33.2992 6.79256 33.7974 7.05958 34.1881 7.45133C34.5788 7.84309 34.8445 8.34198 34.9515 8.88482C35.0586 9.42766 35.0022 9.99006 34.7894 10.5008C34.5767 11.0116 34.2172 11.4477 33.7564 11.754C33.2956 12.0604 32.7543 12.2231 32.201 12.2216C31.8342 12.2216 31.471 12.1493 31.1322 12.0087C30.7934 11.8681 30.4857 11.662 30.2267 11.4023C29.9676 11.1426 29.7624 10.8343 29.6227 10.4951C29.483 10.1559 29.4116 9.79253 29.4125 9.42571ZM18.6664 9.42571C18.6664 8.87273 18.8304 8.33217 19.1376 7.87239C19.4448 7.4126 19.8815 7.05424 20.3924 6.84262C20.9033 6.631 21.4655 6.57563 22.0078 6.68351C22.5502 6.7914 23.0483 7.05768 23.4394 7.4487C23.8304 7.83971 24.0967 8.3379 24.2045 8.88026C24.3124 9.42261 24.2571 9.98478 24.0454 10.4957C23.8338 11.0066 23.4755 11.4432 23.0157 11.7504C22.5559 12.0577 22.0153 12.2216 21.4623 12.2216C21.0949 12.2226 20.7309 12.151 20.3912 12.0108C20.0516 11.8706 19.743 11.6647 19.4832 11.4049C19.2233 11.1451 19.0174 10.8365 18.8773 10.4968C18.7371 10.1572 18.6655 9.79315 18.6664 9.42571ZM7.92774 9.42571C7.92775 8.87242 8.09193 8.33156 8.39947 7.87162C8.70702 7.41167 9.14412 7.05332 9.65544 6.84192C10.1668 6.63052 10.7293 6.5756 11.2719 6.68408C11.8144 6.79256 12.3126 7.05958 12.7033 7.45133C13.094 7.84309 13.3597 8.34198 13.4668 8.88482C13.5738 9.42766 13.5174 9.99006 13.3046 10.5008C13.0919 11.0116 12.7324 11.4477 12.2716 11.754C11.8108 12.0604 11.2695 12.2231 10.7163 12.2216C10.3494 12.2216 9.98623 12.1493 9.64743 12.0087C9.30863 11.8681 9.00089 11.662 8.74186 11.4023C8.48283 11.1426 8.27759 10.8343 8.13789 10.4951C7.99819 10.1559 7.92677 9.79253 7.92774 9.42571ZM129.124 7.38625L130.503 6.00684L132.483 7.97955L134.456 6.00684L135.835 7.38625L133.863 9.35897L135.835 11.3317L134.456 12.7185L132.483 10.7384L130.503 12.7185L129.124 11.3317L131.096 9.35897L129.124 7.38625Z" fill="white"/>
<path d="M26.6987 166.264L26.6468 163.928H14.9217L14.9736 166.264H26.6987ZM39.5213 159.218L39.4694 156.882H14.6844L14.7289 159.218H39.5213ZM34.2929 152.173L34.241 149.829H14.3507L14.4026 152.173H34.2929ZM31.4599 166.264L31.4154 163.928H27.8556L27.9001 166.264H31.4599ZM54.2277 166.264L54.1832 163.928H42.4581L42.51 166.264H54.2277ZM67.0503 159.218L67.0058 156.882H42.2134L42.2653 159.218H67.0503ZM61.8219 152.173L61.7774 149.829H41.8871L41.9316 152.173H61.8219ZM58.9963 166.264L58.9444 163.928H55.3846L55.4365 166.264H58.9963ZM26.5281 145.38L26.4836 143.044H14.7586L14.8105 145.38H26.5281ZM39.3508 138.334L39.3062 135.991H14.5138L14.5657 138.334H39.3508ZM34.1223 131.289L34.0778 128.945H14.1875L14.232 131.289H34.1223ZM31.2967 145.38L31.2448 143.044H27.685L27.7369 145.38H31.2967Z" fill="#002CAD"/>
<path d="M54.0645 145.38L54.0126 143.044H42.2949L42.3394 145.38H54.0645Z" fill="#FF5A18"/>
<path d="M66.8873 138.335L66.8354 135.991H42.043L42.0949 138.335H66.8873Z" fill="#002CAD"/>
<path d="M61.658 131.289L61.6061 128.945H41.7158L41.7677 131.289H61.658Z" fill="white"/>
<path d="M58.8252 145.38L58.7807 143.044H55.2209L55.2728 145.38H58.8252ZM26.3644 124.496L26.3125 122.16H14.5875L14.6394 124.496H26.3644ZM39.1871 117.451L39.1352 115.107H14.3501L14.3946 117.451H39.1871ZM33.9586 110.405L33.9067 108.062H14.0164L14.0683 110.405H33.9586ZM31.1256 124.496L31.0811 122.16H27.5214L27.5659 124.496H31.1256ZM53.8934 124.496L53.8489 122.16H42.1239L42.1684 124.496H53.8934ZM66.7161 117.451L66.6716 115.107H41.8792L41.9311 117.451H66.7161ZM61.4876 110.405L61.4431 108.062H41.5528L41.5974 110.405H61.4876ZM58.6621 124.496L58.6101 122.16H55.0504L55.1023 124.496H58.6621ZM26.1938 103.612L26.1494 101.276H14.4243L14.4762 103.612H26.1938ZM39.0165 96.5665L38.972 94.2229H14.1796L14.2315 96.5665H39.0165ZM30.9625 103.612L30.9106 101.276H27.3508L27.4027 103.612H30.9625ZM53.7303 103.612L53.6784 101.276H41.9533L42.0052 103.612H53.7303ZM66.5529 96.5665L66.501 94.2229H41.7086L41.7605 96.5665H66.5529ZM61.3245 89.521L61.2726 87.1775H41.3823L41.4342 89.521H61.3245ZM58.4915 103.612L58.447 101.276H54.8872L54.9317 103.612H58.4915ZM26.0307 82.7278L25.9788 80.3917H14.2537L14.3056 82.7278H26.0307ZM38.8533 75.6824L38.8014 73.3463H14.0164L14.0609 75.6824H38.8533ZM33.6249 68.637L33.573 66.2935H13.6827L13.7346 68.637H33.6249ZM30.7919 82.7278L30.7474 80.3917H27.1876L27.2321 82.7278H30.7919ZM53.5597 82.7278L53.5152 80.3917H41.7902L41.8421 82.7278H53.5597ZM66.3823 75.6824L66.3379 73.3463H41.5454L41.5974 75.6824H66.3823ZM61.1539 68.637L61.1094 66.2935H41.2191L41.2636 68.637H61.1539ZM58.3283 82.7278L58.2764 80.3917H54.7166L54.7685 82.7278H58.3283ZM25.8601 61.8437L25.8156 59.5076H14.0906L14.1351 61.8437H25.8601ZM38.6828 54.7983L38.6383 52.4548H13.8458L13.8978 54.7983H38.6828ZM33.4543 47.7529L33.4098 45.4094H13.5195L13.564 47.7529H33.4543ZM30.6288 61.8437L30.5768 59.5076H27.0171L27.069 61.8437H30.6288ZM53.3965 61.8437L53.3446 59.5076H41.6196L41.6715 61.8437H53.3965ZM66.2192 54.7983L66.1673 52.4548H41.3823L41.4268 54.7983H66.2192ZM60.9908 47.7529L60.9388 45.4094H41.0485L41.1005 47.7529H60.9908ZM58.1578 61.8437L58.1133 59.5076H54.5535L54.598 61.8437H58.1578ZM25.697 40.9596L25.6451 38.6235H13.92L13.9719 40.9596H25.697ZM38.5196 33.9142L38.4677 31.5781H13.6753L13.7272 33.9142H38.5196ZM30.4582 40.9596L30.4137 38.6235H26.8539L26.9058 40.9596H30.4582ZM53.226 40.9596L53.1815 38.6235H41.4564L41.5083 40.9596H53.226ZM66.0486 33.9142L66.0041 31.5781H41.2117L41.2636 33.9142H66.0486ZM57.9946 40.9596L57.9427 38.6235H54.3829L54.4348 40.9596H57.9946ZM88.8906 166.264L88.8387 163.928H77.1136L77.1655 166.264H88.8906ZM101.706 159.219L101.661 156.883H76.8689L76.9208 159.219H101.706ZM96.4774 152.173L96.4329 149.83H76.5426L76.5945 152.173H96.4774ZM93.6518 166.264L93.5999 163.928H90.0475L90.092 166.264H93.6518ZM116.42 166.264L116.368 163.928H104.65L104.695 166.264H116.42ZM129.242 159.219L129.19 156.883H104.405L104.45 159.219H129.242ZM124.014 152.173L123.962 149.83H104.072L104.124 152.173H124.014ZM121.181 166.264L121.136 163.928H117.577L117.628 166.264H121.181ZM88.72 145.38L88.6681 143.044H76.943L76.995 145.38H88.72ZM101.543 138.335L101.491 135.991H76.7057L76.7502 138.335H101.543ZM96.3142 131.289L96.2623 128.946H76.372L76.4239 131.289H96.3142ZM93.4812 145.38L93.4367 143.044H89.8769L89.9288 145.38H93.4812ZM116.249 145.38L116.205 143.044H104.479L104.531 145.38H116.249Z" fill="#002CAD"/>
<path d="M129.072 138.335L129.028 135.991H104.235L104.287 138.335H129.072Z" fill="#FF5A18"/>
<path d="M123.843 131.289L123.799 128.945H103.908L103.953 131.289H123.843Z" fill="white"/>
<path d="M121.018 145.38L120.966 143.044H117.406L117.458 145.38H121.018ZM88.557 124.496L88.5051 122.16H76.78L76.8319 124.496H88.557ZM101.372 117.45L101.328 115.107H76.5353L76.5872 117.45H101.372ZM96.1438 110.405L96.0993 108.062H76.209L76.2535 110.405H96.1438ZM93.3182 124.496L93.2663 122.16H89.7139L89.7584 124.496H93.3182ZM116.086 124.496L116.034 122.16H104.316L104.361 124.496H116.086ZM128.909 117.45L128.857 115.107H104.072L104.116 117.45H128.909ZM123.68 110.405L123.628 108.062H103.738L103.79 110.405H123.68ZM120.847 124.496L120.803 122.16H117.243L117.295 124.496H120.847ZM96.4775 194.06L96.433 191.717H76.5427L76.5946 194.06H96.4775ZM124.014 194.06L123.962 191.717H104.072L104.124 194.06H124.014ZM88.7201 187.267L88.6682 184.931H76.9432L76.9951 187.267H88.7201ZM101.543 180.221L101.491 177.878H76.7059L76.7504 180.221H101.543ZM96.3144 173.176L96.2625 170.832H76.3721L76.4241 173.176H96.3144ZM93.4814 187.267L93.4369 184.931H89.8771L89.929 187.267H93.4814ZM116.249 187.267L116.205 184.931H104.48L104.532 187.267H116.249Z" fill="#002CAD"/>
<path d="M129.072 180.221L129.028 177.878H104.235L104.287 180.221H129.072Z" fill="#FF5A18"/>
<path d="M123.843 173.176L123.799 170.832H103.908L103.953 173.176H123.843Z" fill="white"/>
<path d="M121.018 187.266L120.966 184.93H117.406L117.458 187.266H121.018ZM88.3862 103.611L88.3342 101.275H76.6092L76.6611 103.611H88.3862ZM101.209 96.566L101.157 94.2225H76.3719L76.4164 96.566H101.209ZM93.1474 103.611L93.1029 101.275H89.5431L89.5876 103.611H93.1474ZM115.915 103.611L115.871 101.275H104.146L104.198 103.611H115.915ZM128.738 96.566L128.693 94.2225H103.901L103.953 96.566H128.738ZM123.509 89.5206L123.465 87.177H103.575L103.619 89.5206H123.509ZM120.684 103.611L120.632 101.275H117.072L117.124 103.611H120.684ZM88.2156 82.7273L88.1711 80.3912H76.446L76.498 82.7273H88.2156ZM101.038 75.6819L100.994 73.3458H76.2013L76.2532 75.6819H101.038ZM95.8098 68.6365L95.7653 66.293H75.875L75.9195 68.6365H95.8098ZM92.9842 82.7273L92.9323 80.3912H89.3725L89.4244 82.7273H92.9842ZM115.752 82.7273L115.7 80.3912H103.982L104.027 82.7273H115.752ZM128.575 75.6819L128.523 73.3458H103.738L103.782 75.6819H128.575Z" fill="#002CAD"/>
<path d="M123.347 68.6365L123.295 66.293H103.404L103.456 68.6365H123.347Z" fill="white"/>
<path d="M120.514 82.7278L120.469 80.3917H116.91L116.962 82.7278H120.514ZM88.0531 61.8437L88.0012 59.5076H76.2835L76.328 61.8437H88.0531ZM100.876 54.7983L100.824 52.4548H76.0388L76.0833 54.7983H100.876ZM95.6473 47.7529L95.5954 45.4094H75.7051L75.757 47.7529H95.6473ZM92.8143 61.8437L92.7698 59.5076H89.21L89.2619 61.8437H92.8143ZM115.582 61.8437L115.538 59.5076H103.813L103.864 61.8437H115.582ZM128.405 54.7983L128.36 52.4548H103.568L103.62 54.7983H128.405ZM123.176 47.7529L123.132 45.4094H103.242L103.286 47.7529H123.176ZM120.351 61.8437L120.299 59.5076H116.739L116.791 61.8437H120.351ZM87.8825 40.9596L87.838 38.6235H76.113L76.1649 40.9596H87.8825ZM100.705 33.9142L100.661 31.5781H75.8682L75.9202 33.9142H100.705ZM92.6511 40.9596L92.5992 38.6235H89.0395L89.0913 40.9596H92.6511ZM115.419 40.9596L115.367 38.6235H103.642L103.694 40.9596H115.419Z" fill="#002CAD"/>
<path d="M128.241 33.9142L128.189 31.5781H103.396L103.448 33.9142H128.241Z" fill="#FF5A18"/>
<path d="M120.179 40.9592L120.135 38.623H116.575L116.62 40.9592H120.179Z" fill="#002CAD"/>
<path d="M21.4702 181.638C21.574 181.074 22.108 180.088 22.9534 180.251C23.0504 180.269 23.1434 180.304 23.2278 180.355C23.1623 179.963 23.1749 179.563 23.2649 179.176C23.4651 178.338 24.2735 177.114 25.423 177.811C25.8675 178.098 26.2364 178.487 26.4984 178.946C26.5807 178.545 26.7673 178.173 27.0394 177.867C27.3116 177.561 27.6596 177.332 28.0483 177.203C29.4129 176.691 30.0507 177.552 30.4141 178.56C30.6366 177.552 31.2373 176.091 32.5574 176.818C33.2549 177.348 33.8124 178.04 34.1816 178.835C34.7193 179.748 35.1403 180.724 35.4349 181.742C35.4386 181.781 35.4386 181.821 35.4349 181.861C35.4892 181.916 35.5265 181.986 35.5422 182.063C35.558 182.139 35.5517 182.218 35.5239 182.291C35.1086 183.344 33.8182 184.456 32.5574 183.5C32.2282 183.249 31.9273 182.963 31.66 182.647C31.749 183.596 31.5266 184.434 30.4883 184.634C29.45 184.834 28.4562 184.085 27.7814 183.151C27.7842 183.173 27.7842 183.196 27.7814 183.218C27.4921 183.64 27.1065 184.212 26.4316 184.204C25.9045 184.142 25.4227 183.876 25.0893 183.462C25.0829 183.518 25.0642 183.571 25.0348 183.619C25.0053 183.666 24.9656 183.707 24.9187 183.737C23.161 184.656 21.1513 183.322 21.4702 181.638Z" fill="white"/>
<path d="M186.894 108.084L122.432 107.996C122.295 107.996 122.16 107.97 122.033 107.918C121.907 107.867 121.792 107.79 121.695 107.694C121.599 107.597 121.522 107.482 121.471 107.356C121.419 107.229 121.393 107.094 121.394 106.957L121.453 63.7132C121.453 63.3612 121.593 63.0235 121.842 62.7746C122.091 62.5256 122.428 62.3857 122.78 62.3857L186.671 62.4747C187.024 62.4767 187.362 62.6182 187.61 62.8683C187.859 63.1185 187.999 63.4569 187.999 63.8097L187.932 107.046C187.932 107.322 187.823 107.586 187.628 107.78C187.433 107.975 187.169 108.084 186.894 108.084Z" fill="#FF5A18"/>
<path d="M186.893 108.477L122.431 108.388C122.052 108.388 121.688 108.238 121.419 107.969C121.151 107.701 121 107.337 121 106.957L121.059 63.7131C121.061 63.2581 121.243 62.8224 121.566 62.5013C121.888 62.1802 122.325 62 122.78 62L186.671 62.089C186.897 62.0883 187.121 62.1325 187.329 62.2191C187.538 62.3056 187.728 62.4328 187.887 62.5933C188.206 62.9175 188.385 63.3545 188.384 63.8096L188.324 107.046C188.324 107.426 188.174 107.79 187.905 108.058C187.637 108.327 187.273 108.477 186.893 108.477ZM186.893 107.699C186.979 107.7 187.064 107.684 187.143 107.65C187.222 107.617 187.294 107.568 187.353 107.506C187.414 107.446 187.462 107.374 187.496 107.295C187.529 107.216 187.546 107.132 187.546 107.046L187.605 63.8096C187.606 63.6862 187.583 63.5639 187.536 63.4497C187.49 63.3355 187.421 63.2316 187.334 63.144C187.247 63.0564 187.144 62.9869 187.03 62.9395C186.916 62.8921 186.794 62.8677 186.671 62.8677L122.78 62.7787C122.531 62.7787 122.293 62.8769 122.117 63.0519C121.94 63.227 121.84 63.4646 121.838 63.7131L121.779 106.957C121.779 107.042 121.796 107.127 121.829 107.206C121.861 107.285 121.91 107.356 121.97 107.416C122.031 107.476 122.103 107.523 122.182 107.555C122.261 107.587 122.346 107.603 122.431 107.602L186.893 107.699Z" fill="#DF000D"/>
<path d="M149.234 94.3203L133.104 87.2823V83.3888L149.256 76.425V81.0082L137.983 85.2948L149.241 89.7445L149.234 94.3203ZM150.724 97.4055L156.591 73.0654H159.98L154.047 97.4055H150.724ZM161.441 94.3574V89.8113L172.721 85.3615L161.456 80.9637V76.4472L177.608 83.4556V87.312L161.441 94.3574Z" fill="white"/>
<path d="M26 356.934H340.66V358.159H26V356.934ZM41.6047 390.198H97.72V391.424H41.6047V390.198Z" fill="#252362"/>
<path d="M298.908 138.235C296.271 135.382 295.555 131.34 295.118 127.616C294.551 122.811 294.175 117.98 293.948 113.149C293.821 110.42 293.744 107.69 293.717 104.961L292.45 105.476C295.602 109.127 298.795 112.892 300.788 117.321C301.781 119.491 302.359 121.829 302.492 124.212C302.545 126.872 302.244 129.527 301.596 132.107C300.927 135.099 300.082 138.06 299.608 141.094L300.963 140.919C300.319 140.064 299.67 139.214 299.026 138.344C298.923 138.174 298.757 138.052 298.565 138.002C298.373 137.952 298.169 137.979 297.996 138.076C297.911 138.125 297.836 138.191 297.776 138.27C297.716 138.349 297.672 138.439 297.647 138.535C297.622 138.631 297.616 138.73 297.63 138.829C297.644 138.927 297.678 139.021 297.729 139.106L299.67 141.681C299.746 141.804 299.856 141.904 299.986 141.967C300.117 142.03 300.263 142.054 300.407 142.036C300.548 142.021 300.682 141.963 300.791 141.872C300.9 141.78 300.98 141.658 301.02 141.521C301.874 136.021 304.007 130.706 303.976 125.077C303.976 119.927 301.756 115.23 298.826 111.1C297.178 108.777 295.334 106.604 293.48 104.446C293.375 104.347 293.244 104.28 293.102 104.254C292.961 104.227 292.814 104.242 292.681 104.296C292.547 104.351 292.432 104.442 292.349 104.56C292.266 104.678 292.219 104.817 292.213 104.961C292.258 109.987 292.479 115.007 292.877 120.02C293.073 122.492 293.305 124.959 293.593 127.42C293.789 129.423 294.151 131.405 294.675 133.348C295.254 135.557 296.346 137.599 297.863 139.307C298.511 139.981 299.557 138.931 298.908 138.235Z" fill="#252362"/>
<path d="M325.38 142.577C323.261 144.925 321.064 147.193 318.788 149.38C315.461 152.578 311.773 155.705 307.293 156.807C305.218 157.256 303.092 157.42 300.973 157.296L301.056 157.399C297.909 158.138 294.61 157.86 291.631 156.606C289.968 155.848 288.391 154.912 286.929 153.815C280.656 149.334 274.971 143.689 271.896 136.624L277.561 138.684C280.285 139.657 283.041 140.651 285.43 142.289C287.124 143.516 288.703 144.895 290.148 146.409L300.242 156.42L300.628 156.905C303.762 152.734 307.687 149.222 312.18 146.571C316.673 143.919 321.645 142.181 326.811 141.454C326.253 141.712 325.763 142.096 325.38 142.577Z" fill="#252362"/>
<path d="M324.854 142.057C322.227 145.003 319.449 147.812 316.532 150.472C313.957 152.79 311.073 154.947 307.694 155.931C305.5 156.488 303.232 156.699 300.973 156.554C300.829 156.56 300.69 156.608 300.573 156.691C300.455 156.774 300.363 156.889 300.309 157.022C300.255 157.156 300.24 157.302 300.266 157.444C300.293 157.585 300.36 157.716 300.458 157.821L300.541 157.924C300.654 157.512 300.762 157.1 300.87 156.688C298.39 157.261 295.804 157.176 293.367 156.441C290.89 155.694 288.732 154.216 286.672 152.702C282.864 149.994 279.469 146.748 276.593 143.066C274.984 140.96 273.631 138.672 272.56 136.248L271.721 137.334C274.044 138.168 276.356 138.987 278.679 139.832C280.792 140.545 282.82 141.49 284.725 142.649C286.562 143.929 288.259 145.4 289.787 147.037L295.159 152.403L298.095 155.313C298.81 155.98 299.487 156.687 300.124 157.43C300.204 157.509 300.302 157.569 300.409 157.605C300.516 157.641 300.63 157.652 300.742 157.638C300.854 157.623 300.961 157.584 301.056 157.522C301.15 157.46 301.23 157.377 301.288 157.28C304.372 153.188 308.235 149.746 312.654 147.152C317.073 144.558 321.961 142.863 327.038 142.165L326.647 140.738C325.956 141.037 325.345 141.494 324.865 142.072C324.226 142.773 325.271 143.823 325.895 143.102C326.194 142.706 326.578 142.381 327.017 142.149C327.194 142.087 327.34 141.96 327.427 141.794C327.514 141.628 327.534 141.435 327.485 141.254C327.435 141.074 327.319 140.918 327.16 140.82C327 140.721 326.81 140.687 326.626 140.723C318.371 141.904 310.683 145.607 304.614 151.327C302.921 152.918 301.37 154.656 299.979 156.518L301.143 156.369C300.598 155.727 300.017 155.117 299.403 154.541L296.735 151.888L291.276 146.476C289.675 144.77 287.935 143.201 286.074 141.784C284.151 140.508 282.074 139.478 279.894 138.72C277.319 137.741 274.698 136.84 272.097 135.908C271.417 135.666 271.026 136.464 271.257 136.994C273.288 141.438 276.16 145.446 279.714 148.798C281.498 150.509 283.391 152.104 285.379 153.572C287.521 155.174 289.751 156.729 292.29 157.636C295.18 158.645 298.298 158.81 301.277 158.11C301.401 158.074 301.513 158.007 301.603 157.915C301.693 157.823 301.758 157.709 301.791 157.585C301.824 157.46 301.825 157.33 301.793 157.205C301.76 157.08 301.696 156.966 301.607 156.874L301.524 156.771L301.009 158.032C303.141 158.147 305.279 157.986 307.37 157.553C309.13 157.12 310.816 156.426 312.371 155.493C315.625 153.578 318.381 150.899 321.043 148.252C322.722 146.584 324.355 144.867 325.941 143.102C326.544 142.397 325.498 141.346 324.854 142.057ZM301.483 173.637L301.828 173.565C301.772 173.637 301.71 173.699 301.653 173.771L301.967 174.049L301.21 174.368C298.398 175.548 295.169 174.786 292.316 173.725C284.933 170.975 278.374 166.386 273.261 160.391C281.16 162.807 288.788 166.032 296.024 170.017C297.968 171.025 299.798 172.239 301.483 173.637Z" fill="#252362"/>
<path d="M301.679 174.353L302.024 174.281L301.303 173.045L301.128 173.246L301.643 173.029C301.499 173.034 301.36 173.081 301.241 173.163C301.123 173.245 301.031 173.36 300.977 173.494C300.923 173.627 300.908 173.773 300.935 173.915C300.961 174.056 301.029 174.187 301.128 174.291L301.447 174.574L301.772 173.338C301.131 173.631 300.466 173.867 299.784 174.044C298.693 174.271 297.57 174.29 296.472 174.101C294.229 173.684 292.052 172.969 289.999 171.974C283.751 169.199 278.208 165.054 273.781 159.845L273.06 161.086C280.823 163.461 288.323 166.624 295.442 170.526C297.404 171.529 299.253 172.738 300.958 174.132C301.679 174.75 302.73 173.709 301.988 173.102C300.45 171.816 298.786 170.688 297.023 169.733C295.211 168.703 293.37 167.735 291.502 166.829C287.764 164.99 283.934 163.343 280.028 161.895C277.851 161.088 275.652 160.345 273.431 159.665C272.674 159.438 272.262 160.376 272.71 160.906C275.683 164.376 279.144 167.397 282.984 169.872C284.871 171.09 286.844 172.169 288.886 173.102C290.988 174.134 293.204 174.915 295.489 175.429C296.843 175.718 298.237 175.769 299.609 175.579C300.497 175.414 301.362 175.14 302.184 174.765C302.307 174.729 302.419 174.661 302.508 174.569C302.598 174.476 302.662 174.363 302.694 174.238C302.727 174.114 302.727 173.984 302.694 173.859C302.662 173.735 302.598 173.621 302.508 173.529L302.194 173.246L301.679 174.513C301.824 174.502 301.964 174.459 302.089 174.386C302.214 174.313 302.32 174.211 302.4 174.09C302.51 173.973 302.579 173.823 302.597 173.664C302.615 173.504 302.581 173.343 302.5 173.204C302.419 173.065 302.295 172.956 302.147 172.893C302 172.83 301.835 172.816 301.679 172.854L301.334 172.921C300.355 173.112 300.747 174.549 301.679 174.353Z" fill="#252362"/>
<path d="M325.174 161.534C323.742 163.498 322.307 165.459 320.868 167.416C320.132 168.446 319.354 169.476 318.237 170.032C317.58 170.325 316.887 170.529 316.177 170.64L301.803 173.565C307.769 166.715 316.132 162.41 325.174 161.534Z" fill="#252362"/>
<path d="M324.535 161.159L321.26 165.634C320.374 166.844 319.508 168.374 318.211 169.187C317.476 169.584 316.675 169.843 315.847 169.95L313.179 170.496L307.771 171.598L301.633 172.849C301.869 173.261 302.111 173.673 302.354 174.085C306.884 168.877 312.855 165.128 319.514 163.311C321.369 162.806 323.264 162.462 325.179 162.281C325.374 162.277 325.561 162.198 325.699 162.06C325.837 161.921 325.916 161.735 325.92 161.54C325.919 161.343 325.84 161.155 325.702 161.017C325.563 160.878 325.375 160.799 325.179 160.798C317.988 161.495 311.165 164.309 305.572 168.884C304.034 170.145 302.605 171.536 301.303 173.04C301.193 173.157 301.124 173.307 301.106 173.466C301.088 173.626 301.122 173.787 301.203 173.926C301.284 174.065 301.408 174.174 301.556 174.237C301.704 174.3 301.868 174.314 302.024 174.276L313.251 171.989L316.079 171.412C316.951 171.279 317.802 171.027 318.607 170.666C320.096 169.914 321.043 168.42 322.001 167.117L325.817 161.905C325.916 161.735 325.944 161.533 325.894 161.343C325.843 161.152 325.72 160.99 325.55 160.891C325.379 160.792 325.177 160.764 324.987 160.814C324.797 160.865 324.634 160.988 324.535 161.159ZM294.407 191.055C289.427 190.081 285.209 186.899 281.187 183.809C278.895 182.042 276.552 180.245 274.888 177.891C284.68 180.332 294.046 184.241 302.668 189.484L301.195 189.922C299.341 191.39 296.73 191.513 294.407 191.055Z" fill="#252362"/>
<path d="M294.603 190.344C291.67 189.679 288.894 188.455 286.424 186.739C283.878 185.048 281.433 183.209 279.101 181.233C277.761 180.156 276.56 178.915 275.527 177.541L274.692 178.628C282.271 180.521 289.602 183.297 296.534 186.899C298.491 187.929 300.41 189.012 302.292 190.148C302.353 189.695 302.41 189.242 302.472 188.794L301.287 189.139C300.664 189.324 300.196 189.783 299.598 190.045C298.002 190.646 296.263 190.759 294.603 190.37C294.414 190.322 294.213 190.348 294.043 190.444C293.874 190.54 293.747 190.698 293.691 190.885C293.642 191.074 293.668 191.275 293.764 191.445C293.86 191.615 294.019 191.741 294.206 191.796C296.781 192.311 299.557 192.141 301.71 190.462L301.385 190.653L302.858 190.22C302.996 190.178 303.118 190.097 303.211 189.987C303.304 189.878 303.363 189.743 303.382 189.601C303.401 189.458 303.379 189.313 303.318 189.183C303.257 189.053 303.16 188.943 303.038 188.866C296.272 184.758 289.047 181.459 281.511 179.034C279.389 178.348 277.245 177.737 275.079 177.201C274.502 177.057 273.848 177.716 274.244 178.288C276.134 180.919 278.715 182.866 281.264 184.818C283.813 186.77 286.332 188.624 289.164 189.999C290.759 190.796 292.45 191.385 294.196 191.75C295.143 191.956 295.54 190.514 294.603 190.344Z" fill="#252362"/>
<path d="M324.277 176.969C323.134 180.883 321.888 184.983 318.983 187.836C314.801 191.956 308.194 192.43 302.446 191.266L302.663 189.68C308.601 183.716 318.52 183.103 324.277 176.969Z" fill="#252362"/>
<path d="M323.562 176.774C322.485 180.466 321.342 184.416 318.556 187.218C315.981 189.793 312.376 190.874 308.864 191.05C306.778 191.131 304.691 190.958 302.647 190.535L303.188 191.245L303.404 189.659L303.183 190.174C307.906 185.462 314.827 184.205 320.42 180.904C322.031 179.97 323.504 178.817 324.798 177.479C325.457 176.789 324.412 175.738 323.768 176.449C318.453 182.058 310.115 182.897 304.089 187.481C303.662 187.805 303.245 188.145 302.843 188.511C302.441 188.876 302.004 189.185 301.932 189.716C301.859 190.246 301.792 190.746 301.726 191.261C301.723 191.42 301.771 191.575 301.864 191.704C301.957 191.833 302.089 191.929 302.241 191.977C306.077 192.744 310.192 192.862 313.952 191.637C315.786 191.054 317.484 190.11 318.947 188.861C320.503 187.458 321.751 185.748 322.614 183.839C323.582 181.675 324.373 179.436 324.978 177.144C324.995 176.969 324.949 176.794 324.848 176.649C324.747 176.505 324.598 176.401 324.428 176.357C324.257 176.312 324.077 176.329 323.918 176.406C323.76 176.482 323.633 176.613 323.562 176.774ZM303.343 209.667L301.478 209.626C299.202 210.084 296.843 209.626 294.598 209.008C287.233 207.007 280.344 203.55 274.337 198.842C282.22 199.687 289.898 201.885 297.034 205.341C299.341 206.479 301.638 207.746 303.343 209.667Z" fill="#252362"/>
<path d="M303.342 208.925L301.936 208.895C301.164 208.895 300.417 209.065 299.645 209.07C297.353 209.07 295.092 208.421 292.924 207.751C286.38 205.729 280.26 202.532 274.862 198.316L274.347 199.578C282.474 200.441 290.375 202.78 297.662 206.479C299.59 207.392 301.335 208.648 302.812 210.187C303.451 210.898 304.496 209.847 303.842 209.157C302.483 207.718 300.89 206.519 299.13 205.614C297.29 204.629 295.399 203.744 293.465 202.962C289.578 201.353 285.553 200.102 281.439 199.223C279.092 198.73 276.722 198.355 274.337 198.1C274.193 198.105 274.054 198.151 273.936 198.234C273.817 198.316 273.726 198.431 273.671 198.564C273.617 198.697 273.602 198.844 273.629 198.985C273.656 199.127 273.723 199.258 273.822 199.362C277.391 202.183 281.28 204.572 285.41 206.479C287.459 207.421 289.56 208.245 291.703 208.946C293.92 209.741 296.222 210.275 298.563 210.537C299.228 210.597 299.897 210.597 300.561 210.537C300.933 210.474 301.308 210.431 301.684 210.409L303.342 210.44C304.295 210.424 304.295 208.946 303.342 208.925Z" fill="#252362"/>
<path d="M313.086 200.711C314.953 200.112 316.887 199.752 318.844 199.64L332.203 198.306C325.475 204.219 317.301 208.245 308.513 209.976L303.492 209.245C306.159 205.81 309.018 202.21 313.086 200.711Z" fill="#252362"/>
<path d="M313.282 201.422C314.735 200.934 316.241 200.621 317.768 200.49C319.313 200.32 320.904 200.176 322.475 200.016L332.203 199.048C332.033 198.625 331.858 198.203 331.688 197.781C326.545 202.292 320.531 205.702 314.018 207.798C312.159 208.392 310.268 208.881 308.353 209.26H308.734L303.708 208.539C303.852 208.905 304.001 209.265 304.151 209.626C306.628 206.412 309.352 202.931 313.282 201.432C313.467 201.376 313.624 201.25 313.72 201.082C313.816 200.913 313.843 200.714 313.797 200.526C313.742 200.338 313.616 200.18 313.445 200.083C313.275 199.987 313.074 199.961 312.885 200.011C308.544 201.638 305.608 205.326 302.863 208.884C302.806 208.983 302.773 209.093 302.765 209.206C302.757 209.319 302.775 209.433 302.818 209.538C302.861 209.644 302.927 209.738 303.011 209.814C303.096 209.89 303.197 209.945 303.306 209.976L306.623 210.455L308.219 210.687C308.565 210.715 308.914 210.684 309.249 210.594C309.888 210.46 310.521 210.316 311.155 210.156C319.14 208.156 326.529 204.271 332.703 198.826C332.804 198.722 332.872 198.591 332.9 198.449C332.928 198.306 332.914 198.159 332.859 198.025C332.804 197.89 332.712 197.775 332.593 197.692C332.473 197.609 332.333 197.563 332.188 197.559L322.294 198.548C320.677 198.708 319.055 198.852 317.443 199.037C315.889 199.178 314.356 199.498 312.875 199.99C312.688 200.046 312.53 200.173 312.434 200.343C312.339 200.512 312.312 200.713 312.36 200.902C312.385 200.997 312.429 201.087 312.489 201.165C312.549 201.243 312.625 201.309 312.711 201.357C312.797 201.406 312.892 201.436 312.99 201.448C313.088 201.459 313.187 201.45 313.282 201.422ZM303.007 227.265L301.148 227.224C298.867 227.682 296.513 227.224 294.268 226.606C286.901 224.607 280.011 221.148 274.007 216.434C281.89 217.29 289.566 219.497 296.699 222.959C299.011 224.056 301.303 225.344 303.007 227.265Z" fill="#252362"/>
<path d="M303.008 226.523L301.607 226.492C300.835 226.492 300.088 226.662 299.31 226.668C297.024 226.668 294.758 226.019 292.589 225.349C286.047 223.323 279.928 220.126 274.528 215.914C274.358 216.336 274.183 216.754 274.013 217.176C282.143 218.038 290.047 220.377 297.338 224.077C299.266 224.989 301.011 226.246 302.488 227.785C303.126 228.496 304.172 227.445 303.518 226.755C302.16 225.315 300.568 224.116 298.811 223.207C296.969 222.227 295.078 221.344 293.146 220.56C289.253 218.955 285.223 217.709 281.105 216.836C278.756 216.342 276.389 215.967 274.003 215.713C273.859 215.718 273.719 215.765 273.601 215.847C273.483 215.929 273.391 216.044 273.337 216.177C273.282 216.311 273.267 216.457 273.294 216.599C273.321 216.74 273.388 216.871 273.488 216.975C278.842 221.189 284.899 224.424 291.379 226.528C293.595 227.329 295.897 227.865 298.239 228.125C298.904 228.184 299.572 228.184 300.237 228.125C300.607 228.062 300.98 228.019 301.355 227.996L303.013 228.027C303.213 228.026 303.403 227.947 303.544 227.805C303.685 227.664 303.763 227.472 303.762 227.273C303.762 227.073 303.682 226.882 303.54 226.742C303.399 226.601 303.207 226.523 303.008 226.523Z" fill="#252362"/>
<path d="M312.757 218.324C314.623 217.719 316.56 217.353 318.519 217.238L331.884 215.904C325.166 221.822 317.001 225.855 308.219 227.595L303.203 226.868C305.825 223.408 308.688 219.808 312.757 218.324Z" fill="#252362"/>
<path d="M312.953 219.02C314.404 218.532 315.908 218.22 317.433 218.087C319.004 217.917 320.575 217.773 322.14 217.614L331.874 216.645L331.359 215.379C326.217 219.89 320.205 223.299 313.694 225.395C311.835 225.99 309.944 226.478 308.029 226.858H308.426L303.404 226.127L303.847 227.213C306.324 224 309.054 220.493 312.983 219.02C313.17 218.963 313.328 218.837 313.424 218.667C313.52 218.497 313.547 218.297 313.498 218.108C313.444 217.921 313.319 217.762 313.15 217.666C312.981 217.57 312.78 217.544 312.592 217.593C308.22 219.22 305.279 222.908 302.555 226.467C302.497 226.564 302.462 226.674 302.454 226.788C302.445 226.901 302.463 227.015 302.506 227.12C302.549 227.225 302.616 227.319 302.701 227.394C302.786 227.469 302.888 227.524 302.997 227.553L306.309 228.037L307.905 228.269C308.252 228.298 308.6 228.266 308.935 228.176C309.574 228.043 310.213 227.898 310.846 227.739C318.831 225.738 326.22 221.853 332.394 216.409C332.493 216.304 332.56 216.173 332.586 216.031C332.612 215.889 332.598 215.743 332.543 215.61C332.489 215.476 332.398 215.361 332.28 215.278C332.162 215.195 332.023 215.148 331.879 215.142L321.981 216.13C320.363 216.29 318.746 216.434 317.129 216.645C315.577 216.786 314.045 217.106 312.566 217.598C312.38 217.655 312.222 217.781 312.126 217.951C312.03 218.12 312.003 218.321 312.051 218.51C312.106 218.695 312.231 218.851 312.399 218.946C312.567 219.041 312.766 219.068 312.953 219.02ZM302.678 243.56L300.814 243.519C298.537 243.977 296.179 243.519 293.933 242.901C286.568 240.899 279.679 237.443 273.673 232.734C281.556 233.57 289.236 235.76 296.374 239.208C298.677 240.325 300.973 241.613 302.678 243.56Z" fill="#252362"/>
<path d="M302.678 242.793L301.272 242.762C300.505 242.762 299.727 242.932 298.98 242.937C296.688 242.937 294.428 242.288 292.285 241.618C285.742 239.596 279.622 236.399 274.224 232.183L273.709 233.445C281.839 234.307 289.743 236.645 297.034 240.346C298.961 241.259 300.707 242.516 302.184 244.054C302.822 244.765 303.868 243.714 303.214 243.024C301.855 241.585 300.262 240.386 298.501 239.481C296.662 238.497 294.771 237.611 292.836 236.829C288.942 235.224 284.91 233.978 280.79 233.105C278.443 232.612 276.073 232.238 273.688 231.982C273.544 231.987 273.405 232.034 273.287 232.116C273.168 232.198 273.077 232.313 273.022 232.447C272.968 232.58 272.953 232.726 272.98 232.868C273.007 233.009 273.074 233.14 273.173 233.244C276.745 236.057 280.636 238.437 284.766 240.336C286.815 241.278 288.916 242.102 291.059 242.803C293.277 243.593 295.579 244.122 297.919 244.379C298.586 244.438 299.256 244.438 299.923 244.379C300.293 244.315 300.666 244.272 301.04 244.25L302.699 244.281C303.631 244.291 303.631 242.813 302.678 242.793Z" fill="#252362"/>
<path d="M312.422 234.578C314.288 233.979 316.223 233.619 318.18 233.507L331.544 232.173C324.815 238.084 316.642 242.11 307.854 243.843L302.833 243.112C305.49 239.677 308.353 236.077 312.422 234.578Z" fill="#252362"/>
<path d="M312.623 235.289C314.074 234.801 315.578 234.488 317.103 234.357C318.648 234.187 320.24 234.042 321.811 233.883L331.544 232.915L331.029 231.648C325.89 236.159 319.879 239.568 313.37 241.665C311.511 242.259 309.619 242.748 307.704 243.127H308.096L303.069 242.396C303.214 242.762 303.363 243.122 303.512 243.483C305.989 240.269 308.714 236.762 312.649 235.289C312.834 235.232 312.991 235.107 313.087 234.938C313.183 234.77 313.21 234.571 313.164 234.382C313.108 234.195 312.982 234.036 312.812 233.94C312.642 233.844 312.441 233.818 312.252 233.867C307.91 235.495 304.975 239.182 302.23 242.741C302.173 242.839 302.14 242.949 302.132 243.063C302.124 243.176 302.142 243.29 302.185 243.395C302.227 243.5 302.294 243.594 302.378 243.67C302.463 243.746 302.564 243.802 302.673 243.833L305.989 244.312L307.586 244.543C307.932 244.572 308.281 244.54 308.616 244.451C309.255 244.317 309.888 244.173 310.522 244.013C318.508 242.016 325.897 238.13 332.07 232.683C332.171 232.579 332.239 232.448 332.267 232.305C332.295 232.163 332.28 232.016 332.226 231.881C332.171 231.747 332.079 231.631 331.959 231.549C331.84 231.466 331.699 231.42 331.555 231.416L321.656 232.405C320.039 232.564 318.417 232.709 316.805 232.894C315.25 233.035 313.718 233.355 312.237 233.847C312.05 233.903 311.892 234.029 311.796 234.199C311.7 234.369 311.673 234.569 311.722 234.758C311.771 234.948 311.894 235.11 312.063 235.209C312.232 235.309 312.433 235.337 312.623 235.289Z" fill="#252362"/>
<path d="M296.286 302.657C298.377 291.569 299.943 280.388 301.061 269.181C302.178 257.975 302.863 246.562 303.198 235.222C303.533 223.881 303.538 212.587 303.311 201.272C303.085 189.875 302.626 178.478 302.044 167.097C301.462 155.715 300.762 144.338 300.041 132.967C299.953 131.561 299.861 130.155 299.773 128.749C299.732 128.116 298.743 128.11 298.779 128.749C299.495 140.079 300.211 151.378 300.839 162.698C301.467 174.018 301.946 185.359 302.235 196.689C302.523 208.019 302.59 219.349 302.343 230.654C302.096 241.958 301.524 253.226 300.494 264.474C299.464 275.722 298.053 287.057 296.075 298.238C295.828 299.612 295.574 300.995 295.313 302.389C295.2 303.017 296.158 303.285 296.276 302.657H296.286ZM287.016 305.788C288.38 293.651 288.82 281.427 288.335 269.223C287.844 257.072 286.467 244.973 284.215 233.023C281.958 221.015 278.834 209.187 274.867 197.631C270.918 186.13 266.137 174.931 260.56 164.125C254.964 153.27 248.554 142.855 241.387 132.967C240.49 131.738 239.586 130.515 238.673 129.3C238.291 128.785 237.426 129.3 237.812 129.815C245.136 139.529 251.719 149.779 257.506 160.479C263.292 171.186 268.284 182.304 272.442 193.743C276.578 205.134 279.887 216.809 282.345 228.676C284.829 240.641 286.427 252.773 287.124 264.974C287.822 277.062 287.61 289.185 286.491 301.241C286.347 302.755 286.191 304.267 286.022 305.778C285.95 306.411 286.949 306.406 287.016 305.778V305.788Z" fill="#252362"/>
<path d="M256.101 152.975C254.417 145.888 252.65 138.555 248.571 132.421C246.424 129.327 243.849 126.553 240.924 124.181C237.834 121.549 234.579 119.067 231.396 116.533L220.066 107.505C219.977 107.428 219.864 107.384 219.746 107.38C219.628 107.376 219.512 107.413 219.418 107.484C219.324 107.555 219.257 107.656 219.229 107.771C219.201 107.885 219.212 108.006 219.262 108.113C221.453 112.082 223.638 116.051 225.818 120.02C227.745 123.522 229.645 127.039 231.638 130.505C235.114 136.541 238.961 142.52 244.045 147.341C246.84 150.042 250.069 152.255 253.598 153.887C254.175 154.149 254.685 153.294 254.113 153.026C247.825 150.184 242.834 145.276 238.781 139.78C234.414 133.858 230.989 127.312 227.451 120.885L220.122 107.598L219.345 108.2L229.331 116.147C232.544 118.722 235.794 121.235 238.972 123.841C241.882 126.225 244.719 128.764 246.944 131.818C249.023 134.757 250.673 137.977 251.842 141.382C253.158 145.267 254.26 149.222 255.143 153.227C255.292 153.85 256.25 153.588 256.101 152.965V152.975ZM263.486 169.167C253.385 164.302 242.658 160.86 231.612 158.939C228.491 158.396 225.352 157.977 222.193 157.682C221.678 157.631 221.554 158.367 221.946 158.609C227.303 161.954 232.887 164.921 238.658 167.488C241.48 168.745 244.323 169.944 247.253 170.959C249.951 171.949 252.763 172.596 255.622 172.885C258.745 173.224 261.898 172.627 264.681 171.17C265.242 170.861 264.743 170.001 264.166 170.31C259.196 173.06 253.222 171.912 248.108 170.202C245.281 169.26 242.515 168.106 239.791 166.911C236.979 165.675 234.213 164.348 231.494 162.93C228.404 161.32 225.384 159.593 222.435 157.749C222.352 158.058 222.27 158.367 222.182 158.676C233.21 159.73 244.039 162.299 254.365 166.309C257.287 167.442 260.159 168.688 262.981 170.047C263.558 170.32 264.063 169.466 263.496 169.187L263.486 169.167Z" fill="#252362"/>
<path d="M262.647 169.224C264.192 159.505 268.039 150.369 272.303 141.568C273.503 139.09 274.739 136.634 275.975 134.177L275.063 133.796C273.91 139.245 274.636 144.869 273.673 150.338C273.146 153.05 272.437 155.724 271.551 158.341C270.768 160.798 270.037 163.332 268.708 165.552C267.38 167.771 265.438 169.584 262.899 170.089C262.271 170.212 262.538 171.175 263.162 171.052C265.417 170.518 267.401 169.18 268.739 167.287C270.284 165.227 271.18 162.724 271.973 160.283C272.844 157.595 273.719 154.901 274.327 152.136C274.894 149.372 275.206 146.562 275.259 143.741C275.357 140.507 275.372 137.242 276.047 134.059C276.155 133.544 275.403 133.147 275.136 133.678C270.712 142.433 266.257 151.327 263.532 160.813C262.761 163.489 262.151 166.208 261.704 168.956C261.606 169.584 262.564 169.852 262.667 169.224H262.647ZM269.749 186.76C265.968 184.035 261.4 182.794 256.832 182.191C251.852 181.532 246.815 181.676 241.809 181.3C238.861 181.12 235.941 180.621 233.101 179.812C232.653 179.678 232.21 180.327 232.617 180.646C236.733 183.836 241.362 186.302 246.305 187.939C251.276 189.581 256.486 190.382 261.72 190.308C264.655 190.261 267.578 189.928 270.449 189.314C271.077 189.18 270.81 188.217 270.186 188.351C265.221 189.401 260.113 189.598 255.081 188.933C250.044 188.274 245.152 186.782 240.604 184.519C238.033 183.238 235.592 181.71 233.317 179.956C233.157 180.234 232.998 180.513 232.833 180.791C242.438 183.664 252.733 181.512 262.343 184.339C264.814 185.04 267.149 186.155 269.249 187.635C269.764 188.011 270.279 187.146 269.764 186.775L269.749 186.76Z" fill="#252362"/>
<path d="M271.391 188.356C274.152 179.499 276.017 170.388 276.958 161.159C277.226 158.553 277.419 155.943 277.535 153.33L276.68 153.686C279.94 157.545 281.712 162.442 281.676 167.493C281.683 169.993 281.254 172.475 280.409 174.827C279.471 177.353 278.052 179.674 276.232 181.661C273.966 184.068 271.441 186.219 268.703 188.073C268.188 188.439 268.703 189.304 269.218 188.933C274.007 185.529 278.699 181.604 281.012 176.058C282.998 171.152 283.218 165.709 281.635 160.659C280.767 157.839 279.322 155.231 277.391 153.001C277.319 152.939 277.231 152.898 277.137 152.882C277.043 152.867 276.947 152.878 276.859 152.915C276.77 152.951 276.694 153.011 276.638 153.088C276.582 153.165 276.549 153.256 276.541 153.351C276.125 162.56 274.787 171.705 272.545 180.646C271.91 183.16 271.208 185.652 270.438 188.124C270.248 188.737 271.206 189 271.396 188.387L271.391 188.356ZM277.128 202.874C274.234 202.179 271.721 200.552 269.105 199.213C266.48 197.882 263.762 196.744 260.973 195.808C255.351 194.002 249.584 192.685 243.735 191.874C240.434 191.359 237.123 190.947 233.806 190.529C233.373 190.478 233.157 191.106 233.456 191.379C238.011 195.553 243.214 198.96 248.86 201.468C254.501 203.981 260.508 205.577 266.653 206.196C268.391 206.38 270.138 206.47 271.886 206.464C273.668 206.523 275.437 206.141 277.036 205.351C277.597 205.042 277.092 204.182 276.521 204.491C275.119 205.178 273.57 205.513 272.009 205.465C270.516 205.49 269.012 205.408 267.523 205.284C264.538 205.031 261.577 204.539 258.67 203.812C252.844 202.359 247.282 199.997 242.19 196.813C239.319 195.018 236.618 192.965 234.12 190.679C234.007 190.962 233.888 191.245 233.77 191.529C239.626 192.265 245.486 193.012 251.28 194.238C257.034 195.373 262.623 197.22 267.92 199.738C270.845 201.185 273.626 203.065 276.84 203.858C277.463 204.007 277.731 203.044 277.108 202.895L277.128 202.874Z" fill="#252362"/>
<path d="M275.97 203.904C278.042 199.85 280.341 195.916 282.856 192.121C284.086 190.267 285.358 188.444 286.697 186.667C287.854 185.089 289.146 183.615 290.56 182.264C292.123 180.739 294.003 179.579 296.065 178.865C295.859 178.659 295.659 178.453 295.453 178.252C294.642 180.889 293.832 183.527 293.022 186.167C292.29 188.557 291.595 190.957 290.766 193.311C289.252 197.606 287.079 201.901 283.144 204.445C281.156 205.796 278.775 206.447 276.377 206.294C275.738 206.242 275.738 207.236 276.377 207.293C280.888 207.669 285.07 204.97 287.707 201.504C290.797 197.487 292.121 192.461 293.578 187.702C294.519 184.639 295.458 181.577 296.395 178.514C296.413 178.43 296.41 178.342 296.386 178.26C296.362 178.177 296.317 178.101 296.256 178.04C296.195 177.979 296.12 177.935 296.037 177.91C295.954 177.886 295.867 177.883 295.782 177.901C291.925 179.158 288.994 182.094 286.548 185.22C283.772 188.809 281.225 192.569 278.921 196.478C277.572 198.744 276.296 201.053 275.094 203.405C274.801 203.971 275.661 204.476 275.954 203.92L275.97 203.904ZM280.703 218.515C276.696 215.971 271.948 215.044 267.313 214.395C262.08 213.679 256.827 213.066 251.584 212.407C248.592 212.031 245.595 211.655 242.577 211.511C242.482 211.518 242.391 211.552 242.314 211.608C242.237 211.664 242.177 211.74 242.14 211.828C242.104 211.916 242.093 212.013 242.108 212.107C242.123 212.201 242.164 212.289 242.227 212.361C243.836 214.214 245.737 215.792 247.856 217.032C250.088 218.294 252.49 219.231 254.988 219.813C257.563 220.467 260.247 220.874 262.889 221.306C265.644 221.76 268.41 222.182 271.196 222.393C274.333 222.67 277.492 222.554 280.6 222.048C281.233 221.935 280.965 220.977 280.337 221.085C274.924 222.033 269.404 221.353 264.032 220.493C259.031 219.689 253.763 219.035 249.215 216.651C246.827 215.39 244.695 213.696 242.927 211.655C242.814 211.938 242.695 212.222 242.577 212.505C247.902 212.762 253.207 213.607 258.496 214.271C261.071 214.596 263.646 214.91 266.185 215.24C268.469 215.508 270.737 215.903 272.978 216.424C275.524 217.003 277.96 217.992 280.188 219.354C280.734 219.7 281.218 218.839 280.703 218.494V218.515ZM282.722 219.509C285.465 213.018 289.408 207.104 294.345 202.076C295.729 200.668 297.187 199.336 298.713 198.085L297.878 197.863C298.306 199.856 297.94 201.885 297.363 203.806C296.766 205.709 296.046 207.57 295.205 209.379C293.66 212.762 291.636 215.976 288.773 218.397C287.283 219.675 285.563 220.657 283.705 221.291C283.098 221.492 283.36 222.455 283.968 222.249C291.636 219.7 295.746 211.856 298.136 204.661C298.888 202.39 299.362 199.98 298.847 197.601C298.819 197.52 298.773 197.447 298.711 197.389C298.649 197.331 298.573 197.289 298.491 197.267C298.409 197.245 298.323 197.244 298.24 197.264C298.158 197.283 298.081 197.323 298.017 197.379C290.964 203.176 285.423 210.598 281.872 219.009C281.81 219.124 281.794 219.259 281.828 219.385C281.861 219.511 281.941 219.62 282.052 219.689C282.167 219.751 282.3 219.768 282.426 219.735C282.553 219.703 282.662 219.624 282.732 219.514L282.722 219.509ZM284.272 236.03C280.111 233.152 275.089 231.957 270.109 231.514C264.655 231.025 259.175 231.462 253.711 231.318C250.478 231.294 247.259 230.909 244.111 230.17C244.002 230.159 243.892 230.184 243.798 230.24C243.704 230.297 243.63 230.381 243.588 230.483C243.545 230.584 243.536 230.696 243.562 230.803C243.587 230.91 243.646 231.005 243.73 231.076C245.803 232.756 247.979 234.304 250.245 235.711C252.52 237.041 254.97 238.048 257.522 238.703C260.058 239.33 262.642 239.743 265.247 239.939C267.822 240.161 270.434 240.29 273.024 240.315C275.614 240.341 278.365 240.068 280.492 238.389C281.007 237.998 280.286 237.292 279.786 237.689C277.984 239.105 275.568 239.321 273.359 239.321C270.902 239.321 268.435 239.187 265.984 239.002C260.952 238.616 255.89 237.704 251.43 235.222C248.906 233.723 246.501 232.034 244.235 230.17L243.849 231.081C249.37 232.487 255.102 232.358 260.757 232.276C265.907 232.204 271.129 232.199 276.15 233.491C278.869 234.157 281.449 235.301 283.767 236.87C284.282 237.236 284.797 236.355 284.282 236.01L284.272 236.03Z" fill="#252362"/>
<path d="M285.044 236.726C285.889 235.541 286.862 234.46 287.815 233.368C288.768 232.276 289.581 231.267 290.39 230.17C292.028 227.989 293.494 225.683 294.773 223.274C295.504 221.9 296.172 220.493 296.776 219.051L295.993 219.154C298.347 221.605 298.352 225.442 297.121 228.424C296.374 230.139 295.361 231.726 294.119 233.126C292.89 234.558 291.578 235.916 290.189 237.194C288.726 238.654 286.959 239.772 285.013 240.47C284.4 240.66 284.663 241.623 285.276 241.428C287.153 240.781 288.875 239.752 290.333 238.405C291.853 237.066 293.278 235.624 294.598 234.089C297.085 231.23 299.145 227.759 298.924 223.835C298.851 221.827 298.064 219.911 296.704 218.432C296.649 218.382 296.583 218.343 296.511 218.321C296.439 218.298 296.363 218.291 296.289 218.301C296.214 218.311 296.142 218.337 296.079 218.378C296.015 218.418 295.962 218.472 295.921 218.535C293.793 223.583 290.885 228.264 287.305 232.41C286.234 233.651 285.127 234.866 284.174 236.205C283.798 236.72 284.689 237.235 285.034 236.72L285.044 236.726ZM326.966 141.918C327.073 141.88 327.183 141.852 327.295 141.835H327.162C327.269 141.822 327.378 141.822 327.486 141.835V140.836L326.698 140.939C326.635 140.956 326.576 140.987 326.528 141.032C326.476 141.069 326.433 141.117 326.399 141.171C326.365 141.227 326.346 141.291 326.343 141.356C326.325 141.42 326.325 141.488 326.343 141.552C326.378 141.677 326.459 141.783 326.569 141.851L326.688 141.902C326.775 141.928 326.868 141.928 326.956 141.902L327.249 141.861H327.115L327.476 141.815C327.542 141.815 327.608 141.799 327.666 141.768C327.726 141.746 327.781 141.711 327.826 141.666C327.871 141.62 327.906 141.566 327.929 141.506C327.96 141.447 327.976 141.382 327.975 141.315C327.972 141.184 327.919 141.058 327.826 140.965L327.728 140.888C327.652 140.841 327.565 140.816 327.476 140.816C327.321 140.806 327.165 140.815 327.012 140.841C326.902 140.857 326.793 140.883 326.688 140.919C326.624 140.935 326.566 140.967 326.518 141.011C326.466 141.049 326.422 141.096 326.389 141.15C326.355 141.206 326.335 141.27 326.332 141.336C326.314 141.4 326.314 141.467 326.332 141.531C326.368 141.656 326.449 141.763 326.559 141.83C326.616 141.874 326.682 141.905 326.753 141.92C326.823 141.935 326.896 141.934 326.966 141.918Z" fill="#252362"/>
<path d="M270.164 355.525L270.624 299.411L309.47 299.73L309.01 355.843L270.164 355.525Z" fill="#F07258"/>
<path d="M309.497 356.347L269.676 356.022L270.145 298.934L309.965 299.258L309.497 356.347ZM270.66 355.054L308.528 355.363L308.982 300.211L271.139 299.912L270.66 355.054Z" fill="#252362"/>
<path d="M309.249 325.915H270.418C270.206 325.915 270.003 325.831 269.853 325.681C269.704 325.531 269.62 325.328 269.62 325.117C269.62 324.905 269.704 324.702 269.853 324.552C270.003 324.402 270.206 324.318 270.418 324.318H309.249C309.461 324.318 309.664 324.402 309.814 324.552C309.964 324.702 310.048 324.905 310.048 325.117C310.048 325.328 309.964 325.531 309.814 325.681C309.664 325.831 309.461 325.915 309.249 325.915ZM309.249 314.631H270.418C270.206 314.631 270.003 314.547 269.853 314.397C269.704 314.247 269.62 314.044 269.62 313.833C269.62 313.621 269.704 313.418 269.853 313.268C270.003 313.119 270.206 313.034 270.418 313.034H309.249C309.461 313.034 309.664 313.119 309.814 313.268C309.964 313.418 310.048 313.621 310.048 313.833C310.048 314.044 309.964 314.247 309.814 314.397C309.664 314.547 309.461 314.631 309.249 314.631ZM309.249 346.5H270.418C270.308 346.509 270.197 346.494 270.093 346.459C269.989 346.423 269.893 346.365 269.812 346.291C269.731 346.216 269.667 346.125 269.623 346.024C269.578 345.923 269.556 345.814 269.556 345.704C269.556 345.594 269.578 345.485 269.623 345.384C269.667 345.283 269.731 345.192 269.812 345.117C269.893 345.043 269.989 344.985 270.093 344.949C270.197 344.913 270.308 344.899 270.418 344.908H309.249C309.359 344.899 309.47 344.913 309.574 344.949C309.678 344.985 309.774 345.043 309.855 345.117C309.936 345.192 310.001 345.283 310.045 345.384C310.089 345.485 310.112 345.594 310.112 345.704C310.112 345.814 310.089 345.923 310.045 346.024C310.001 346.125 309.936 346.216 309.855 346.291C309.774 346.365 309.678 346.423 309.574 346.459C309.47 346.494 309.359 346.509 309.249 346.5ZM110.667 390.198H124.944V391.424H110.667V390.198ZM234.846 458.931H296.936V460.157H234.846V458.931ZM304.238 458.931H316.192V460.157H304.238V458.931Z" fill="#252362"/>
<path d="M201.752 210.939L201.613 211.428L182.619 234.908L171.135 249.101H116.812C112.11 250.075 104.879 249.065 104.879 249.065C104.879 249.065 95.6963 249.843 92.7402 248.612C89.784 247.381 91.7102 245.651 91.7102 245.651C89.1351 244.492 91.36 242.633 91.36 242.633C91.2206 242.478 91.1141 242.296 91.0468 242.099C90.9795 241.901 90.9529 241.692 90.9686 241.484C91.087 240.743 91.9986 240.099 93.2191 240.212C92.6372 239.986 91.9625 239.651 91.9574 239.234C91.9574 238.538 93.8372 237.962 96.0362 237.416C100.996 236.18 103.473 235.557 105.626 235.629C108.632 235.752 111.569 236.57 114.206 238.018C114.206 237.987 114.206 237.962 114.231 237.936L161.056 232.533L168.323 222.115L185.184 197.956C189.778 193.408 196.082 192.893 200.222 195.113C203.158 199.305 203.034 206.17 201.752 210.939Z" fill="white"/>
<path d="M111.724 250.085C109.432 250.072 107.142 249.919 104.869 249.627C103.983 249.699 95.4753 250.353 92.5088 249.112C91.3397 248.627 90.6754 247.978 90.5415 247.191C90.47 246.707 90.5781 246.214 90.8454 245.805C90.5992 245.658 90.3878 245.46 90.226 245.223C90.0642 244.987 89.9557 244.718 89.908 244.435C89.8878 244.088 89.9406 243.74 90.063 243.415C90.1854 243.089 90.3747 242.793 90.6187 242.545C90.4141 242.192 90.3343 241.78 90.3921 241.376C90.4623 241.046 90.6127 240.737 90.8301 240.479C91.0474 240.22 91.325 240.019 91.6385 239.893C91.4733 239.709 91.3801 239.471 91.3758 239.223C91.3758 238.193 92.8848 237.606 95.8718 236.859H95.9697C100.919 235.629 103.406 235.005 105.616 235.078C108.603 235.194 111.526 235.984 114.165 237.39L160.717 232.018L167.844 221.806L176.378 209.605L184.726 197.636L184.793 197.559C189.907 192.502 196.51 192.492 200.485 194.619C200.56 194.661 200.625 194.719 200.676 194.788C203.679 199.048 203.653 206.041 202.293 211.083C202.252 211.253 202.2 211.423 202.154 211.598C202.133 211.67 202.098 211.736 202.051 211.794L171.573 249.467C171.52 249.53 171.454 249.582 171.379 249.617C171.305 249.653 171.223 249.672 171.14 249.673H116.869C115.171 249.976 113.448 250.114 111.724 250.085ZM104.879 248.509H104.957C105.029 248.509 112.167 249.493 116.699 248.55C116.736 248.545 116.774 248.545 116.812 248.55H170.888L201.098 211.166C201.134 211.042 201.17 210.924 201.201 210.8C202.484 206.052 202.546 199.521 199.826 195.546C196.221 193.671 190.252 193.743 185.597 198.321L177.274 210.249L168.776 222.444L161.504 232.863C161.461 232.929 161.404 232.984 161.336 233.024C161.268 233.065 161.192 233.089 161.113 233.095L114.536 238.461C114.493 238.493 114.446 238.519 114.397 238.538C114.323 238.567 114.243 238.578 114.164 238.573C114.085 238.568 114.008 238.545 113.938 238.508C111.377 237.096 108.522 236.3 105.6 236.185C103.54 236.113 101.104 236.7 96.2581 237.931L96.1654 237.956C93.5903 238.595 92.7612 238.986 92.5603 239.229C92.8179 239.438 93.1134 239.595 93.4307 239.692C93.5548 239.741 93.657 239.833 93.7187 239.952C93.7805 240.07 93.7976 240.207 93.767 240.337C93.7364 240.466 93.6601 240.581 93.552 240.659C93.444 240.738 93.3113 240.775 93.1783 240.763C92.2153 240.676 91.587 241.186 91.5252 241.572C91.5246 241.831 91.6221 242.081 91.7981 242.272C91.8923 242.386 91.9376 242.532 91.924 242.679C91.9105 242.825 91.8393 242.961 91.726 243.055C91.5303 243.225 90.9792 243.817 91.0462 244.301C91.1028 244.682 91.5612 244.971 91.9526 245.141C92.0363 245.18 92.1091 245.239 92.1646 245.312C92.2201 245.386 92.2566 245.472 92.2709 245.563C92.2851 245.654 92.2767 245.748 92.2463 245.835C92.216 245.922 92.1646 246 92.0968 246.063C91.9638 246.184 91.8575 246.332 91.7848 246.497C91.7121 246.662 91.6745 246.84 91.6745 247.021C91.7415 247.397 92.1895 247.778 92.9723 248.097C95.7688 249.261 104.761 248.519 104.848 248.514L104.879 248.509Z" fill="#252362"/>
<path d="M93.2143 240.768C93.0721 240.772 92.9341 240.721 92.8285 240.625C92.7229 240.53 92.6578 240.398 92.6466 240.256C92.6354 240.114 92.6789 239.974 92.7682 239.863C92.8575 239.752 92.9858 239.68 93.1267 239.661L101.763 238.245C101.836 238.233 101.91 238.236 101.981 238.252C102.053 238.269 102.12 238.3 102.179 238.343C102.239 238.385 102.29 238.439 102.328 238.502C102.367 238.564 102.393 238.633 102.405 238.706C102.416 238.778 102.414 238.852 102.397 238.924C102.38 238.995 102.35 239.062 102.307 239.122C102.264 239.181 102.21 239.232 102.148 239.271C102.085 239.309 102.016 239.335 101.944 239.347L93.307 240.758L93.2143 240.768ZM91.35 243.189C91.2024 243.198 91.0574 243.148 90.9469 243.05C90.8363 242.952 90.7692 242.814 90.7603 242.666C90.7514 242.519 90.8015 242.374 90.8995 242.263C90.9976 242.153 91.1355 242.085 91.283 242.077L101.315 240.841C101.388 240.832 101.462 240.837 101.532 240.857C101.603 240.877 101.669 240.91 101.726 240.955C101.784 241.001 101.832 241.057 101.868 241.12C101.904 241.184 101.927 241.254 101.936 241.327C101.945 241.4 101.939 241.474 101.919 241.544C101.9 241.615 101.866 241.681 101.821 241.738C101.776 241.796 101.72 241.844 101.656 241.88C101.592 241.916 101.522 241.939 101.449 241.948L91.4015 243.184L91.35 243.189ZM91.7053 246.207C91.5654 246.204 91.4318 246.148 91.3312 246.051C91.2306 245.953 91.1704 245.822 91.1626 245.682C91.1548 245.542 91.2 245.405 91.2891 245.297C91.3783 245.189 91.5048 245.118 91.6435 245.1L100.327 244.167C100.467 244.164 100.604 244.214 100.709 244.307C100.815 244.4 100.882 244.529 100.897 244.669C100.912 244.809 100.874 244.95 100.79 245.063C100.706 245.176 100.583 245.253 100.445 245.28L91.762 246.207H91.7053Z" fill="#252362"/>
<path d="M201.752 210.939L201.613 211.428C200.939 213.715 199.903 215.61 197.055 219.941C194.264 224.19 190.206 230.046 184.793 236.854L182.62 234.908L168.318 222.115L164.646 218.839C166.191 216.022 180.096 191.297 192.771 191.503C194.695 191.445 196.589 191.984 198.194 193.048C198.979 193.616 199.663 194.312 200.218 195.108C203.158 199.305 203.035 206.17 201.752 210.939Z" fill="#77CBD8"/>
<path d="M184.793 237.658C184.602 237.652 184.42 237.579 184.278 237.452L183.541 236.792L182.105 235.5C178.568 232.345 175.032 229.181 171.495 226.008L164.131 219.421C163.996 219.3 163.906 219.137 163.876 218.958C163.846 218.78 163.878 218.596 163.966 218.438C166.541 213.803 179.931 190.684 192.631 190.684H192.801C194.89 190.637 196.942 191.235 198.678 192.399C199.536 193.02 200.285 193.781 200.892 194.649C203.941 198.97 203.92 206.047 202.545 211.13C202.499 211.305 202.453 211.475 202.401 211.645C201.706 213.993 200.707 215.868 197.766 220.369C194.017 226.08 189.876 231.792 185.462 237.364C185.393 237.449 185.308 237.519 185.212 237.57C185.115 237.621 185.01 237.653 184.901 237.663L184.793 237.658ZM165.66 218.654L172.541 224.834L183.15 234.29C183.634 234.717 184.113 235.15 184.587 235.577L184.695 235.67C188.882 230.365 192.817 224.922 196.386 219.483C199.244 215.136 200.202 213.349 200.846 211.181C200.892 211.032 200.933 210.877 200.974 210.718C202.252 205.98 202.308 199.454 199.563 195.556C199.06 194.834 198.438 194.202 197.725 193.686C196.254 192.712 194.518 192.217 192.755 192.27H192.611C181.131 192.285 168.21 214.132 165.66 218.654ZM164.471 239.265C164.391 239.265 164.312 239.243 164.244 239.201C164.176 239.159 164.121 239.099 164.084 239.028L160.845 232.544C160.794 232.442 160.786 232.324 160.823 232.217C160.859 232.109 160.936 232.02 161.038 231.969C161.14 231.919 161.258 231.911 161.365 231.947C161.473 231.983 161.562 232.061 161.612 232.163L164.852 238.641C164.877 238.692 164.893 238.747 164.897 238.803C164.901 238.859 164.895 238.916 164.877 238.97C164.859 239.023 164.831 239.073 164.794 239.115C164.757 239.158 164.712 239.193 164.661 239.218C164.602 239.248 164.537 239.264 164.471 239.265Z" fill="#252362"/>
<path d="M270.109 402.182H182.558C182.2 402.182 181.857 402.04 181.604 401.787C181.351 401.534 181.208 401.191 181.208 400.833C181.208 400.475 181.351 400.132 181.604 399.879C181.857 399.626 182.2 399.484 182.558 399.484H270.109C270.467 399.484 270.81 399.626 271.063 399.879C271.316 400.132 271.459 400.475 271.459 400.833C271.459 401.191 271.316 401.534 271.063 401.787C270.81 402.04 270.467 402.182 270.109 402.182Z" fill="white"/>
<path d="M270.109 402.723H182.558C182.053 402.723 181.568 402.522 181.21 402.165C180.853 401.808 180.652 401.323 180.652 400.818C180.652 400.312 180.853 399.828 181.21 399.47C181.568 399.113 182.053 398.912 182.558 398.912H270.109C270.615 398.912 271.099 399.113 271.457 399.47C271.814 399.828 272.015 400.312 272.015 400.818C272.015 401.323 271.814 401.808 271.457 402.165C271.099 402.522 270.615 402.723 270.109 402.723ZM182.558 400.024C182.348 400.024 182.146 400.108 181.997 400.257C181.848 400.405 181.765 400.607 181.765 400.818C181.765 401.028 181.848 401.23 181.997 401.378C182.146 401.527 182.348 401.611 182.558 401.611H270.109C270.32 401.611 270.521 401.527 270.67 401.378C270.819 401.23 270.902 401.028 270.902 400.818C270.902 400.607 270.819 400.405 270.67 400.257C270.521 400.108 270.32 400.024 270.109 400.024H182.558Z" fill="#252362"/>
<path d="M194.619 367.775L210.152 386.758L183.917 408.11L180.379 403.99L191.596 386.732L184.695 375.515C188.002 372.943 191.31 370.363 194.619 367.775Z" fill="#F07258"/>
<path d="M183.835 409.047L179.535 404.072L190.798 386.732L183.804 375.402L194.722 366.858L211.1 386.876L183.835 409.047ZM181.219 403.959L184 407.178L209.199 386.66L194.511 368.707L185.581 375.695L192.394 386.763L181.219 403.959Z" fill="#252362"/>
<path d="M182.754 406.534L208.416 384.45C208.677 384.224 209.015 384.105 209.36 384.119C209.706 384.132 210.033 384.277 210.276 384.523L210.6 384.847C210.734 384.981 210.838 385.142 210.906 385.318C210.975 385.495 211.006 385.684 210.998 385.873C210.99 386.062 210.942 386.248 210.859 386.418C210.775 386.588 210.657 386.739 210.513 386.861L183.768 409.392C183.489 409.626 183.128 409.74 182.765 409.708C182.402 409.676 182.066 409.502 181.832 409.222C181.616 408.96 181.505 408.627 181.52 408.287C181.535 407.948 181.676 407.626 181.914 407.384L182.676 406.616L182.754 406.534Z" fill="#252362"/>
<path d="M182.887 410.036H182.733C182.414 410.003 182.11 409.88 181.858 409.682C181.606 409.484 181.415 409.219 181.307 408.916C181.199 408.614 181.179 408.288 181.249 407.974C181.319 407.661 181.477 407.374 181.703 407.147L182.46 406.385L182.558 406.302L208.221 384.219C208.546 383.939 208.965 383.792 209.394 383.808C209.823 383.824 210.23 384.002 210.533 384.306L210.857 384.631C211.026 384.796 211.159 384.994 211.248 385.213C211.336 385.432 211.379 385.667 211.372 385.903C211.363 386.138 211.304 386.368 211.201 386.579C211.097 386.79 210.95 386.977 210.77 387.129L184.025 409.65C183.707 409.915 183.301 410.053 182.887 410.036ZM209.307 384.451C209.058 384.448 208.817 384.536 208.627 384.698L182.965 406.786L182.908 406.838L182.146 407.605C181.941 407.792 181.819 408.053 181.806 408.33C181.794 408.608 181.892 408.879 182.079 409.083C182.266 409.288 182.527 409.41 182.804 409.423C183.081 409.436 183.352 409.337 183.557 409.15L210.301 386.629C210.412 386.537 210.502 386.423 210.566 386.295C210.629 386.166 210.666 386.026 210.672 385.882C210.677 385.738 210.653 385.594 210.601 385.459C210.549 385.325 210.469 385.202 210.368 385.099L210.044 384.775C209.949 384.674 209.835 384.594 209.708 384.538C209.582 384.482 209.446 384.452 209.307 384.451ZM259.562 289.977C259.17 292.021 258.55 294.015 257.713 295.921H183.114L185.076 302.034L207.129 370.823C207.129 370.823 199.223 376.947 192.343 380.511C189.464 382.015 186.76 383.086 184.886 383.086C177.815 368.774 158.708 329.164 153.305 303.368C152.08 297.507 151.559 292.357 152.049 288.381C152.216 286.901 152.573 285.449 153.11 284.06C157.714 272.477 174.539 269.82 202.195 265.334L214.38 263.351C222.507 262.028 233.528 260.22 248.453 257.769L255.467 267.739C260.442 281.67 260.226 286.511 259.562 289.977Z" fill="#252362"/>
<path d="M184.881 383.431H184.664L184.567 383.235C174.91 363.665 157.961 327.341 152.955 303.409V303.357C151.658 297.141 151.24 292.074 151.704 288.288C151.88 286.78 152.243 285.299 152.785 283.88C157.421 272.189 174.055 269.49 201.598 265.025L214.324 262.965C223.203 261.518 234.667 259.638 248.397 257.383L248.613 257.346L248.737 257.527L252.244 262.512L255.756 267.497L255.797 267.58C260.855 281.748 260.577 286.599 259.917 290.029C259.519 292.098 258.89 294.115 258.043 296.044L257.955 296.255H183.588L207.531 370.932L207.335 371.081C207.258 371.143 199.327 377.23 192.493 380.789C189.181 382.55 186.616 383.431 184.881 383.431ZM153.646 303.301C158.626 327.053 175.441 363.16 185.097 382.71C186.714 382.638 189.099 381.793 192.178 380.186C198.359 376.962 205.46 371.642 206.717 370.689L182.635 295.576H257.487C258.266 293.755 258.848 291.855 259.222 289.91C259.861 286.573 260.123 281.845 255.143 267.873L251.662 262.929L248.283 258.124C234.651 260.364 223.259 262.244 214.427 263.671L201.696 265.731C174.4 270.16 157.92 272.833 153.424 284.153C152.905 285.517 152.559 286.941 152.394 288.391C151.936 292.099 152.353 297.105 153.64 303.259L153.646 303.301Z" fill="#252362"/>
<path d="M184.53 374.614L200.068 393.602L173.834 414.954L170.295 410.86L181.528 393.602L174.621 382.38C177.924 379.788 181.227 377.199 184.53 374.614Z" fill="#F07258"/>
<path d="M173.751 415.892L169.451 410.937L180.714 393.613L173.72 382.241L184.618 373.677L200.995 393.695L173.751 415.892ZM171.135 410.803L173.916 414.017L199.115 393.504L184.427 375.551L175.497 382.54L182.31 393.613L171.135 410.803Z" fill="#252362"/>
<path d="M172.67 413.378L198.327 391.295C198.59 391.069 198.928 390.951 199.274 390.965C199.62 390.978 199.948 391.122 200.192 391.367L200.516 391.691C200.65 391.826 200.754 391.986 200.823 392.163C200.891 392.339 200.922 392.528 200.914 392.717C200.906 392.907 200.858 393.092 200.775 393.262C200.691 393.432 200.573 393.583 200.429 393.705L173.684 416.226C173.546 416.343 173.386 416.43 173.213 416.485C173.041 416.539 172.86 416.558 172.68 416.542C172.5 416.526 172.325 416.474 172.165 416.39C172.005 416.306 171.863 416.191 171.748 416.051C171.53 415.79 171.417 415.456 171.433 415.116C171.448 414.776 171.59 414.454 171.83 414.213L172.592 413.451C172.616 413.424 172.642 413.4 172.67 413.378Z" fill="#252362"/>
<path d="M172.804 416.875H172.649C172.33 416.842 172.027 416.72 171.774 416.522C171.522 416.323 171.331 416.058 171.223 415.756C171.115 415.453 171.095 415.127 171.166 414.814C171.236 414.501 171.393 414.214 171.619 413.986L172.376 413.224C172.406 413.192 172.439 413.163 172.474 413.136L198.137 391.048C198.463 390.77 198.881 390.625 199.309 390.642C199.737 390.659 200.142 390.837 200.444 391.14L200.769 391.465C200.938 391.63 201.072 391.828 201.16 392.047C201.249 392.266 201.291 392.501 201.284 392.737C201.273 392.972 201.213 393.202 201.11 393.412C201.006 393.623 200.86 393.811 200.681 393.963L173.937 416.484C173.619 416.748 173.216 416.887 172.804 416.875ZM172.881 413.626L172.824 413.682L172.062 414.445C171.877 414.627 171.768 414.873 171.756 415.133C171.745 415.393 171.832 415.647 172 415.845C172.087 415.951 172.195 416.038 172.316 416.102C172.437 416.165 172.57 416.204 172.706 416.216C172.843 416.229 172.982 416.215 173.114 416.173C173.246 416.132 173.368 416.064 173.473 415.974L200.218 393.453C200.332 393.361 200.425 393.246 200.491 393.115C200.557 392.985 200.594 392.842 200.6 392.695C200.607 392.549 200.582 392.403 200.527 392.268C200.473 392.132 200.39 392.009 200.285 391.908L199.96 391.583C199.776 391.394 199.527 391.283 199.263 391.273C199 391.262 198.742 391.353 198.544 391.527L172.881 413.61V413.626Z" fill="#252362"/>
<path d="M257.363 445.927H262.436L252.45 313.57H243.859L247.109 345.444H206.238L209.488 313.57H200.903L190.917 445.927H195.989L205.615 351.567H247.737L257.363 445.927Z" fill="white"/>
<path d="M262.436 446.473H257.363C257.222 446.473 257.087 446.42 256.983 446.325C256.88 446.229 256.817 446.098 256.807 445.958L247.233 352.123H206.12L196.54 445.984C196.531 446.124 196.469 446.255 196.367 446.35C196.264 446.446 196.13 446.499 195.989 446.499H190.917C190.839 446.501 190.763 446.486 190.692 446.456C190.621 446.426 190.557 446.381 190.504 446.325C190.452 446.269 190.412 446.202 190.387 446.129C190.362 446.056 190.353 445.978 190.36 445.901L200.346 313.544C200.356 313.404 200.418 313.272 200.522 313.176C200.625 313.08 200.762 313.028 200.903 313.029H209.493C209.571 313.029 209.648 313.045 209.719 313.076C209.79 313.108 209.854 313.154 209.906 313.212C209.958 313.27 209.997 313.338 210.021 313.412C210.045 313.486 210.053 313.565 210.044 313.642L206.856 344.903H246.512L243.319 313.642C243.311 313.564 243.319 313.486 243.344 313.412C243.368 313.338 243.408 313.269 243.46 313.212C243.513 313.154 243.577 313.108 243.648 313.076C243.72 313.045 243.797 313.029 243.875 313.029H252.465C252.605 313.029 252.74 313.082 252.843 313.178C252.945 313.273 253.007 313.404 253.016 313.544L263.007 445.901C263.012 445.978 263.001 446.055 262.975 446.128C262.95 446.2 262.91 446.267 262.858 446.324C262.802 446.376 262.735 446.417 262.663 446.443C262.59 446.468 262.513 446.479 262.436 446.473ZM257.862 445.361H261.833L251.93 314.116H244.477L247.665 345.377C247.673 345.455 247.665 345.533 247.64 345.607C247.616 345.681 247.576 345.75 247.524 345.807C247.471 345.865 247.407 345.911 247.336 345.943C247.264 345.974 247.187 345.99 247.109 345.99H206.248C206.17 345.99 206.093 345.973 206.022 345.941C205.951 345.909 205.888 345.863 205.836 345.804C205.782 345.748 205.742 345.681 205.718 345.607C205.694 345.533 205.687 345.454 205.697 345.377L208.875 314.116H201.418L191.514 445.371H195.485L205.059 351.511C205.069 351.37 205.132 351.239 205.235 351.144C205.339 351.048 205.474 350.995 205.615 350.996H247.737C247.878 350.995 248.013 351.048 248.115 351.144C248.217 351.24 248.279 351.371 248.288 351.511L257.862 445.361Z" fill="#252362"/>
<path d="M261.714 289.977C261.294 292.021 260.655 294.013 259.809 295.921C258.863 298.026 257.684 300.019 256.297 301.864L185.74 302.034H183.382L198.147 376.947C196.548 378.224 194.878 379.41 193.146 380.5C185.917 384.994 177.786 387.839 169.332 388.833C161.695 351.377 156.303 321.537 153.326 303.342C153.13 302.137 152.945 300.983 152.77 299.881C152.136 295.905 151.225 288.633 155.293 282.592C159.053 277.025 165.429 274.975 181.404 271.968C190.674 270.222 203.034 268.187 217.779 266.565C217.102 265.458 216.382 264.377 215.621 263.326C212.766 259.385 209.368 255.869 205.527 252.881C211.782 249.859 218.389 247.629 225.195 246.243C229.753 245.347 241.33 243.503 246.192 242.772L246.836 242.669C248.051 245.172 249.159 247.551 250.168 249.781C252.094 254.04 253.655 257.769 254.87 260.802C255.416 262.157 255.9 263.449 256.415 264.68C256.415 264.68 257.023 266.277 257.548 267.709C260.71 276.469 263.069 282.948 261.714 289.977Z" fill="#252362"/>
<path d="M169.055 389.23L168.988 388.911C159.749 343.59 154.717 314.028 152.981 303.419V303.373C152.817 302.37 152.66 301.402 152.513 300.468L152.425 299.953C151.606 294.803 151.153 288.108 155 282.412C158.847 276.716 165.223 274.687 181.338 271.638C193.217 269.411 205.175 267.628 217.188 266.292C216.6 265.36 215.977 264.438 215.339 263.547C212.501 259.637 209.127 256.145 205.317 253.175L204.869 252.825L205.384 252.578C211.667 249.554 218.299 247.316 225.129 245.913C229.646 245.028 241.213 243.179 246.146 242.437L247.043 242.298L247.156 242.535C248.299 244.888 249.422 247.283 250.493 249.652L250.524 249.724C252.161 253.346 253.722 257.002 255.205 260.689C255.684 261.884 256.168 263.12 256.75 264.572C256.75 264.572 257.368 266.189 257.883 267.605C261.123 276.505 263.461 282.932 262.086 290.06C261.658 292.134 261.009 294.155 260.149 296.091C259.191 298.219 257.999 300.235 256.596 302.101L256.488 302.24L183.81 302.42L198.524 377.101L198.354 377.23C196.746 378.526 195.066 379.73 193.322 380.835C186.054 385.367 177.872 388.23 169.364 389.22L169.055 389.23ZM153.677 303.326C155.412 313.915 160.423 343.343 169.611 388.452C177.903 387.444 185.874 384.632 192.962 380.212C194.621 379.168 196.222 378.033 197.756 376.813L182.95 301.694H185.736L256.132 301.524C257.463 299.74 258.594 297.817 259.506 295.787C260.331 293.9 260.95 291.93 261.355 289.91C262.688 282.973 260.376 276.623 257.178 267.832C256.663 266.421 256.055 264.824 256.05 264.809C255.494 263.362 255.02 262.131 254.505 260.936C253.037 257.285 251.456 253.582 249.803 249.93L249.772 249.858C248.742 247.597 247.681 245.311 246.589 243.06L246.203 243.122C241.274 243.858 229.723 245.697 225.222 246.588C218.638 247.941 212.24 250.08 206.166 252.959C209.857 255.894 213.133 259.315 215.905 263.13C216.662 264.16 217.394 265.283 218.073 266.395L218.367 266.869L217.811 266.931C205.615 268.27 193.389 270.083 181.461 272.328C165.558 275.32 159.259 277.355 155.577 282.803C151.895 288.252 152.312 294.793 153.115 299.84L153.198 300.355C153.345 301.292 153.503 302.266 153.672 303.275L153.677 303.326ZM181.755 152.249C181.755 152.249 174.323 141.815 178.031 136.469C179.242 134.718 181.168 134.177 182.198 133.863C189.526 131.659 200.151 137.231 200.563 143.792C200.728 146.393 199.301 149.262 197.246 150.946C195.591 152.232 193.59 152.994 191.499 153.135C190.922 153.135 190.634 153.099 189.846 153.135C188.322 153.241 186.828 153.607 185.427 154.216L181.755 152.249Z" fill="#252362"/>
<path d="M185.417 154.463L181.6 152.403L181.569 152.357C181.266 151.929 174.086 141.737 177.841 136.32C179.072 134.548 181.008 133.966 182.054 133.652H182.131C186.194 132.431 191.705 133.544 195.856 136.428C198.827 138.488 200.625 141.176 200.795 143.782C200.965 146.388 199.59 149.324 197.391 151.126C195.701 152.449 193.651 153.23 191.509 153.366H189.856C188.359 153.472 186.89 153.833 185.514 154.432L185.417 154.463ZM181.909 152.053L185.442 153.959C186.837 153.367 188.319 153.01 189.83 152.903C190.185 152.883 190.541 152.883 190.896 152.903H191.494C193.533 152.761 195.485 152.017 197.102 150.766C199.193 149.051 200.496 146.254 200.336 143.803C200.177 141.351 198.451 138.776 195.593 136.793C191.555 133.981 186.199 132.895 182.265 134.079H182.182C181.152 134.399 179.355 134.929 178.217 136.572C174.761 141.588 181.405 151.342 181.909 152.074V152.053Z" fill="#252362"/>
<path d="M180.169 149.705C180.169 149.705 189.918 145.729 194.893 152.331C199.868 158.934 179.159 153.866 180.169 149.705Z" fill="#ED744F"/>
<path d="M173.056 165.083C173.056 165.083 166.69 151.178 184.082 150.106C201.474 149.035 200.635 169.965 195.752 171.423C190.87 172.88 173.056 165.083 173.056 165.083Z" fill="#252362"/>
<path d="M194.244 171.829C187.991 171.829 173.643 165.582 172.969 165.294L172.886 165.258L172.85 165.181C172.742 164.944 170.244 159.366 172.902 154.942C174.709 151.924 178.469 150.22 184.072 149.88C195.747 149.169 198.266 158.213 198.755 160.999C199.631 165.938 198.24 170.913 195.819 171.639C195.306 171.776 194.775 171.84 194.244 171.829ZM173.231 164.913C174.544 165.479 191.112 172.571 195.691 171.206C197.885 170.547 199.131 165.721 198.312 161.076C197.833 158.383 195.402 149.648 184.098 150.333C178.659 150.668 175.023 152.295 173.283 155.174C170.924 159.098 172.938 164.248 173.231 164.913Z" fill="#252362"/>
<path d="M172.309 160.128C174.251 156.199 177.975 153.758 181.621 154.056C186.822 154.489 189.562 160.35 190.082 163.883C190.181 164.601 190.214 165.327 190.18 166.051L190.355 166.113C192.261 163.754 194.645 162.976 195.82 163.744C196.994 164.511 196.778 166.679 196.757 166.963C196.659 168.199 195.902 169.538 193.93 171.268L198.791 187.558C199.19 188.883 199.199 190.296 198.817 191.626C198.729 191.94 198.626 192.244 198.523 192.528C196.103 199.032 186.75 198.646 184.768 192.013L181.348 180.548C180.407 180.844 179.408 180.906 178.438 180.729C174.03 179.786 170.198 171.459 172.309 160.128Z" fill="white"/>
<path d="M191.787 197.652H191.519C189.884 197.62 188.303 197.065 187.006 196.07C185.708 195.075 184.763 193.691 184.309 192.121L181.013 181.084C180.14 181.303 179.23 181.333 178.345 181.172C173.499 180.142 169.724 171.417 171.835 160.03C171.844 159.988 171.858 159.946 171.876 159.907C173.906 155.787 177.83 153.263 181.662 153.577C187.105 154.031 190 160.087 190.54 163.8C190.602 164.22 190.64 164.643 190.654 165.067C192.482 163.229 194.743 162.466 196.072 163.337C197.261 164.12 197.302 165.938 197.22 166.942C197.107 168.394 196.231 169.805 194.465 171.386L199.239 187.424C199.66 188.836 199.669 190.338 199.265 191.755C199.172 192.074 199.069 192.388 198.956 192.692C198.421 194.16 197.445 195.425 196.161 196.313C194.876 197.202 193.348 197.669 191.787 197.652ZM181.348 180.054C181.448 180.054 181.546 180.087 181.627 180.147C181.708 180.208 181.767 180.292 181.796 180.389L185.21 191.848C185.614 193.225 186.446 194.437 187.587 195.309C188.727 196.18 190.115 196.665 191.55 196.694C192.964 196.768 194.364 196.383 195.541 195.597C196.719 194.811 197.611 193.666 198.085 192.332C198.188 192.054 198.286 191.76 198.369 191.461C198.728 190.217 198.719 188.895 198.343 187.656L193.486 171.361C193.46 171.275 193.46 171.184 193.484 171.098C193.509 171.012 193.558 170.935 193.625 170.877C195.351 169.388 196.2 168.116 196.293 166.89C196.401 165.5 196.133 164.47 195.567 164.099C194.614 163.476 192.436 164.238 190.716 166.37C190.655 166.444 190.573 166.497 190.481 166.523C190.389 166.549 190.291 166.546 190.2 166.514L190.031 166.453C189.938 166.418 189.859 166.355 189.804 166.273C189.75 166.19 189.723 166.093 189.727 165.994C189.759 165.306 189.726 164.616 189.629 163.934C189.114 160.504 186.503 154.911 181.595 154.504C178.165 154.221 174.632 156.534 172.767 160.262C170.81 170.928 174.24 179.354 178.561 180.26C179.453 180.41 180.367 180.347 181.229 180.075C181.267 180.061 181.307 180.054 181.348 180.054Z" fill="#252362"/>
<path d="M181.348 180.523L182.048 182.871C184.234 181.447 185.91 179.363 186.832 176.923C185.38 178.615 183.478 179.863 181.348 180.523Z" fill="#252362"/>
<path d="M181.92 183.232L181.065 180.368L181.286 180.301C183.379 179.658 185.248 178.437 186.678 176.779L187.476 175.846L187.064 177C186.119 179.483 184.414 181.605 182.192 183.062L181.92 183.232ZM181.631 180.657L182.177 182.49C183.842 181.333 185.197 179.783 186.122 177.979C184.842 179.196 183.308 180.116 181.631 180.672V180.657ZM177.377 170.48C177.302 170.481 177.228 170.455 177.169 170.409C177.11 170.362 177.069 170.296 177.053 170.222C176.513 168.007 176.824 165.669 177.923 163.672C177.946 163.634 177.977 163.601 178.013 163.575C178.048 163.549 178.089 163.531 178.132 163.521C178.175 163.511 178.22 163.509 178.264 163.517C178.307 163.524 178.349 163.54 178.387 163.563C178.461 163.612 178.513 163.687 178.533 163.774C178.553 163.86 178.54 163.951 178.495 164.027C177.496 165.874 177.208 168.023 177.686 170.068C177.706 170.154 177.692 170.245 177.645 170.32C177.599 170.395 177.525 170.449 177.439 170.47L177.377 170.48ZM176.574 154.741C180.56 156.441 182.192 158.537 182.939 160.19C183.614 161.689 183.64 162.997 184.958 164.568C186.369 166.247 187.77 166.381 188.826 167.205C190.371 168.42 191.571 171.407 189.804 179.235C190.834 176.712 192.781 170.82 191.082 164.042C190.162 160.674 188.463 157.569 186.122 154.978C184.433 153.135 183.259 152.697 182.321 152.542C179.432 152.058 177.048 154.283 176.574 154.741Z" fill="#252362"/>
<path d="M190.015 179.323L189.583 179.184C190.994 172.921 190.69 168.95 188.687 167.385C188.308 167.112 187.903 166.879 187.476 166.69C186.438 166.248 185.516 165.571 184.783 164.712C184.057 163.826 183.53 162.796 183.238 161.689C183.092 161.211 182.92 160.742 182.723 160.283C181.734 158.094 179.633 156.297 176.476 154.953L176.162 154.813L176.404 154.577C177.264 153.742 179.571 151.852 182.352 152.311C183.305 152.47 184.52 152.892 186.282 154.819C188.642 157.443 190.357 160.582 191.293 163.986C192.858 170.176 191.457 175.743 190.015 179.323ZM176.986 154.669C180.076 156.049 182.136 157.873 183.166 160.097C183.367 160.571 183.539 161.056 183.681 161.55C183.949 162.6 184.443 163.579 185.128 164.418C185.832 165.229 186.713 165.867 187.703 166.283C188.157 166.483 188.589 166.732 188.99 167.024C190.793 168.43 191.344 171.392 190.664 176.042C191.762 172.146 191.839 168.033 190.886 164.099C189.974 160.767 188.295 157.695 185.983 155.128C184.314 153.304 183.191 152.908 182.311 152.759C179.911 152.367 177.846 153.907 176.986 154.669Z" fill="#252362"/>
<path d="M67.4072 248.741H184.819V257.383H67.4072V248.741Z" fill="white"/>
<path d="M184.819 257.805H67.3972C67.286 257.804 67.1799 257.758 67.1018 257.679C67.0238 257.6 66.98 257.494 66.98 257.383V248.741C66.98 248.63 67.0238 248.523 67.1018 248.444C67.1799 248.365 67.286 248.32 67.3972 248.318H184.819C184.931 248.318 185.038 248.363 185.118 248.442C185.197 248.521 185.241 248.629 185.241 248.741V257.383C185.241 257.495 185.197 257.602 185.118 257.681C185.038 257.76 184.931 257.805 184.819 257.805ZM67.8246 256.95H184.402V249.158H67.8246V256.95Z" fill="#252362"/>
<path d="M254.87 313.57H199.404C197.876 313.57 196.41 312.963 195.329 311.882C194.248 310.801 193.641 309.335 193.641 307.807C193.641 306.279 194.248 304.813 195.329 303.732C196.41 302.651 197.876 302.044 199.404 302.044H254.87C256.399 302.044 257.865 302.651 258.945 303.732C260.026 304.813 260.633 306.279 260.633 307.807C260.633 309.335 260.026 310.801 258.945 311.882C257.865 312.963 256.399 313.57 254.87 313.57Z" fill="#F07258"/>
<path d="M257.105 314.245H197.169C196.055 314.242 194.988 313.798 194.202 313.01C193.415 312.223 192.973 311.155 192.971 310.042V305.572C192.973 304.459 193.415 303.391 194.202 302.604C194.988 301.816 196.055 301.372 197.169 301.369H257.105C258.219 301.371 259.287 301.814 260.075 302.602C260.863 303.39 261.306 304.458 261.308 305.572V310.042C261.306 311.156 260.863 312.224 260.075 313.012C259.287 313.8 258.219 314.243 257.105 314.245ZM197.169 302.719C196.412 302.72 195.687 303.021 195.153 303.556C194.618 304.091 194.317 304.816 194.315 305.572V310.042C194.317 310.798 194.618 311.523 195.153 312.058C195.687 312.593 196.412 312.894 197.169 312.895H257.105C257.861 312.894 258.586 312.593 259.121 312.058C259.656 311.523 259.957 310.798 259.958 310.042V305.572C259.958 304.815 259.658 304.089 259.123 303.554C258.588 303.019 257.862 302.719 257.105 302.719H197.169Z" fill="#252362"/>
<path d="M205.527 252.881C191.833 239.028 181.752 222.022 176.172 203.358C180.591 196.812 190.206 184.612 201.201 185.534C205.079 185.858 210.677 187.944 228.934 215.064C235.012 224.092 240.767 233.334 246.187 242.772L205.527 252.881Z" fill="#77CBD8"/>
<path d="M205.527 253.685C205.312 253.683 205.107 253.596 204.956 253.443C191.177 239.492 181.032 222.374 175.41 203.59C175.375 203.476 175.366 203.356 175.384 203.238C175.402 203.121 175.446 203.008 175.513 202.91C180.364 195.7 190.16 183.798 201.263 184.735C205.672 185.101 211.486 187.712 229.589 214.606C235.678 223.65 241.443 232.909 246.872 242.365C246.934 242.473 246.97 242.594 246.976 242.719C246.983 242.843 246.96 242.967 246.91 243.082C246.86 243.196 246.784 243.297 246.688 243.376C246.592 243.455 246.479 243.511 246.357 243.539L205.733 253.659C205.666 253.676 205.597 253.685 205.527 253.685ZM177.053 203.492C182.577 221.74 192.433 238.381 205.78 251.996L244.967 242.252C239.765 233.239 234.152 224.226 228.275 215.512C210.564 189.201 204.981 186.672 201.139 186.332C190.989 185.477 181.775 196.57 177.053 203.492ZM142.861 242.076V248.741H78.7529L48.6353 191.101L54.6506 188.773H54.9802L82.7134 242.076H142.861Z" fill="#252362"/>
<path d="M143.211 249.091H78.5261L48.1406 190.895L54.5834 188.397H55.1962L55.2941 188.588L82.9294 241.706H143.211V249.091ZM78.9639 248.385H142.506V242.432H82.502L82.399 242.241L54.7688 189.123H54.7173L49.1294 191.292L78.9639 248.385Z" fill="#252362"/>
<path d="M168.9 389.446L168.797 388.931C159.563 343.61 154.526 314.054 152.791 303.44V303.373C152.626 302.374 152.469 301.411 152.322 300.484L152.239 299.969C151.41 294.762 150.957 288.051 154.845 282.288C158.734 276.525 165.146 274.481 181.307 271.437C193.09 269.226 204.952 267.453 216.868 266.122C216.353 265.278 215.766 264.448 215.184 263.645C212.363 259.749 209.009 256.27 205.218 253.309L204.523 252.768L205.321 252.387C211.62 249.353 218.267 247.105 225.113 245.692C229.63 244.806 241.202 242.957 246.136 242.216L247.166 242.056L247.341 242.416C248.484 244.775 249.607 247.17 250.678 249.539L250.724 249.652C252.367 253.257 253.933 256.955 255.39 260.586C255.875 261.786 256.359 263.017 256.935 264.474C256.935 264.474 257.553 266.091 258.068 267.513C261.318 276.438 263.661 282.886 262.281 290.065C261.85 292.155 261.194 294.193 260.324 296.142C259.35 298.285 258.141 300.313 256.719 302.188L256.56 302.405L184.015 302.585L198.719 377.179L198.461 377.385C196.843 378.676 195.157 379.88 193.409 380.99C186.116 385.532 177.908 388.404 169.374 389.4L168.9 389.446ZM153.872 303.301C155.602 313.889 160.603 343.245 169.765 388.226C177.965 387.202 185.845 384.408 192.858 380.037C194.479 379.017 196.044 377.91 197.545 376.72L182.718 301.503H185.736L256.039 301.328C257.333 299.578 258.437 297.694 259.33 295.709C260.151 293.839 260.771 291.886 261.179 289.885C262.508 282.999 260.201 276.67 257.013 267.909C256.498 266.498 255.89 264.907 255.885 264.886C255.329 263.439 254.855 262.213 254.34 261.019C252.872 257.367 251.296 253.664 249.648 250.018L249.597 249.91C248.597 247.706 247.537 245.476 246.507 243.282L246.254 243.323C241.331 244.059 229.774 245.898 225.283 246.789C218.811 248.113 212.52 250.203 206.542 253.015C210.137 255.915 213.332 259.278 216.044 263.017C216.806 264.078 217.542 265.18 218.222 266.292L218.67 267.024L217.821 267.121C205.625 268.46 193.399 270.273 181.482 272.514C165.635 275.501 159.336 277.519 155.731 282.912C152.126 288.304 152.502 294.798 153.295 299.809L153.383 300.324C153.53 301.261 153.687 302.231 153.851 303.234L153.872 303.301Z" fill="white"/>
<path d="M198.096 244.914H198.065V244.549L198.008 244.214C215.199 241.371 230.861 234.145 238.694 230.092L239.019 230.715C231.175 234.789 215.436 242.046 198.147 244.909L198.096 244.914ZM189.856 233.383L189.624 232.714C203.375 228.012 220.164 219.607 228.95 215.013L229.275 215.636C220.473 220.24 203.674 228.666 189.856 233.383ZM182.95 220.853L182.651 220.214C195.928 213.926 209.606 203.569 216.574 197.956L217.017 198.507C210.024 204.141 196.299 214.534 182.95 220.853Z" fill="#252362"/>
<path d="M201.752 210.939L201.613 211.428L182.619 234.908L171.135 249.101H116.812C112.11 250.075 104.879 249.065 104.879 249.065C104.879 249.065 95.6963 249.843 92.7402 248.612C89.784 247.381 91.7102 245.651 91.7102 245.651C89.1351 244.492 91.36 242.633 91.36 242.633C91.2206 242.478 91.1141 242.296 91.0468 242.099C90.9795 241.901 90.9529 241.692 90.9686 241.484C91.087 240.743 91.9986 240.099 93.2191 240.212C92.6372 239.986 91.9625 239.651 91.9574 239.234C91.9574 238.538 93.8372 237.962 96.0362 237.416C100.996 236.18 103.473 235.557 105.626 235.629C108.632 235.752 111.569 236.57 114.206 238.018C114.206 237.987 114.206 237.962 114.231 237.936L161.056 232.533L168.323 222.115L185.184 197.956C189.778 193.408 196.082 192.893 200.222 195.113C203.158 199.305 203.034 206.17 201.752 210.939Z" fill="white"/>
<path d="M111.724 250.085C109.432 250.072 107.142 249.919 104.869 249.627C103.983 249.699 95.4753 250.353 92.5088 249.112C91.3397 248.627 90.6754 247.978 90.5415 247.191C90.47 246.707 90.5781 246.214 90.8454 245.805C90.5992 245.658 90.3878 245.46 90.226 245.223C90.0642 244.987 89.9557 244.718 89.908 244.435C89.8878 244.088 89.9406 243.74 90.063 243.415C90.1854 243.089 90.3747 242.793 90.6187 242.545C90.4141 242.192 90.3343 241.78 90.3921 241.376C90.4623 241.046 90.6127 240.737 90.8301 240.479C91.0474 240.22 91.325 240.019 91.6385 239.893C91.4733 239.709 91.3801 239.471 91.3758 239.223C91.3758 238.193 92.8848 237.606 95.8718 236.859H95.9697C100.919 235.629 103.406 235.005 105.616 235.078C108.603 235.194 111.526 235.984 114.165 237.39L160.717 232.018L167.844 221.806L176.378 209.605L184.726 197.636L184.793 197.559C189.907 192.502 196.51 192.492 200.485 194.619C200.56 194.661 200.625 194.719 200.676 194.788C203.679 199.048 203.653 206.041 202.293 211.083C202.252 211.253 202.2 211.423 202.154 211.598C202.133 211.67 202.098 211.736 202.051 211.794L171.573 249.467C171.52 249.53 171.454 249.582 171.379 249.617C171.305 249.653 171.223 249.672 171.14 249.673H116.869C115.171 249.976 113.448 250.114 111.724 250.085ZM104.879 248.509H104.957C105.029 248.509 112.167 249.493 116.699 248.55C116.736 248.545 116.774 248.545 116.812 248.55H170.888L201.098 211.166C201.134 211.042 201.17 210.924 201.201 210.8C202.484 206.052 202.546 199.521 199.826 195.546C196.221 193.671 190.252 193.743 185.597 198.321L177.274 210.249L168.776 222.444L161.504 232.863C161.461 232.929 161.404 232.984 161.336 233.024C161.268 233.065 161.192 233.089 161.113 233.095L114.536 238.461C114.493 238.493 114.446 238.519 114.397 238.538C114.323 238.567 114.243 238.578 114.164 238.573C114.085 238.568 114.008 238.545 113.938 238.508C111.377 237.096 108.522 236.3 105.6 236.185C103.54 236.113 101.104 236.7 96.2581 237.931L96.1654 237.956C93.5903 238.595 92.7612 238.986 92.5603 239.229C92.8179 239.438 93.1134 239.595 93.4307 239.692C93.5548 239.741 93.657 239.833 93.7187 239.952C93.7805 240.07 93.7976 240.207 93.767 240.337C93.7364 240.466 93.6601 240.581 93.552 240.659C93.444 240.738 93.3113 240.775 93.1783 240.763C92.2153 240.676 91.587 241.186 91.5252 241.572C91.5246 241.831 91.6221 242.081 91.7981 242.272C91.8923 242.386 91.9376 242.532 91.924 242.679C91.9105 242.825 91.8393 242.961 91.726 243.055C91.5303 243.225 90.9792 243.817 91.0462 244.301C91.1028 244.682 91.5612 244.971 91.9526 245.141C92.0363 245.18 92.1091 245.239 92.1646 245.312C92.2201 245.386 92.2566 245.472 92.2709 245.563C92.2851 245.654 92.2767 245.748 92.2463 245.835C92.216 245.922 92.1646 246 92.0968 246.063C91.9638 246.184 91.8575 246.332 91.7848 246.497C91.7121 246.662 91.6745 246.84 91.6745 247.021C91.7415 247.397 92.1895 247.778 92.9723 248.097C95.7688 249.261 104.761 248.519 104.848 248.514L104.879 248.509Z" fill="#252362"/>
<path d="M93.2143 240.768C93.0721 240.772 92.9341 240.721 92.8285 240.625C92.7229 240.53 92.6578 240.398 92.6466 240.256C92.6354 240.114 92.6789 239.974 92.7682 239.863C92.8575 239.752 92.9858 239.68 93.1267 239.661L101.763 238.245C101.836 238.233 101.91 238.236 101.981 238.252C102.053 238.269 102.12 238.3 102.179 238.343C102.239 238.385 102.29 238.439 102.328 238.502C102.367 238.564 102.393 238.633 102.405 238.706C102.416 238.778 102.414 238.852 102.397 238.924C102.38 238.995 102.35 239.062 102.307 239.122C102.264 239.181 102.21 239.232 102.148 239.271C102.085 239.309 102.016 239.335 101.944 239.347L93.307 240.758L93.2143 240.768ZM91.35 243.189C91.2024 243.198 91.0574 243.148 90.9469 243.05C90.8363 242.952 90.7692 242.814 90.7603 242.666C90.7514 242.519 90.8015 242.374 90.8995 242.263C90.9976 242.153 91.1355 242.085 91.283 242.077L101.315 240.841C101.388 240.832 101.462 240.837 101.532 240.857C101.603 240.877 101.669 240.91 101.726 240.955C101.784 241.001 101.832 241.057 101.868 241.12C101.904 241.184 101.927 241.254 101.936 241.327C101.945 241.4 101.939 241.474 101.919 241.544C101.9 241.615 101.866 241.681 101.821 241.738C101.776 241.796 101.72 241.844 101.656 241.88C101.592 241.916 101.522 241.939 101.449 241.948L91.4015 243.184L91.35 243.189ZM91.7053 246.207C91.5654 246.204 91.4318 246.148 91.3312 246.051C91.2306 245.953 91.1704 245.822 91.1626 245.682C91.1548 245.542 91.2 245.405 91.2891 245.297C91.3783 245.189 91.5048 245.118 91.6435 245.1L100.327 244.167C100.467 244.164 100.604 244.214 100.709 244.307C100.815 244.4 100.882 244.529 100.897 244.669C100.912 244.809 100.874 244.95 100.79 245.063C100.706 245.176 100.583 245.253 100.445 245.28L91.762 246.207H91.7053Z" fill="#252362"/>
<path d="M201.752 210.939L201.613 211.428C200.939 213.715 199.903 215.61 197.055 219.941C194.264 224.19 190.206 230.046 184.793 236.854L182.62 234.908L168.318 222.115L164.646 218.839C166.191 216.022 180.096 191.297 192.771 191.503C194.695 191.445 196.589 191.984 198.194 193.048C198.979 193.616 199.663 194.312 200.218 195.108C203.158 199.305 203.035 206.17 201.752 210.939Z" fill="#77CBD8"/>
<path d="M184.793 237.658C184.603 237.652 184.42 237.579 184.278 237.452L183.542 236.792L182.105 235.5C178.569 232.345 175.032 229.181 171.496 226.008L164.131 219.421C163.996 219.3 163.906 219.137 163.876 218.958C163.846 218.78 163.878 218.596 163.966 218.438C166.541 213.803 179.932 190.684 192.632 190.684H192.802C194.89 190.637 196.943 191.235 198.678 192.399C199.537 193.02 200.285 193.781 200.892 194.649C203.941 198.97 203.921 206.047 202.546 211.13C202.499 211.305 202.453 211.475 202.401 211.645C201.706 213.993 200.707 215.868 197.766 220.369C194.017 226.08 189.876 231.792 185.463 237.364C185.394 237.449 185.308 237.519 185.212 237.57C185.116 237.621 185.01 237.653 184.901 237.663L184.793 237.658ZM165.661 218.654L172.541 224.834L183.15 234.29C183.635 234.717 184.113 235.15 184.587 235.577L184.695 235.67C188.882 230.365 192.817 224.922 196.386 219.483C199.244 215.136 200.202 213.349 200.846 211.181C200.892 211.032 200.934 210.877 200.975 210.718C202.252 205.98 202.309 199.454 199.564 195.556C199.06 194.834 198.439 194.202 197.725 193.686C196.255 192.712 194.518 192.217 192.755 192.27H192.611C181.132 192.285 168.21 214.132 165.661 218.654Z" fill="#252362"/>
<path d="M198.739 217.248C191.4 211.624 183.773 204.409 178.654 199.341L179.169 198.826C184.262 203.878 191.864 211.073 199.177 216.676L198.739 217.248ZM189.768 230.262C182.347 222.805 174.951 215.085 170.058 209.925L170.573 209.435C175.466 214.585 182.856 222.31 190.273 229.763L189.768 230.262ZM164.471 239.265C164.391 239.265 164.312 239.243 164.244 239.201C164.176 239.159 164.121 239.099 164.084 239.028L160.845 232.544C160.794 232.442 160.786 232.324 160.823 232.217C160.859 232.109 160.936 232.02 161.038 231.969C161.14 231.919 161.258 231.911 161.365 231.947C161.473 231.983 161.562 232.061 161.612 232.163L164.852 238.641C164.877 238.692 164.893 238.747 164.897 238.803C164.901 238.859 164.895 238.916 164.877 238.97C164.859 239.023 164.831 239.073 164.794 239.115C164.757 239.158 164.712 239.193 164.661 239.218C164.602 239.248 164.537 239.264 164.471 239.265Z" fill="#252362"/>
<path d="M176.991 206.407C176.884 206.408 176.78 206.367 176.702 206.294C176.622 206.213 176.578 206.104 176.578 205.99C176.578 205.876 176.622 205.767 176.702 205.686C180.308 201.757 184.274 198.174 188.547 194.984C188.64 194.916 188.757 194.887 188.871 194.905C188.985 194.922 189.087 194.984 189.155 195.077C189.223 195.17 189.252 195.286 189.235 195.4C189.217 195.514 189.155 195.616 189.062 195.685C184.833 198.838 180.909 202.381 177.341 206.268C177.297 206.316 177.242 206.354 177.182 206.378C177.121 206.402 177.056 206.412 176.991 206.407ZM234.342 229.541C234.27 229.54 234.199 229.522 234.136 229.487C234.073 229.451 234.02 229.401 233.981 229.34L227.498 219.256C227.436 219.161 227.415 219.045 227.439 218.934C227.463 218.823 227.531 218.726 227.626 218.664C227.722 218.603 227.838 218.582 227.949 218.606C228.06 218.63 228.157 218.697 228.219 218.793L234.703 228.877C234.733 228.924 234.754 228.977 234.764 229.032C234.774 229.088 234.773 229.145 234.761 229.2C234.749 229.255 234.727 229.307 234.694 229.353C234.662 229.399 234.621 229.439 234.574 229.469C234.505 229.514 234.425 229.539 234.342 229.541ZM237.581 235.32C237.508 235.319 237.435 235.299 237.371 235.262C237.307 235.225 237.254 235.172 237.216 235.108L236.134 233.311C236.105 233.263 236.086 233.209 236.078 233.153C236.069 233.097 236.072 233.041 236.086 232.986C236.099 232.931 236.123 232.879 236.157 232.834C236.191 232.789 236.233 232.75 236.281 232.721C236.329 232.692 236.383 232.673 236.439 232.665C236.495 232.656 236.552 232.659 236.606 232.673C236.661 232.686 236.713 232.711 236.758 232.744C236.803 232.778 236.842 232.82 236.871 232.868L237.952 234.671C237.981 234.719 238 234.773 238.008 234.828C238.016 234.884 238.013 234.941 238 234.995C237.986 235.05 237.961 235.101 237.927 235.146C237.894 235.191 237.851 235.229 237.803 235.258C237.736 235.298 237.66 235.32 237.581 235.32ZM192.961 194.897H190.937C190.823 194.895 190.715 194.849 190.635 194.768C190.555 194.687 190.51 194.578 190.51 194.464C190.51 194.351 190.555 194.242 190.635 194.162C190.715 194.082 190.824 194.036 190.937 194.036H192.961C193.074 194.036 193.183 194.082 193.263 194.162C193.344 194.242 193.389 194.351 193.389 194.464C193.389 194.578 193.344 194.687 193.264 194.768C193.184 194.849 193.075 194.895 192.961 194.897ZM205.888 248.988C205.828 248.988 205.769 248.976 205.714 248.952C205.659 248.928 205.609 248.893 205.569 248.849C202.339 245.244 195.716 234.475 195.438 234.017C195.379 233.92 195.36 233.803 195.387 233.692C195.414 233.582 195.483 233.486 195.58 233.427C195.677 233.367 195.793 233.349 195.904 233.376C196.015 233.402 196.11 233.472 196.17 233.569C196.237 233.682 203.03 244.739 206.207 248.272C206.283 248.357 206.322 248.468 206.317 248.582C206.311 248.696 206.26 248.803 206.176 248.88C206.096 248.95 205.994 248.988 205.888 248.988ZM194.496 232.193C194.44 232.193 194.385 232.183 194.334 232.161C194.283 232.14 194.236 232.109 194.197 232.07L192.982 230.854C192.942 230.815 192.91 230.768 192.888 230.716C192.867 230.664 192.855 230.609 192.855 230.552C192.855 230.496 192.866 230.441 192.887 230.389C192.908 230.337 192.94 230.289 192.979 230.249C193.019 230.209 193.066 230.178 193.118 230.156C193.169 230.134 193.225 230.123 193.281 230.123C193.337 230.122 193.393 230.133 193.445 230.155C193.497 230.176 193.544 230.207 193.584 230.247L194.8 231.462C194.86 231.522 194.901 231.598 194.918 231.682C194.935 231.765 194.926 231.852 194.894 231.93C194.861 232.009 194.806 232.076 194.735 232.122C194.664 232.169 194.581 232.194 194.496 232.193Z" fill="#252362"/>
<path d="M184.298 383.24C178.829 365.385 169.167 331.528 165.913 305.361C165.485 301.967 164.847 296.832 167.798 292.388C171.82 286.341 179.735 285.615 198.858 283.869C203.261 283.468 208.246 283.009 213.937 282.422C230.804 280.682 238.379 279.44 240.136 274.846C240.697 273.384 240.594 271.834 237.246 262.255C235.224 256.45 233.066 250.694 230.773 244.991L231.803 244.585C234.074 250.25 236.258 256.069 238.292 261.894C241.624 271.447 241.897 273.322 241.166 275.238C239.193 280.388 231.38 281.717 214.066 283.509C208.37 284.096 203.379 284.539 198.971 284.951C180.214 286.666 172.453 287.377 168.719 292.99C165.995 297.11 166.603 301.987 167.004 305.227C170.259 331.322 179.88 365.112 185.354 382.931L184.298 383.24ZM259.345 282.669C257.079 282.669 253.83 282.113 251.734 279.322C248.479 274.975 244.261 260.663 244.086 260.04L243.931 259.525L252.022 257.213L252.321 258.243L245.286 260.251C246.089 262.909 249.802 274.903 252.604 278.642C255.591 282.623 261.606 281.351 261.668 281.341L261.9 282.402C261.06 282.578 260.204 282.668 259.345 282.669Z" fill="white"/>
<path d="M238.797 267.013C230.042 266.498 224.155 261.539 220.771 257.486C218.558 254.861 216.768 251.907 215.467 248.73L216.497 248.349C216.559 248.514 222.852 264.938 238.879 265.906L238.797 267.013ZM226.225 298.789C219.077 298.789 209.884 298.635 209.302 298.624V297.538C209.519 297.538 230.933 297.893 234.084 297.538L234.208 298.619C233.111 298.748 229.939 298.789 226.225 298.789ZM237.401 297.538H241.001V298.624H237.401V297.538Z" fill="white"/>
<path d="M165.558 350.056L166.622 349.836L170.944 370.725L169.88 370.945L165.558 350.056Z" fill="white"/>
<path d="M164.13 343.669L165.151 343.297L166.592 347.261L165.571 347.633L164.13 343.669Z" fill="white"/>
<path d="M78.7524 257.202H84.1549V445.927H78.7524V257.202Z" fill="white"/>
<path d="M84.1553 446.349H78.7529C78.6974 446.349 78.6425 446.338 78.5913 446.317C78.54 446.296 78.4935 446.265 78.4543 446.226C78.415 446.186 78.3839 446.14 78.3627 446.089C78.3415 446.037 78.3306 445.982 78.3306 445.927V257.202C78.3319 257.091 78.377 256.985 78.4561 256.907C78.5351 256.829 78.6418 256.785 78.7529 256.785H84.1553C84.2659 256.785 84.372 256.829 84.4503 256.907C84.5285 256.986 84.5725 257.092 84.5725 257.202V445.927C84.5725 446.038 84.5287 446.145 84.4506 446.224C84.3725 446.303 84.2664 446.348 84.1553 446.349ZM79.17 445.51H83.733V257.625H79.17V445.51Z" fill="#252362"/>
</svg>
